%TF.GenerationSoftware,KiCad,Pcbnew,5.1.9-73d0e3b20d~88~ubuntu20.04.1*%
%TF.CreationDate,2021-06-05T19:42:07+02:00*%
%TF.ProjectId,andy,616e6479-2e6b-4696-9361-645f70636258,v1.00*%
%TF.SameCoordinates,Original*%
%TF.FileFunction,Soldermask,Bot*%
%TF.FilePolarity,Negative*%
%FSLAX46Y46*%
G04 Gerber Fmt 4.6, Leading zero omitted, Abs format (unit mm)*
G04 Created by KiCad (PCBNEW 5.1.9-73d0e3b20d~88~ubuntu20.04.1) date 2021-06-05 19:42:07*
%MOMM*%
%LPD*%
G01*
G04 APERTURE LIST*
%ADD10C,1.700000*%
%ADD11C,1.381250*%
%ADD12C,1.725000*%
%ADD13C,1.381000*%
%ADD14C,2.500000*%
%ADD15O,2.500000X3.800000*%
%ADD16O,3.800000X2.500000*%
%ADD17O,3.100000X1.500000*%
%ADD18O,2.300000X1.500000*%
%ADD19O,1.700000X1.700000*%
%ADD20R,1.700000X1.700000*%
G04 APERTURE END LIST*
D10*
%TO.C,U1*%
X160160000Y-79680000D03*
X157620000Y-79680000D03*
X155080000Y-79680000D03*
X152540000Y-79680000D03*
X150000000Y-79680000D03*
X147460000Y-79680000D03*
X144920000Y-79680000D03*
X142380000Y-79680000D03*
X139840000Y-79680000D03*
X160160000Y-82220000D03*
X157620000Y-82220000D03*
X155080000Y-82220000D03*
X152540000Y-82220000D03*
X150000000Y-82220000D03*
X147460000Y-82220000D03*
X144920000Y-82220000D03*
X142380000Y-82220000D03*
X139840000Y-82220000D03*
X160160000Y-84760000D03*
X157620000Y-84760000D03*
X155080000Y-84760000D03*
X152540000Y-84760000D03*
X150000000Y-84760000D03*
X147460000Y-84760000D03*
X144920000Y-84760000D03*
X142380000Y-84760000D03*
X139840000Y-84760000D03*
X160160000Y-115240000D03*
X157620000Y-115240000D03*
X155080000Y-115240000D03*
X152540000Y-115240000D03*
X150000000Y-115240000D03*
X147460000Y-115240000D03*
X144920000Y-115240000D03*
X142380000Y-115240000D03*
X139840000Y-115240000D03*
X160160000Y-117780000D03*
X157620000Y-117780000D03*
X155080000Y-117780000D03*
X152540000Y-117780000D03*
X150000000Y-117780000D03*
X147460000Y-117780000D03*
X144920000Y-117780000D03*
X142380000Y-117780000D03*
X139840000Y-117780000D03*
X160160000Y-120320000D03*
X157620000Y-120320000D03*
X155080000Y-120320000D03*
X152540000Y-120320000D03*
X150000000Y-120320000D03*
X147460000Y-120320000D03*
X144920000Y-120320000D03*
X142380000Y-120320000D03*
X139840000Y-120320000D03*
%TD*%
D11*
%TO.C,U2*%
X192440000Y-86500000D03*
X192440000Y-83960000D03*
X192440000Y-81420000D03*
D12*
X195070000Y-86500000D03*
X195070000Y-81420000D03*
%TD*%
D13*
%TO.C,U3*%
X192490000Y-118540000D03*
X192490000Y-116000000D03*
X192490000Y-113460000D03*
D12*
X195110000Y-118540000D03*
X195110000Y-113460000D03*
%TD*%
D14*
%TO.C,J1*%
X178000000Y-84000000D03*
D15*
X172500000Y-84000000D03*
X183500000Y-84000000D03*
D16*
X178000000Y-78500000D03*
%TD*%
%TO.C,J2*%
X178000000Y-121500000D03*
D15*
X172500000Y-116000000D03*
X183500000Y-116000000D03*
D14*
X178000000Y-116000000D03*
%TD*%
D17*
%TO.C,J3*%
X194040000Y-107250000D03*
X194040000Y-92750000D03*
D18*
X200000000Y-107250000D03*
X200000000Y-92750000D03*
%TD*%
D19*
%TO.C,J4*%
X162700000Y-105000000D03*
X160160000Y-105000000D03*
X157620000Y-105000000D03*
X155080000Y-105000000D03*
X152540000Y-105000000D03*
X150000000Y-105000000D03*
X147460000Y-105000000D03*
X144920000Y-105000000D03*
X142380000Y-105000000D03*
D20*
X139840000Y-105000000D03*
%TD*%
%TO.C,J5*%
X139840000Y-95000000D03*
D19*
X142380000Y-95000000D03*
X144920000Y-95000000D03*
X147460000Y-95000000D03*
X150000000Y-95000000D03*
X152540000Y-95000000D03*
X155080000Y-95000000D03*
X157620000Y-95000000D03*
X160160000Y-95000000D03*
X162700000Y-95000000D03*
%TD*%
D20*
%TO.C,J6*%
X139840000Y-111930000D03*
D19*
X139840000Y-109390000D03*
X142380000Y-111930000D03*
X142380000Y-109390000D03*
X144920000Y-111930000D03*
X144920000Y-109390000D03*
%TD*%
M02*
