%TF.GenerationSoftware,KiCad,Pcbnew,5.1.9-73d0e3b20d~88~ubuntu20.04.1*%
%TF.CreationDate,2021-06-05T19:42:07+02:00*%
%TF.ProjectId,andy,616e6479-2e6b-4696-9361-645f70636258,v1.00*%
%TF.SameCoordinates,Original*%
%TF.FileFunction,Copper,L3,Inr*%
%TF.FilePolarity,Positive*%
%FSLAX46Y46*%
G04 Gerber Fmt 4.6, Leading zero omitted, Abs format (unit mm)*
G04 Created by KiCad (PCBNEW 5.1.9-73d0e3b20d~88~ubuntu20.04.1) date 2021-06-05 19:42:07*
%MOMM*%
%LPD*%
G01*
G04 APERTURE LIST*
%TA.AperFunction,ComponentPad*%
%ADD10C,1.700000*%
%TD*%
%TA.AperFunction,ComponentPad*%
%ADD11C,1.381250*%
%TD*%
%TA.AperFunction,ComponentPad*%
%ADD12C,1.725000*%
%TD*%
%TA.AperFunction,ComponentPad*%
%ADD13C,1.381000*%
%TD*%
%TA.AperFunction,ComponentPad*%
%ADD14C,2.500000*%
%TD*%
%TA.AperFunction,ComponentPad*%
%ADD15O,2.500000X3.800000*%
%TD*%
%TA.AperFunction,ComponentPad*%
%ADD16O,3.800000X2.500000*%
%TD*%
%TA.AperFunction,ComponentPad*%
%ADD17O,3.100000X1.500000*%
%TD*%
%TA.AperFunction,ComponentPad*%
%ADD18O,2.300000X1.500000*%
%TD*%
%TA.AperFunction,ComponentPad*%
%ADD19O,1.700000X1.700000*%
%TD*%
%TA.AperFunction,ComponentPad*%
%ADD20R,1.700000X1.700000*%
%TD*%
%TA.AperFunction,ViaPad*%
%ADD21C,0.800000*%
%TD*%
%TA.AperFunction,Conductor*%
%ADD22C,0.250000*%
%TD*%
%TA.AperFunction,Conductor*%
%ADD23C,0.254000*%
%TD*%
%TA.AperFunction,Conductor*%
%ADD24C,0.100000*%
%TD*%
G04 APERTURE END LIST*
D10*
%TO.N,GND*%
%TO.C,U1*%
X160160000Y-79680000D03*
%TO.N,+3V3*%
X157620000Y-79680000D03*
%TO.N,N/C*%
X155080000Y-79680000D03*
%TO.N,hdmi_tx_en*%
X152540000Y-79680000D03*
%TO.N,sai1_sd_a_pc1*%
X150000000Y-79680000D03*
%TO.N,sai1_mclk_b*%
X147460000Y-79680000D03*
%TO.N,sai1_sck_b*%
X144920000Y-79680000D03*
%TO.N,spdifrx_in1*%
X142380000Y-79680000D03*
%TO.N,N/C*%
X139840000Y-79680000D03*
%TO.N,hdmi_5v_in*%
X160160000Y-82220000D03*
%TO.N,hdmi_hpd_en*%
X157620000Y-82220000D03*
%TO.N,i2s1_ws*%
X155080000Y-82220000D03*
%TO.N,hdmi_rx_en*%
X152540000Y-82220000D03*
%TO.N,i2s1_mck*%
X150000000Y-82220000D03*
%TO.N,N/C*%
X147460000Y-82220000D03*
%TO.N,sai1_sd_a_pb2*%
X144920000Y-82220000D03*
%TO.N,N/C*%
X142380000Y-82220000D03*
X139840000Y-82220000D03*
%TO.N,hdmi_5v_en*%
X160160000Y-84760000D03*
%TO.N,hdmi_hpd_in*%
X157620000Y-84760000D03*
%TO.N,i2s1_ck*%
X155080000Y-84760000D03*
%TO.N,i2s1_sd*%
X152540000Y-84760000D03*
%TO.N,spdifrx_in3*%
X150000000Y-84760000D03*
%TO.N,N/C*%
X147460000Y-84760000D03*
%TO.N,i2c2_scl*%
X144920000Y-84760000D03*
%TO.N,N/C*%
X142380000Y-84760000D03*
X139840000Y-84760000D03*
%TO.N,pc14*%
X160160000Y-115240000D03*
%TO.N,N/C*%
X157620000Y-115240000D03*
X155080000Y-115240000D03*
%TO.N,cec_pb6*%
X152540000Y-115240000D03*
%TO.N,i2c3_sda*%
X150000000Y-115240000D03*
%TO.N,uart5_rx*%
X147460000Y-115240000D03*
%TO.N,N/C*%
X144920000Y-115240000D03*
%TO.N,cec_pa15*%
X142380000Y-115240000D03*
%TO.N,swdio*%
X139840000Y-115240000D03*
%TO.N,pc15*%
X160160000Y-117780000D03*
%TO.N,N/C*%
X157620000Y-117780000D03*
%TO.N,sai1_fs_b*%
X155080000Y-117780000D03*
%TO.N,spdifrx_in0*%
X152540000Y-117780000D03*
%TO.N,N/C*%
X150000000Y-117780000D03*
%TO.N,i2c2_sda*%
X147460000Y-117780000D03*
%TO.N,uart5_tx*%
X144920000Y-117780000D03*
%TO.N,N/C*%
X142380000Y-117780000D03*
%TO.N,swclk*%
X139840000Y-117780000D03*
%TO.N,N/C*%
X160160000Y-120320000D03*
%TO.N,i2s_clk*%
X157620000Y-120320000D03*
%TO.N,i2c3_scl*%
X155080000Y-120320000D03*
%TO.N,sai1_sd_b*%
X152540000Y-120320000D03*
%TO.N,N/C*%
X150000000Y-120320000D03*
%TO.N,+5V*%
X147460000Y-120320000D03*
%TO.N,GND*%
X144920000Y-120320000D03*
%TO.N,+3V3*%
X142380000Y-120320000D03*
%TO.N,GND*%
X139840000Y-120320000D03*
%TD*%
D11*
%TO.N,+3V3*%
%TO.C,U2*%
X192440000Y-86500000D03*
%TO.N,GND*%
X192440000Y-83960000D03*
%TO.N,sai1_sd_a_pb2*%
X192440000Y-81420000D03*
D12*
%TO.N,N/C*%
X195070000Y-86500000D03*
X195070000Y-81420000D03*
%TD*%
D13*
%TO.N,Net-(C3-Pad2)*%
%TO.C,U3*%
X192490000Y-118540000D03*
%TO.N,GND*%
X192490000Y-116000000D03*
%TO.N,spdifrx_in0*%
X192490000Y-113460000D03*
D12*
%TO.N,N/C*%
X195110000Y-118540000D03*
X195110000Y-113460000D03*
%TD*%
D14*
%TO.N,spdif_rx*%
%TO.C,J1*%
X178000000Y-84000000D03*
D15*
%TO.N,GND*%
X172500000Y-84000000D03*
X183500000Y-84000000D03*
D16*
X178000000Y-78500000D03*
%TD*%
%TO.N,GND*%
%TO.C,J2*%
X178000000Y-121500000D03*
D15*
X172500000Y-116000000D03*
X183500000Y-116000000D03*
D14*
%TO.N,spdif_tx*%
X178000000Y-116000000D03*
%TD*%
D17*
%TO.N,N/C*%
%TO.C,J3*%
X194040000Y-107250000D03*
X194040000Y-92750000D03*
D18*
X200000000Y-107250000D03*
X200000000Y-92750000D03*
%TD*%
D19*
%TO.N,spdifrx_in3*%
%TO.C,J4*%
X162700000Y-105000000D03*
%TO.N,cec_pb6*%
X160160000Y-105000000D03*
%TO.N,sai1_mclk_b*%
X157620000Y-105000000D03*
%TO.N,sai1_sck_b*%
X155080000Y-105000000D03*
%TO.N,sai1_fs_b*%
X152540000Y-105000000D03*
%TO.N,sai1_sd_b*%
X150000000Y-105000000D03*
%TO.N,i2c3_sda*%
X147460000Y-105000000D03*
%TO.N,i2c3_scl*%
X144920000Y-105000000D03*
%TO.N,+5V*%
X142380000Y-105000000D03*
D20*
%TO.N,GND*%
X139840000Y-105000000D03*
%TD*%
%TO.N,GND*%
%TO.C,J5*%
X139840000Y-95000000D03*
D19*
%TO.N,+5V*%
X142380000Y-95000000D03*
%TO.N,i2c3_scl*%
X144920000Y-95000000D03*
%TO.N,i2c3_sda*%
X147460000Y-95000000D03*
%TO.N,i2s1_sd*%
X150000000Y-95000000D03*
%TO.N,i2s1_ws*%
X152540000Y-95000000D03*
%TO.N,i2s1_ck*%
X155080000Y-95000000D03*
%TO.N,i2s1_mck*%
X157620000Y-95000000D03*
%TO.N,pc14*%
X160160000Y-95000000D03*
%TO.N,pc15*%
X162700000Y-95000000D03*
%TD*%
D20*
%TO.N,GND*%
%TO.C,J6*%
X139840000Y-111930000D03*
D19*
X139840000Y-109390000D03*
%TO.N,swdio*%
X142380000Y-111930000D03*
%TO.N,uart5_tx*%
X142380000Y-109390000D03*
%TO.N,swclk*%
X144920000Y-111930000D03*
%TO.N,uart5_rx*%
X144920000Y-109390000D03*
%TD*%
D21*
%TO.N,GND*%
X187820000Y-115980000D03*
X164530000Y-116130000D03*
X187780000Y-83555000D03*
X166790000Y-84430000D03*
X166929998Y-120820000D03*
X170120000Y-116520000D03*
X195080000Y-96000000D03*
X195180000Y-97500000D03*
X195170000Y-99000000D03*
X195180000Y-100500000D03*
X195180000Y-103490000D03*
X184100000Y-97800000D03*
X174060000Y-97730000D03*
X165600000Y-110030000D03*
X184100000Y-109220000D03*
X184310000Y-106260000D03*
X184100000Y-104810000D03*
X174880000Y-109520000D03*
X174890000Y-104480000D03*
X171050000Y-78450000D03*
X164330000Y-79720000D03*
X177010000Y-93950000D03*
X157590000Y-113500000D03*
X157920000Y-107870000D03*
X184100000Y-102200000D03*
X174060000Y-104700000D03*
X177229998Y-91370000D03*
X165980000Y-78910000D03*
%TO.N,+3V3*%
X163510000Y-84430000D03*
X187790000Y-86810000D03*
X186200000Y-115700000D03*
X163670000Y-120810000D03*
X179620000Y-90500000D03*
X154680000Y-107870000D03*
X164550000Y-110880000D03*
X150000000Y-110564979D03*
%TO.N,+5V*%
X172650000Y-102550000D03*
%TO.N,hdmi_tx_en*%
X175370000Y-83130000D03*
%TO.N,spdif_tx*%
X180000000Y-94569994D03*
%TO.N,spdifrx_in1*%
X162300000Y-82950000D03*
%TO.N,i2c3_scl*%
X149160000Y-107210000D03*
%TO.N,i2c2_sda*%
X169130000Y-111559998D03*
%TO.N,i2c2_scl*%
X163480000Y-85990000D03*
%TO.N,cec_pa15*%
X162230029Y-116514847D03*
%TD*%
D22*
%TO.N,i2s1_ck*%
X155080000Y-95000000D02*
X155080000Y-84760000D01*
%TO.N,i2s1_ws*%
X153830000Y-83470000D02*
X155080000Y-82220000D01*
X153830000Y-93710000D02*
X153830000Y-83470000D01*
X152540000Y-95000000D02*
X153830000Y-93710000D01*
%TO.N,i2s1_sd*%
X152540000Y-92460000D02*
X152540000Y-84760000D01*
X150000000Y-95000000D02*
X152540000Y-92460000D01*
%TO.N,spdifrx_in0*%
X153810000Y-119050000D02*
X186900000Y-119050000D01*
X186900000Y-119050000D02*
X192490000Y-113460000D01*
X152540000Y-117780000D02*
X153810000Y-119050000D01*
%TO.N,sai1_sd_a_pb2*%
X158230000Y-80930000D02*
X146210000Y-80930000D01*
X160110000Y-77710000D02*
X158900000Y-78920000D01*
X158900000Y-78920000D02*
X158900000Y-80260000D01*
X174150000Y-77710000D02*
X160110000Y-77710000D01*
X146210000Y-80930000D02*
X144920000Y-82220000D01*
X158900000Y-80260000D02*
X158230000Y-80930000D01*
X177860000Y-81420000D02*
X174150000Y-77710000D01*
X192440000Y-81420000D02*
X177860000Y-81420000D01*
%TO.N,i2c3_scl*%
X147130000Y-107210000D02*
X149160000Y-107210000D01*
X144920000Y-105000000D02*
X147130000Y-107210000D01*
%TO.N,cec_pa15*%
X142380000Y-115240000D02*
X143654847Y-116514847D01*
X143654847Y-116514847D02*
X162230029Y-116514847D01*
%TD*%
D23*
%TO.N,+3V3*%
X158389002Y-78356197D02*
X158359999Y-78379999D01*
X158355473Y-78385513D01*
X158127117Y-78276629D01*
X157843589Y-78204661D01*
X157551469Y-78189389D01*
X157261981Y-78231401D01*
X156986253Y-78329081D01*
X156848843Y-78402528D01*
X156771208Y-78651603D01*
X157620000Y-79500395D01*
X157634143Y-79486253D01*
X157813748Y-79665858D01*
X157799605Y-79680000D01*
X157813748Y-79694143D01*
X157634143Y-79873748D01*
X157620000Y-79859605D01*
X157605858Y-79873748D01*
X157426253Y-79694143D01*
X157440395Y-79680000D01*
X156591603Y-78831208D01*
X156349311Y-78906729D01*
X156233475Y-78733368D01*
X156026632Y-78526525D01*
X155783411Y-78364010D01*
X155513158Y-78252068D01*
X155226260Y-78195000D01*
X154933740Y-78195000D01*
X154646842Y-78252068D01*
X154376589Y-78364010D01*
X154133368Y-78526525D01*
X153926525Y-78733368D01*
X153810000Y-78907760D01*
X153693475Y-78733368D01*
X153486632Y-78526525D01*
X153243411Y-78364010D01*
X152973158Y-78252068D01*
X152686260Y-78195000D01*
X152393740Y-78195000D01*
X152106842Y-78252068D01*
X151836589Y-78364010D01*
X151593368Y-78526525D01*
X151386525Y-78733368D01*
X151270000Y-78907760D01*
X151153475Y-78733368D01*
X150946632Y-78526525D01*
X150703411Y-78364010D01*
X150433158Y-78252068D01*
X150146260Y-78195000D01*
X149853740Y-78195000D01*
X149566842Y-78252068D01*
X149296589Y-78364010D01*
X149053368Y-78526525D01*
X148846525Y-78733368D01*
X148730000Y-78907760D01*
X148613475Y-78733368D01*
X148406632Y-78526525D01*
X148163411Y-78364010D01*
X147893158Y-78252068D01*
X147606260Y-78195000D01*
X147313740Y-78195000D01*
X147026842Y-78252068D01*
X146756589Y-78364010D01*
X146513368Y-78526525D01*
X146306525Y-78733368D01*
X146190000Y-78907760D01*
X146073475Y-78733368D01*
X145866632Y-78526525D01*
X145623411Y-78364010D01*
X145353158Y-78252068D01*
X145066260Y-78195000D01*
X144773740Y-78195000D01*
X144486842Y-78252068D01*
X144216589Y-78364010D01*
X143973368Y-78526525D01*
X143766525Y-78733368D01*
X143650000Y-78907760D01*
X143533475Y-78733368D01*
X143326632Y-78526525D01*
X143083411Y-78364010D01*
X142813158Y-78252068D01*
X142526260Y-78195000D01*
X142233740Y-78195000D01*
X141946842Y-78252068D01*
X141676589Y-78364010D01*
X141433368Y-78526525D01*
X141226525Y-78733368D01*
X141110000Y-78907760D01*
X140993475Y-78733368D01*
X140786632Y-78526525D01*
X140543411Y-78364010D01*
X140273158Y-78252068D01*
X139986260Y-78195000D01*
X139693740Y-78195000D01*
X139406842Y-78252068D01*
X139136589Y-78364010D01*
X138893368Y-78526525D01*
X138686525Y-78733368D01*
X138524010Y-78976589D01*
X138412068Y-79246842D01*
X138355000Y-79533740D01*
X138355000Y-79826260D01*
X138412068Y-80113158D01*
X138524010Y-80383411D01*
X138686525Y-80626632D01*
X138893368Y-80833475D01*
X139067760Y-80950000D01*
X138893368Y-81066525D01*
X138686525Y-81273368D01*
X138524010Y-81516589D01*
X138412068Y-81786842D01*
X138355000Y-82073740D01*
X138355000Y-82366260D01*
X138412068Y-82653158D01*
X138524010Y-82923411D01*
X138686525Y-83166632D01*
X138893368Y-83373475D01*
X139067760Y-83490000D01*
X138893368Y-83606525D01*
X138686525Y-83813368D01*
X138524010Y-84056589D01*
X138412068Y-84326842D01*
X138355000Y-84613740D01*
X138355000Y-84906260D01*
X138412068Y-85193158D01*
X138524010Y-85463411D01*
X138686525Y-85706632D01*
X138893368Y-85913475D01*
X139136589Y-86075990D01*
X139406842Y-86187932D01*
X139693740Y-86245000D01*
X139986260Y-86245000D01*
X140273158Y-86187932D01*
X140543411Y-86075990D01*
X140786632Y-85913475D01*
X140993475Y-85706632D01*
X141110000Y-85532240D01*
X141226525Y-85706632D01*
X141433368Y-85913475D01*
X141676589Y-86075990D01*
X141946842Y-86187932D01*
X142233740Y-86245000D01*
X142526260Y-86245000D01*
X142813158Y-86187932D01*
X143083411Y-86075990D01*
X143326632Y-85913475D01*
X143533475Y-85706632D01*
X143650000Y-85532240D01*
X143766525Y-85706632D01*
X143973368Y-85913475D01*
X144216589Y-86075990D01*
X144486842Y-86187932D01*
X144773740Y-86245000D01*
X145066260Y-86245000D01*
X145353158Y-86187932D01*
X145623411Y-86075990D01*
X145866632Y-85913475D01*
X146073475Y-85706632D01*
X146190000Y-85532240D01*
X146306525Y-85706632D01*
X146513368Y-85913475D01*
X146756589Y-86075990D01*
X147026842Y-86187932D01*
X147313740Y-86245000D01*
X147606260Y-86245000D01*
X147893158Y-86187932D01*
X148163411Y-86075990D01*
X148406632Y-85913475D01*
X148613475Y-85706632D01*
X148730000Y-85532240D01*
X148846525Y-85706632D01*
X149053368Y-85913475D01*
X149296589Y-86075990D01*
X149566842Y-86187932D01*
X149853740Y-86245000D01*
X150146260Y-86245000D01*
X150433158Y-86187932D01*
X150703411Y-86075990D01*
X150946632Y-85913475D01*
X151153475Y-85706632D01*
X151270000Y-85532240D01*
X151386525Y-85706632D01*
X151593368Y-85913475D01*
X151780001Y-86038179D01*
X151780000Y-92145197D01*
X150366408Y-93558790D01*
X150146260Y-93515000D01*
X149853740Y-93515000D01*
X149566842Y-93572068D01*
X149296589Y-93684010D01*
X149053368Y-93846525D01*
X148846525Y-94053368D01*
X148730000Y-94227760D01*
X148613475Y-94053368D01*
X148406632Y-93846525D01*
X148163411Y-93684010D01*
X147893158Y-93572068D01*
X147606260Y-93515000D01*
X147313740Y-93515000D01*
X147026842Y-93572068D01*
X146756589Y-93684010D01*
X146513368Y-93846525D01*
X146306525Y-94053368D01*
X146190000Y-94227760D01*
X146073475Y-94053368D01*
X145866632Y-93846525D01*
X145623411Y-93684010D01*
X145353158Y-93572068D01*
X145066260Y-93515000D01*
X144773740Y-93515000D01*
X144486842Y-93572068D01*
X144216589Y-93684010D01*
X143973368Y-93846525D01*
X143766525Y-94053368D01*
X143650000Y-94227760D01*
X143533475Y-94053368D01*
X143326632Y-93846525D01*
X143083411Y-93684010D01*
X142813158Y-93572068D01*
X142526260Y-93515000D01*
X142233740Y-93515000D01*
X141946842Y-93572068D01*
X141676589Y-93684010D01*
X141433368Y-93846525D01*
X141301513Y-93978380D01*
X141279502Y-93905820D01*
X141220537Y-93795506D01*
X141141185Y-93698815D01*
X141044494Y-93619463D01*
X140934180Y-93560498D01*
X140814482Y-93524188D01*
X140690000Y-93511928D01*
X138990000Y-93511928D01*
X138865518Y-93524188D01*
X138745820Y-93560498D01*
X138635506Y-93619463D01*
X138538815Y-93698815D01*
X138459463Y-93795506D01*
X138400498Y-93905820D01*
X138364188Y-94025518D01*
X138351928Y-94150000D01*
X138351928Y-95850000D01*
X138364188Y-95974482D01*
X138400498Y-96094180D01*
X138459463Y-96204494D01*
X138538815Y-96301185D01*
X138635506Y-96380537D01*
X138745820Y-96439502D01*
X138865518Y-96475812D01*
X138990000Y-96488072D01*
X140690000Y-96488072D01*
X140814482Y-96475812D01*
X140934180Y-96439502D01*
X141044494Y-96380537D01*
X141141185Y-96301185D01*
X141220537Y-96204494D01*
X141279502Y-96094180D01*
X141301513Y-96021620D01*
X141433368Y-96153475D01*
X141676589Y-96315990D01*
X141946842Y-96427932D01*
X142233740Y-96485000D01*
X142526260Y-96485000D01*
X142813158Y-96427932D01*
X143083411Y-96315990D01*
X143326632Y-96153475D01*
X143533475Y-95946632D01*
X143650000Y-95772240D01*
X143766525Y-95946632D01*
X143973368Y-96153475D01*
X144216589Y-96315990D01*
X144486842Y-96427932D01*
X144773740Y-96485000D01*
X145066260Y-96485000D01*
X145353158Y-96427932D01*
X145623411Y-96315990D01*
X145866632Y-96153475D01*
X146073475Y-95946632D01*
X146190000Y-95772240D01*
X146306525Y-95946632D01*
X146513368Y-96153475D01*
X146756589Y-96315990D01*
X147026842Y-96427932D01*
X147313740Y-96485000D01*
X147606260Y-96485000D01*
X147893158Y-96427932D01*
X148163411Y-96315990D01*
X148406632Y-96153475D01*
X148613475Y-95946632D01*
X148730000Y-95772240D01*
X148846525Y-95946632D01*
X149053368Y-96153475D01*
X149296589Y-96315990D01*
X149566842Y-96427932D01*
X149853740Y-96485000D01*
X150146260Y-96485000D01*
X150433158Y-96427932D01*
X150703411Y-96315990D01*
X150946632Y-96153475D01*
X151153475Y-95946632D01*
X151270000Y-95772240D01*
X151386525Y-95946632D01*
X151593368Y-96153475D01*
X151836589Y-96315990D01*
X152106842Y-96427932D01*
X152393740Y-96485000D01*
X152686260Y-96485000D01*
X152973158Y-96427932D01*
X153243411Y-96315990D01*
X153486632Y-96153475D01*
X153693475Y-95946632D01*
X153810000Y-95772240D01*
X153926525Y-95946632D01*
X154133368Y-96153475D01*
X154376589Y-96315990D01*
X154646842Y-96427932D01*
X154933740Y-96485000D01*
X155226260Y-96485000D01*
X155513158Y-96427932D01*
X155783411Y-96315990D01*
X156026632Y-96153475D01*
X156233475Y-95946632D01*
X156350000Y-95772240D01*
X156466525Y-95946632D01*
X156673368Y-96153475D01*
X156916589Y-96315990D01*
X157186842Y-96427932D01*
X157473740Y-96485000D01*
X157766260Y-96485000D01*
X158053158Y-96427932D01*
X158323411Y-96315990D01*
X158566632Y-96153475D01*
X158773475Y-95946632D01*
X158890000Y-95772240D01*
X159006525Y-95946632D01*
X159213368Y-96153475D01*
X159456589Y-96315990D01*
X159726842Y-96427932D01*
X160013740Y-96485000D01*
X160306260Y-96485000D01*
X160593158Y-96427932D01*
X160863411Y-96315990D01*
X161106632Y-96153475D01*
X161313475Y-95946632D01*
X161430000Y-95772240D01*
X161546525Y-95946632D01*
X161753368Y-96153475D01*
X161996589Y-96315990D01*
X162266842Y-96427932D01*
X162553740Y-96485000D01*
X162846260Y-96485000D01*
X163133158Y-96427932D01*
X163403411Y-96315990D01*
X163646632Y-96153475D01*
X163853475Y-95946632D01*
X163885929Y-95898061D01*
X194045000Y-95898061D01*
X194045000Y-96101939D01*
X194084774Y-96301898D01*
X194162795Y-96490256D01*
X194276063Y-96659774D01*
X194416289Y-96800000D01*
X194376063Y-96840226D01*
X194262795Y-97009744D01*
X194184774Y-97198102D01*
X194145000Y-97398061D01*
X194145000Y-97601939D01*
X194184774Y-97801898D01*
X194262795Y-97990256D01*
X194376063Y-98159774D01*
X194461289Y-98245000D01*
X194366063Y-98340226D01*
X194252795Y-98509744D01*
X194174774Y-98698102D01*
X194135000Y-98898061D01*
X194135000Y-99101939D01*
X194174774Y-99301898D01*
X194252795Y-99490256D01*
X194366063Y-99659774D01*
X194461289Y-99755000D01*
X194376063Y-99840226D01*
X194262795Y-100009744D01*
X194184774Y-100198102D01*
X194145000Y-100398061D01*
X194145000Y-100601939D01*
X194184774Y-100801898D01*
X194262795Y-100990256D01*
X194376063Y-101159774D01*
X194520226Y-101303937D01*
X194689744Y-101417205D01*
X194878102Y-101495226D01*
X195078061Y-101535000D01*
X195281939Y-101535000D01*
X195481898Y-101495226D01*
X195670256Y-101417205D01*
X195839774Y-101303937D01*
X195983937Y-101159774D01*
X196097205Y-100990256D01*
X196175226Y-100801898D01*
X196215000Y-100601939D01*
X196215000Y-100398061D01*
X196175226Y-100198102D01*
X196097205Y-100009744D01*
X195983937Y-99840226D01*
X195888711Y-99745000D01*
X195973937Y-99659774D01*
X196087205Y-99490256D01*
X196165226Y-99301898D01*
X196205000Y-99101939D01*
X196205000Y-98898061D01*
X196165226Y-98698102D01*
X196087205Y-98509744D01*
X195973937Y-98340226D01*
X195888711Y-98255000D01*
X195983937Y-98159774D01*
X196097205Y-97990256D01*
X196175226Y-97801898D01*
X196215000Y-97601939D01*
X196215000Y-97398061D01*
X196175226Y-97198102D01*
X196097205Y-97009744D01*
X195983937Y-96840226D01*
X195843711Y-96700000D01*
X195883937Y-96659774D01*
X195997205Y-96490256D01*
X196075226Y-96301898D01*
X196115000Y-96101939D01*
X196115000Y-95898061D01*
X196075226Y-95698102D01*
X195997205Y-95509744D01*
X195883937Y-95340226D01*
X195739774Y-95196063D01*
X195570256Y-95082795D01*
X195381898Y-95004774D01*
X195181939Y-94965000D01*
X194978061Y-94965000D01*
X194778102Y-95004774D01*
X194589744Y-95082795D01*
X194420226Y-95196063D01*
X194276063Y-95340226D01*
X194162795Y-95509744D01*
X194084774Y-95698102D01*
X194045000Y-95898061D01*
X163885929Y-95898061D01*
X164015990Y-95703411D01*
X164127932Y-95433158D01*
X164185000Y-95146260D01*
X164185000Y-94853740D01*
X164127932Y-94566842D01*
X164015990Y-94296589D01*
X163853475Y-94053368D01*
X163648168Y-93848061D01*
X175975000Y-93848061D01*
X175975000Y-94051939D01*
X176014774Y-94251898D01*
X176092795Y-94440256D01*
X176206063Y-94609774D01*
X176350226Y-94753937D01*
X176519744Y-94867205D01*
X176708102Y-94945226D01*
X176908061Y-94985000D01*
X177111939Y-94985000D01*
X177311898Y-94945226D01*
X177500256Y-94867205D01*
X177669774Y-94753937D01*
X177813937Y-94609774D01*
X177908630Y-94468055D01*
X178965000Y-94468055D01*
X178965000Y-94671933D01*
X179004774Y-94871892D01*
X179082795Y-95060250D01*
X179196063Y-95229768D01*
X179340226Y-95373931D01*
X179509744Y-95487199D01*
X179698102Y-95565220D01*
X179898061Y-95604994D01*
X180101939Y-95604994D01*
X180301898Y-95565220D01*
X180490256Y-95487199D01*
X180659774Y-95373931D01*
X180803937Y-95229768D01*
X180917205Y-95060250D01*
X180995226Y-94871892D01*
X181035000Y-94671933D01*
X181035000Y-94468055D01*
X180995226Y-94268096D01*
X180917205Y-94079738D01*
X180803937Y-93910220D01*
X180659774Y-93766057D01*
X180490256Y-93652789D01*
X180301898Y-93574768D01*
X180101939Y-93534994D01*
X179898061Y-93534994D01*
X179698102Y-93574768D01*
X179509744Y-93652789D01*
X179340226Y-93766057D01*
X179196063Y-93910220D01*
X179082795Y-94079738D01*
X179004774Y-94268096D01*
X178965000Y-94468055D01*
X177908630Y-94468055D01*
X177927205Y-94440256D01*
X178005226Y-94251898D01*
X178045000Y-94051939D01*
X178045000Y-93848061D01*
X178005226Y-93648102D01*
X177927205Y-93459744D01*
X177813937Y-93290226D01*
X177669774Y-93146063D01*
X177500256Y-93032795D01*
X177311898Y-92954774D01*
X177111939Y-92915000D01*
X176908061Y-92915000D01*
X176708102Y-92954774D01*
X176519744Y-93032795D01*
X176350226Y-93146063D01*
X176206063Y-93290226D01*
X176092795Y-93459744D01*
X176014774Y-93648102D01*
X175975000Y-93848061D01*
X163648168Y-93848061D01*
X163646632Y-93846525D01*
X163403411Y-93684010D01*
X163133158Y-93572068D01*
X162846260Y-93515000D01*
X162553740Y-93515000D01*
X162266842Y-93572068D01*
X161996589Y-93684010D01*
X161753368Y-93846525D01*
X161546525Y-94053368D01*
X161430000Y-94227760D01*
X161313475Y-94053368D01*
X161106632Y-93846525D01*
X160863411Y-93684010D01*
X160593158Y-93572068D01*
X160306260Y-93515000D01*
X160013740Y-93515000D01*
X159726842Y-93572068D01*
X159456589Y-93684010D01*
X159213368Y-93846525D01*
X159006525Y-94053368D01*
X158890000Y-94227760D01*
X158773475Y-94053368D01*
X158566632Y-93846525D01*
X158323411Y-93684010D01*
X158053158Y-93572068D01*
X157766260Y-93515000D01*
X157473740Y-93515000D01*
X157186842Y-93572068D01*
X156916589Y-93684010D01*
X156673368Y-93846525D01*
X156466525Y-94053368D01*
X156350000Y-94227760D01*
X156233475Y-94053368D01*
X156026632Y-93846525D01*
X155840000Y-93721822D01*
X155840000Y-92750000D01*
X191848299Y-92750000D01*
X191875040Y-93021507D01*
X191954236Y-93282581D01*
X192082843Y-93523188D01*
X192255919Y-93734081D01*
X192466812Y-93907157D01*
X192707419Y-94035764D01*
X192968493Y-94114960D01*
X193171963Y-94135000D01*
X194908037Y-94135000D01*
X195111507Y-94114960D01*
X195372581Y-94035764D01*
X195613188Y-93907157D01*
X195824081Y-93734081D01*
X195997157Y-93523188D01*
X196125764Y-93282581D01*
X196204960Y-93021507D01*
X196231701Y-92750000D01*
X198208299Y-92750000D01*
X198235040Y-93021507D01*
X198314236Y-93282581D01*
X198442843Y-93523188D01*
X198615919Y-93734081D01*
X198826812Y-93907157D01*
X199067419Y-94035764D01*
X199328493Y-94114960D01*
X199531963Y-94135000D01*
X200468037Y-94135000D01*
X200671507Y-94114960D01*
X200932581Y-94035764D01*
X201173188Y-93907157D01*
X201384081Y-93734081D01*
X201557157Y-93523188D01*
X201685764Y-93282581D01*
X201764960Y-93021507D01*
X201791701Y-92750000D01*
X201764960Y-92478493D01*
X201685764Y-92217419D01*
X201557157Y-91976812D01*
X201384081Y-91765919D01*
X201173188Y-91592843D01*
X200932581Y-91464236D01*
X200671507Y-91385040D01*
X200468037Y-91365000D01*
X199531963Y-91365000D01*
X199328493Y-91385040D01*
X199067419Y-91464236D01*
X198826812Y-91592843D01*
X198615919Y-91765919D01*
X198442843Y-91976812D01*
X198314236Y-92217419D01*
X198235040Y-92478493D01*
X198208299Y-92750000D01*
X196231701Y-92750000D01*
X196204960Y-92478493D01*
X196125764Y-92217419D01*
X195997157Y-91976812D01*
X195824081Y-91765919D01*
X195613188Y-91592843D01*
X195372581Y-91464236D01*
X195111507Y-91385040D01*
X194908037Y-91365000D01*
X193171963Y-91365000D01*
X192968493Y-91385040D01*
X192707419Y-91464236D01*
X192466812Y-91592843D01*
X192255919Y-91765919D01*
X192082843Y-91976812D01*
X191954236Y-92217419D01*
X191875040Y-92478493D01*
X191848299Y-92750000D01*
X155840000Y-92750000D01*
X155840000Y-91268061D01*
X176194998Y-91268061D01*
X176194998Y-91471939D01*
X176234772Y-91671898D01*
X176312793Y-91860256D01*
X176426061Y-92029774D01*
X176570224Y-92173937D01*
X176739742Y-92287205D01*
X176928100Y-92365226D01*
X177128059Y-92405000D01*
X177331937Y-92405000D01*
X177531896Y-92365226D01*
X177720254Y-92287205D01*
X177889772Y-92173937D01*
X178033935Y-92029774D01*
X178147203Y-91860256D01*
X178225224Y-91671898D01*
X178264998Y-91471939D01*
X178264998Y-91268061D01*
X178225224Y-91068102D01*
X178147203Y-90879744D01*
X178033935Y-90710226D01*
X177889772Y-90566063D01*
X177720254Y-90452795D01*
X177531896Y-90374774D01*
X177331937Y-90335000D01*
X177128059Y-90335000D01*
X176928100Y-90374774D01*
X176739742Y-90452795D01*
X176570224Y-90566063D01*
X176426061Y-90710226D01*
X176312793Y-90879744D01*
X176234772Y-91068102D01*
X176194998Y-91268061D01*
X155840000Y-91268061D01*
X155840000Y-87414568D01*
X191705037Y-87414568D01*
X191763359Y-87647382D01*
X192000204Y-87757342D01*
X192253950Y-87818983D01*
X192514845Y-87829936D01*
X192772865Y-87789780D01*
X193018092Y-87700058D01*
X193116641Y-87647382D01*
X193174963Y-87414568D01*
X192440000Y-86679605D01*
X191705037Y-87414568D01*
X155840000Y-87414568D01*
X155840000Y-86038178D01*
X156026632Y-85913475D01*
X156233475Y-85706632D01*
X156350000Y-85532240D01*
X156466525Y-85706632D01*
X156673368Y-85913475D01*
X156916589Y-86075990D01*
X157186842Y-86187932D01*
X157473740Y-86245000D01*
X157766260Y-86245000D01*
X158053158Y-86187932D01*
X158323411Y-86075990D01*
X158566632Y-85913475D01*
X158773475Y-85706632D01*
X158890000Y-85532240D01*
X159006525Y-85706632D01*
X159213368Y-85913475D01*
X159456589Y-86075990D01*
X159726842Y-86187932D01*
X160013740Y-86245000D01*
X160306260Y-86245000D01*
X160593158Y-86187932D01*
X160863411Y-86075990D01*
X161106632Y-85913475D01*
X161132046Y-85888061D01*
X162445000Y-85888061D01*
X162445000Y-86091939D01*
X162484774Y-86291898D01*
X162562795Y-86480256D01*
X162676063Y-86649774D01*
X162820226Y-86793937D01*
X162989744Y-86907205D01*
X163178102Y-86985226D01*
X163378061Y-87025000D01*
X163581939Y-87025000D01*
X163781898Y-86985226D01*
X163970256Y-86907205D01*
X164139774Y-86793937D01*
X164283937Y-86649774D01*
X164334002Y-86574845D01*
X191110064Y-86574845D01*
X191150220Y-86832865D01*
X191239942Y-87078092D01*
X191292618Y-87176641D01*
X191525432Y-87234963D01*
X192260395Y-86500000D01*
X192619605Y-86500000D01*
X193354568Y-87234963D01*
X193587382Y-87176641D01*
X193662433Y-87014988D01*
X193742933Y-87209332D01*
X193906816Y-87454601D01*
X194115399Y-87663184D01*
X194360668Y-87827067D01*
X194633195Y-87939952D01*
X194922509Y-87997500D01*
X195217491Y-87997500D01*
X195506805Y-87939952D01*
X195779332Y-87827067D01*
X196024601Y-87663184D01*
X196233184Y-87454601D01*
X196397067Y-87209332D01*
X196509952Y-86936805D01*
X196567500Y-86647491D01*
X196567500Y-86352509D01*
X196509952Y-86063195D01*
X196397067Y-85790668D01*
X196233184Y-85545399D01*
X196024601Y-85336816D01*
X195779332Y-85172933D01*
X195506805Y-85060048D01*
X195217491Y-85002500D01*
X194922509Y-85002500D01*
X194633195Y-85060048D01*
X194360668Y-85172933D01*
X194115399Y-85336816D01*
X193906816Y-85545399D01*
X193742933Y-85790668D01*
X193662811Y-85984097D01*
X193640058Y-85921908D01*
X193587382Y-85823359D01*
X193354568Y-85765037D01*
X192619605Y-86500000D01*
X192260395Y-86500000D01*
X191525432Y-85765037D01*
X191292618Y-85823359D01*
X191182658Y-86060204D01*
X191121017Y-86313950D01*
X191110064Y-86574845D01*
X164334002Y-86574845D01*
X164397205Y-86480256D01*
X164475226Y-86291898D01*
X164515000Y-86091939D01*
X164515000Y-85888061D01*
X164475226Y-85688102D01*
X164397205Y-85499744D01*
X164283937Y-85330226D01*
X164139774Y-85186063D01*
X163970256Y-85072795D01*
X163781898Y-84994774D01*
X163581939Y-84955000D01*
X163378061Y-84955000D01*
X163178102Y-84994774D01*
X162989744Y-85072795D01*
X162820226Y-85186063D01*
X162676063Y-85330226D01*
X162562795Y-85499744D01*
X162484774Y-85688102D01*
X162445000Y-85888061D01*
X161132046Y-85888061D01*
X161313475Y-85706632D01*
X161475990Y-85463411D01*
X161587932Y-85193158D01*
X161645000Y-84906260D01*
X161645000Y-84613740D01*
X161588175Y-84328061D01*
X165755000Y-84328061D01*
X165755000Y-84531939D01*
X165794774Y-84731898D01*
X165872795Y-84920256D01*
X165986063Y-85089774D01*
X166130226Y-85233937D01*
X166299744Y-85347205D01*
X166488102Y-85425226D01*
X166688061Y-85465000D01*
X166891939Y-85465000D01*
X167091898Y-85425226D01*
X167280256Y-85347205D01*
X167449774Y-85233937D01*
X167593937Y-85089774D01*
X167707205Y-84920256D01*
X167785226Y-84731898D01*
X167825000Y-84531939D01*
X167825000Y-84328061D01*
X167785226Y-84128102D01*
X167707205Y-83939744D01*
X167593937Y-83770226D01*
X167449774Y-83626063D01*
X167280256Y-83512795D01*
X167091898Y-83434774D01*
X166891939Y-83395000D01*
X166688061Y-83395000D01*
X166488102Y-83434774D01*
X166299744Y-83512795D01*
X166130226Y-83626063D01*
X165986063Y-83770226D01*
X165872795Y-83939744D01*
X165794774Y-84128102D01*
X165755000Y-84328061D01*
X161588175Y-84328061D01*
X161587932Y-84326842D01*
X161475990Y-84056589D01*
X161313475Y-83813368D01*
X161106632Y-83606525D01*
X160932240Y-83490000D01*
X161106632Y-83373475D01*
X161292071Y-83188036D01*
X161304774Y-83251898D01*
X161382795Y-83440256D01*
X161496063Y-83609774D01*
X161640226Y-83753937D01*
X161809744Y-83867205D01*
X161998102Y-83945226D01*
X162198061Y-83985000D01*
X162401939Y-83985000D01*
X162601898Y-83945226D01*
X162790256Y-83867205D01*
X162959774Y-83753937D01*
X163103937Y-83609774D01*
X163217205Y-83440256D01*
X163295226Y-83251898D01*
X163335000Y-83051939D01*
X163335000Y-82848061D01*
X163295226Y-82648102D01*
X163217205Y-82459744D01*
X163103937Y-82290226D01*
X162959774Y-82146063D01*
X162790256Y-82032795D01*
X162601898Y-81954774D01*
X162401939Y-81915000D01*
X162198061Y-81915000D01*
X161998102Y-81954774D01*
X161809744Y-82032795D01*
X161645000Y-82142873D01*
X161645000Y-82073740D01*
X161587932Y-81786842D01*
X161475990Y-81516589D01*
X161313475Y-81273368D01*
X161106632Y-81066525D01*
X160932240Y-80950000D01*
X161106632Y-80833475D01*
X161313475Y-80626632D01*
X161475990Y-80383411D01*
X161587932Y-80113158D01*
X161645000Y-79826260D01*
X161645000Y-79533740D01*
X161587932Y-79246842D01*
X161475990Y-78976589D01*
X161313475Y-78733368D01*
X161106632Y-78526525D01*
X161022036Y-78470000D01*
X165041978Y-78470000D01*
X164984774Y-78608102D01*
X164945000Y-78808061D01*
X164945000Y-78886146D01*
X164820256Y-78802795D01*
X164631898Y-78724774D01*
X164431939Y-78685000D01*
X164228061Y-78685000D01*
X164028102Y-78724774D01*
X163839744Y-78802795D01*
X163670226Y-78916063D01*
X163526063Y-79060226D01*
X163412795Y-79229744D01*
X163334774Y-79418102D01*
X163295000Y-79618061D01*
X163295000Y-79821939D01*
X163334774Y-80021898D01*
X163412795Y-80210256D01*
X163526063Y-80379774D01*
X163670226Y-80523937D01*
X163839744Y-80637205D01*
X164028102Y-80715226D01*
X164228061Y-80755000D01*
X164431939Y-80755000D01*
X164631898Y-80715226D01*
X164820256Y-80637205D01*
X164989774Y-80523937D01*
X165133937Y-80379774D01*
X165247205Y-80210256D01*
X165325226Y-80021898D01*
X165365000Y-79821939D01*
X165365000Y-79743854D01*
X165489744Y-79827205D01*
X165678102Y-79905226D01*
X165878061Y-79945000D01*
X166081939Y-79945000D01*
X166281898Y-79905226D01*
X166470256Y-79827205D01*
X166639774Y-79713937D01*
X166783937Y-79569774D01*
X166897205Y-79400256D01*
X166975226Y-79211898D01*
X167015000Y-79011939D01*
X167015000Y-78808061D01*
X166975226Y-78608102D01*
X166918022Y-78470000D01*
X170015000Y-78470000D01*
X170015000Y-78551939D01*
X170054774Y-78751898D01*
X170132795Y-78940256D01*
X170246063Y-79109774D01*
X170390226Y-79253937D01*
X170559744Y-79367205D01*
X170748102Y-79445226D01*
X170948061Y-79485000D01*
X171151939Y-79485000D01*
X171351898Y-79445226D01*
X171540256Y-79367205D01*
X171709774Y-79253937D01*
X171853937Y-79109774D01*
X171967205Y-78940256D01*
X172045226Y-78751898D01*
X172085000Y-78551939D01*
X172085000Y-78470000D01*
X173835199Y-78470000D01*
X177296201Y-81931003D01*
X177319999Y-81960001D01*
X177435724Y-82054974D01*
X177567753Y-82125546D01*
X177644415Y-82148801D01*
X177450166Y-82187439D01*
X177107118Y-82329534D01*
X176798382Y-82535825D01*
X176535825Y-82798382D01*
X176399806Y-83001949D01*
X176365226Y-82828102D01*
X176287205Y-82639744D01*
X176173937Y-82470226D01*
X176029774Y-82326063D01*
X175860256Y-82212795D01*
X175671898Y-82134774D01*
X175471939Y-82095000D01*
X175268061Y-82095000D01*
X175068102Y-82134774D01*
X174879744Y-82212795D01*
X174710226Y-82326063D01*
X174566063Y-82470226D01*
X174452795Y-82639744D01*
X174374774Y-82828102D01*
X174349717Y-82954075D01*
X174249939Y-82625152D01*
X174074903Y-82297683D01*
X173839345Y-82010655D01*
X173552317Y-81775097D01*
X173224847Y-81600061D01*
X172869523Y-81492275D01*
X172500000Y-81455880D01*
X172130476Y-81492275D01*
X171775152Y-81600061D01*
X171447683Y-81775097D01*
X171160655Y-82010655D01*
X170925097Y-82297683D01*
X170750061Y-82625153D01*
X170642275Y-82980477D01*
X170615000Y-83257404D01*
X170615000Y-84742597D01*
X170642275Y-85019524D01*
X170750062Y-85374848D01*
X170925098Y-85702317D01*
X171160656Y-85989345D01*
X171447684Y-86224903D01*
X171775153Y-86399939D01*
X172130477Y-86507725D01*
X172500000Y-86544120D01*
X172869524Y-86507725D01*
X173224848Y-86399939D01*
X173552317Y-86224903D01*
X173839345Y-85989345D01*
X174074903Y-85702317D01*
X174249939Y-85374848D01*
X174357725Y-85019524D01*
X174385000Y-84742597D01*
X174385000Y-83456586D01*
X174452795Y-83620256D01*
X174566063Y-83789774D01*
X174710226Y-83933937D01*
X174879744Y-84047205D01*
X175068102Y-84125226D01*
X175268061Y-84165000D01*
X175471939Y-84165000D01*
X175671898Y-84125226D01*
X175860256Y-84047205D01*
X176029774Y-83933937D01*
X176115000Y-83848711D01*
X176115000Y-84185656D01*
X176187439Y-84549834D01*
X176329534Y-84892882D01*
X176535825Y-85201618D01*
X176798382Y-85464175D01*
X177107118Y-85670466D01*
X177450166Y-85812561D01*
X177814344Y-85885000D01*
X178185656Y-85885000D01*
X178549834Y-85812561D01*
X178892882Y-85670466D01*
X179201618Y-85464175D01*
X179464175Y-85201618D01*
X179670466Y-84892882D01*
X179812561Y-84549834D01*
X179885000Y-84185656D01*
X179885000Y-83814344D01*
X179812561Y-83450166D01*
X179670466Y-83107118D01*
X179464175Y-82798382D01*
X179201618Y-82535825D01*
X178892882Y-82329534D01*
X178549834Y-82187439D01*
X178512435Y-82180000D01*
X182021677Y-82180000D01*
X181925097Y-82297683D01*
X181750061Y-82625153D01*
X181642275Y-82980477D01*
X181615000Y-83257404D01*
X181615000Y-84742597D01*
X181642275Y-85019524D01*
X181750062Y-85374848D01*
X181925098Y-85702317D01*
X182160656Y-85989345D01*
X182447684Y-86224903D01*
X182775153Y-86399939D01*
X183130477Y-86507725D01*
X183500000Y-86544120D01*
X183869524Y-86507725D01*
X184224848Y-86399939D01*
X184552317Y-86224903D01*
X184839345Y-85989345D01*
X185074903Y-85702317D01*
X185249939Y-85374848D01*
X185357725Y-85019524D01*
X185385000Y-84742597D01*
X185385000Y-83453061D01*
X186745000Y-83453061D01*
X186745000Y-83656939D01*
X186784774Y-83856898D01*
X186862795Y-84045256D01*
X186976063Y-84214774D01*
X187120226Y-84358937D01*
X187289744Y-84472205D01*
X187478102Y-84550226D01*
X187678061Y-84590000D01*
X187881939Y-84590000D01*
X188081898Y-84550226D01*
X188270256Y-84472205D01*
X188439774Y-84358937D01*
X188583937Y-84214774D01*
X188697205Y-84045256D01*
X188775226Y-83856898D01*
X188815000Y-83656939D01*
X188815000Y-83453061D01*
X188775226Y-83253102D01*
X188697205Y-83064744D01*
X188583937Y-82895226D01*
X188439774Y-82751063D01*
X188270256Y-82637795D01*
X188081898Y-82559774D01*
X187881939Y-82520000D01*
X187678061Y-82520000D01*
X187478102Y-82559774D01*
X187289744Y-82637795D01*
X187120226Y-82751063D01*
X186976063Y-82895226D01*
X186862795Y-83064744D01*
X186784774Y-83253102D01*
X186745000Y-83453061D01*
X185385000Y-83453061D01*
X185385000Y-83257403D01*
X185357725Y-82980476D01*
X185249939Y-82625152D01*
X185074903Y-82297683D01*
X184978323Y-82180000D01*
X191353500Y-82180000D01*
X191410320Y-82265037D01*
X191594963Y-82449680D01*
X191812081Y-82594754D01*
X192042026Y-82690000D01*
X191812081Y-82785246D01*
X191594963Y-82930320D01*
X191410320Y-83114963D01*
X191265246Y-83332081D01*
X191165318Y-83573329D01*
X191114375Y-83829437D01*
X191114375Y-84090563D01*
X191165318Y-84346671D01*
X191265246Y-84587919D01*
X191410320Y-84805037D01*
X191594963Y-84989680D01*
X191812081Y-85134754D01*
X192047207Y-85232146D01*
X191861908Y-85299942D01*
X191763359Y-85352618D01*
X191705037Y-85585432D01*
X192440000Y-86320395D01*
X193174963Y-85585432D01*
X193116641Y-85352618D01*
X192879796Y-85242658D01*
X192834172Y-85231575D01*
X193067919Y-85134754D01*
X193285037Y-84989680D01*
X193469680Y-84805037D01*
X193614754Y-84587919D01*
X193714682Y-84346671D01*
X193765625Y-84090563D01*
X193765625Y-83829437D01*
X193714682Y-83573329D01*
X193614754Y-83332081D01*
X193469680Y-83114963D01*
X193285037Y-82930320D01*
X193067919Y-82785246D01*
X192837974Y-82690000D01*
X193067919Y-82594754D01*
X193285037Y-82449680D01*
X193469680Y-82265037D01*
X193614754Y-82047919D01*
X193661982Y-81933900D01*
X193742933Y-82129332D01*
X193906816Y-82374601D01*
X194115399Y-82583184D01*
X194360668Y-82747067D01*
X194633195Y-82859952D01*
X194922509Y-82917500D01*
X195217491Y-82917500D01*
X195506805Y-82859952D01*
X195779332Y-82747067D01*
X196024601Y-82583184D01*
X196233184Y-82374601D01*
X196397067Y-82129332D01*
X196509952Y-81856805D01*
X196567500Y-81567491D01*
X196567500Y-81272509D01*
X196509952Y-80983195D01*
X196397067Y-80710668D01*
X196233184Y-80465399D01*
X196024601Y-80256816D01*
X195779332Y-80092933D01*
X195506805Y-79980048D01*
X195217491Y-79922500D01*
X194922509Y-79922500D01*
X194633195Y-79980048D01*
X194360668Y-80092933D01*
X194115399Y-80256816D01*
X193906816Y-80465399D01*
X193742933Y-80710668D01*
X193661982Y-80906100D01*
X193614754Y-80792081D01*
X193469680Y-80574963D01*
X193285037Y-80390320D01*
X193067919Y-80245246D01*
X192826671Y-80145318D01*
X192570563Y-80094375D01*
X192309437Y-80094375D01*
X192053329Y-80145318D01*
X191812081Y-80245246D01*
X191594963Y-80390320D01*
X191410320Y-80574963D01*
X191353500Y-80660000D01*
X178174802Y-80660000D01*
X177899802Y-80385000D01*
X178742597Y-80385000D01*
X179019524Y-80357725D01*
X179374848Y-80249939D01*
X179702317Y-80074903D01*
X179989345Y-79839345D01*
X180224903Y-79552317D01*
X180399939Y-79224848D01*
X180507725Y-78869524D01*
X180544120Y-78500000D01*
X180507725Y-78130476D01*
X180399939Y-77775152D01*
X180338389Y-77660000D01*
X202967721Y-77660000D01*
X203065424Y-77669580D01*
X203128356Y-77688580D01*
X203186405Y-77719445D01*
X203237343Y-77760989D01*
X203279248Y-77811644D01*
X203310515Y-77869471D01*
X203329956Y-77932272D01*
X203340000Y-78027835D01*
X203340001Y-121967711D01*
X203330420Y-122065424D01*
X203311420Y-122128357D01*
X203280554Y-122186406D01*
X203239011Y-122237343D01*
X203188356Y-122279248D01*
X203130529Y-122310515D01*
X203067728Y-122329956D01*
X202972165Y-122340000D01*
X180338389Y-122340000D01*
X180399939Y-122224848D01*
X180507725Y-121869524D01*
X180544120Y-121500000D01*
X180507725Y-121130476D01*
X180399939Y-120775152D01*
X180224903Y-120447683D01*
X179989345Y-120160655D01*
X179702317Y-119925097D01*
X179486986Y-119810000D01*
X186862678Y-119810000D01*
X186900000Y-119813676D01*
X186937322Y-119810000D01*
X186937333Y-119810000D01*
X187048986Y-119799003D01*
X187192247Y-119755546D01*
X187324276Y-119684974D01*
X187440001Y-119590001D01*
X187463804Y-119560997D01*
X191166772Y-115858030D01*
X191164500Y-115869450D01*
X191164500Y-116130550D01*
X191215438Y-116386634D01*
X191315357Y-116627860D01*
X191460417Y-116844957D01*
X191645043Y-117029583D01*
X191862140Y-117174643D01*
X192092352Y-117270000D01*
X191862140Y-117365357D01*
X191645043Y-117510417D01*
X191460417Y-117695043D01*
X191315357Y-117912140D01*
X191215438Y-118153366D01*
X191164500Y-118409450D01*
X191164500Y-118670550D01*
X191215438Y-118926634D01*
X191315357Y-119167860D01*
X191460417Y-119384957D01*
X191645043Y-119569583D01*
X191862140Y-119714643D01*
X192103366Y-119814562D01*
X192359450Y-119865500D01*
X192620550Y-119865500D01*
X192876634Y-119814562D01*
X193117860Y-119714643D01*
X193334957Y-119569583D01*
X193519583Y-119384957D01*
X193664643Y-119167860D01*
X193706914Y-119065808D01*
X193782933Y-119249332D01*
X193946816Y-119494601D01*
X194155399Y-119703184D01*
X194400668Y-119867067D01*
X194673195Y-119979952D01*
X194962509Y-120037500D01*
X195257491Y-120037500D01*
X195546805Y-119979952D01*
X195819332Y-119867067D01*
X196064601Y-119703184D01*
X196273184Y-119494601D01*
X196437067Y-119249332D01*
X196549952Y-118976805D01*
X196607500Y-118687491D01*
X196607500Y-118392509D01*
X196549952Y-118103195D01*
X196437067Y-117830668D01*
X196273184Y-117585399D01*
X196064601Y-117376816D01*
X195819332Y-117212933D01*
X195546805Y-117100048D01*
X195257491Y-117042500D01*
X194962509Y-117042500D01*
X194673195Y-117100048D01*
X194400668Y-117212933D01*
X194155399Y-117376816D01*
X193946816Y-117585399D01*
X193782933Y-117830668D01*
X193706914Y-118014192D01*
X193664643Y-117912140D01*
X193519583Y-117695043D01*
X193334957Y-117510417D01*
X193117860Y-117365357D01*
X192887648Y-117270000D01*
X193117860Y-117174643D01*
X193334957Y-117029583D01*
X193519583Y-116844957D01*
X193664643Y-116627860D01*
X193764562Y-116386634D01*
X193815500Y-116130550D01*
X193815500Y-115869450D01*
X193764562Y-115613366D01*
X193664643Y-115372140D01*
X193519583Y-115155043D01*
X193334957Y-114970417D01*
X193117860Y-114825357D01*
X192887648Y-114730000D01*
X193117860Y-114634643D01*
X193334957Y-114489583D01*
X193519583Y-114304957D01*
X193664643Y-114087860D01*
X193706914Y-113985808D01*
X193782933Y-114169332D01*
X193946816Y-114414601D01*
X194155399Y-114623184D01*
X194400668Y-114787067D01*
X194673195Y-114899952D01*
X194962509Y-114957500D01*
X195257491Y-114957500D01*
X195546805Y-114899952D01*
X195819332Y-114787067D01*
X196064601Y-114623184D01*
X196273184Y-114414601D01*
X196437067Y-114169332D01*
X196549952Y-113896805D01*
X196607500Y-113607491D01*
X196607500Y-113312509D01*
X196549952Y-113023195D01*
X196437067Y-112750668D01*
X196273184Y-112505399D01*
X196064601Y-112296816D01*
X195819332Y-112132933D01*
X195546805Y-112020048D01*
X195257491Y-111962500D01*
X194962509Y-111962500D01*
X194673195Y-112020048D01*
X194400668Y-112132933D01*
X194155399Y-112296816D01*
X193946816Y-112505399D01*
X193782933Y-112750668D01*
X193706914Y-112934192D01*
X193664643Y-112832140D01*
X193519583Y-112615043D01*
X193334957Y-112430417D01*
X193117860Y-112285357D01*
X192876634Y-112185438D01*
X192620550Y-112134500D01*
X192359450Y-112134500D01*
X192103366Y-112185438D01*
X191862140Y-112285357D01*
X191645043Y-112430417D01*
X191460417Y-112615043D01*
X191315357Y-112832140D01*
X191215438Y-113073366D01*
X191164500Y-113329450D01*
X191164500Y-113590550D01*
X191184434Y-113690764D01*
X188855000Y-116020199D01*
X188855000Y-115878061D01*
X188815226Y-115678102D01*
X188737205Y-115489744D01*
X188623937Y-115320226D01*
X188479774Y-115176063D01*
X188310256Y-115062795D01*
X188121898Y-114984774D01*
X187921939Y-114945000D01*
X187718061Y-114945000D01*
X187518102Y-114984774D01*
X187329744Y-115062795D01*
X187160226Y-115176063D01*
X187016063Y-115320226D01*
X186902795Y-115489744D01*
X186824774Y-115678102D01*
X186785000Y-115878061D01*
X186785000Y-116081939D01*
X186824774Y-116281898D01*
X186902795Y-116470256D01*
X187016063Y-116639774D01*
X187160226Y-116783937D01*
X187329744Y-116897205D01*
X187518102Y-116975226D01*
X187718061Y-117015000D01*
X187860199Y-117015000D01*
X186585199Y-118290000D01*
X184430529Y-118290000D01*
X184552317Y-118224903D01*
X184839345Y-117989345D01*
X185074903Y-117702317D01*
X185249939Y-117374848D01*
X185357725Y-117019524D01*
X185385000Y-116742597D01*
X185385000Y-115257403D01*
X185357725Y-114980476D01*
X185249939Y-114625152D01*
X185074903Y-114297683D01*
X184839345Y-114010655D01*
X184552317Y-113775097D01*
X184224848Y-113600061D01*
X183869524Y-113492275D01*
X183500000Y-113455880D01*
X183130477Y-113492275D01*
X182775153Y-113600061D01*
X182447684Y-113775097D01*
X182160656Y-114010655D01*
X181925098Y-114297683D01*
X181750062Y-114625152D01*
X181642275Y-114980476D01*
X181615000Y-115257403D01*
X181615000Y-116742596D01*
X181642275Y-117019523D01*
X181750061Y-117374847D01*
X181925097Y-117702317D01*
X182160655Y-117989345D01*
X182447683Y-118224903D01*
X182569471Y-118290000D01*
X173430529Y-118290000D01*
X173552317Y-118224903D01*
X173839345Y-117989345D01*
X174074903Y-117702317D01*
X174249939Y-117374848D01*
X174357725Y-117019524D01*
X174385000Y-116742597D01*
X174385000Y-115814344D01*
X176115000Y-115814344D01*
X176115000Y-116185656D01*
X176187439Y-116549834D01*
X176329534Y-116892882D01*
X176535825Y-117201618D01*
X176798382Y-117464175D01*
X177107118Y-117670466D01*
X177450166Y-117812561D01*
X177814344Y-117885000D01*
X178185656Y-117885000D01*
X178549834Y-117812561D01*
X178892882Y-117670466D01*
X179201618Y-117464175D01*
X179464175Y-117201618D01*
X179670466Y-116892882D01*
X179812561Y-116549834D01*
X179885000Y-116185656D01*
X179885000Y-115814344D01*
X179812561Y-115450166D01*
X179670466Y-115107118D01*
X179464175Y-114798382D01*
X179201618Y-114535825D01*
X178892882Y-114329534D01*
X178549834Y-114187439D01*
X178185656Y-114115000D01*
X177814344Y-114115000D01*
X177450166Y-114187439D01*
X177107118Y-114329534D01*
X176798382Y-114535825D01*
X176535825Y-114798382D01*
X176329534Y-115107118D01*
X176187439Y-115450166D01*
X176115000Y-115814344D01*
X174385000Y-115814344D01*
X174385000Y-115257403D01*
X174357725Y-114980476D01*
X174249939Y-114625152D01*
X174074903Y-114297683D01*
X173839345Y-114010655D01*
X173552317Y-113775097D01*
X173224848Y-113600061D01*
X172869524Y-113492275D01*
X172500000Y-113455880D01*
X172130477Y-113492275D01*
X171775153Y-113600061D01*
X171447684Y-113775097D01*
X171160656Y-114010655D01*
X170925098Y-114297683D01*
X170750062Y-114625152D01*
X170642275Y-114980476D01*
X170615000Y-115257403D01*
X170615000Y-115605965D01*
X170610256Y-115602795D01*
X170421898Y-115524774D01*
X170221939Y-115485000D01*
X170018061Y-115485000D01*
X169818102Y-115524774D01*
X169629744Y-115602795D01*
X169460226Y-115716063D01*
X169316063Y-115860226D01*
X169202795Y-116029744D01*
X169124774Y-116218102D01*
X169085000Y-116418061D01*
X169085000Y-116621939D01*
X169124774Y-116821898D01*
X169202795Y-117010256D01*
X169316063Y-117179774D01*
X169460226Y-117323937D01*
X169629744Y-117437205D01*
X169818102Y-117515226D01*
X170018061Y-117555000D01*
X170221939Y-117555000D01*
X170421898Y-117515226D01*
X170610256Y-117437205D01*
X170742228Y-117349024D01*
X170750061Y-117374847D01*
X170925097Y-117702317D01*
X171160655Y-117989345D01*
X171447683Y-118224903D01*
X171569471Y-118290000D01*
X161556103Y-118290000D01*
X161587932Y-118213158D01*
X161645000Y-117926260D01*
X161645000Y-117633740D01*
X161587932Y-117346842D01*
X161578627Y-117324378D01*
X161739773Y-117432052D01*
X161928131Y-117510073D01*
X162128090Y-117549847D01*
X162331968Y-117549847D01*
X162531927Y-117510073D01*
X162720285Y-117432052D01*
X162889803Y-117318784D01*
X163033966Y-117174621D01*
X163147234Y-117005103D01*
X163225255Y-116816745D01*
X163265029Y-116616786D01*
X163265029Y-116412908D01*
X163225255Y-116212949D01*
X163148672Y-116028061D01*
X163495000Y-116028061D01*
X163495000Y-116231939D01*
X163534774Y-116431898D01*
X163612795Y-116620256D01*
X163726063Y-116789774D01*
X163870226Y-116933937D01*
X164039744Y-117047205D01*
X164228102Y-117125226D01*
X164428061Y-117165000D01*
X164631939Y-117165000D01*
X164831898Y-117125226D01*
X165020256Y-117047205D01*
X165189774Y-116933937D01*
X165333937Y-116789774D01*
X165447205Y-116620256D01*
X165525226Y-116431898D01*
X165565000Y-116231939D01*
X165565000Y-116028061D01*
X165525226Y-115828102D01*
X165447205Y-115639744D01*
X165333937Y-115470226D01*
X165189774Y-115326063D01*
X165020256Y-115212795D01*
X164831898Y-115134774D01*
X164631939Y-115095000D01*
X164428061Y-115095000D01*
X164228102Y-115134774D01*
X164039744Y-115212795D01*
X163870226Y-115326063D01*
X163726063Y-115470226D01*
X163612795Y-115639744D01*
X163534774Y-115828102D01*
X163495000Y-116028061D01*
X163148672Y-116028061D01*
X163147234Y-116024591D01*
X163033966Y-115855073D01*
X162889803Y-115710910D01*
X162720285Y-115597642D01*
X162531927Y-115519621D01*
X162331968Y-115479847D01*
X162128090Y-115479847D01*
X161928131Y-115519621D01*
X161739773Y-115597642D01*
X161573075Y-115709026D01*
X161587932Y-115673158D01*
X161645000Y-115386260D01*
X161645000Y-115093740D01*
X161587932Y-114806842D01*
X161475990Y-114536589D01*
X161313475Y-114293368D01*
X161106632Y-114086525D01*
X160863411Y-113924010D01*
X160593158Y-113812068D01*
X160306260Y-113755000D01*
X160013740Y-113755000D01*
X159726842Y-113812068D01*
X159456589Y-113924010D01*
X159213368Y-114086525D01*
X159006525Y-114293368D01*
X158890000Y-114467760D01*
X158773475Y-114293368D01*
X158566632Y-114086525D01*
X158481077Y-114029359D01*
X158507205Y-113990256D01*
X158585226Y-113801898D01*
X158625000Y-113601939D01*
X158625000Y-113398061D01*
X158585226Y-113198102D01*
X158507205Y-113009744D01*
X158393937Y-112840226D01*
X158249774Y-112696063D01*
X158080256Y-112582795D01*
X157891898Y-112504774D01*
X157691939Y-112465000D01*
X157488061Y-112465000D01*
X157288102Y-112504774D01*
X157099744Y-112582795D01*
X156930226Y-112696063D01*
X156786063Y-112840226D01*
X156672795Y-113009744D01*
X156594774Y-113198102D01*
X156555000Y-113398061D01*
X156555000Y-113601939D01*
X156594774Y-113801898D01*
X156672795Y-113990256D01*
X156717442Y-114057076D01*
X156673368Y-114086525D01*
X156466525Y-114293368D01*
X156350000Y-114467760D01*
X156233475Y-114293368D01*
X156026632Y-114086525D01*
X155783411Y-113924010D01*
X155513158Y-113812068D01*
X155226260Y-113755000D01*
X154933740Y-113755000D01*
X154646842Y-113812068D01*
X154376589Y-113924010D01*
X154133368Y-114086525D01*
X153926525Y-114293368D01*
X153810000Y-114467760D01*
X153693475Y-114293368D01*
X153486632Y-114086525D01*
X153243411Y-113924010D01*
X152973158Y-113812068D01*
X152686260Y-113755000D01*
X152393740Y-113755000D01*
X152106842Y-113812068D01*
X151836589Y-113924010D01*
X151593368Y-114086525D01*
X151386525Y-114293368D01*
X151270000Y-114467760D01*
X151153475Y-114293368D01*
X150946632Y-114086525D01*
X150703411Y-113924010D01*
X150433158Y-113812068D01*
X150146260Y-113755000D01*
X149853740Y-113755000D01*
X149566842Y-113812068D01*
X149296589Y-113924010D01*
X149053368Y-114086525D01*
X148846525Y-114293368D01*
X148730000Y-114467760D01*
X148613475Y-114293368D01*
X148406632Y-114086525D01*
X148163411Y-113924010D01*
X147893158Y-113812068D01*
X147606260Y-113755000D01*
X147313740Y-113755000D01*
X147026842Y-113812068D01*
X146756589Y-113924010D01*
X146513368Y-114086525D01*
X146306525Y-114293368D01*
X146190000Y-114467760D01*
X146073475Y-114293368D01*
X145866632Y-114086525D01*
X145623411Y-113924010D01*
X145353158Y-113812068D01*
X145066260Y-113755000D01*
X144773740Y-113755000D01*
X144486842Y-113812068D01*
X144216589Y-113924010D01*
X143973368Y-114086525D01*
X143766525Y-114293368D01*
X143650000Y-114467760D01*
X143533475Y-114293368D01*
X143326632Y-114086525D01*
X143083411Y-113924010D01*
X142813158Y-113812068D01*
X142526260Y-113755000D01*
X142233740Y-113755000D01*
X141946842Y-113812068D01*
X141676589Y-113924010D01*
X141433368Y-114086525D01*
X141226525Y-114293368D01*
X141110000Y-114467760D01*
X140993475Y-114293368D01*
X140786632Y-114086525D01*
X140543411Y-113924010D01*
X140273158Y-113812068D01*
X139986260Y-113755000D01*
X139693740Y-113755000D01*
X139406842Y-113812068D01*
X139136589Y-113924010D01*
X138893368Y-114086525D01*
X138686525Y-114293368D01*
X138524010Y-114536589D01*
X138412068Y-114806842D01*
X138355000Y-115093740D01*
X138355000Y-115386260D01*
X138412068Y-115673158D01*
X138524010Y-115943411D01*
X138686525Y-116186632D01*
X138893368Y-116393475D01*
X139067760Y-116510000D01*
X138893368Y-116626525D01*
X138686525Y-116833368D01*
X138524010Y-117076589D01*
X138412068Y-117346842D01*
X138355000Y-117633740D01*
X138355000Y-117926260D01*
X138412068Y-118213158D01*
X138524010Y-118483411D01*
X138686525Y-118726632D01*
X138893368Y-118933475D01*
X139067760Y-119050000D01*
X138893368Y-119166525D01*
X138686525Y-119373368D01*
X138524010Y-119616589D01*
X138412068Y-119886842D01*
X138355000Y-120173740D01*
X138355000Y-120466260D01*
X138412068Y-120753158D01*
X138524010Y-121023411D01*
X138686525Y-121266632D01*
X138893368Y-121473475D01*
X139136589Y-121635990D01*
X139406842Y-121747932D01*
X139693740Y-121805000D01*
X139986260Y-121805000D01*
X140273158Y-121747932D01*
X140543411Y-121635990D01*
X140786632Y-121473475D01*
X140911710Y-121348397D01*
X141531208Y-121348397D01*
X141608843Y-121597472D01*
X141872883Y-121723371D01*
X142156411Y-121795339D01*
X142448531Y-121810611D01*
X142738019Y-121768599D01*
X143013747Y-121670919D01*
X143151157Y-121597472D01*
X143228792Y-121348397D01*
X142380000Y-120499605D01*
X141531208Y-121348397D01*
X140911710Y-121348397D01*
X140993475Y-121266632D01*
X141109311Y-121093271D01*
X141351603Y-121168792D01*
X142200395Y-120320000D01*
X141351603Y-119471208D01*
X141109311Y-119546729D01*
X140993475Y-119373368D01*
X140786632Y-119166525D01*
X140612240Y-119050000D01*
X140786632Y-118933475D01*
X140993475Y-118726632D01*
X141110000Y-118552240D01*
X141226525Y-118726632D01*
X141433368Y-118933475D01*
X141606729Y-119049311D01*
X141531208Y-119291603D01*
X142380000Y-120140395D01*
X143228792Y-119291603D01*
X143153271Y-119049311D01*
X143326632Y-118933475D01*
X143533475Y-118726632D01*
X143650000Y-118552240D01*
X143766525Y-118726632D01*
X143973368Y-118933475D01*
X144147760Y-119050000D01*
X143973368Y-119166525D01*
X143766525Y-119373368D01*
X143650689Y-119546729D01*
X143408397Y-119471208D01*
X142559605Y-120320000D01*
X143408397Y-121168792D01*
X143650689Y-121093271D01*
X143766525Y-121266632D01*
X143973368Y-121473475D01*
X144216589Y-121635990D01*
X144486842Y-121747932D01*
X144773740Y-121805000D01*
X145066260Y-121805000D01*
X145353158Y-121747932D01*
X145623411Y-121635990D01*
X145866632Y-121473475D01*
X146073475Y-121266632D01*
X146190000Y-121092240D01*
X146306525Y-121266632D01*
X146513368Y-121473475D01*
X146756589Y-121635990D01*
X147026842Y-121747932D01*
X147313740Y-121805000D01*
X147606260Y-121805000D01*
X147893158Y-121747932D01*
X148163411Y-121635990D01*
X148406632Y-121473475D01*
X148613475Y-121266632D01*
X148730000Y-121092240D01*
X148846525Y-121266632D01*
X149053368Y-121473475D01*
X149296589Y-121635990D01*
X149566842Y-121747932D01*
X149853740Y-121805000D01*
X150146260Y-121805000D01*
X150433158Y-121747932D01*
X150703411Y-121635990D01*
X150946632Y-121473475D01*
X151153475Y-121266632D01*
X151270000Y-121092240D01*
X151386525Y-121266632D01*
X151593368Y-121473475D01*
X151836589Y-121635990D01*
X152106842Y-121747932D01*
X152393740Y-121805000D01*
X152686260Y-121805000D01*
X152973158Y-121747932D01*
X153243411Y-121635990D01*
X153486632Y-121473475D01*
X153693475Y-121266632D01*
X153810000Y-121092240D01*
X153926525Y-121266632D01*
X154133368Y-121473475D01*
X154376589Y-121635990D01*
X154646842Y-121747932D01*
X154933740Y-121805000D01*
X155226260Y-121805000D01*
X155513158Y-121747932D01*
X155783411Y-121635990D01*
X156026632Y-121473475D01*
X156233475Y-121266632D01*
X156350000Y-121092240D01*
X156466525Y-121266632D01*
X156673368Y-121473475D01*
X156916589Y-121635990D01*
X157186842Y-121747932D01*
X157473740Y-121805000D01*
X157766260Y-121805000D01*
X158053158Y-121747932D01*
X158323411Y-121635990D01*
X158566632Y-121473475D01*
X158773475Y-121266632D01*
X158890000Y-121092240D01*
X159006525Y-121266632D01*
X159213368Y-121473475D01*
X159456589Y-121635990D01*
X159726842Y-121747932D01*
X160013740Y-121805000D01*
X160306260Y-121805000D01*
X160593158Y-121747932D01*
X160863411Y-121635990D01*
X161106632Y-121473475D01*
X161313475Y-121266632D01*
X161475990Y-121023411D01*
X161587932Y-120753158D01*
X161645000Y-120466260D01*
X161645000Y-120173740D01*
X161587932Y-119886842D01*
X161556103Y-119810000D01*
X166702375Y-119810000D01*
X166628100Y-119824774D01*
X166439742Y-119902795D01*
X166270224Y-120016063D01*
X166126061Y-120160226D01*
X166012793Y-120329744D01*
X165934772Y-120518102D01*
X165894998Y-120718061D01*
X165894998Y-120921939D01*
X165934772Y-121121898D01*
X166012793Y-121310256D01*
X166126061Y-121479774D01*
X166270224Y-121623937D01*
X166439742Y-121737205D01*
X166628100Y-121815226D01*
X166828059Y-121855000D01*
X167031937Y-121855000D01*
X167231896Y-121815226D01*
X167420254Y-121737205D01*
X167589772Y-121623937D01*
X167733935Y-121479774D01*
X167847203Y-121310256D01*
X167925224Y-121121898D01*
X167964998Y-120921939D01*
X167964998Y-120718061D01*
X167925224Y-120518102D01*
X167847203Y-120329744D01*
X167733935Y-120160226D01*
X167589772Y-120016063D01*
X167420254Y-119902795D01*
X167231896Y-119824774D01*
X167157621Y-119810000D01*
X176513014Y-119810000D01*
X176297683Y-119925097D01*
X176010655Y-120160655D01*
X175775097Y-120447683D01*
X175600061Y-120775152D01*
X175492275Y-121130476D01*
X175455880Y-121500000D01*
X175492275Y-121869524D01*
X175600061Y-122224848D01*
X175661611Y-122340000D01*
X138032279Y-122340000D01*
X137934576Y-122330420D01*
X137871643Y-122311420D01*
X137813594Y-122280554D01*
X137762657Y-122239011D01*
X137720752Y-122188356D01*
X137689485Y-122130529D01*
X137670044Y-122067728D01*
X137660000Y-121972165D01*
X137660000Y-111080000D01*
X138351928Y-111080000D01*
X138351928Y-112780000D01*
X138364188Y-112904482D01*
X138400498Y-113024180D01*
X138459463Y-113134494D01*
X138538815Y-113231185D01*
X138635506Y-113310537D01*
X138745820Y-113369502D01*
X138865518Y-113405812D01*
X138990000Y-113418072D01*
X140690000Y-113418072D01*
X140814482Y-113405812D01*
X140934180Y-113369502D01*
X141044494Y-113310537D01*
X141141185Y-113231185D01*
X141220537Y-113134494D01*
X141279502Y-113024180D01*
X141301513Y-112951620D01*
X141433368Y-113083475D01*
X141676589Y-113245990D01*
X141946842Y-113357932D01*
X142233740Y-113415000D01*
X142526260Y-113415000D01*
X142813158Y-113357932D01*
X143083411Y-113245990D01*
X143326632Y-113083475D01*
X143533475Y-112876632D01*
X143650000Y-112702240D01*
X143766525Y-112876632D01*
X143973368Y-113083475D01*
X144216589Y-113245990D01*
X144486842Y-113357932D01*
X144773740Y-113415000D01*
X145066260Y-113415000D01*
X145353158Y-113357932D01*
X145623411Y-113245990D01*
X145866632Y-113083475D01*
X146073475Y-112876632D01*
X146235990Y-112633411D01*
X146347932Y-112363158D01*
X146405000Y-112076260D01*
X146405000Y-111783740D01*
X146347932Y-111496842D01*
X146331868Y-111458059D01*
X168095000Y-111458059D01*
X168095000Y-111661937D01*
X168134774Y-111861896D01*
X168212795Y-112050254D01*
X168326063Y-112219772D01*
X168470226Y-112363935D01*
X168639744Y-112477203D01*
X168828102Y-112555224D01*
X169028061Y-112594998D01*
X169231939Y-112594998D01*
X169431898Y-112555224D01*
X169620256Y-112477203D01*
X169789774Y-112363935D01*
X169933937Y-112219772D01*
X170047205Y-112050254D01*
X170125226Y-111861896D01*
X170165000Y-111661937D01*
X170165000Y-111458059D01*
X170125226Y-111258100D01*
X170047205Y-111069742D01*
X169933937Y-110900224D01*
X169789774Y-110756061D01*
X169620256Y-110642793D01*
X169431898Y-110564772D01*
X169231939Y-110524998D01*
X169028061Y-110524998D01*
X168828102Y-110564772D01*
X168639744Y-110642793D01*
X168470226Y-110756061D01*
X168326063Y-110900224D01*
X168212795Y-111069742D01*
X168134774Y-111258100D01*
X168095000Y-111458059D01*
X146331868Y-111458059D01*
X146235990Y-111226589D01*
X146073475Y-110983368D01*
X145866632Y-110776525D01*
X145692240Y-110660000D01*
X145866632Y-110543475D01*
X146073475Y-110336632D01*
X146235990Y-110093411D01*
X146304479Y-109928061D01*
X164565000Y-109928061D01*
X164565000Y-110131939D01*
X164604774Y-110331898D01*
X164682795Y-110520256D01*
X164796063Y-110689774D01*
X164940226Y-110833937D01*
X165109744Y-110947205D01*
X165298102Y-111025226D01*
X165498061Y-111065000D01*
X165701939Y-111065000D01*
X165901898Y-111025226D01*
X166090256Y-110947205D01*
X166259774Y-110833937D01*
X166403937Y-110689774D01*
X166517205Y-110520256D01*
X166595226Y-110331898D01*
X166635000Y-110131939D01*
X166635000Y-109928061D01*
X166595226Y-109728102D01*
X166517205Y-109539744D01*
X166435900Y-109418061D01*
X173845000Y-109418061D01*
X173845000Y-109621939D01*
X173884774Y-109821898D01*
X173962795Y-110010256D01*
X174076063Y-110179774D01*
X174220226Y-110323937D01*
X174389744Y-110437205D01*
X174578102Y-110515226D01*
X174778061Y-110555000D01*
X174981939Y-110555000D01*
X175181898Y-110515226D01*
X175370256Y-110437205D01*
X175539774Y-110323937D01*
X175683937Y-110179774D01*
X175797205Y-110010256D01*
X175875226Y-109821898D01*
X175915000Y-109621939D01*
X175915000Y-109418061D01*
X175875226Y-109218102D01*
X175833788Y-109118061D01*
X183065000Y-109118061D01*
X183065000Y-109321939D01*
X183104774Y-109521898D01*
X183182795Y-109710256D01*
X183296063Y-109879774D01*
X183440226Y-110023937D01*
X183609744Y-110137205D01*
X183798102Y-110215226D01*
X183998061Y-110255000D01*
X184201939Y-110255000D01*
X184401898Y-110215226D01*
X184590256Y-110137205D01*
X184759774Y-110023937D01*
X184903937Y-109879774D01*
X185017205Y-109710256D01*
X185095226Y-109521898D01*
X185135000Y-109321939D01*
X185135000Y-109118061D01*
X185095226Y-108918102D01*
X185017205Y-108729744D01*
X184903937Y-108560226D01*
X184759774Y-108416063D01*
X184590256Y-108302795D01*
X184401898Y-108224774D01*
X184201939Y-108185000D01*
X183998061Y-108185000D01*
X183798102Y-108224774D01*
X183609744Y-108302795D01*
X183440226Y-108416063D01*
X183296063Y-108560226D01*
X183182795Y-108729744D01*
X183104774Y-108918102D01*
X183065000Y-109118061D01*
X175833788Y-109118061D01*
X175797205Y-109029744D01*
X175683937Y-108860226D01*
X175539774Y-108716063D01*
X175370256Y-108602795D01*
X175181898Y-108524774D01*
X174981939Y-108485000D01*
X174778061Y-108485000D01*
X174578102Y-108524774D01*
X174389744Y-108602795D01*
X174220226Y-108716063D01*
X174076063Y-108860226D01*
X173962795Y-109029744D01*
X173884774Y-109218102D01*
X173845000Y-109418061D01*
X166435900Y-109418061D01*
X166403937Y-109370226D01*
X166259774Y-109226063D01*
X166090256Y-109112795D01*
X165901898Y-109034774D01*
X165701939Y-108995000D01*
X165498061Y-108995000D01*
X165298102Y-109034774D01*
X165109744Y-109112795D01*
X164940226Y-109226063D01*
X164796063Y-109370226D01*
X164682795Y-109539744D01*
X164604774Y-109728102D01*
X164565000Y-109928061D01*
X146304479Y-109928061D01*
X146347932Y-109823158D01*
X146405000Y-109536260D01*
X146405000Y-109243740D01*
X146347932Y-108956842D01*
X146235990Y-108686589D01*
X146073475Y-108443368D01*
X145866632Y-108236525D01*
X145623411Y-108074010D01*
X145353158Y-107962068D01*
X145066260Y-107905000D01*
X144773740Y-107905000D01*
X144486842Y-107962068D01*
X144216589Y-108074010D01*
X143973368Y-108236525D01*
X143766525Y-108443368D01*
X143650000Y-108617760D01*
X143533475Y-108443368D01*
X143326632Y-108236525D01*
X143083411Y-108074010D01*
X142813158Y-107962068D01*
X142526260Y-107905000D01*
X142233740Y-107905000D01*
X141946842Y-107962068D01*
X141676589Y-108074010D01*
X141433368Y-108236525D01*
X141226525Y-108443368D01*
X141110000Y-108617760D01*
X140993475Y-108443368D01*
X140786632Y-108236525D01*
X140543411Y-108074010D01*
X140273158Y-107962068D01*
X139986260Y-107905000D01*
X139693740Y-107905000D01*
X139406842Y-107962068D01*
X139136589Y-108074010D01*
X138893368Y-108236525D01*
X138686525Y-108443368D01*
X138524010Y-108686589D01*
X138412068Y-108956842D01*
X138355000Y-109243740D01*
X138355000Y-109536260D01*
X138412068Y-109823158D01*
X138524010Y-110093411D01*
X138686525Y-110336632D01*
X138818380Y-110468487D01*
X138745820Y-110490498D01*
X138635506Y-110549463D01*
X138538815Y-110628815D01*
X138459463Y-110725506D01*
X138400498Y-110835820D01*
X138364188Y-110955518D01*
X138351928Y-111080000D01*
X137660000Y-111080000D01*
X137660000Y-104150000D01*
X138351928Y-104150000D01*
X138351928Y-105850000D01*
X138364188Y-105974482D01*
X138400498Y-106094180D01*
X138459463Y-106204494D01*
X138538815Y-106301185D01*
X138635506Y-106380537D01*
X138745820Y-106439502D01*
X138865518Y-106475812D01*
X138990000Y-106488072D01*
X140690000Y-106488072D01*
X140814482Y-106475812D01*
X140934180Y-106439502D01*
X141044494Y-106380537D01*
X141141185Y-106301185D01*
X141220537Y-106204494D01*
X141279502Y-106094180D01*
X141301513Y-106021620D01*
X141433368Y-106153475D01*
X141676589Y-106315990D01*
X141946842Y-106427932D01*
X142233740Y-106485000D01*
X142526260Y-106485000D01*
X142813158Y-106427932D01*
X143083411Y-106315990D01*
X143326632Y-106153475D01*
X143533475Y-105946632D01*
X143650000Y-105772240D01*
X143766525Y-105946632D01*
X143973368Y-106153475D01*
X144216589Y-106315990D01*
X144486842Y-106427932D01*
X144773740Y-106485000D01*
X145066260Y-106485000D01*
X145286408Y-106441209D01*
X146566201Y-107721003D01*
X146589999Y-107750001D01*
X146618997Y-107773799D01*
X146705723Y-107844974D01*
X146818023Y-107905000D01*
X146837753Y-107915546D01*
X146981014Y-107959003D01*
X147092667Y-107970000D01*
X147092677Y-107970000D01*
X147130000Y-107973676D01*
X147167323Y-107970000D01*
X148456289Y-107970000D01*
X148500226Y-108013937D01*
X148669744Y-108127205D01*
X148858102Y-108205226D01*
X149058061Y-108245000D01*
X149261939Y-108245000D01*
X149461898Y-108205226D01*
X149650256Y-108127205D01*
X149819774Y-108013937D01*
X149963937Y-107869774D01*
X150031899Y-107768061D01*
X156885000Y-107768061D01*
X156885000Y-107971939D01*
X156924774Y-108171898D01*
X157002795Y-108360256D01*
X157116063Y-108529774D01*
X157260226Y-108673937D01*
X157429744Y-108787205D01*
X157618102Y-108865226D01*
X157818061Y-108905000D01*
X158021939Y-108905000D01*
X158221898Y-108865226D01*
X158410256Y-108787205D01*
X158579774Y-108673937D01*
X158723937Y-108529774D01*
X158837205Y-108360256D01*
X158915226Y-108171898D01*
X158955000Y-107971939D01*
X158955000Y-107768061D01*
X158915226Y-107568102D01*
X158837205Y-107379744D01*
X158723937Y-107210226D01*
X158579774Y-107066063D01*
X158410256Y-106952795D01*
X158221898Y-106874774D01*
X158021939Y-106835000D01*
X157818061Y-106835000D01*
X157618102Y-106874774D01*
X157429744Y-106952795D01*
X157260226Y-107066063D01*
X157116063Y-107210226D01*
X157002795Y-107379744D01*
X156924774Y-107568102D01*
X156885000Y-107768061D01*
X150031899Y-107768061D01*
X150077205Y-107700256D01*
X150155226Y-107511898D01*
X150195000Y-107311939D01*
X150195000Y-107108061D01*
X150155226Y-106908102D01*
X150077205Y-106719744D01*
X149963937Y-106550226D01*
X149898711Y-106485000D01*
X150146260Y-106485000D01*
X150433158Y-106427932D01*
X150703411Y-106315990D01*
X150946632Y-106153475D01*
X151153475Y-105946632D01*
X151270000Y-105772240D01*
X151386525Y-105946632D01*
X151593368Y-106153475D01*
X151836589Y-106315990D01*
X152106842Y-106427932D01*
X152393740Y-106485000D01*
X152686260Y-106485000D01*
X152973158Y-106427932D01*
X153243411Y-106315990D01*
X153486632Y-106153475D01*
X153693475Y-105946632D01*
X153810000Y-105772240D01*
X153926525Y-105946632D01*
X154133368Y-106153475D01*
X154376589Y-106315990D01*
X154646842Y-106427932D01*
X154933740Y-106485000D01*
X155226260Y-106485000D01*
X155513158Y-106427932D01*
X155783411Y-106315990D01*
X156026632Y-106153475D01*
X156233475Y-105946632D01*
X156350000Y-105772240D01*
X156466525Y-105946632D01*
X156673368Y-106153475D01*
X156916589Y-106315990D01*
X157186842Y-106427932D01*
X157473740Y-106485000D01*
X157766260Y-106485000D01*
X158053158Y-106427932D01*
X158323411Y-106315990D01*
X158566632Y-106153475D01*
X158773475Y-105946632D01*
X158890000Y-105772240D01*
X159006525Y-105946632D01*
X159213368Y-106153475D01*
X159456589Y-106315990D01*
X159726842Y-106427932D01*
X160013740Y-106485000D01*
X160306260Y-106485000D01*
X160593158Y-106427932D01*
X160863411Y-106315990D01*
X161106632Y-106153475D01*
X161313475Y-105946632D01*
X161430000Y-105772240D01*
X161546525Y-105946632D01*
X161753368Y-106153475D01*
X161996589Y-106315990D01*
X162266842Y-106427932D01*
X162553740Y-106485000D01*
X162846260Y-106485000D01*
X163133158Y-106427932D01*
X163403411Y-106315990D01*
X163646632Y-106153475D01*
X163853475Y-105946632D01*
X164015990Y-105703411D01*
X164127932Y-105433158D01*
X164185000Y-105146260D01*
X164185000Y-104853740D01*
X164134142Y-104598061D01*
X173025000Y-104598061D01*
X173025000Y-104801939D01*
X173064774Y-105001898D01*
X173142795Y-105190256D01*
X173256063Y-105359774D01*
X173400226Y-105503937D01*
X173569744Y-105617205D01*
X173758102Y-105695226D01*
X173958061Y-105735000D01*
X174161939Y-105735000D01*
X174361898Y-105695226D01*
X174550256Y-105617205D01*
X174719774Y-105503937D01*
X174721876Y-105501835D01*
X174788061Y-105515000D01*
X174991939Y-105515000D01*
X175191898Y-105475226D01*
X175380256Y-105397205D01*
X175549774Y-105283937D01*
X175693937Y-105139774D01*
X175807205Y-104970256D01*
X175885226Y-104781898D01*
X175899912Y-104708061D01*
X183065000Y-104708061D01*
X183065000Y-104911939D01*
X183104774Y-105111898D01*
X183182795Y-105300256D01*
X183296063Y-105469774D01*
X183440226Y-105613937D01*
X183479408Y-105640118D01*
X183392795Y-105769744D01*
X183314774Y-105958102D01*
X183275000Y-106158061D01*
X183275000Y-106361939D01*
X183314774Y-106561898D01*
X183392795Y-106750256D01*
X183506063Y-106919774D01*
X183650226Y-107063937D01*
X183819744Y-107177205D01*
X184008102Y-107255226D01*
X184208061Y-107295000D01*
X184411939Y-107295000D01*
X184611898Y-107255226D01*
X184624514Y-107250000D01*
X191848299Y-107250000D01*
X191875040Y-107521507D01*
X191954236Y-107782581D01*
X192082843Y-108023188D01*
X192255919Y-108234081D01*
X192466812Y-108407157D01*
X192707419Y-108535764D01*
X192968493Y-108614960D01*
X193171963Y-108635000D01*
X194908037Y-108635000D01*
X195111507Y-108614960D01*
X195372581Y-108535764D01*
X195613188Y-108407157D01*
X195824081Y-108234081D01*
X195997157Y-108023188D01*
X196125764Y-107782581D01*
X196204960Y-107521507D01*
X196231701Y-107250000D01*
X198208299Y-107250000D01*
X198235040Y-107521507D01*
X198314236Y-107782581D01*
X198442843Y-108023188D01*
X198615919Y-108234081D01*
X198826812Y-108407157D01*
X199067419Y-108535764D01*
X199328493Y-108614960D01*
X199531963Y-108635000D01*
X200468037Y-108635000D01*
X200671507Y-108614960D01*
X200932581Y-108535764D01*
X201173188Y-108407157D01*
X201384081Y-108234081D01*
X201557157Y-108023188D01*
X201685764Y-107782581D01*
X201764960Y-107521507D01*
X201791701Y-107250000D01*
X201764960Y-106978493D01*
X201685764Y-106717419D01*
X201557157Y-106476812D01*
X201384081Y-106265919D01*
X201173188Y-106092843D01*
X200932581Y-105964236D01*
X200671507Y-105885040D01*
X200468037Y-105865000D01*
X199531963Y-105865000D01*
X199328493Y-105885040D01*
X199067419Y-105964236D01*
X198826812Y-106092843D01*
X198615919Y-106265919D01*
X198442843Y-106476812D01*
X198314236Y-106717419D01*
X198235040Y-106978493D01*
X198208299Y-107250000D01*
X196231701Y-107250000D01*
X196204960Y-106978493D01*
X196125764Y-106717419D01*
X195997157Y-106476812D01*
X195824081Y-106265919D01*
X195613188Y-106092843D01*
X195372581Y-105964236D01*
X195111507Y-105885040D01*
X194908037Y-105865000D01*
X193171963Y-105865000D01*
X192968493Y-105885040D01*
X192707419Y-105964236D01*
X192466812Y-106092843D01*
X192255919Y-106265919D01*
X192082843Y-106476812D01*
X191954236Y-106717419D01*
X191875040Y-106978493D01*
X191848299Y-107250000D01*
X184624514Y-107250000D01*
X184800256Y-107177205D01*
X184969774Y-107063937D01*
X185113937Y-106919774D01*
X185227205Y-106750256D01*
X185305226Y-106561898D01*
X185345000Y-106361939D01*
X185345000Y-106158061D01*
X185305226Y-105958102D01*
X185227205Y-105769744D01*
X185113937Y-105600226D01*
X184969774Y-105456063D01*
X184930592Y-105429882D01*
X185017205Y-105300256D01*
X185095226Y-105111898D01*
X185135000Y-104911939D01*
X185135000Y-104708061D01*
X185095226Y-104508102D01*
X185017205Y-104319744D01*
X184903937Y-104150226D01*
X184759774Y-104006063D01*
X184590256Y-103892795D01*
X184401898Y-103814774D01*
X184201939Y-103775000D01*
X183998061Y-103775000D01*
X183798102Y-103814774D01*
X183609744Y-103892795D01*
X183440226Y-104006063D01*
X183296063Y-104150226D01*
X183182795Y-104319744D01*
X183104774Y-104508102D01*
X183065000Y-104708061D01*
X175899912Y-104708061D01*
X175925000Y-104581939D01*
X175925000Y-104378061D01*
X175885226Y-104178102D01*
X175807205Y-103989744D01*
X175693937Y-103820226D01*
X175549774Y-103676063D01*
X175380256Y-103562795D01*
X175191898Y-103484774D01*
X174991939Y-103445000D01*
X174788061Y-103445000D01*
X174588102Y-103484774D01*
X174399744Y-103562795D01*
X174230226Y-103676063D01*
X174228124Y-103678165D01*
X174161939Y-103665000D01*
X173958061Y-103665000D01*
X173758102Y-103704774D01*
X173569744Y-103782795D01*
X173400226Y-103896063D01*
X173256063Y-104040226D01*
X173142795Y-104209744D01*
X173064774Y-104398102D01*
X173025000Y-104598061D01*
X164134142Y-104598061D01*
X164127932Y-104566842D01*
X164015990Y-104296589D01*
X163853475Y-104053368D01*
X163646632Y-103846525D01*
X163403411Y-103684010D01*
X163133158Y-103572068D01*
X162846260Y-103515000D01*
X162553740Y-103515000D01*
X162266842Y-103572068D01*
X161996589Y-103684010D01*
X161753368Y-103846525D01*
X161546525Y-104053368D01*
X161430000Y-104227760D01*
X161313475Y-104053368D01*
X161106632Y-103846525D01*
X160863411Y-103684010D01*
X160593158Y-103572068D01*
X160306260Y-103515000D01*
X160013740Y-103515000D01*
X159726842Y-103572068D01*
X159456589Y-103684010D01*
X159213368Y-103846525D01*
X159006525Y-104053368D01*
X158890000Y-104227760D01*
X158773475Y-104053368D01*
X158566632Y-103846525D01*
X158323411Y-103684010D01*
X158053158Y-103572068D01*
X157766260Y-103515000D01*
X157473740Y-103515000D01*
X157186842Y-103572068D01*
X156916589Y-103684010D01*
X156673368Y-103846525D01*
X156466525Y-104053368D01*
X156350000Y-104227760D01*
X156233475Y-104053368D01*
X156026632Y-103846525D01*
X155783411Y-103684010D01*
X155513158Y-103572068D01*
X155226260Y-103515000D01*
X154933740Y-103515000D01*
X154646842Y-103572068D01*
X154376589Y-103684010D01*
X154133368Y-103846525D01*
X153926525Y-104053368D01*
X153810000Y-104227760D01*
X153693475Y-104053368D01*
X153486632Y-103846525D01*
X153243411Y-103684010D01*
X152973158Y-103572068D01*
X152686260Y-103515000D01*
X152393740Y-103515000D01*
X152106842Y-103572068D01*
X151836589Y-103684010D01*
X151593368Y-103846525D01*
X151386525Y-104053368D01*
X151270000Y-104227760D01*
X151153475Y-104053368D01*
X150946632Y-103846525D01*
X150703411Y-103684010D01*
X150433158Y-103572068D01*
X150146260Y-103515000D01*
X149853740Y-103515000D01*
X149566842Y-103572068D01*
X149296589Y-103684010D01*
X149053368Y-103846525D01*
X148846525Y-104053368D01*
X148730000Y-104227760D01*
X148613475Y-104053368D01*
X148406632Y-103846525D01*
X148163411Y-103684010D01*
X147893158Y-103572068D01*
X147606260Y-103515000D01*
X147313740Y-103515000D01*
X147026842Y-103572068D01*
X146756589Y-103684010D01*
X146513368Y-103846525D01*
X146306525Y-104053368D01*
X146190000Y-104227760D01*
X146073475Y-104053368D01*
X145866632Y-103846525D01*
X145623411Y-103684010D01*
X145353158Y-103572068D01*
X145066260Y-103515000D01*
X144773740Y-103515000D01*
X144486842Y-103572068D01*
X144216589Y-103684010D01*
X143973368Y-103846525D01*
X143766525Y-104053368D01*
X143650000Y-104227760D01*
X143533475Y-104053368D01*
X143326632Y-103846525D01*
X143083411Y-103684010D01*
X142813158Y-103572068D01*
X142526260Y-103515000D01*
X142233740Y-103515000D01*
X141946842Y-103572068D01*
X141676589Y-103684010D01*
X141433368Y-103846525D01*
X141301513Y-103978380D01*
X141279502Y-103905820D01*
X141220537Y-103795506D01*
X141141185Y-103698815D01*
X141044494Y-103619463D01*
X140934180Y-103560498D01*
X140814482Y-103524188D01*
X140690000Y-103511928D01*
X138990000Y-103511928D01*
X138865518Y-103524188D01*
X138745820Y-103560498D01*
X138635506Y-103619463D01*
X138538815Y-103698815D01*
X138459463Y-103795506D01*
X138400498Y-103905820D01*
X138364188Y-104025518D01*
X138351928Y-104150000D01*
X137660000Y-104150000D01*
X137660000Y-102448061D01*
X171615000Y-102448061D01*
X171615000Y-102651939D01*
X171654774Y-102851898D01*
X171732795Y-103040256D01*
X171846063Y-103209774D01*
X171990226Y-103353937D01*
X172159744Y-103467205D01*
X172348102Y-103545226D01*
X172548061Y-103585000D01*
X172751939Y-103585000D01*
X172951898Y-103545226D01*
X173140256Y-103467205D01*
X173258703Y-103388061D01*
X194145000Y-103388061D01*
X194145000Y-103591939D01*
X194184774Y-103791898D01*
X194262795Y-103980256D01*
X194376063Y-104149774D01*
X194520226Y-104293937D01*
X194689744Y-104407205D01*
X194878102Y-104485226D01*
X195078061Y-104525000D01*
X195281939Y-104525000D01*
X195481898Y-104485226D01*
X195670256Y-104407205D01*
X195839774Y-104293937D01*
X195983937Y-104149774D01*
X196097205Y-103980256D01*
X196175226Y-103791898D01*
X196215000Y-103591939D01*
X196215000Y-103388061D01*
X196175226Y-103188102D01*
X196097205Y-102999744D01*
X195983937Y-102830226D01*
X195839774Y-102686063D01*
X195670256Y-102572795D01*
X195481898Y-102494774D01*
X195281939Y-102455000D01*
X195078061Y-102455000D01*
X194878102Y-102494774D01*
X194689744Y-102572795D01*
X194520226Y-102686063D01*
X194376063Y-102830226D01*
X194262795Y-102999744D01*
X194184774Y-103188102D01*
X194145000Y-103388061D01*
X173258703Y-103388061D01*
X173309774Y-103353937D01*
X173453937Y-103209774D01*
X173567205Y-103040256D01*
X173645226Y-102851898D01*
X173685000Y-102651939D01*
X173685000Y-102448061D01*
X173645226Y-102248102D01*
X173583077Y-102098061D01*
X183065000Y-102098061D01*
X183065000Y-102301939D01*
X183104774Y-102501898D01*
X183182795Y-102690256D01*
X183296063Y-102859774D01*
X183440226Y-103003937D01*
X183609744Y-103117205D01*
X183798102Y-103195226D01*
X183998061Y-103235000D01*
X184201939Y-103235000D01*
X184401898Y-103195226D01*
X184590256Y-103117205D01*
X184759774Y-103003937D01*
X184903937Y-102859774D01*
X185017205Y-102690256D01*
X185095226Y-102501898D01*
X185135000Y-102301939D01*
X185135000Y-102098061D01*
X185095226Y-101898102D01*
X185017205Y-101709744D01*
X184903937Y-101540226D01*
X184759774Y-101396063D01*
X184590256Y-101282795D01*
X184401898Y-101204774D01*
X184201939Y-101165000D01*
X183998061Y-101165000D01*
X183798102Y-101204774D01*
X183609744Y-101282795D01*
X183440226Y-101396063D01*
X183296063Y-101540226D01*
X183182795Y-101709744D01*
X183104774Y-101898102D01*
X183065000Y-102098061D01*
X173583077Y-102098061D01*
X173567205Y-102059744D01*
X173453937Y-101890226D01*
X173309774Y-101746063D01*
X173140256Y-101632795D01*
X172951898Y-101554774D01*
X172751939Y-101515000D01*
X172548061Y-101515000D01*
X172348102Y-101554774D01*
X172159744Y-101632795D01*
X171990226Y-101746063D01*
X171846063Y-101890226D01*
X171732795Y-102059744D01*
X171654774Y-102248102D01*
X171615000Y-102448061D01*
X137660000Y-102448061D01*
X137660000Y-97628061D01*
X173025000Y-97628061D01*
X173025000Y-97831939D01*
X173064774Y-98031898D01*
X173142795Y-98220256D01*
X173256063Y-98389774D01*
X173400226Y-98533937D01*
X173569744Y-98647205D01*
X173758102Y-98725226D01*
X173958061Y-98765000D01*
X174161939Y-98765000D01*
X174361898Y-98725226D01*
X174550256Y-98647205D01*
X174719774Y-98533937D01*
X174863937Y-98389774D01*
X174977205Y-98220256D01*
X175055226Y-98031898D01*
X175095000Y-97831939D01*
X175095000Y-97698061D01*
X183065000Y-97698061D01*
X183065000Y-97901939D01*
X183104774Y-98101898D01*
X183182795Y-98290256D01*
X183296063Y-98459774D01*
X183440226Y-98603937D01*
X183609744Y-98717205D01*
X183798102Y-98795226D01*
X183998061Y-98835000D01*
X184201939Y-98835000D01*
X184401898Y-98795226D01*
X184590256Y-98717205D01*
X184759774Y-98603937D01*
X184903937Y-98459774D01*
X185017205Y-98290256D01*
X185095226Y-98101898D01*
X185135000Y-97901939D01*
X185135000Y-97698061D01*
X185095226Y-97498102D01*
X185017205Y-97309744D01*
X184903937Y-97140226D01*
X184759774Y-96996063D01*
X184590256Y-96882795D01*
X184401898Y-96804774D01*
X184201939Y-96765000D01*
X183998061Y-96765000D01*
X183798102Y-96804774D01*
X183609744Y-96882795D01*
X183440226Y-96996063D01*
X183296063Y-97140226D01*
X183182795Y-97309744D01*
X183104774Y-97498102D01*
X183065000Y-97698061D01*
X175095000Y-97698061D01*
X175095000Y-97628061D01*
X175055226Y-97428102D01*
X174977205Y-97239744D01*
X174863937Y-97070226D01*
X174719774Y-96926063D01*
X174550256Y-96812795D01*
X174361898Y-96734774D01*
X174161939Y-96695000D01*
X173958061Y-96695000D01*
X173758102Y-96734774D01*
X173569744Y-96812795D01*
X173400226Y-96926063D01*
X173256063Y-97070226D01*
X173142795Y-97239744D01*
X173064774Y-97428102D01*
X173025000Y-97628061D01*
X137660000Y-97628061D01*
X137660000Y-78032279D01*
X137669580Y-77934576D01*
X137688580Y-77871644D01*
X137719445Y-77813595D01*
X137760989Y-77762657D01*
X137811644Y-77720752D01*
X137869471Y-77689485D01*
X137932272Y-77670044D01*
X138027835Y-77660000D01*
X159085198Y-77660000D01*
X158389002Y-78356197D01*
%TA.AperFunction,Conductor*%
D24*
G36*
X158389002Y-78356197D02*
G01*
X158359999Y-78379999D01*
X158355473Y-78385513D01*
X158127117Y-78276629D01*
X157843589Y-78204661D01*
X157551469Y-78189389D01*
X157261981Y-78231401D01*
X156986253Y-78329081D01*
X156848843Y-78402528D01*
X156771208Y-78651603D01*
X157620000Y-79500395D01*
X157634143Y-79486253D01*
X157813748Y-79665858D01*
X157799605Y-79680000D01*
X157813748Y-79694143D01*
X157634143Y-79873748D01*
X157620000Y-79859605D01*
X157605858Y-79873748D01*
X157426253Y-79694143D01*
X157440395Y-79680000D01*
X156591603Y-78831208D01*
X156349311Y-78906729D01*
X156233475Y-78733368D01*
X156026632Y-78526525D01*
X155783411Y-78364010D01*
X155513158Y-78252068D01*
X155226260Y-78195000D01*
X154933740Y-78195000D01*
X154646842Y-78252068D01*
X154376589Y-78364010D01*
X154133368Y-78526525D01*
X153926525Y-78733368D01*
X153810000Y-78907760D01*
X153693475Y-78733368D01*
X153486632Y-78526525D01*
X153243411Y-78364010D01*
X152973158Y-78252068D01*
X152686260Y-78195000D01*
X152393740Y-78195000D01*
X152106842Y-78252068D01*
X151836589Y-78364010D01*
X151593368Y-78526525D01*
X151386525Y-78733368D01*
X151270000Y-78907760D01*
X151153475Y-78733368D01*
X150946632Y-78526525D01*
X150703411Y-78364010D01*
X150433158Y-78252068D01*
X150146260Y-78195000D01*
X149853740Y-78195000D01*
X149566842Y-78252068D01*
X149296589Y-78364010D01*
X149053368Y-78526525D01*
X148846525Y-78733368D01*
X148730000Y-78907760D01*
X148613475Y-78733368D01*
X148406632Y-78526525D01*
X148163411Y-78364010D01*
X147893158Y-78252068D01*
X147606260Y-78195000D01*
X147313740Y-78195000D01*
X147026842Y-78252068D01*
X146756589Y-78364010D01*
X146513368Y-78526525D01*
X146306525Y-78733368D01*
X146190000Y-78907760D01*
X146073475Y-78733368D01*
X145866632Y-78526525D01*
X145623411Y-78364010D01*
X145353158Y-78252068D01*
X145066260Y-78195000D01*
X144773740Y-78195000D01*
X144486842Y-78252068D01*
X144216589Y-78364010D01*
X143973368Y-78526525D01*
X143766525Y-78733368D01*
X143650000Y-78907760D01*
X143533475Y-78733368D01*
X143326632Y-78526525D01*
X143083411Y-78364010D01*
X142813158Y-78252068D01*
X142526260Y-78195000D01*
X142233740Y-78195000D01*
X141946842Y-78252068D01*
X141676589Y-78364010D01*
X141433368Y-78526525D01*
X141226525Y-78733368D01*
X141110000Y-78907760D01*
X140993475Y-78733368D01*
X140786632Y-78526525D01*
X140543411Y-78364010D01*
X140273158Y-78252068D01*
X139986260Y-78195000D01*
X139693740Y-78195000D01*
X139406842Y-78252068D01*
X139136589Y-78364010D01*
X138893368Y-78526525D01*
X138686525Y-78733368D01*
X138524010Y-78976589D01*
X138412068Y-79246842D01*
X138355000Y-79533740D01*
X138355000Y-79826260D01*
X138412068Y-80113158D01*
X138524010Y-80383411D01*
X138686525Y-80626632D01*
X138893368Y-80833475D01*
X139067760Y-80950000D01*
X138893368Y-81066525D01*
X138686525Y-81273368D01*
X138524010Y-81516589D01*
X138412068Y-81786842D01*
X138355000Y-82073740D01*
X138355000Y-82366260D01*
X138412068Y-82653158D01*
X138524010Y-82923411D01*
X138686525Y-83166632D01*
X138893368Y-83373475D01*
X139067760Y-83490000D01*
X138893368Y-83606525D01*
X138686525Y-83813368D01*
X138524010Y-84056589D01*
X138412068Y-84326842D01*
X138355000Y-84613740D01*
X138355000Y-84906260D01*
X138412068Y-85193158D01*
X138524010Y-85463411D01*
X138686525Y-85706632D01*
X138893368Y-85913475D01*
X139136589Y-86075990D01*
X139406842Y-86187932D01*
X139693740Y-86245000D01*
X139986260Y-86245000D01*
X140273158Y-86187932D01*
X140543411Y-86075990D01*
X140786632Y-85913475D01*
X140993475Y-85706632D01*
X141110000Y-85532240D01*
X141226525Y-85706632D01*
X141433368Y-85913475D01*
X141676589Y-86075990D01*
X141946842Y-86187932D01*
X142233740Y-86245000D01*
X142526260Y-86245000D01*
X142813158Y-86187932D01*
X143083411Y-86075990D01*
X143326632Y-85913475D01*
X143533475Y-85706632D01*
X143650000Y-85532240D01*
X143766525Y-85706632D01*
X143973368Y-85913475D01*
X144216589Y-86075990D01*
X144486842Y-86187932D01*
X144773740Y-86245000D01*
X145066260Y-86245000D01*
X145353158Y-86187932D01*
X145623411Y-86075990D01*
X145866632Y-85913475D01*
X146073475Y-85706632D01*
X146190000Y-85532240D01*
X146306525Y-85706632D01*
X146513368Y-85913475D01*
X146756589Y-86075990D01*
X147026842Y-86187932D01*
X147313740Y-86245000D01*
X147606260Y-86245000D01*
X147893158Y-86187932D01*
X148163411Y-86075990D01*
X148406632Y-85913475D01*
X148613475Y-85706632D01*
X148730000Y-85532240D01*
X148846525Y-85706632D01*
X149053368Y-85913475D01*
X149296589Y-86075990D01*
X149566842Y-86187932D01*
X149853740Y-86245000D01*
X150146260Y-86245000D01*
X150433158Y-86187932D01*
X150703411Y-86075990D01*
X150946632Y-85913475D01*
X151153475Y-85706632D01*
X151270000Y-85532240D01*
X151386525Y-85706632D01*
X151593368Y-85913475D01*
X151780001Y-86038179D01*
X151780000Y-92145197D01*
X150366408Y-93558790D01*
X150146260Y-93515000D01*
X149853740Y-93515000D01*
X149566842Y-93572068D01*
X149296589Y-93684010D01*
X149053368Y-93846525D01*
X148846525Y-94053368D01*
X148730000Y-94227760D01*
X148613475Y-94053368D01*
X148406632Y-93846525D01*
X148163411Y-93684010D01*
X147893158Y-93572068D01*
X147606260Y-93515000D01*
X147313740Y-93515000D01*
X147026842Y-93572068D01*
X146756589Y-93684010D01*
X146513368Y-93846525D01*
X146306525Y-94053368D01*
X146190000Y-94227760D01*
X146073475Y-94053368D01*
X145866632Y-93846525D01*
X145623411Y-93684010D01*
X145353158Y-93572068D01*
X145066260Y-93515000D01*
X144773740Y-93515000D01*
X144486842Y-93572068D01*
X144216589Y-93684010D01*
X143973368Y-93846525D01*
X143766525Y-94053368D01*
X143650000Y-94227760D01*
X143533475Y-94053368D01*
X143326632Y-93846525D01*
X143083411Y-93684010D01*
X142813158Y-93572068D01*
X142526260Y-93515000D01*
X142233740Y-93515000D01*
X141946842Y-93572068D01*
X141676589Y-93684010D01*
X141433368Y-93846525D01*
X141301513Y-93978380D01*
X141279502Y-93905820D01*
X141220537Y-93795506D01*
X141141185Y-93698815D01*
X141044494Y-93619463D01*
X140934180Y-93560498D01*
X140814482Y-93524188D01*
X140690000Y-93511928D01*
X138990000Y-93511928D01*
X138865518Y-93524188D01*
X138745820Y-93560498D01*
X138635506Y-93619463D01*
X138538815Y-93698815D01*
X138459463Y-93795506D01*
X138400498Y-93905820D01*
X138364188Y-94025518D01*
X138351928Y-94150000D01*
X138351928Y-95850000D01*
X138364188Y-95974482D01*
X138400498Y-96094180D01*
X138459463Y-96204494D01*
X138538815Y-96301185D01*
X138635506Y-96380537D01*
X138745820Y-96439502D01*
X138865518Y-96475812D01*
X138990000Y-96488072D01*
X140690000Y-96488072D01*
X140814482Y-96475812D01*
X140934180Y-96439502D01*
X141044494Y-96380537D01*
X141141185Y-96301185D01*
X141220537Y-96204494D01*
X141279502Y-96094180D01*
X141301513Y-96021620D01*
X141433368Y-96153475D01*
X141676589Y-96315990D01*
X141946842Y-96427932D01*
X142233740Y-96485000D01*
X142526260Y-96485000D01*
X142813158Y-96427932D01*
X143083411Y-96315990D01*
X143326632Y-96153475D01*
X143533475Y-95946632D01*
X143650000Y-95772240D01*
X143766525Y-95946632D01*
X143973368Y-96153475D01*
X144216589Y-96315990D01*
X144486842Y-96427932D01*
X144773740Y-96485000D01*
X145066260Y-96485000D01*
X145353158Y-96427932D01*
X145623411Y-96315990D01*
X145866632Y-96153475D01*
X146073475Y-95946632D01*
X146190000Y-95772240D01*
X146306525Y-95946632D01*
X146513368Y-96153475D01*
X146756589Y-96315990D01*
X147026842Y-96427932D01*
X147313740Y-96485000D01*
X147606260Y-96485000D01*
X147893158Y-96427932D01*
X148163411Y-96315990D01*
X148406632Y-96153475D01*
X148613475Y-95946632D01*
X148730000Y-95772240D01*
X148846525Y-95946632D01*
X149053368Y-96153475D01*
X149296589Y-96315990D01*
X149566842Y-96427932D01*
X149853740Y-96485000D01*
X150146260Y-96485000D01*
X150433158Y-96427932D01*
X150703411Y-96315990D01*
X150946632Y-96153475D01*
X151153475Y-95946632D01*
X151270000Y-95772240D01*
X151386525Y-95946632D01*
X151593368Y-96153475D01*
X151836589Y-96315990D01*
X152106842Y-96427932D01*
X152393740Y-96485000D01*
X152686260Y-96485000D01*
X152973158Y-96427932D01*
X153243411Y-96315990D01*
X153486632Y-96153475D01*
X153693475Y-95946632D01*
X153810000Y-95772240D01*
X153926525Y-95946632D01*
X154133368Y-96153475D01*
X154376589Y-96315990D01*
X154646842Y-96427932D01*
X154933740Y-96485000D01*
X155226260Y-96485000D01*
X155513158Y-96427932D01*
X155783411Y-96315990D01*
X156026632Y-96153475D01*
X156233475Y-95946632D01*
X156350000Y-95772240D01*
X156466525Y-95946632D01*
X156673368Y-96153475D01*
X156916589Y-96315990D01*
X157186842Y-96427932D01*
X157473740Y-96485000D01*
X157766260Y-96485000D01*
X158053158Y-96427932D01*
X158323411Y-96315990D01*
X158566632Y-96153475D01*
X158773475Y-95946632D01*
X158890000Y-95772240D01*
X159006525Y-95946632D01*
X159213368Y-96153475D01*
X159456589Y-96315990D01*
X159726842Y-96427932D01*
X160013740Y-96485000D01*
X160306260Y-96485000D01*
X160593158Y-96427932D01*
X160863411Y-96315990D01*
X161106632Y-96153475D01*
X161313475Y-95946632D01*
X161430000Y-95772240D01*
X161546525Y-95946632D01*
X161753368Y-96153475D01*
X161996589Y-96315990D01*
X162266842Y-96427932D01*
X162553740Y-96485000D01*
X162846260Y-96485000D01*
X163133158Y-96427932D01*
X163403411Y-96315990D01*
X163646632Y-96153475D01*
X163853475Y-95946632D01*
X163885929Y-95898061D01*
X194045000Y-95898061D01*
X194045000Y-96101939D01*
X194084774Y-96301898D01*
X194162795Y-96490256D01*
X194276063Y-96659774D01*
X194416289Y-96800000D01*
X194376063Y-96840226D01*
X194262795Y-97009744D01*
X194184774Y-97198102D01*
X194145000Y-97398061D01*
X194145000Y-97601939D01*
X194184774Y-97801898D01*
X194262795Y-97990256D01*
X194376063Y-98159774D01*
X194461289Y-98245000D01*
X194366063Y-98340226D01*
X194252795Y-98509744D01*
X194174774Y-98698102D01*
X194135000Y-98898061D01*
X194135000Y-99101939D01*
X194174774Y-99301898D01*
X194252795Y-99490256D01*
X194366063Y-99659774D01*
X194461289Y-99755000D01*
X194376063Y-99840226D01*
X194262795Y-100009744D01*
X194184774Y-100198102D01*
X194145000Y-100398061D01*
X194145000Y-100601939D01*
X194184774Y-100801898D01*
X194262795Y-100990256D01*
X194376063Y-101159774D01*
X194520226Y-101303937D01*
X194689744Y-101417205D01*
X194878102Y-101495226D01*
X195078061Y-101535000D01*
X195281939Y-101535000D01*
X195481898Y-101495226D01*
X195670256Y-101417205D01*
X195839774Y-101303937D01*
X195983937Y-101159774D01*
X196097205Y-100990256D01*
X196175226Y-100801898D01*
X196215000Y-100601939D01*
X196215000Y-100398061D01*
X196175226Y-100198102D01*
X196097205Y-100009744D01*
X195983937Y-99840226D01*
X195888711Y-99745000D01*
X195973937Y-99659774D01*
X196087205Y-99490256D01*
X196165226Y-99301898D01*
X196205000Y-99101939D01*
X196205000Y-98898061D01*
X196165226Y-98698102D01*
X196087205Y-98509744D01*
X195973937Y-98340226D01*
X195888711Y-98255000D01*
X195983937Y-98159774D01*
X196097205Y-97990256D01*
X196175226Y-97801898D01*
X196215000Y-97601939D01*
X196215000Y-97398061D01*
X196175226Y-97198102D01*
X196097205Y-97009744D01*
X195983937Y-96840226D01*
X195843711Y-96700000D01*
X195883937Y-96659774D01*
X195997205Y-96490256D01*
X196075226Y-96301898D01*
X196115000Y-96101939D01*
X196115000Y-95898061D01*
X196075226Y-95698102D01*
X195997205Y-95509744D01*
X195883937Y-95340226D01*
X195739774Y-95196063D01*
X195570256Y-95082795D01*
X195381898Y-95004774D01*
X195181939Y-94965000D01*
X194978061Y-94965000D01*
X194778102Y-95004774D01*
X194589744Y-95082795D01*
X194420226Y-95196063D01*
X194276063Y-95340226D01*
X194162795Y-95509744D01*
X194084774Y-95698102D01*
X194045000Y-95898061D01*
X163885929Y-95898061D01*
X164015990Y-95703411D01*
X164127932Y-95433158D01*
X164185000Y-95146260D01*
X164185000Y-94853740D01*
X164127932Y-94566842D01*
X164015990Y-94296589D01*
X163853475Y-94053368D01*
X163648168Y-93848061D01*
X175975000Y-93848061D01*
X175975000Y-94051939D01*
X176014774Y-94251898D01*
X176092795Y-94440256D01*
X176206063Y-94609774D01*
X176350226Y-94753937D01*
X176519744Y-94867205D01*
X176708102Y-94945226D01*
X176908061Y-94985000D01*
X177111939Y-94985000D01*
X177311898Y-94945226D01*
X177500256Y-94867205D01*
X177669774Y-94753937D01*
X177813937Y-94609774D01*
X177908630Y-94468055D01*
X178965000Y-94468055D01*
X178965000Y-94671933D01*
X179004774Y-94871892D01*
X179082795Y-95060250D01*
X179196063Y-95229768D01*
X179340226Y-95373931D01*
X179509744Y-95487199D01*
X179698102Y-95565220D01*
X179898061Y-95604994D01*
X180101939Y-95604994D01*
X180301898Y-95565220D01*
X180490256Y-95487199D01*
X180659774Y-95373931D01*
X180803937Y-95229768D01*
X180917205Y-95060250D01*
X180995226Y-94871892D01*
X181035000Y-94671933D01*
X181035000Y-94468055D01*
X180995226Y-94268096D01*
X180917205Y-94079738D01*
X180803937Y-93910220D01*
X180659774Y-93766057D01*
X180490256Y-93652789D01*
X180301898Y-93574768D01*
X180101939Y-93534994D01*
X179898061Y-93534994D01*
X179698102Y-93574768D01*
X179509744Y-93652789D01*
X179340226Y-93766057D01*
X179196063Y-93910220D01*
X179082795Y-94079738D01*
X179004774Y-94268096D01*
X178965000Y-94468055D01*
X177908630Y-94468055D01*
X177927205Y-94440256D01*
X178005226Y-94251898D01*
X178045000Y-94051939D01*
X178045000Y-93848061D01*
X178005226Y-93648102D01*
X177927205Y-93459744D01*
X177813937Y-93290226D01*
X177669774Y-93146063D01*
X177500256Y-93032795D01*
X177311898Y-92954774D01*
X177111939Y-92915000D01*
X176908061Y-92915000D01*
X176708102Y-92954774D01*
X176519744Y-93032795D01*
X176350226Y-93146063D01*
X176206063Y-93290226D01*
X176092795Y-93459744D01*
X176014774Y-93648102D01*
X175975000Y-93848061D01*
X163648168Y-93848061D01*
X163646632Y-93846525D01*
X163403411Y-93684010D01*
X163133158Y-93572068D01*
X162846260Y-93515000D01*
X162553740Y-93515000D01*
X162266842Y-93572068D01*
X161996589Y-93684010D01*
X161753368Y-93846525D01*
X161546525Y-94053368D01*
X161430000Y-94227760D01*
X161313475Y-94053368D01*
X161106632Y-93846525D01*
X160863411Y-93684010D01*
X160593158Y-93572068D01*
X160306260Y-93515000D01*
X160013740Y-93515000D01*
X159726842Y-93572068D01*
X159456589Y-93684010D01*
X159213368Y-93846525D01*
X159006525Y-94053368D01*
X158890000Y-94227760D01*
X158773475Y-94053368D01*
X158566632Y-93846525D01*
X158323411Y-93684010D01*
X158053158Y-93572068D01*
X157766260Y-93515000D01*
X157473740Y-93515000D01*
X157186842Y-93572068D01*
X156916589Y-93684010D01*
X156673368Y-93846525D01*
X156466525Y-94053368D01*
X156350000Y-94227760D01*
X156233475Y-94053368D01*
X156026632Y-93846525D01*
X155840000Y-93721822D01*
X155840000Y-92750000D01*
X191848299Y-92750000D01*
X191875040Y-93021507D01*
X191954236Y-93282581D01*
X192082843Y-93523188D01*
X192255919Y-93734081D01*
X192466812Y-93907157D01*
X192707419Y-94035764D01*
X192968493Y-94114960D01*
X193171963Y-94135000D01*
X194908037Y-94135000D01*
X195111507Y-94114960D01*
X195372581Y-94035764D01*
X195613188Y-93907157D01*
X195824081Y-93734081D01*
X195997157Y-93523188D01*
X196125764Y-93282581D01*
X196204960Y-93021507D01*
X196231701Y-92750000D01*
X198208299Y-92750000D01*
X198235040Y-93021507D01*
X198314236Y-93282581D01*
X198442843Y-93523188D01*
X198615919Y-93734081D01*
X198826812Y-93907157D01*
X199067419Y-94035764D01*
X199328493Y-94114960D01*
X199531963Y-94135000D01*
X200468037Y-94135000D01*
X200671507Y-94114960D01*
X200932581Y-94035764D01*
X201173188Y-93907157D01*
X201384081Y-93734081D01*
X201557157Y-93523188D01*
X201685764Y-93282581D01*
X201764960Y-93021507D01*
X201791701Y-92750000D01*
X201764960Y-92478493D01*
X201685764Y-92217419D01*
X201557157Y-91976812D01*
X201384081Y-91765919D01*
X201173188Y-91592843D01*
X200932581Y-91464236D01*
X200671507Y-91385040D01*
X200468037Y-91365000D01*
X199531963Y-91365000D01*
X199328493Y-91385040D01*
X199067419Y-91464236D01*
X198826812Y-91592843D01*
X198615919Y-91765919D01*
X198442843Y-91976812D01*
X198314236Y-92217419D01*
X198235040Y-92478493D01*
X198208299Y-92750000D01*
X196231701Y-92750000D01*
X196204960Y-92478493D01*
X196125764Y-92217419D01*
X195997157Y-91976812D01*
X195824081Y-91765919D01*
X195613188Y-91592843D01*
X195372581Y-91464236D01*
X195111507Y-91385040D01*
X194908037Y-91365000D01*
X193171963Y-91365000D01*
X192968493Y-91385040D01*
X192707419Y-91464236D01*
X192466812Y-91592843D01*
X192255919Y-91765919D01*
X192082843Y-91976812D01*
X191954236Y-92217419D01*
X191875040Y-92478493D01*
X191848299Y-92750000D01*
X155840000Y-92750000D01*
X155840000Y-91268061D01*
X176194998Y-91268061D01*
X176194998Y-91471939D01*
X176234772Y-91671898D01*
X176312793Y-91860256D01*
X176426061Y-92029774D01*
X176570224Y-92173937D01*
X176739742Y-92287205D01*
X176928100Y-92365226D01*
X177128059Y-92405000D01*
X177331937Y-92405000D01*
X177531896Y-92365226D01*
X177720254Y-92287205D01*
X177889772Y-92173937D01*
X178033935Y-92029774D01*
X178147203Y-91860256D01*
X178225224Y-91671898D01*
X178264998Y-91471939D01*
X178264998Y-91268061D01*
X178225224Y-91068102D01*
X178147203Y-90879744D01*
X178033935Y-90710226D01*
X177889772Y-90566063D01*
X177720254Y-90452795D01*
X177531896Y-90374774D01*
X177331937Y-90335000D01*
X177128059Y-90335000D01*
X176928100Y-90374774D01*
X176739742Y-90452795D01*
X176570224Y-90566063D01*
X176426061Y-90710226D01*
X176312793Y-90879744D01*
X176234772Y-91068102D01*
X176194998Y-91268061D01*
X155840000Y-91268061D01*
X155840000Y-87414568D01*
X191705037Y-87414568D01*
X191763359Y-87647382D01*
X192000204Y-87757342D01*
X192253950Y-87818983D01*
X192514845Y-87829936D01*
X192772865Y-87789780D01*
X193018092Y-87700058D01*
X193116641Y-87647382D01*
X193174963Y-87414568D01*
X192440000Y-86679605D01*
X191705037Y-87414568D01*
X155840000Y-87414568D01*
X155840000Y-86038178D01*
X156026632Y-85913475D01*
X156233475Y-85706632D01*
X156350000Y-85532240D01*
X156466525Y-85706632D01*
X156673368Y-85913475D01*
X156916589Y-86075990D01*
X157186842Y-86187932D01*
X157473740Y-86245000D01*
X157766260Y-86245000D01*
X158053158Y-86187932D01*
X158323411Y-86075990D01*
X158566632Y-85913475D01*
X158773475Y-85706632D01*
X158890000Y-85532240D01*
X159006525Y-85706632D01*
X159213368Y-85913475D01*
X159456589Y-86075990D01*
X159726842Y-86187932D01*
X160013740Y-86245000D01*
X160306260Y-86245000D01*
X160593158Y-86187932D01*
X160863411Y-86075990D01*
X161106632Y-85913475D01*
X161132046Y-85888061D01*
X162445000Y-85888061D01*
X162445000Y-86091939D01*
X162484774Y-86291898D01*
X162562795Y-86480256D01*
X162676063Y-86649774D01*
X162820226Y-86793937D01*
X162989744Y-86907205D01*
X163178102Y-86985226D01*
X163378061Y-87025000D01*
X163581939Y-87025000D01*
X163781898Y-86985226D01*
X163970256Y-86907205D01*
X164139774Y-86793937D01*
X164283937Y-86649774D01*
X164334002Y-86574845D01*
X191110064Y-86574845D01*
X191150220Y-86832865D01*
X191239942Y-87078092D01*
X191292618Y-87176641D01*
X191525432Y-87234963D01*
X192260395Y-86500000D01*
X192619605Y-86500000D01*
X193354568Y-87234963D01*
X193587382Y-87176641D01*
X193662433Y-87014988D01*
X193742933Y-87209332D01*
X193906816Y-87454601D01*
X194115399Y-87663184D01*
X194360668Y-87827067D01*
X194633195Y-87939952D01*
X194922509Y-87997500D01*
X195217491Y-87997500D01*
X195506805Y-87939952D01*
X195779332Y-87827067D01*
X196024601Y-87663184D01*
X196233184Y-87454601D01*
X196397067Y-87209332D01*
X196509952Y-86936805D01*
X196567500Y-86647491D01*
X196567500Y-86352509D01*
X196509952Y-86063195D01*
X196397067Y-85790668D01*
X196233184Y-85545399D01*
X196024601Y-85336816D01*
X195779332Y-85172933D01*
X195506805Y-85060048D01*
X195217491Y-85002500D01*
X194922509Y-85002500D01*
X194633195Y-85060048D01*
X194360668Y-85172933D01*
X194115399Y-85336816D01*
X193906816Y-85545399D01*
X193742933Y-85790668D01*
X193662811Y-85984097D01*
X193640058Y-85921908D01*
X193587382Y-85823359D01*
X193354568Y-85765037D01*
X192619605Y-86500000D01*
X192260395Y-86500000D01*
X191525432Y-85765037D01*
X191292618Y-85823359D01*
X191182658Y-86060204D01*
X191121017Y-86313950D01*
X191110064Y-86574845D01*
X164334002Y-86574845D01*
X164397205Y-86480256D01*
X164475226Y-86291898D01*
X164515000Y-86091939D01*
X164515000Y-85888061D01*
X164475226Y-85688102D01*
X164397205Y-85499744D01*
X164283937Y-85330226D01*
X164139774Y-85186063D01*
X163970256Y-85072795D01*
X163781898Y-84994774D01*
X163581939Y-84955000D01*
X163378061Y-84955000D01*
X163178102Y-84994774D01*
X162989744Y-85072795D01*
X162820226Y-85186063D01*
X162676063Y-85330226D01*
X162562795Y-85499744D01*
X162484774Y-85688102D01*
X162445000Y-85888061D01*
X161132046Y-85888061D01*
X161313475Y-85706632D01*
X161475990Y-85463411D01*
X161587932Y-85193158D01*
X161645000Y-84906260D01*
X161645000Y-84613740D01*
X161588175Y-84328061D01*
X165755000Y-84328061D01*
X165755000Y-84531939D01*
X165794774Y-84731898D01*
X165872795Y-84920256D01*
X165986063Y-85089774D01*
X166130226Y-85233937D01*
X166299744Y-85347205D01*
X166488102Y-85425226D01*
X166688061Y-85465000D01*
X166891939Y-85465000D01*
X167091898Y-85425226D01*
X167280256Y-85347205D01*
X167449774Y-85233937D01*
X167593937Y-85089774D01*
X167707205Y-84920256D01*
X167785226Y-84731898D01*
X167825000Y-84531939D01*
X167825000Y-84328061D01*
X167785226Y-84128102D01*
X167707205Y-83939744D01*
X167593937Y-83770226D01*
X167449774Y-83626063D01*
X167280256Y-83512795D01*
X167091898Y-83434774D01*
X166891939Y-83395000D01*
X166688061Y-83395000D01*
X166488102Y-83434774D01*
X166299744Y-83512795D01*
X166130226Y-83626063D01*
X165986063Y-83770226D01*
X165872795Y-83939744D01*
X165794774Y-84128102D01*
X165755000Y-84328061D01*
X161588175Y-84328061D01*
X161587932Y-84326842D01*
X161475990Y-84056589D01*
X161313475Y-83813368D01*
X161106632Y-83606525D01*
X160932240Y-83490000D01*
X161106632Y-83373475D01*
X161292071Y-83188036D01*
X161304774Y-83251898D01*
X161382795Y-83440256D01*
X161496063Y-83609774D01*
X161640226Y-83753937D01*
X161809744Y-83867205D01*
X161998102Y-83945226D01*
X162198061Y-83985000D01*
X162401939Y-83985000D01*
X162601898Y-83945226D01*
X162790256Y-83867205D01*
X162959774Y-83753937D01*
X163103937Y-83609774D01*
X163217205Y-83440256D01*
X163295226Y-83251898D01*
X163335000Y-83051939D01*
X163335000Y-82848061D01*
X163295226Y-82648102D01*
X163217205Y-82459744D01*
X163103937Y-82290226D01*
X162959774Y-82146063D01*
X162790256Y-82032795D01*
X162601898Y-81954774D01*
X162401939Y-81915000D01*
X162198061Y-81915000D01*
X161998102Y-81954774D01*
X161809744Y-82032795D01*
X161645000Y-82142873D01*
X161645000Y-82073740D01*
X161587932Y-81786842D01*
X161475990Y-81516589D01*
X161313475Y-81273368D01*
X161106632Y-81066525D01*
X160932240Y-80950000D01*
X161106632Y-80833475D01*
X161313475Y-80626632D01*
X161475990Y-80383411D01*
X161587932Y-80113158D01*
X161645000Y-79826260D01*
X161645000Y-79533740D01*
X161587932Y-79246842D01*
X161475990Y-78976589D01*
X161313475Y-78733368D01*
X161106632Y-78526525D01*
X161022036Y-78470000D01*
X165041978Y-78470000D01*
X164984774Y-78608102D01*
X164945000Y-78808061D01*
X164945000Y-78886146D01*
X164820256Y-78802795D01*
X164631898Y-78724774D01*
X164431939Y-78685000D01*
X164228061Y-78685000D01*
X164028102Y-78724774D01*
X163839744Y-78802795D01*
X163670226Y-78916063D01*
X163526063Y-79060226D01*
X163412795Y-79229744D01*
X163334774Y-79418102D01*
X163295000Y-79618061D01*
X163295000Y-79821939D01*
X163334774Y-80021898D01*
X163412795Y-80210256D01*
X163526063Y-80379774D01*
X163670226Y-80523937D01*
X163839744Y-80637205D01*
X164028102Y-80715226D01*
X164228061Y-80755000D01*
X164431939Y-80755000D01*
X164631898Y-80715226D01*
X164820256Y-80637205D01*
X164989774Y-80523937D01*
X165133937Y-80379774D01*
X165247205Y-80210256D01*
X165325226Y-80021898D01*
X165365000Y-79821939D01*
X165365000Y-79743854D01*
X165489744Y-79827205D01*
X165678102Y-79905226D01*
X165878061Y-79945000D01*
X166081939Y-79945000D01*
X166281898Y-79905226D01*
X166470256Y-79827205D01*
X166639774Y-79713937D01*
X166783937Y-79569774D01*
X166897205Y-79400256D01*
X166975226Y-79211898D01*
X167015000Y-79011939D01*
X167015000Y-78808061D01*
X166975226Y-78608102D01*
X166918022Y-78470000D01*
X170015000Y-78470000D01*
X170015000Y-78551939D01*
X170054774Y-78751898D01*
X170132795Y-78940256D01*
X170246063Y-79109774D01*
X170390226Y-79253937D01*
X170559744Y-79367205D01*
X170748102Y-79445226D01*
X170948061Y-79485000D01*
X171151939Y-79485000D01*
X171351898Y-79445226D01*
X171540256Y-79367205D01*
X171709774Y-79253937D01*
X171853937Y-79109774D01*
X171967205Y-78940256D01*
X172045226Y-78751898D01*
X172085000Y-78551939D01*
X172085000Y-78470000D01*
X173835199Y-78470000D01*
X177296201Y-81931003D01*
X177319999Y-81960001D01*
X177435724Y-82054974D01*
X177567753Y-82125546D01*
X177644415Y-82148801D01*
X177450166Y-82187439D01*
X177107118Y-82329534D01*
X176798382Y-82535825D01*
X176535825Y-82798382D01*
X176399806Y-83001949D01*
X176365226Y-82828102D01*
X176287205Y-82639744D01*
X176173937Y-82470226D01*
X176029774Y-82326063D01*
X175860256Y-82212795D01*
X175671898Y-82134774D01*
X175471939Y-82095000D01*
X175268061Y-82095000D01*
X175068102Y-82134774D01*
X174879744Y-82212795D01*
X174710226Y-82326063D01*
X174566063Y-82470226D01*
X174452795Y-82639744D01*
X174374774Y-82828102D01*
X174349717Y-82954075D01*
X174249939Y-82625152D01*
X174074903Y-82297683D01*
X173839345Y-82010655D01*
X173552317Y-81775097D01*
X173224847Y-81600061D01*
X172869523Y-81492275D01*
X172500000Y-81455880D01*
X172130476Y-81492275D01*
X171775152Y-81600061D01*
X171447683Y-81775097D01*
X171160655Y-82010655D01*
X170925097Y-82297683D01*
X170750061Y-82625153D01*
X170642275Y-82980477D01*
X170615000Y-83257404D01*
X170615000Y-84742597D01*
X170642275Y-85019524D01*
X170750062Y-85374848D01*
X170925098Y-85702317D01*
X171160656Y-85989345D01*
X171447684Y-86224903D01*
X171775153Y-86399939D01*
X172130477Y-86507725D01*
X172500000Y-86544120D01*
X172869524Y-86507725D01*
X173224848Y-86399939D01*
X173552317Y-86224903D01*
X173839345Y-85989345D01*
X174074903Y-85702317D01*
X174249939Y-85374848D01*
X174357725Y-85019524D01*
X174385000Y-84742597D01*
X174385000Y-83456586D01*
X174452795Y-83620256D01*
X174566063Y-83789774D01*
X174710226Y-83933937D01*
X174879744Y-84047205D01*
X175068102Y-84125226D01*
X175268061Y-84165000D01*
X175471939Y-84165000D01*
X175671898Y-84125226D01*
X175860256Y-84047205D01*
X176029774Y-83933937D01*
X176115000Y-83848711D01*
X176115000Y-84185656D01*
X176187439Y-84549834D01*
X176329534Y-84892882D01*
X176535825Y-85201618D01*
X176798382Y-85464175D01*
X177107118Y-85670466D01*
X177450166Y-85812561D01*
X177814344Y-85885000D01*
X178185656Y-85885000D01*
X178549834Y-85812561D01*
X178892882Y-85670466D01*
X179201618Y-85464175D01*
X179464175Y-85201618D01*
X179670466Y-84892882D01*
X179812561Y-84549834D01*
X179885000Y-84185656D01*
X179885000Y-83814344D01*
X179812561Y-83450166D01*
X179670466Y-83107118D01*
X179464175Y-82798382D01*
X179201618Y-82535825D01*
X178892882Y-82329534D01*
X178549834Y-82187439D01*
X178512435Y-82180000D01*
X182021677Y-82180000D01*
X181925097Y-82297683D01*
X181750061Y-82625153D01*
X181642275Y-82980477D01*
X181615000Y-83257404D01*
X181615000Y-84742597D01*
X181642275Y-85019524D01*
X181750062Y-85374848D01*
X181925098Y-85702317D01*
X182160656Y-85989345D01*
X182447684Y-86224903D01*
X182775153Y-86399939D01*
X183130477Y-86507725D01*
X183500000Y-86544120D01*
X183869524Y-86507725D01*
X184224848Y-86399939D01*
X184552317Y-86224903D01*
X184839345Y-85989345D01*
X185074903Y-85702317D01*
X185249939Y-85374848D01*
X185357725Y-85019524D01*
X185385000Y-84742597D01*
X185385000Y-83453061D01*
X186745000Y-83453061D01*
X186745000Y-83656939D01*
X186784774Y-83856898D01*
X186862795Y-84045256D01*
X186976063Y-84214774D01*
X187120226Y-84358937D01*
X187289744Y-84472205D01*
X187478102Y-84550226D01*
X187678061Y-84590000D01*
X187881939Y-84590000D01*
X188081898Y-84550226D01*
X188270256Y-84472205D01*
X188439774Y-84358937D01*
X188583937Y-84214774D01*
X188697205Y-84045256D01*
X188775226Y-83856898D01*
X188815000Y-83656939D01*
X188815000Y-83453061D01*
X188775226Y-83253102D01*
X188697205Y-83064744D01*
X188583937Y-82895226D01*
X188439774Y-82751063D01*
X188270256Y-82637795D01*
X188081898Y-82559774D01*
X187881939Y-82520000D01*
X187678061Y-82520000D01*
X187478102Y-82559774D01*
X187289744Y-82637795D01*
X187120226Y-82751063D01*
X186976063Y-82895226D01*
X186862795Y-83064744D01*
X186784774Y-83253102D01*
X186745000Y-83453061D01*
X185385000Y-83453061D01*
X185385000Y-83257403D01*
X185357725Y-82980476D01*
X185249939Y-82625152D01*
X185074903Y-82297683D01*
X184978323Y-82180000D01*
X191353500Y-82180000D01*
X191410320Y-82265037D01*
X191594963Y-82449680D01*
X191812081Y-82594754D01*
X192042026Y-82690000D01*
X191812081Y-82785246D01*
X191594963Y-82930320D01*
X191410320Y-83114963D01*
X191265246Y-83332081D01*
X191165318Y-83573329D01*
X191114375Y-83829437D01*
X191114375Y-84090563D01*
X191165318Y-84346671D01*
X191265246Y-84587919D01*
X191410320Y-84805037D01*
X191594963Y-84989680D01*
X191812081Y-85134754D01*
X192047207Y-85232146D01*
X191861908Y-85299942D01*
X191763359Y-85352618D01*
X191705037Y-85585432D01*
X192440000Y-86320395D01*
X193174963Y-85585432D01*
X193116641Y-85352618D01*
X192879796Y-85242658D01*
X192834172Y-85231575D01*
X193067919Y-85134754D01*
X193285037Y-84989680D01*
X193469680Y-84805037D01*
X193614754Y-84587919D01*
X193714682Y-84346671D01*
X193765625Y-84090563D01*
X193765625Y-83829437D01*
X193714682Y-83573329D01*
X193614754Y-83332081D01*
X193469680Y-83114963D01*
X193285037Y-82930320D01*
X193067919Y-82785246D01*
X192837974Y-82690000D01*
X193067919Y-82594754D01*
X193285037Y-82449680D01*
X193469680Y-82265037D01*
X193614754Y-82047919D01*
X193661982Y-81933900D01*
X193742933Y-82129332D01*
X193906816Y-82374601D01*
X194115399Y-82583184D01*
X194360668Y-82747067D01*
X194633195Y-82859952D01*
X194922509Y-82917500D01*
X195217491Y-82917500D01*
X195506805Y-82859952D01*
X195779332Y-82747067D01*
X196024601Y-82583184D01*
X196233184Y-82374601D01*
X196397067Y-82129332D01*
X196509952Y-81856805D01*
X196567500Y-81567491D01*
X196567500Y-81272509D01*
X196509952Y-80983195D01*
X196397067Y-80710668D01*
X196233184Y-80465399D01*
X196024601Y-80256816D01*
X195779332Y-80092933D01*
X195506805Y-79980048D01*
X195217491Y-79922500D01*
X194922509Y-79922500D01*
X194633195Y-79980048D01*
X194360668Y-80092933D01*
X194115399Y-80256816D01*
X193906816Y-80465399D01*
X193742933Y-80710668D01*
X193661982Y-80906100D01*
X193614754Y-80792081D01*
X193469680Y-80574963D01*
X193285037Y-80390320D01*
X193067919Y-80245246D01*
X192826671Y-80145318D01*
X192570563Y-80094375D01*
X192309437Y-80094375D01*
X192053329Y-80145318D01*
X191812081Y-80245246D01*
X191594963Y-80390320D01*
X191410320Y-80574963D01*
X191353500Y-80660000D01*
X178174802Y-80660000D01*
X177899802Y-80385000D01*
X178742597Y-80385000D01*
X179019524Y-80357725D01*
X179374848Y-80249939D01*
X179702317Y-80074903D01*
X179989345Y-79839345D01*
X180224903Y-79552317D01*
X180399939Y-79224848D01*
X180507725Y-78869524D01*
X180544120Y-78500000D01*
X180507725Y-78130476D01*
X180399939Y-77775152D01*
X180338389Y-77660000D01*
X202967721Y-77660000D01*
X203065424Y-77669580D01*
X203128356Y-77688580D01*
X203186405Y-77719445D01*
X203237343Y-77760989D01*
X203279248Y-77811644D01*
X203310515Y-77869471D01*
X203329956Y-77932272D01*
X203340000Y-78027835D01*
X203340001Y-121967711D01*
X203330420Y-122065424D01*
X203311420Y-122128357D01*
X203280554Y-122186406D01*
X203239011Y-122237343D01*
X203188356Y-122279248D01*
X203130529Y-122310515D01*
X203067728Y-122329956D01*
X202972165Y-122340000D01*
X180338389Y-122340000D01*
X180399939Y-122224848D01*
X180507725Y-121869524D01*
X180544120Y-121500000D01*
X180507725Y-121130476D01*
X180399939Y-120775152D01*
X180224903Y-120447683D01*
X179989345Y-120160655D01*
X179702317Y-119925097D01*
X179486986Y-119810000D01*
X186862678Y-119810000D01*
X186900000Y-119813676D01*
X186937322Y-119810000D01*
X186937333Y-119810000D01*
X187048986Y-119799003D01*
X187192247Y-119755546D01*
X187324276Y-119684974D01*
X187440001Y-119590001D01*
X187463804Y-119560997D01*
X191166772Y-115858030D01*
X191164500Y-115869450D01*
X191164500Y-116130550D01*
X191215438Y-116386634D01*
X191315357Y-116627860D01*
X191460417Y-116844957D01*
X191645043Y-117029583D01*
X191862140Y-117174643D01*
X192092352Y-117270000D01*
X191862140Y-117365357D01*
X191645043Y-117510417D01*
X191460417Y-117695043D01*
X191315357Y-117912140D01*
X191215438Y-118153366D01*
X191164500Y-118409450D01*
X191164500Y-118670550D01*
X191215438Y-118926634D01*
X191315357Y-119167860D01*
X191460417Y-119384957D01*
X191645043Y-119569583D01*
X191862140Y-119714643D01*
X192103366Y-119814562D01*
X192359450Y-119865500D01*
X192620550Y-119865500D01*
X192876634Y-119814562D01*
X193117860Y-119714643D01*
X193334957Y-119569583D01*
X193519583Y-119384957D01*
X193664643Y-119167860D01*
X193706914Y-119065808D01*
X193782933Y-119249332D01*
X193946816Y-119494601D01*
X194155399Y-119703184D01*
X194400668Y-119867067D01*
X194673195Y-119979952D01*
X194962509Y-120037500D01*
X195257491Y-120037500D01*
X195546805Y-119979952D01*
X195819332Y-119867067D01*
X196064601Y-119703184D01*
X196273184Y-119494601D01*
X196437067Y-119249332D01*
X196549952Y-118976805D01*
X196607500Y-118687491D01*
X196607500Y-118392509D01*
X196549952Y-118103195D01*
X196437067Y-117830668D01*
X196273184Y-117585399D01*
X196064601Y-117376816D01*
X195819332Y-117212933D01*
X195546805Y-117100048D01*
X195257491Y-117042500D01*
X194962509Y-117042500D01*
X194673195Y-117100048D01*
X194400668Y-117212933D01*
X194155399Y-117376816D01*
X193946816Y-117585399D01*
X193782933Y-117830668D01*
X193706914Y-118014192D01*
X193664643Y-117912140D01*
X193519583Y-117695043D01*
X193334957Y-117510417D01*
X193117860Y-117365357D01*
X192887648Y-117270000D01*
X193117860Y-117174643D01*
X193334957Y-117029583D01*
X193519583Y-116844957D01*
X193664643Y-116627860D01*
X193764562Y-116386634D01*
X193815500Y-116130550D01*
X193815500Y-115869450D01*
X193764562Y-115613366D01*
X193664643Y-115372140D01*
X193519583Y-115155043D01*
X193334957Y-114970417D01*
X193117860Y-114825357D01*
X192887648Y-114730000D01*
X193117860Y-114634643D01*
X193334957Y-114489583D01*
X193519583Y-114304957D01*
X193664643Y-114087860D01*
X193706914Y-113985808D01*
X193782933Y-114169332D01*
X193946816Y-114414601D01*
X194155399Y-114623184D01*
X194400668Y-114787067D01*
X194673195Y-114899952D01*
X194962509Y-114957500D01*
X195257491Y-114957500D01*
X195546805Y-114899952D01*
X195819332Y-114787067D01*
X196064601Y-114623184D01*
X196273184Y-114414601D01*
X196437067Y-114169332D01*
X196549952Y-113896805D01*
X196607500Y-113607491D01*
X196607500Y-113312509D01*
X196549952Y-113023195D01*
X196437067Y-112750668D01*
X196273184Y-112505399D01*
X196064601Y-112296816D01*
X195819332Y-112132933D01*
X195546805Y-112020048D01*
X195257491Y-111962500D01*
X194962509Y-111962500D01*
X194673195Y-112020048D01*
X194400668Y-112132933D01*
X194155399Y-112296816D01*
X193946816Y-112505399D01*
X193782933Y-112750668D01*
X193706914Y-112934192D01*
X193664643Y-112832140D01*
X193519583Y-112615043D01*
X193334957Y-112430417D01*
X193117860Y-112285357D01*
X192876634Y-112185438D01*
X192620550Y-112134500D01*
X192359450Y-112134500D01*
X192103366Y-112185438D01*
X191862140Y-112285357D01*
X191645043Y-112430417D01*
X191460417Y-112615043D01*
X191315357Y-112832140D01*
X191215438Y-113073366D01*
X191164500Y-113329450D01*
X191164500Y-113590550D01*
X191184434Y-113690764D01*
X188855000Y-116020199D01*
X188855000Y-115878061D01*
X188815226Y-115678102D01*
X188737205Y-115489744D01*
X188623937Y-115320226D01*
X188479774Y-115176063D01*
X188310256Y-115062795D01*
X188121898Y-114984774D01*
X187921939Y-114945000D01*
X187718061Y-114945000D01*
X187518102Y-114984774D01*
X187329744Y-115062795D01*
X187160226Y-115176063D01*
X187016063Y-115320226D01*
X186902795Y-115489744D01*
X186824774Y-115678102D01*
X186785000Y-115878061D01*
X186785000Y-116081939D01*
X186824774Y-116281898D01*
X186902795Y-116470256D01*
X187016063Y-116639774D01*
X187160226Y-116783937D01*
X187329744Y-116897205D01*
X187518102Y-116975226D01*
X187718061Y-117015000D01*
X187860199Y-117015000D01*
X186585199Y-118290000D01*
X184430529Y-118290000D01*
X184552317Y-118224903D01*
X184839345Y-117989345D01*
X185074903Y-117702317D01*
X185249939Y-117374848D01*
X185357725Y-117019524D01*
X185385000Y-116742597D01*
X185385000Y-115257403D01*
X185357725Y-114980476D01*
X185249939Y-114625152D01*
X185074903Y-114297683D01*
X184839345Y-114010655D01*
X184552317Y-113775097D01*
X184224848Y-113600061D01*
X183869524Y-113492275D01*
X183500000Y-113455880D01*
X183130477Y-113492275D01*
X182775153Y-113600061D01*
X182447684Y-113775097D01*
X182160656Y-114010655D01*
X181925098Y-114297683D01*
X181750062Y-114625152D01*
X181642275Y-114980476D01*
X181615000Y-115257403D01*
X181615000Y-116742596D01*
X181642275Y-117019523D01*
X181750061Y-117374847D01*
X181925097Y-117702317D01*
X182160655Y-117989345D01*
X182447683Y-118224903D01*
X182569471Y-118290000D01*
X173430529Y-118290000D01*
X173552317Y-118224903D01*
X173839345Y-117989345D01*
X174074903Y-117702317D01*
X174249939Y-117374848D01*
X174357725Y-117019524D01*
X174385000Y-116742597D01*
X174385000Y-115814344D01*
X176115000Y-115814344D01*
X176115000Y-116185656D01*
X176187439Y-116549834D01*
X176329534Y-116892882D01*
X176535825Y-117201618D01*
X176798382Y-117464175D01*
X177107118Y-117670466D01*
X177450166Y-117812561D01*
X177814344Y-117885000D01*
X178185656Y-117885000D01*
X178549834Y-117812561D01*
X178892882Y-117670466D01*
X179201618Y-117464175D01*
X179464175Y-117201618D01*
X179670466Y-116892882D01*
X179812561Y-116549834D01*
X179885000Y-116185656D01*
X179885000Y-115814344D01*
X179812561Y-115450166D01*
X179670466Y-115107118D01*
X179464175Y-114798382D01*
X179201618Y-114535825D01*
X178892882Y-114329534D01*
X178549834Y-114187439D01*
X178185656Y-114115000D01*
X177814344Y-114115000D01*
X177450166Y-114187439D01*
X177107118Y-114329534D01*
X176798382Y-114535825D01*
X176535825Y-114798382D01*
X176329534Y-115107118D01*
X176187439Y-115450166D01*
X176115000Y-115814344D01*
X174385000Y-115814344D01*
X174385000Y-115257403D01*
X174357725Y-114980476D01*
X174249939Y-114625152D01*
X174074903Y-114297683D01*
X173839345Y-114010655D01*
X173552317Y-113775097D01*
X173224848Y-113600061D01*
X172869524Y-113492275D01*
X172500000Y-113455880D01*
X172130477Y-113492275D01*
X171775153Y-113600061D01*
X171447684Y-113775097D01*
X171160656Y-114010655D01*
X170925098Y-114297683D01*
X170750062Y-114625152D01*
X170642275Y-114980476D01*
X170615000Y-115257403D01*
X170615000Y-115605965D01*
X170610256Y-115602795D01*
X170421898Y-115524774D01*
X170221939Y-115485000D01*
X170018061Y-115485000D01*
X169818102Y-115524774D01*
X169629744Y-115602795D01*
X169460226Y-115716063D01*
X169316063Y-115860226D01*
X169202795Y-116029744D01*
X169124774Y-116218102D01*
X169085000Y-116418061D01*
X169085000Y-116621939D01*
X169124774Y-116821898D01*
X169202795Y-117010256D01*
X169316063Y-117179774D01*
X169460226Y-117323937D01*
X169629744Y-117437205D01*
X169818102Y-117515226D01*
X170018061Y-117555000D01*
X170221939Y-117555000D01*
X170421898Y-117515226D01*
X170610256Y-117437205D01*
X170742228Y-117349024D01*
X170750061Y-117374847D01*
X170925097Y-117702317D01*
X171160655Y-117989345D01*
X171447683Y-118224903D01*
X171569471Y-118290000D01*
X161556103Y-118290000D01*
X161587932Y-118213158D01*
X161645000Y-117926260D01*
X161645000Y-117633740D01*
X161587932Y-117346842D01*
X161578627Y-117324378D01*
X161739773Y-117432052D01*
X161928131Y-117510073D01*
X162128090Y-117549847D01*
X162331968Y-117549847D01*
X162531927Y-117510073D01*
X162720285Y-117432052D01*
X162889803Y-117318784D01*
X163033966Y-117174621D01*
X163147234Y-117005103D01*
X163225255Y-116816745D01*
X163265029Y-116616786D01*
X163265029Y-116412908D01*
X163225255Y-116212949D01*
X163148672Y-116028061D01*
X163495000Y-116028061D01*
X163495000Y-116231939D01*
X163534774Y-116431898D01*
X163612795Y-116620256D01*
X163726063Y-116789774D01*
X163870226Y-116933937D01*
X164039744Y-117047205D01*
X164228102Y-117125226D01*
X164428061Y-117165000D01*
X164631939Y-117165000D01*
X164831898Y-117125226D01*
X165020256Y-117047205D01*
X165189774Y-116933937D01*
X165333937Y-116789774D01*
X165447205Y-116620256D01*
X165525226Y-116431898D01*
X165565000Y-116231939D01*
X165565000Y-116028061D01*
X165525226Y-115828102D01*
X165447205Y-115639744D01*
X165333937Y-115470226D01*
X165189774Y-115326063D01*
X165020256Y-115212795D01*
X164831898Y-115134774D01*
X164631939Y-115095000D01*
X164428061Y-115095000D01*
X164228102Y-115134774D01*
X164039744Y-115212795D01*
X163870226Y-115326063D01*
X163726063Y-115470226D01*
X163612795Y-115639744D01*
X163534774Y-115828102D01*
X163495000Y-116028061D01*
X163148672Y-116028061D01*
X163147234Y-116024591D01*
X163033966Y-115855073D01*
X162889803Y-115710910D01*
X162720285Y-115597642D01*
X162531927Y-115519621D01*
X162331968Y-115479847D01*
X162128090Y-115479847D01*
X161928131Y-115519621D01*
X161739773Y-115597642D01*
X161573075Y-115709026D01*
X161587932Y-115673158D01*
X161645000Y-115386260D01*
X161645000Y-115093740D01*
X161587932Y-114806842D01*
X161475990Y-114536589D01*
X161313475Y-114293368D01*
X161106632Y-114086525D01*
X160863411Y-113924010D01*
X160593158Y-113812068D01*
X160306260Y-113755000D01*
X160013740Y-113755000D01*
X159726842Y-113812068D01*
X159456589Y-113924010D01*
X159213368Y-114086525D01*
X159006525Y-114293368D01*
X158890000Y-114467760D01*
X158773475Y-114293368D01*
X158566632Y-114086525D01*
X158481077Y-114029359D01*
X158507205Y-113990256D01*
X158585226Y-113801898D01*
X158625000Y-113601939D01*
X158625000Y-113398061D01*
X158585226Y-113198102D01*
X158507205Y-113009744D01*
X158393937Y-112840226D01*
X158249774Y-112696063D01*
X158080256Y-112582795D01*
X157891898Y-112504774D01*
X157691939Y-112465000D01*
X157488061Y-112465000D01*
X157288102Y-112504774D01*
X157099744Y-112582795D01*
X156930226Y-112696063D01*
X156786063Y-112840226D01*
X156672795Y-113009744D01*
X156594774Y-113198102D01*
X156555000Y-113398061D01*
X156555000Y-113601939D01*
X156594774Y-113801898D01*
X156672795Y-113990256D01*
X156717442Y-114057076D01*
X156673368Y-114086525D01*
X156466525Y-114293368D01*
X156350000Y-114467760D01*
X156233475Y-114293368D01*
X156026632Y-114086525D01*
X155783411Y-113924010D01*
X155513158Y-113812068D01*
X155226260Y-113755000D01*
X154933740Y-113755000D01*
X154646842Y-113812068D01*
X154376589Y-113924010D01*
X154133368Y-114086525D01*
X153926525Y-114293368D01*
X153810000Y-114467760D01*
X153693475Y-114293368D01*
X153486632Y-114086525D01*
X153243411Y-113924010D01*
X152973158Y-113812068D01*
X152686260Y-113755000D01*
X152393740Y-113755000D01*
X152106842Y-113812068D01*
X151836589Y-113924010D01*
X151593368Y-114086525D01*
X151386525Y-114293368D01*
X151270000Y-114467760D01*
X151153475Y-114293368D01*
X150946632Y-114086525D01*
X150703411Y-113924010D01*
X150433158Y-113812068D01*
X150146260Y-113755000D01*
X149853740Y-113755000D01*
X149566842Y-113812068D01*
X149296589Y-113924010D01*
X149053368Y-114086525D01*
X148846525Y-114293368D01*
X148730000Y-114467760D01*
X148613475Y-114293368D01*
X148406632Y-114086525D01*
X148163411Y-113924010D01*
X147893158Y-113812068D01*
X147606260Y-113755000D01*
X147313740Y-113755000D01*
X147026842Y-113812068D01*
X146756589Y-113924010D01*
X146513368Y-114086525D01*
X146306525Y-114293368D01*
X146190000Y-114467760D01*
X146073475Y-114293368D01*
X145866632Y-114086525D01*
X145623411Y-113924010D01*
X145353158Y-113812068D01*
X145066260Y-113755000D01*
X144773740Y-113755000D01*
X144486842Y-113812068D01*
X144216589Y-113924010D01*
X143973368Y-114086525D01*
X143766525Y-114293368D01*
X143650000Y-114467760D01*
X143533475Y-114293368D01*
X143326632Y-114086525D01*
X143083411Y-113924010D01*
X142813158Y-113812068D01*
X142526260Y-113755000D01*
X142233740Y-113755000D01*
X141946842Y-113812068D01*
X141676589Y-113924010D01*
X141433368Y-114086525D01*
X141226525Y-114293368D01*
X141110000Y-114467760D01*
X140993475Y-114293368D01*
X140786632Y-114086525D01*
X140543411Y-113924010D01*
X140273158Y-113812068D01*
X139986260Y-113755000D01*
X139693740Y-113755000D01*
X139406842Y-113812068D01*
X139136589Y-113924010D01*
X138893368Y-114086525D01*
X138686525Y-114293368D01*
X138524010Y-114536589D01*
X138412068Y-114806842D01*
X138355000Y-115093740D01*
X138355000Y-115386260D01*
X138412068Y-115673158D01*
X138524010Y-115943411D01*
X138686525Y-116186632D01*
X138893368Y-116393475D01*
X139067760Y-116510000D01*
X138893368Y-116626525D01*
X138686525Y-116833368D01*
X138524010Y-117076589D01*
X138412068Y-117346842D01*
X138355000Y-117633740D01*
X138355000Y-117926260D01*
X138412068Y-118213158D01*
X138524010Y-118483411D01*
X138686525Y-118726632D01*
X138893368Y-118933475D01*
X139067760Y-119050000D01*
X138893368Y-119166525D01*
X138686525Y-119373368D01*
X138524010Y-119616589D01*
X138412068Y-119886842D01*
X138355000Y-120173740D01*
X138355000Y-120466260D01*
X138412068Y-120753158D01*
X138524010Y-121023411D01*
X138686525Y-121266632D01*
X138893368Y-121473475D01*
X139136589Y-121635990D01*
X139406842Y-121747932D01*
X139693740Y-121805000D01*
X139986260Y-121805000D01*
X140273158Y-121747932D01*
X140543411Y-121635990D01*
X140786632Y-121473475D01*
X140911710Y-121348397D01*
X141531208Y-121348397D01*
X141608843Y-121597472D01*
X141872883Y-121723371D01*
X142156411Y-121795339D01*
X142448531Y-121810611D01*
X142738019Y-121768599D01*
X143013747Y-121670919D01*
X143151157Y-121597472D01*
X143228792Y-121348397D01*
X142380000Y-120499605D01*
X141531208Y-121348397D01*
X140911710Y-121348397D01*
X140993475Y-121266632D01*
X141109311Y-121093271D01*
X141351603Y-121168792D01*
X142200395Y-120320000D01*
X141351603Y-119471208D01*
X141109311Y-119546729D01*
X140993475Y-119373368D01*
X140786632Y-119166525D01*
X140612240Y-119050000D01*
X140786632Y-118933475D01*
X140993475Y-118726632D01*
X141110000Y-118552240D01*
X141226525Y-118726632D01*
X141433368Y-118933475D01*
X141606729Y-119049311D01*
X141531208Y-119291603D01*
X142380000Y-120140395D01*
X143228792Y-119291603D01*
X143153271Y-119049311D01*
X143326632Y-118933475D01*
X143533475Y-118726632D01*
X143650000Y-118552240D01*
X143766525Y-118726632D01*
X143973368Y-118933475D01*
X144147760Y-119050000D01*
X143973368Y-119166525D01*
X143766525Y-119373368D01*
X143650689Y-119546729D01*
X143408397Y-119471208D01*
X142559605Y-120320000D01*
X143408397Y-121168792D01*
X143650689Y-121093271D01*
X143766525Y-121266632D01*
X143973368Y-121473475D01*
X144216589Y-121635990D01*
X144486842Y-121747932D01*
X144773740Y-121805000D01*
X145066260Y-121805000D01*
X145353158Y-121747932D01*
X145623411Y-121635990D01*
X145866632Y-121473475D01*
X146073475Y-121266632D01*
X146190000Y-121092240D01*
X146306525Y-121266632D01*
X146513368Y-121473475D01*
X146756589Y-121635990D01*
X147026842Y-121747932D01*
X147313740Y-121805000D01*
X147606260Y-121805000D01*
X147893158Y-121747932D01*
X148163411Y-121635990D01*
X148406632Y-121473475D01*
X148613475Y-121266632D01*
X148730000Y-121092240D01*
X148846525Y-121266632D01*
X149053368Y-121473475D01*
X149296589Y-121635990D01*
X149566842Y-121747932D01*
X149853740Y-121805000D01*
X150146260Y-121805000D01*
X150433158Y-121747932D01*
X150703411Y-121635990D01*
X150946632Y-121473475D01*
X151153475Y-121266632D01*
X151270000Y-121092240D01*
X151386525Y-121266632D01*
X151593368Y-121473475D01*
X151836589Y-121635990D01*
X152106842Y-121747932D01*
X152393740Y-121805000D01*
X152686260Y-121805000D01*
X152973158Y-121747932D01*
X153243411Y-121635990D01*
X153486632Y-121473475D01*
X153693475Y-121266632D01*
X153810000Y-121092240D01*
X153926525Y-121266632D01*
X154133368Y-121473475D01*
X154376589Y-121635990D01*
X154646842Y-121747932D01*
X154933740Y-121805000D01*
X155226260Y-121805000D01*
X155513158Y-121747932D01*
X155783411Y-121635990D01*
X156026632Y-121473475D01*
X156233475Y-121266632D01*
X156350000Y-121092240D01*
X156466525Y-121266632D01*
X156673368Y-121473475D01*
X156916589Y-121635990D01*
X157186842Y-121747932D01*
X157473740Y-121805000D01*
X157766260Y-121805000D01*
X158053158Y-121747932D01*
X158323411Y-121635990D01*
X158566632Y-121473475D01*
X158773475Y-121266632D01*
X158890000Y-121092240D01*
X159006525Y-121266632D01*
X159213368Y-121473475D01*
X159456589Y-121635990D01*
X159726842Y-121747932D01*
X160013740Y-121805000D01*
X160306260Y-121805000D01*
X160593158Y-121747932D01*
X160863411Y-121635990D01*
X161106632Y-121473475D01*
X161313475Y-121266632D01*
X161475990Y-121023411D01*
X161587932Y-120753158D01*
X161645000Y-120466260D01*
X161645000Y-120173740D01*
X161587932Y-119886842D01*
X161556103Y-119810000D01*
X166702375Y-119810000D01*
X166628100Y-119824774D01*
X166439742Y-119902795D01*
X166270224Y-120016063D01*
X166126061Y-120160226D01*
X166012793Y-120329744D01*
X165934772Y-120518102D01*
X165894998Y-120718061D01*
X165894998Y-120921939D01*
X165934772Y-121121898D01*
X166012793Y-121310256D01*
X166126061Y-121479774D01*
X166270224Y-121623937D01*
X166439742Y-121737205D01*
X166628100Y-121815226D01*
X166828059Y-121855000D01*
X167031937Y-121855000D01*
X167231896Y-121815226D01*
X167420254Y-121737205D01*
X167589772Y-121623937D01*
X167733935Y-121479774D01*
X167847203Y-121310256D01*
X167925224Y-121121898D01*
X167964998Y-120921939D01*
X167964998Y-120718061D01*
X167925224Y-120518102D01*
X167847203Y-120329744D01*
X167733935Y-120160226D01*
X167589772Y-120016063D01*
X167420254Y-119902795D01*
X167231896Y-119824774D01*
X167157621Y-119810000D01*
X176513014Y-119810000D01*
X176297683Y-119925097D01*
X176010655Y-120160655D01*
X175775097Y-120447683D01*
X175600061Y-120775152D01*
X175492275Y-121130476D01*
X175455880Y-121500000D01*
X175492275Y-121869524D01*
X175600061Y-122224848D01*
X175661611Y-122340000D01*
X138032279Y-122340000D01*
X137934576Y-122330420D01*
X137871643Y-122311420D01*
X137813594Y-122280554D01*
X137762657Y-122239011D01*
X137720752Y-122188356D01*
X137689485Y-122130529D01*
X137670044Y-122067728D01*
X137660000Y-121972165D01*
X137660000Y-111080000D01*
X138351928Y-111080000D01*
X138351928Y-112780000D01*
X138364188Y-112904482D01*
X138400498Y-113024180D01*
X138459463Y-113134494D01*
X138538815Y-113231185D01*
X138635506Y-113310537D01*
X138745820Y-113369502D01*
X138865518Y-113405812D01*
X138990000Y-113418072D01*
X140690000Y-113418072D01*
X140814482Y-113405812D01*
X140934180Y-113369502D01*
X141044494Y-113310537D01*
X141141185Y-113231185D01*
X141220537Y-113134494D01*
X141279502Y-113024180D01*
X141301513Y-112951620D01*
X141433368Y-113083475D01*
X141676589Y-113245990D01*
X141946842Y-113357932D01*
X142233740Y-113415000D01*
X142526260Y-113415000D01*
X142813158Y-113357932D01*
X143083411Y-113245990D01*
X143326632Y-113083475D01*
X143533475Y-112876632D01*
X143650000Y-112702240D01*
X143766525Y-112876632D01*
X143973368Y-113083475D01*
X144216589Y-113245990D01*
X144486842Y-113357932D01*
X144773740Y-113415000D01*
X145066260Y-113415000D01*
X145353158Y-113357932D01*
X145623411Y-113245990D01*
X145866632Y-113083475D01*
X146073475Y-112876632D01*
X146235990Y-112633411D01*
X146347932Y-112363158D01*
X146405000Y-112076260D01*
X146405000Y-111783740D01*
X146347932Y-111496842D01*
X146331868Y-111458059D01*
X168095000Y-111458059D01*
X168095000Y-111661937D01*
X168134774Y-111861896D01*
X168212795Y-112050254D01*
X168326063Y-112219772D01*
X168470226Y-112363935D01*
X168639744Y-112477203D01*
X168828102Y-112555224D01*
X169028061Y-112594998D01*
X169231939Y-112594998D01*
X169431898Y-112555224D01*
X169620256Y-112477203D01*
X169789774Y-112363935D01*
X169933937Y-112219772D01*
X170047205Y-112050254D01*
X170125226Y-111861896D01*
X170165000Y-111661937D01*
X170165000Y-111458059D01*
X170125226Y-111258100D01*
X170047205Y-111069742D01*
X169933937Y-110900224D01*
X169789774Y-110756061D01*
X169620256Y-110642793D01*
X169431898Y-110564772D01*
X169231939Y-110524998D01*
X169028061Y-110524998D01*
X168828102Y-110564772D01*
X168639744Y-110642793D01*
X168470226Y-110756061D01*
X168326063Y-110900224D01*
X168212795Y-111069742D01*
X168134774Y-111258100D01*
X168095000Y-111458059D01*
X146331868Y-111458059D01*
X146235990Y-111226589D01*
X146073475Y-110983368D01*
X145866632Y-110776525D01*
X145692240Y-110660000D01*
X145866632Y-110543475D01*
X146073475Y-110336632D01*
X146235990Y-110093411D01*
X146304479Y-109928061D01*
X164565000Y-109928061D01*
X164565000Y-110131939D01*
X164604774Y-110331898D01*
X164682795Y-110520256D01*
X164796063Y-110689774D01*
X164940226Y-110833937D01*
X165109744Y-110947205D01*
X165298102Y-111025226D01*
X165498061Y-111065000D01*
X165701939Y-111065000D01*
X165901898Y-111025226D01*
X166090256Y-110947205D01*
X166259774Y-110833937D01*
X166403937Y-110689774D01*
X166517205Y-110520256D01*
X166595226Y-110331898D01*
X166635000Y-110131939D01*
X166635000Y-109928061D01*
X166595226Y-109728102D01*
X166517205Y-109539744D01*
X166435900Y-109418061D01*
X173845000Y-109418061D01*
X173845000Y-109621939D01*
X173884774Y-109821898D01*
X173962795Y-110010256D01*
X174076063Y-110179774D01*
X174220226Y-110323937D01*
X174389744Y-110437205D01*
X174578102Y-110515226D01*
X174778061Y-110555000D01*
X174981939Y-110555000D01*
X175181898Y-110515226D01*
X175370256Y-110437205D01*
X175539774Y-110323937D01*
X175683937Y-110179774D01*
X175797205Y-110010256D01*
X175875226Y-109821898D01*
X175915000Y-109621939D01*
X175915000Y-109418061D01*
X175875226Y-109218102D01*
X175833788Y-109118061D01*
X183065000Y-109118061D01*
X183065000Y-109321939D01*
X183104774Y-109521898D01*
X183182795Y-109710256D01*
X183296063Y-109879774D01*
X183440226Y-110023937D01*
X183609744Y-110137205D01*
X183798102Y-110215226D01*
X183998061Y-110255000D01*
X184201939Y-110255000D01*
X184401898Y-110215226D01*
X184590256Y-110137205D01*
X184759774Y-110023937D01*
X184903937Y-109879774D01*
X185017205Y-109710256D01*
X185095226Y-109521898D01*
X185135000Y-109321939D01*
X185135000Y-109118061D01*
X185095226Y-108918102D01*
X185017205Y-108729744D01*
X184903937Y-108560226D01*
X184759774Y-108416063D01*
X184590256Y-108302795D01*
X184401898Y-108224774D01*
X184201939Y-108185000D01*
X183998061Y-108185000D01*
X183798102Y-108224774D01*
X183609744Y-108302795D01*
X183440226Y-108416063D01*
X183296063Y-108560226D01*
X183182795Y-108729744D01*
X183104774Y-108918102D01*
X183065000Y-109118061D01*
X175833788Y-109118061D01*
X175797205Y-109029744D01*
X175683937Y-108860226D01*
X175539774Y-108716063D01*
X175370256Y-108602795D01*
X175181898Y-108524774D01*
X174981939Y-108485000D01*
X174778061Y-108485000D01*
X174578102Y-108524774D01*
X174389744Y-108602795D01*
X174220226Y-108716063D01*
X174076063Y-108860226D01*
X173962795Y-109029744D01*
X173884774Y-109218102D01*
X173845000Y-109418061D01*
X166435900Y-109418061D01*
X166403937Y-109370226D01*
X166259774Y-109226063D01*
X166090256Y-109112795D01*
X165901898Y-109034774D01*
X165701939Y-108995000D01*
X165498061Y-108995000D01*
X165298102Y-109034774D01*
X165109744Y-109112795D01*
X164940226Y-109226063D01*
X164796063Y-109370226D01*
X164682795Y-109539744D01*
X164604774Y-109728102D01*
X164565000Y-109928061D01*
X146304479Y-109928061D01*
X146347932Y-109823158D01*
X146405000Y-109536260D01*
X146405000Y-109243740D01*
X146347932Y-108956842D01*
X146235990Y-108686589D01*
X146073475Y-108443368D01*
X145866632Y-108236525D01*
X145623411Y-108074010D01*
X145353158Y-107962068D01*
X145066260Y-107905000D01*
X144773740Y-107905000D01*
X144486842Y-107962068D01*
X144216589Y-108074010D01*
X143973368Y-108236525D01*
X143766525Y-108443368D01*
X143650000Y-108617760D01*
X143533475Y-108443368D01*
X143326632Y-108236525D01*
X143083411Y-108074010D01*
X142813158Y-107962068D01*
X142526260Y-107905000D01*
X142233740Y-107905000D01*
X141946842Y-107962068D01*
X141676589Y-108074010D01*
X141433368Y-108236525D01*
X141226525Y-108443368D01*
X141110000Y-108617760D01*
X140993475Y-108443368D01*
X140786632Y-108236525D01*
X140543411Y-108074010D01*
X140273158Y-107962068D01*
X139986260Y-107905000D01*
X139693740Y-107905000D01*
X139406842Y-107962068D01*
X139136589Y-108074010D01*
X138893368Y-108236525D01*
X138686525Y-108443368D01*
X138524010Y-108686589D01*
X138412068Y-108956842D01*
X138355000Y-109243740D01*
X138355000Y-109536260D01*
X138412068Y-109823158D01*
X138524010Y-110093411D01*
X138686525Y-110336632D01*
X138818380Y-110468487D01*
X138745820Y-110490498D01*
X138635506Y-110549463D01*
X138538815Y-110628815D01*
X138459463Y-110725506D01*
X138400498Y-110835820D01*
X138364188Y-110955518D01*
X138351928Y-111080000D01*
X137660000Y-111080000D01*
X137660000Y-104150000D01*
X138351928Y-104150000D01*
X138351928Y-105850000D01*
X138364188Y-105974482D01*
X138400498Y-106094180D01*
X138459463Y-106204494D01*
X138538815Y-106301185D01*
X138635506Y-106380537D01*
X138745820Y-106439502D01*
X138865518Y-106475812D01*
X138990000Y-106488072D01*
X140690000Y-106488072D01*
X140814482Y-106475812D01*
X140934180Y-106439502D01*
X141044494Y-106380537D01*
X141141185Y-106301185D01*
X141220537Y-106204494D01*
X141279502Y-106094180D01*
X141301513Y-106021620D01*
X141433368Y-106153475D01*
X141676589Y-106315990D01*
X141946842Y-106427932D01*
X142233740Y-106485000D01*
X142526260Y-106485000D01*
X142813158Y-106427932D01*
X143083411Y-106315990D01*
X143326632Y-106153475D01*
X143533475Y-105946632D01*
X143650000Y-105772240D01*
X143766525Y-105946632D01*
X143973368Y-106153475D01*
X144216589Y-106315990D01*
X144486842Y-106427932D01*
X144773740Y-106485000D01*
X145066260Y-106485000D01*
X145286408Y-106441209D01*
X146566201Y-107721003D01*
X146589999Y-107750001D01*
X146618997Y-107773799D01*
X146705723Y-107844974D01*
X146818023Y-107905000D01*
X146837753Y-107915546D01*
X146981014Y-107959003D01*
X147092667Y-107970000D01*
X147092677Y-107970000D01*
X147130000Y-107973676D01*
X147167323Y-107970000D01*
X148456289Y-107970000D01*
X148500226Y-108013937D01*
X148669744Y-108127205D01*
X148858102Y-108205226D01*
X149058061Y-108245000D01*
X149261939Y-108245000D01*
X149461898Y-108205226D01*
X149650256Y-108127205D01*
X149819774Y-108013937D01*
X149963937Y-107869774D01*
X150031899Y-107768061D01*
X156885000Y-107768061D01*
X156885000Y-107971939D01*
X156924774Y-108171898D01*
X157002795Y-108360256D01*
X157116063Y-108529774D01*
X157260226Y-108673937D01*
X157429744Y-108787205D01*
X157618102Y-108865226D01*
X157818061Y-108905000D01*
X158021939Y-108905000D01*
X158221898Y-108865226D01*
X158410256Y-108787205D01*
X158579774Y-108673937D01*
X158723937Y-108529774D01*
X158837205Y-108360256D01*
X158915226Y-108171898D01*
X158955000Y-107971939D01*
X158955000Y-107768061D01*
X158915226Y-107568102D01*
X158837205Y-107379744D01*
X158723937Y-107210226D01*
X158579774Y-107066063D01*
X158410256Y-106952795D01*
X158221898Y-106874774D01*
X158021939Y-106835000D01*
X157818061Y-106835000D01*
X157618102Y-106874774D01*
X157429744Y-106952795D01*
X157260226Y-107066063D01*
X157116063Y-107210226D01*
X157002795Y-107379744D01*
X156924774Y-107568102D01*
X156885000Y-107768061D01*
X150031899Y-107768061D01*
X150077205Y-107700256D01*
X150155226Y-107511898D01*
X150195000Y-107311939D01*
X150195000Y-107108061D01*
X150155226Y-106908102D01*
X150077205Y-106719744D01*
X149963937Y-106550226D01*
X149898711Y-106485000D01*
X150146260Y-106485000D01*
X150433158Y-106427932D01*
X150703411Y-106315990D01*
X150946632Y-106153475D01*
X151153475Y-105946632D01*
X151270000Y-105772240D01*
X151386525Y-105946632D01*
X151593368Y-106153475D01*
X151836589Y-106315990D01*
X152106842Y-106427932D01*
X152393740Y-106485000D01*
X152686260Y-106485000D01*
X152973158Y-106427932D01*
X153243411Y-106315990D01*
X153486632Y-106153475D01*
X153693475Y-105946632D01*
X153810000Y-105772240D01*
X153926525Y-105946632D01*
X154133368Y-106153475D01*
X154376589Y-106315990D01*
X154646842Y-106427932D01*
X154933740Y-106485000D01*
X155226260Y-106485000D01*
X155513158Y-106427932D01*
X155783411Y-106315990D01*
X156026632Y-106153475D01*
X156233475Y-105946632D01*
X156350000Y-105772240D01*
X156466525Y-105946632D01*
X156673368Y-106153475D01*
X156916589Y-106315990D01*
X157186842Y-106427932D01*
X157473740Y-106485000D01*
X157766260Y-106485000D01*
X158053158Y-106427932D01*
X158323411Y-106315990D01*
X158566632Y-106153475D01*
X158773475Y-105946632D01*
X158890000Y-105772240D01*
X159006525Y-105946632D01*
X159213368Y-106153475D01*
X159456589Y-106315990D01*
X159726842Y-106427932D01*
X160013740Y-106485000D01*
X160306260Y-106485000D01*
X160593158Y-106427932D01*
X160863411Y-106315990D01*
X161106632Y-106153475D01*
X161313475Y-105946632D01*
X161430000Y-105772240D01*
X161546525Y-105946632D01*
X161753368Y-106153475D01*
X161996589Y-106315990D01*
X162266842Y-106427932D01*
X162553740Y-106485000D01*
X162846260Y-106485000D01*
X163133158Y-106427932D01*
X163403411Y-106315990D01*
X163646632Y-106153475D01*
X163853475Y-105946632D01*
X164015990Y-105703411D01*
X164127932Y-105433158D01*
X164185000Y-105146260D01*
X164185000Y-104853740D01*
X164134142Y-104598061D01*
X173025000Y-104598061D01*
X173025000Y-104801939D01*
X173064774Y-105001898D01*
X173142795Y-105190256D01*
X173256063Y-105359774D01*
X173400226Y-105503937D01*
X173569744Y-105617205D01*
X173758102Y-105695226D01*
X173958061Y-105735000D01*
X174161939Y-105735000D01*
X174361898Y-105695226D01*
X174550256Y-105617205D01*
X174719774Y-105503937D01*
X174721876Y-105501835D01*
X174788061Y-105515000D01*
X174991939Y-105515000D01*
X175191898Y-105475226D01*
X175380256Y-105397205D01*
X175549774Y-105283937D01*
X175693937Y-105139774D01*
X175807205Y-104970256D01*
X175885226Y-104781898D01*
X175899912Y-104708061D01*
X183065000Y-104708061D01*
X183065000Y-104911939D01*
X183104774Y-105111898D01*
X183182795Y-105300256D01*
X183296063Y-105469774D01*
X183440226Y-105613937D01*
X183479408Y-105640118D01*
X183392795Y-105769744D01*
X183314774Y-105958102D01*
X183275000Y-106158061D01*
X183275000Y-106361939D01*
X183314774Y-106561898D01*
X183392795Y-106750256D01*
X183506063Y-106919774D01*
X183650226Y-107063937D01*
X183819744Y-107177205D01*
X184008102Y-107255226D01*
X184208061Y-107295000D01*
X184411939Y-107295000D01*
X184611898Y-107255226D01*
X184624514Y-107250000D01*
X191848299Y-107250000D01*
X191875040Y-107521507D01*
X191954236Y-107782581D01*
X192082843Y-108023188D01*
X192255919Y-108234081D01*
X192466812Y-108407157D01*
X192707419Y-108535764D01*
X192968493Y-108614960D01*
X193171963Y-108635000D01*
X194908037Y-108635000D01*
X195111507Y-108614960D01*
X195372581Y-108535764D01*
X195613188Y-108407157D01*
X195824081Y-108234081D01*
X195997157Y-108023188D01*
X196125764Y-107782581D01*
X196204960Y-107521507D01*
X196231701Y-107250000D01*
X198208299Y-107250000D01*
X198235040Y-107521507D01*
X198314236Y-107782581D01*
X198442843Y-108023188D01*
X198615919Y-108234081D01*
X198826812Y-108407157D01*
X199067419Y-108535764D01*
X199328493Y-108614960D01*
X199531963Y-108635000D01*
X200468037Y-108635000D01*
X200671507Y-108614960D01*
X200932581Y-108535764D01*
X201173188Y-108407157D01*
X201384081Y-108234081D01*
X201557157Y-108023188D01*
X201685764Y-107782581D01*
X201764960Y-107521507D01*
X201791701Y-107250000D01*
X201764960Y-106978493D01*
X201685764Y-106717419D01*
X201557157Y-106476812D01*
X201384081Y-106265919D01*
X201173188Y-106092843D01*
X200932581Y-105964236D01*
X200671507Y-105885040D01*
X200468037Y-105865000D01*
X199531963Y-105865000D01*
X199328493Y-105885040D01*
X199067419Y-105964236D01*
X198826812Y-106092843D01*
X198615919Y-106265919D01*
X198442843Y-106476812D01*
X198314236Y-106717419D01*
X198235040Y-106978493D01*
X198208299Y-107250000D01*
X196231701Y-107250000D01*
X196204960Y-106978493D01*
X196125764Y-106717419D01*
X195997157Y-106476812D01*
X195824081Y-106265919D01*
X195613188Y-106092843D01*
X195372581Y-105964236D01*
X195111507Y-105885040D01*
X194908037Y-105865000D01*
X193171963Y-105865000D01*
X192968493Y-105885040D01*
X192707419Y-105964236D01*
X192466812Y-106092843D01*
X192255919Y-106265919D01*
X192082843Y-106476812D01*
X191954236Y-106717419D01*
X191875040Y-106978493D01*
X191848299Y-107250000D01*
X184624514Y-107250000D01*
X184800256Y-107177205D01*
X184969774Y-107063937D01*
X185113937Y-106919774D01*
X185227205Y-106750256D01*
X185305226Y-106561898D01*
X185345000Y-106361939D01*
X185345000Y-106158061D01*
X185305226Y-105958102D01*
X185227205Y-105769744D01*
X185113937Y-105600226D01*
X184969774Y-105456063D01*
X184930592Y-105429882D01*
X185017205Y-105300256D01*
X185095226Y-105111898D01*
X185135000Y-104911939D01*
X185135000Y-104708061D01*
X185095226Y-104508102D01*
X185017205Y-104319744D01*
X184903937Y-104150226D01*
X184759774Y-104006063D01*
X184590256Y-103892795D01*
X184401898Y-103814774D01*
X184201939Y-103775000D01*
X183998061Y-103775000D01*
X183798102Y-103814774D01*
X183609744Y-103892795D01*
X183440226Y-104006063D01*
X183296063Y-104150226D01*
X183182795Y-104319744D01*
X183104774Y-104508102D01*
X183065000Y-104708061D01*
X175899912Y-104708061D01*
X175925000Y-104581939D01*
X175925000Y-104378061D01*
X175885226Y-104178102D01*
X175807205Y-103989744D01*
X175693937Y-103820226D01*
X175549774Y-103676063D01*
X175380256Y-103562795D01*
X175191898Y-103484774D01*
X174991939Y-103445000D01*
X174788061Y-103445000D01*
X174588102Y-103484774D01*
X174399744Y-103562795D01*
X174230226Y-103676063D01*
X174228124Y-103678165D01*
X174161939Y-103665000D01*
X173958061Y-103665000D01*
X173758102Y-103704774D01*
X173569744Y-103782795D01*
X173400226Y-103896063D01*
X173256063Y-104040226D01*
X173142795Y-104209744D01*
X173064774Y-104398102D01*
X173025000Y-104598061D01*
X164134142Y-104598061D01*
X164127932Y-104566842D01*
X164015990Y-104296589D01*
X163853475Y-104053368D01*
X163646632Y-103846525D01*
X163403411Y-103684010D01*
X163133158Y-103572068D01*
X162846260Y-103515000D01*
X162553740Y-103515000D01*
X162266842Y-103572068D01*
X161996589Y-103684010D01*
X161753368Y-103846525D01*
X161546525Y-104053368D01*
X161430000Y-104227760D01*
X161313475Y-104053368D01*
X161106632Y-103846525D01*
X160863411Y-103684010D01*
X160593158Y-103572068D01*
X160306260Y-103515000D01*
X160013740Y-103515000D01*
X159726842Y-103572068D01*
X159456589Y-103684010D01*
X159213368Y-103846525D01*
X159006525Y-104053368D01*
X158890000Y-104227760D01*
X158773475Y-104053368D01*
X158566632Y-103846525D01*
X158323411Y-103684010D01*
X158053158Y-103572068D01*
X157766260Y-103515000D01*
X157473740Y-103515000D01*
X157186842Y-103572068D01*
X156916589Y-103684010D01*
X156673368Y-103846525D01*
X156466525Y-104053368D01*
X156350000Y-104227760D01*
X156233475Y-104053368D01*
X156026632Y-103846525D01*
X155783411Y-103684010D01*
X155513158Y-103572068D01*
X155226260Y-103515000D01*
X154933740Y-103515000D01*
X154646842Y-103572068D01*
X154376589Y-103684010D01*
X154133368Y-103846525D01*
X153926525Y-104053368D01*
X153810000Y-104227760D01*
X153693475Y-104053368D01*
X153486632Y-103846525D01*
X153243411Y-103684010D01*
X152973158Y-103572068D01*
X152686260Y-103515000D01*
X152393740Y-103515000D01*
X152106842Y-103572068D01*
X151836589Y-103684010D01*
X151593368Y-103846525D01*
X151386525Y-104053368D01*
X151270000Y-104227760D01*
X151153475Y-104053368D01*
X150946632Y-103846525D01*
X150703411Y-103684010D01*
X150433158Y-103572068D01*
X150146260Y-103515000D01*
X149853740Y-103515000D01*
X149566842Y-103572068D01*
X149296589Y-103684010D01*
X149053368Y-103846525D01*
X148846525Y-104053368D01*
X148730000Y-104227760D01*
X148613475Y-104053368D01*
X148406632Y-103846525D01*
X148163411Y-103684010D01*
X147893158Y-103572068D01*
X147606260Y-103515000D01*
X147313740Y-103515000D01*
X147026842Y-103572068D01*
X146756589Y-103684010D01*
X146513368Y-103846525D01*
X146306525Y-104053368D01*
X146190000Y-104227760D01*
X146073475Y-104053368D01*
X145866632Y-103846525D01*
X145623411Y-103684010D01*
X145353158Y-103572068D01*
X145066260Y-103515000D01*
X144773740Y-103515000D01*
X144486842Y-103572068D01*
X144216589Y-103684010D01*
X143973368Y-103846525D01*
X143766525Y-104053368D01*
X143650000Y-104227760D01*
X143533475Y-104053368D01*
X143326632Y-103846525D01*
X143083411Y-103684010D01*
X142813158Y-103572068D01*
X142526260Y-103515000D01*
X142233740Y-103515000D01*
X141946842Y-103572068D01*
X141676589Y-103684010D01*
X141433368Y-103846525D01*
X141301513Y-103978380D01*
X141279502Y-103905820D01*
X141220537Y-103795506D01*
X141141185Y-103698815D01*
X141044494Y-103619463D01*
X140934180Y-103560498D01*
X140814482Y-103524188D01*
X140690000Y-103511928D01*
X138990000Y-103511928D01*
X138865518Y-103524188D01*
X138745820Y-103560498D01*
X138635506Y-103619463D01*
X138538815Y-103698815D01*
X138459463Y-103795506D01*
X138400498Y-103905820D01*
X138364188Y-104025518D01*
X138351928Y-104150000D01*
X137660000Y-104150000D01*
X137660000Y-102448061D01*
X171615000Y-102448061D01*
X171615000Y-102651939D01*
X171654774Y-102851898D01*
X171732795Y-103040256D01*
X171846063Y-103209774D01*
X171990226Y-103353937D01*
X172159744Y-103467205D01*
X172348102Y-103545226D01*
X172548061Y-103585000D01*
X172751939Y-103585000D01*
X172951898Y-103545226D01*
X173140256Y-103467205D01*
X173258703Y-103388061D01*
X194145000Y-103388061D01*
X194145000Y-103591939D01*
X194184774Y-103791898D01*
X194262795Y-103980256D01*
X194376063Y-104149774D01*
X194520226Y-104293937D01*
X194689744Y-104407205D01*
X194878102Y-104485226D01*
X195078061Y-104525000D01*
X195281939Y-104525000D01*
X195481898Y-104485226D01*
X195670256Y-104407205D01*
X195839774Y-104293937D01*
X195983937Y-104149774D01*
X196097205Y-103980256D01*
X196175226Y-103791898D01*
X196215000Y-103591939D01*
X196215000Y-103388061D01*
X196175226Y-103188102D01*
X196097205Y-102999744D01*
X195983937Y-102830226D01*
X195839774Y-102686063D01*
X195670256Y-102572795D01*
X195481898Y-102494774D01*
X195281939Y-102455000D01*
X195078061Y-102455000D01*
X194878102Y-102494774D01*
X194689744Y-102572795D01*
X194520226Y-102686063D01*
X194376063Y-102830226D01*
X194262795Y-102999744D01*
X194184774Y-103188102D01*
X194145000Y-103388061D01*
X173258703Y-103388061D01*
X173309774Y-103353937D01*
X173453937Y-103209774D01*
X173567205Y-103040256D01*
X173645226Y-102851898D01*
X173685000Y-102651939D01*
X173685000Y-102448061D01*
X173645226Y-102248102D01*
X173583077Y-102098061D01*
X183065000Y-102098061D01*
X183065000Y-102301939D01*
X183104774Y-102501898D01*
X183182795Y-102690256D01*
X183296063Y-102859774D01*
X183440226Y-103003937D01*
X183609744Y-103117205D01*
X183798102Y-103195226D01*
X183998061Y-103235000D01*
X184201939Y-103235000D01*
X184401898Y-103195226D01*
X184590256Y-103117205D01*
X184759774Y-103003937D01*
X184903937Y-102859774D01*
X185017205Y-102690256D01*
X185095226Y-102501898D01*
X185135000Y-102301939D01*
X185135000Y-102098061D01*
X185095226Y-101898102D01*
X185017205Y-101709744D01*
X184903937Y-101540226D01*
X184759774Y-101396063D01*
X184590256Y-101282795D01*
X184401898Y-101204774D01*
X184201939Y-101165000D01*
X183998061Y-101165000D01*
X183798102Y-101204774D01*
X183609744Y-101282795D01*
X183440226Y-101396063D01*
X183296063Y-101540226D01*
X183182795Y-101709744D01*
X183104774Y-101898102D01*
X183065000Y-102098061D01*
X173583077Y-102098061D01*
X173567205Y-102059744D01*
X173453937Y-101890226D01*
X173309774Y-101746063D01*
X173140256Y-101632795D01*
X172951898Y-101554774D01*
X172751939Y-101515000D01*
X172548061Y-101515000D01*
X172348102Y-101554774D01*
X172159744Y-101632795D01*
X171990226Y-101746063D01*
X171846063Y-101890226D01*
X171732795Y-102059744D01*
X171654774Y-102248102D01*
X171615000Y-102448061D01*
X137660000Y-102448061D01*
X137660000Y-97628061D01*
X173025000Y-97628061D01*
X173025000Y-97831939D01*
X173064774Y-98031898D01*
X173142795Y-98220256D01*
X173256063Y-98389774D01*
X173400226Y-98533937D01*
X173569744Y-98647205D01*
X173758102Y-98725226D01*
X173958061Y-98765000D01*
X174161939Y-98765000D01*
X174361898Y-98725226D01*
X174550256Y-98647205D01*
X174719774Y-98533937D01*
X174863937Y-98389774D01*
X174977205Y-98220256D01*
X175055226Y-98031898D01*
X175095000Y-97831939D01*
X175095000Y-97698061D01*
X183065000Y-97698061D01*
X183065000Y-97901939D01*
X183104774Y-98101898D01*
X183182795Y-98290256D01*
X183296063Y-98459774D01*
X183440226Y-98603937D01*
X183609744Y-98717205D01*
X183798102Y-98795226D01*
X183998061Y-98835000D01*
X184201939Y-98835000D01*
X184401898Y-98795226D01*
X184590256Y-98717205D01*
X184759774Y-98603937D01*
X184903937Y-98459774D01*
X185017205Y-98290256D01*
X185095226Y-98101898D01*
X185135000Y-97901939D01*
X185135000Y-97698061D01*
X185095226Y-97498102D01*
X185017205Y-97309744D01*
X184903937Y-97140226D01*
X184759774Y-96996063D01*
X184590256Y-96882795D01*
X184401898Y-96804774D01*
X184201939Y-96765000D01*
X183998061Y-96765000D01*
X183798102Y-96804774D01*
X183609744Y-96882795D01*
X183440226Y-96996063D01*
X183296063Y-97140226D01*
X183182795Y-97309744D01*
X183104774Y-97498102D01*
X183065000Y-97698061D01*
X175095000Y-97698061D01*
X175095000Y-97628061D01*
X175055226Y-97428102D01*
X174977205Y-97239744D01*
X174863937Y-97070226D01*
X174719774Y-96926063D01*
X174550256Y-96812795D01*
X174361898Y-96734774D01*
X174161939Y-96695000D01*
X173958061Y-96695000D01*
X173758102Y-96734774D01*
X173569744Y-96812795D01*
X173400226Y-96926063D01*
X173256063Y-97070226D01*
X173142795Y-97239744D01*
X173064774Y-97428102D01*
X173025000Y-97628061D01*
X137660000Y-97628061D01*
X137660000Y-78032279D01*
X137669580Y-77934576D01*
X137688580Y-77871644D01*
X137719445Y-77813595D01*
X137760989Y-77762657D01*
X137811644Y-77720752D01*
X137869471Y-77689485D01*
X137932272Y-77670044D01*
X138027835Y-77660000D01*
X159085198Y-77660000D01*
X158389002Y-78356197D01*
G37*
%TD.AperFunction*%
%TD*%
M02*
