%TF.GenerationSoftware,KiCad,Pcbnew,5.1.9-73d0e3b20d~88~ubuntu20.04.1*%
%TF.CreationDate,2021-06-05T19:42:07+02:00*%
%TF.ProjectId,andy,616e6479-2e6b-4696-9361-645f70636258,v1.00*%
%TF.SameCoordinates,Original*%
%TF.FileFunction,Copper,L1,Top*%
%TF.FilePolarity,Positive*%
%FSLAX46Y46*%
G04 Gerber Fmt 4.6, Leading zero omitted, Abs format (unit mm)*
G04 Created by KiCad (PCBNEW 5.1.9-73d0e3b20d~88~ubuntu20.04.1) date 2021-06-05 19:42:07*
%MOMM*%
%LPD*%
G01*
G04 APERTURE LIST*
%TA.AperFunction,ComponentPad*%
%ADD10C,1.700000*%
%TD*%
%TA.AperFunction,ComponentPad*%
%ADD11C,1.381250*%
%TD*%
%TA.AperFunction,ComponentPad*%
%ADD12C,1.725000*%
%TD*%
%TA.AperFunction,ComponentPad*%
%ADD13C,1.381000*%
%TD*%
%TA.AperFunction,ComponentPad*%
%ADD14C,2.500000*%
%TD*%
%TA.AperFunction,ComponentPad*%
%ADD15O,2.500000X3.800000*%
%TD*%
%TA.AperFunction,ComponentPad*%
%ADD16O,3.800000X2.500000*%
%TD*%
%TA.AperFunction,SMDPad,CuDef*%
%ADD17R,0.650000X1.060000*%
%TD*%
%TA.AperFunction,SMDPad,CuDef*%
%ADD18R,2.600000X0.280000*%
%TD*%
%TA.AperFunction,ComponentPad*%
%ADD19O,3.100000X1.500000*%
%TD*%
%TA.AperFunction,ComponentPad*%
%ADD20O,2.300000X1.500000*%
%TD*%
%TA.AperFunction,SMDPad,CuDef*%
%ADD21R,0.600000X0.700000*%
%TD*%
%TA.AperFunction,SMDPad,CuDef*%
%ADD22R,0.900000X0.800000*%
%TD*%
%TA.AperFunction,SMDPad,CuDef*%
%ADD23R,0.800000X1.700000*%
%TD*%
%TA.AperFunction,ComponentPad*%
%ADD24O,1.700000X1.700000*%
%TD*%
%TA.AperFunction,ComponentPad*%
%ADD25R,1.700000X1.700000*%
%TD*%
%TA.AperFunction,ViaPad*%
%ADD26C,0.800000*%
%TD*%
%TA.AperFunction,Conductor*%
%ADD27C,0.250000*%
%TD*%
%TA.AperFunction,Conductor*%
%ADD28C,0.500000*%
%TD*%
%TA.AperFunction,Conductor*%
%ADD29C,0.430000*%
%TD*%
G04 APERTURE END LIST*
D10*
%TO.P,U1,54*%
%TO.N,GND*%
X160160000Y-79680000D03*
%TO.P,U1,53*%
%TO.N,+3V3*%
X157620000Y-79680000D03*
%TO.P,U1,52*%
%TO.N,N/C*%
X155080000Y-79680000D03*
%TO.P,U1,51*%
%TO.N,hdmi_tx_en*%
X152540000Y-79680000D03*
%TO.P,U1,50*%
%TO.N,sai1_sd_a_pc1*%
X150000000Y-79680000D03*
%TO.P,U1,49*%
%TO.N,sai1_mclk_b*%
X147460000Y-79680000D03*
%TO.P,U1,48*%
%TO.N,sai1_sck_b*%
X144920000Y-79680000D03*
%TO.P,U1,47*%
%TO.N,spdifrx_in1*%
X142380000Y-79680000D03*
%TO.P,U1,46*%
%TO.N,N/C*%
X139840000Y-79680000D03*
%TO.P,U1,45*%
%TO.N,hdmi_5v_in*%
X160160000Y-82220000D03*
%TO.P,U1,44*%
%TO.N,hdmi_hpd_en*%
X157620000Y-82220000D03*
%TO.P,U1,43*%
%TO.N,i2s1_ws*%
X155080000Y-82220000D03*
%TO.P,U1,42*%
%TO.N,hdmi_rx_en*%
X152540000Y-82220000D03*
%TO.P,U1,41*%
%TO.N,i2s1_mck*%
X150000000Y-82220000D03*
%TO.P,U1,40*%
%TO.N,N/C*%
X147460000Y-82220000D03*
%TO.P,U1,39*%
%TO.N,sai1_sd_a_pb2*%
X144920000Y-82220000D03*
%TO.P,U1,38*%
%TO.N,N/C*%
X142380000Y-82220000D03*
%TO.P,U1,37*%
X139840000Y-82220000D03*
%TO.P,U1,36*%
%TO.N,hdmi_5v_en*%
X160160000Y-84760000D03*
%TO.P,U1,35*%
%TO.N,hdmi_hpd_in*%
X157620000Y-84760000D03*
%TO.P,U1,34*%
%TO.N,i2s1_ck*%
X155080000Y-84760000D03*
%TO.P,U1,33*%
%TO.N,i2s1_sd*%
X152540000Y-84760000D03*
%TO.P,U1,32*%
%TO.N,spdifrx_in3*%
X150000000Y-84760000D03*
%TO.P,U1,31*%
%TO.N,N/C*%
X147460000Y-84760000D03*
%TO.P,U1,30*%
%TO.N,i2c2_scl*%
X144920000Y-84760000D03*
%TO.P,U1,29*%
%TO.N,N/C*%
X142380000Y-84760000D03*
%TO.P,U1,28*%
X139840000Y-84760000D03*
%TO.P,U1,27*%
%TO.N,pc14*%
X160160000Y-115240000D03*
%TO.P,U1,26*%
%TO.N,N/C*%
X157620000Y-115240000D03*
%TO.P,U1,25*%
X155080000Y-115240000D03*
%TO.P,U1,24*%
%TO.N,cec_pb6*%
X152540000Y-115240000D03*
%TO.P,U1,23*%
%TO.N,i2c3_sda*%
X150000000Y-115240000D03*
%TO.P,U1,22*%
%TO.N,uart5_rx*%
X147460000Y-115240000D03*
%TO.P,U1,21*%
%TO.N,N/C*%
X144920000Y-115240000D03*
%TO.P,U1,20*%
%TO.N,cec_pa15*%
X142380000Y-115240000D03*
%TO.P,U1,19*%
%TO.N,swdio*%
X139840000Y-115240000D03*
%TO.P,U1,18*%
%TO.N,pc15*%
X160160000Y-117780000D03*
%TO.P,U1,17*%
%TO.N,N/C*%
X157620000Y-117780000D03*
%TO.P,U1,16*%
%TO.N,sai1_fs_b*%
X155080000Y-117780000D03*
%TO.P,U1,15*%
%TO.N,spdifrx_in0*%
X152540000Y-117780000D03*
%TO.P,U1,14*%
%TO.N,N/C*%
X150000000Y-117780000D03*
%TO.P,U1,13*%
%TO.N,i2c2_sda*%
X147460000Y-117780000D03*
%TO.P,U1,12*%
%TO.N,uart5_tx*%
X144920000Y-117780000D03*
%TO.P,U1,11*%
%TO.N,N/C*%
X142380000Y-117780000D03*
%TO.P,U1,10*%
%TO.N,swclk*%
X139840000Y-117780000D03*
%TO.P,U1,9*%
%TO.N,N/C*%
X160160000Y-120320000D03*
%TO.P,U1,8*%
%TO.N,i2s_clk*%
X157620000Y-120320000D03*
%TO.P,U1,7*%
%TO.N,i2c3_scl*%
X155080000Y-120320000D03*
%TO.P,U1,6*%
%TO.N,sai1_sd_b*%
X152540000Y-120320000D03*
%TO.P,U1,5*%
%TO.N,N/C*%
X150000000Y-120320000D03*
%TO.P,U1,4*%
%TO.N,+5V*%
X147460000Y-120320000D03*
%TO.P,U1,3*%
%TO.N,GND*%
X144920000Y-120320000D03*
%TO.P,U1,2*%
%TO.N,+3V3*%
X142380000Y-120320000D03*
%TO.P,U1,1*%
%TO.N,GND*%
X139840000Y-120320000D03*
%TD*%
D11*
%TO.P,U2,1*%
%TO.N,+3V3*%
X192440000Y-86500000D03*
%TO.P,U2,2*%
%TO.N,GND*%
X192440000Y-83960000D03*
%TO.P,U2,3*%
%TO.N,sai1_sd_a_pb2*%
X192440000Y-81420000D03*
D12*
%TO.P,U2,4*%
%TO.N,N/C*%
X195070000Y-86500000D03*
%TO.P,U2,5*%
X195070000Y-81420000D03*
%TD*%
D13*
%TO.P,U3,1*%
%TO.N,Net-(C3-Pad2)*%
X192490000Y-118540000D03*
%TO.P,U3,2*%
%TO.N,GND*%
X192490000Y-116000000D03*
%TO.P,U3,3*%
%TO.N,spdifrx_in0*%
X192490000Y-113460000D03*
D12*
%TO.P,U3,4*%
%TO.N,N/C*%
X195110000Y-118540000D03*
%TO.P,U3,5*%
X195110000Y-113460000D03*
%TD*%
D14*
%TO.P,J1,1*%
%TO.N,spdif_rx*%
X178000000Y-84000000D03*
D15*
%TO.P,J1,2*%
%TO.N,GND*%
X172500000Y-84000000D03*
X183500000Y-84000000D03*
D16*
X178000000Y-78500000D03*
%TD*%
%TO.P,J2,2*%
%TO.N,GND*%
X178000000Y-121500000D03*
D15*
X172500000Y-116000000D03*
X183500000Y-116000000D03*
D14*
%TO.P,J2,1*%
%TO.N,spdif_tx*%
X178000000Y-116000000D03*
%TD*%
%TO.P,C1,2*%
%TO.N,Net-(C1-Pad2)*%
%TA.AperFunction,SMDPad,CuDef*%
G36*
G01*
X169910000Y-82625000D02*
X170410000Y-82625000D01*
G75*
G02*
X170635000Y-82850000I0J-225000D01*
G01*
X170635000Y-83300000D01*
G75*
G02*
X170410000Y-83525000I-225000J0D01*
G01*
X169910000Y-83525000D01*
G75*
G02*
X169685000Y-83300000I0J225000D01*
G01*
X169685000Y-82850000D01*
G75*
G02*
X169910000Y-82625000I225000J0D01*
G01*
G37*
%TD.AperFunction*%
%TO.P,C1,1*%
%TO.N,spdif_rx*%
%TA.AperFunction,SMDPad,CuDef*%
G36*
G01*
X169910000Y-81075000D02*
X170410000Y-81075000D01*
G75*
G02*
X170635000Y-81300000I0J-225000D01*
G01*
X170635000Y-81750000D01*
G75*
G02*
X170410000Y-81975000I-225000J0D01*
G01*
X169910000Y-81975000D01*
G75*
G02*
X169685000Y-81750000I0J225000D01*
G01*
X169685000Y-81300000D01*
G75*
G02*
X169910000Y-81075000I225000J0D01*
G01*
G37*
%TD.AperFunction*%
%TD*%
%TO.P,C2,2*%
%TO.N,+3V3*%
%TA.AperFunction,SMDPad,CuDef*%
G36*
G01*
X187530000Y-85510000D02*
X188030000Y-85510000D01*
G75*
G02*
X188255000Y-85735000I0J-225000D01*
G01*
X188255000Y-86185000D01*
G75*
G02*
X188030000Y-86410000I-225000J0D01*
G01*
X187530000Y-86410000D01*
G75*
G02*
X187305000Y-86185000I0J225000D01*
G01*
X187305000Y-85735000D01*
G75*
G02*
X187530000Y-85510000I225000J0D01*
G01*
G37*
%TD.AperFunction*%
%TO.P,C2,1*%
%TO.N,GND*%
%TA.AperFunction,SMDPad,CuDef*%
G36*
G01*
X187530000Y-83960000D02*
X188030000Y-83960000D01*
G75*
G02*
X188255000Y-84185000I0J-225000D01*
G01*
X188255000Y-84635000D01*
G75*
G02*
X188030000Y-84860000I-225000J0D01*
G01*
X187530000Y-84860000D01*
G75*
G02*
X187305000Y-84635000I0J225000D01*
G01*
X187305000Y-84185000D01*
G75*
G02*
X187530000Y-83960000I225000J0D01*
G01*
G37*
%TD.AperFunction*%
%TD*%
%TO.P,C3,1*%
%TO.N,GND*%
%TA.AperFunction,SMDPad,CuDef*%
G36*
G01*
X187570000Y-116380000D02*
X188070000Y-116380000D01*
G75*
G02*
X188295000Y-116605000I0J-225000D01*
G01*
X188295000Y-117055000D01*
G75*
G02*
X188070000Y-117280000I-225000J0D01*
G01*
X187570000Y-117280000D01*
G75*
G02*
X187345000Y-117055000I0J225000D01*
G01*
X187345000Y-116605000D01*
G75*
G02*
X187570000Y-116380000I225000J0D01*
G01*
G37*
%TD.AperFunction*%
%TO.P,C3,2*%
%TO.N,Net-(C3-Pad2)*%
%TA.AperFunction,SMDPad,CuDef*%
G36*
G01*
X187570000Y-117930000D02*
X188070000Y-117930000D01*
G75*
G02*
X188295000Y-118155000I0J-225000D01*
G01*
X188295000Y-118605000D01*
G75*
G02*
X188070000Y-118830000I-225000J0D01*
G01*
X187570000Y-118830000D01*
G75*
G02*
X187345000Y-118605000I0J225000D01*
G01*
X187345000Y-118155000D01*
G75*
G02*
X187570000Y-117930000I225000J0D01*
G01*
G37*
%TD.AperFunction*%
%TD*%
%TO.P,C4,1*%
%TO.N,GND*%
%TA.AperFunction,SMDPad,CuDef*%
G36*
G01*
X166535000Y-120570000D02*
X166535000Y-121070000D01*
G75*
G02*
X166310000Y-121295000I-225000J0D01*
G01*
X165860000Y-121295000D01*
G75*
G02*
X165635000Y-121070000I0J225000D01*
G01*
X165635000Y-120570000D01*
G75*
G02*
X165860000Y-120345000I225000J0D01*
G01*
X166310000Y-120345000D01*
G75*
G02*
X166535000Y-120570000I0J-225000D01*
G01*
G37*
%TD.AperFunction*%
%TO.P,C4,2*%
%TO.N,+3V3*%
%TA.AperFunction,SMDPad,CuDef*%
G36*
G01*
X164985000Y-120570000D02*
X164985000Y-121070000D01*
G75*
G02*
X164760000Y-121295000I-225000J0D01*
G01*
X164310000Y-121295000D01*
G75*
G02*
X164085000Y-121070000I0J225000D01*
G01*
X164085000Y-120570000D01*
G75*
G02*
X164310000Y-120345000I225000J0D01*
G01*
X164760000Y-120345000D01*
G75*
G02*
X164985000Y-120570000I0J-225000D01*
G01*
G37*
%TD.AperFunction*%
%TD*%
%TO.P,C5,1*%
%TO.N,GND*%
%TA.AperFunction,SMDPad,CuDef*%
G36*
G01*
X166365000Y-84180000D02*
X166365000Y-84680000D01*
G75*
G02*
X166140000Y-84905000I-225000J0D01*
G01*
X165690000Y-84905000D01*
G75*
G02*
X165465000Y-84680000I0J225000D01*
G01*
X165465000Y-84180000D01*
G75*
G02*
X165690000Y-83955000I225000J0D01*
G01*
X166140000Y-83955000D01*
G75*
G02*
X166365000Y-84180000I0J-225000D01*
G01*
G37*
%TD.AperFunction*%
%TO.P,C5,2*%
%TO.N,+3V3*%
%TA.AperFunction,SMDPad,CuDef*%
G36*
G01*
X164815000Y-84180000D02*
X164815000Y-84680000D01*
G75*
G02*
X164590000Y-84905000I-225000J0D01*
G01*
X164140000Y-84905000D01*
G75*
G02*
X163915000Y-84680000I0J225000D01*
G01*
X163915000Y-84180000D01*
G75*
G02*
X164140000Y-83955000I225000J0D01*
G01*
X164590000Y-83955000D01*
G75*
G02*
X164815000Y-84180000I0J-225000D01*
G01*
G37*
%TD.AperFunction*%
%TD*%
%TO.P,C6,2*%
%TO.N,Net-(C6-Pad2)*%
%TA.AperFunction,SMDPad,CuDef*%
G36*
G01*
X166870000Y-118465000D02*
X167370000Y-118465000D01*
G75*
G02*
X167595000Y-118690000I0J-225000D01*
G01*
X167595000Y-119140000D01*
G75*
G02*
X167370000Y-119365000I-225000J0D01*
G01*
X166870000Y-119365000D01*
G75*
G02*
X166645000Y-119140000I0J225000D01*
G01*
X166645000Y-118690000D01*
G75*
G02*
X166870000Y-118465000I225000J0D01*
G01*
G37*
%TD.AperFunction*%
%TO.P,C6,1*%
%TO.N,Net-(C6-Pad1)*%
%TA.AperFunction,SMDPad,CuDef*%
G36*
G01*
X166870000Y-116915000D02*
X167370000Y-116915000D01*
G75*
G02*
X167595000Y-117140000I0J-225000D01*
G01*
X167595000Y-117590000D01*
G75*
G02*
X167370000Y-117815000I-225000J0D01*
G01*
X166870000Y-117815000D01*
G75*
G02*
X166645000Y-117590000I0J225000D01*
G01*
X166645000Y-117140000D01*
G75*
G02*
X166870000Y-116915000I225000J0D01*
G01*
G37*
%TD.AperFunction*%
%TD*%
%TO.P,L1,1*%
%TO.N,Net-(C3-Pad2)*%
%TA.AperFunction,SMDPad,CuDef*%
G36*
G01*
X186581250Y-119105000D02*
X185818750Y-119105000D01*
G75*
G02*
X185600000Y-118886250I0J218750D01*
G01*
X185600000Y-118448750D01*
G75*
G02*
X185818750Y-118230000I218750J0D01*
G01*
X186581250Y-118230000D01*
G75*
G02*
X186800000Y-118448750I0J-218750D01*
G01*
X186800000Y-118886250D01*
G75*
G02*
X186581250Y-119105000I-218750J0D01*
G01*
G37*
%TD.AperFunction*%
%TO.P,L1,2*%
%TO.N,+3V3*%
%TA.AperFunction,SMDPad,CuDef*%
G36*
G01*
X186581250Y-116980000D02*
X185818750Y-116980000D01*
G75*
G02*
X185600000Y-116761250I0J218750D01*
G01*
X185600000Y-116323750D01*
G75*
G02*
X185818750Y-116105000I218750J0D01*
G01*
X186581250Y-116105000D01*
G75*
G02*
X186800000Y-116323750I0J-218750D01*
G01*
X186800000Y-116761250D01*
G75*
G02*
X186581250Y-116980000I-218750J0D01*
G01*
G37*
%TD.AperFunction*%
%TD*%
%TO.P,R1,1*%
%TO.N,spdif_rx*%
%TA.AperFunction,SMDPad,CuDef*%
G36*
G01*
X170435000Y-80495000D02*
X169885000Y-80495000D01*
G75*
G02*
X169685000Y-80295000I0J200000D01*
G01*
X169685000Y-79895000D01*
G75*
G02*
X169885000Y-79695000I200000J0D01*
G01*
X170435000Y-79695000D01*
G75*
G02*
X170635000Y-79895000I0J-200000D01*
G01*
X170635000Y-80295000D01*
G75*
G02*
X170435000Y-80495000I-200000J0D01*
G01*
G37*
%TD.AperFunction*%
%TO.P,R1,2*%
%TO.N,GND*%
%TA.AperFunction,SMDPad,CuDef*%
G36*
G01*
X170435000Y-78845000D02*
X169885000Y-78845000D01*
G75*
G02*
X169685000Y-78645000I0J200000D01*
G01*
X169685000Y-78245000D01*
G75*
G02*
X169885000Y-78045000I200000J0D01*
G01*
X170435000Y-78045000D01*
G75*
G02*
X170635000Y-78245000I0J-200000D01*
G01*
X170635000Y-78645000D01*
G75*
G02*
X170435000Y-78845000I-200000J0D01*
G01*
G37*
%TD.AperFunction*%
%TD*%
%TO.P,R2,1*%
%TO.N,Net-(C1-Pad2)*%
%TA.AperFunction,SMDPad,CuDef*%
G36*
G01*
X168705000Y-82985000D02*
X168155000Y-82985000D01*
G75*
G02*
X167955000Y-82785000I0J200000D01*
G01*
X167955000Y-82385000D01*
G75*
G02*
X168155000Y-82185000I200000J0D01*
G01*
X168705000Y-82185000D01*
G75*
G02*
X168905000Y-82385000I0J-200000D01*
G01*
X168905000Y-82785000D01*
G75*
G02*
X168705000Y-82985000I-200000J0D01*
G01*
G37*
%TD.AperFunction*%
%TO.P,R2,2*%
%TO.N,Net-(R2-Pad2)*%
%TA.AperFunction,SMDPad,CuDef*%
G36*
G01*
X168705000Y-81335000D02*
X168155000Y-81335000D01*
G75*
G02*
X167955000Y-81135000I0J200000D01*
G01*
X167955000Y-80735000D01*
G75*
G02*
X168155000Y-80535000I200000J0D01*
G01*
X168705000Y-80535000D01*
G75*
G02*
X168905000Y-80735000I0J-200000D01*
G01*
X168905000Y-81135000D01*
G75*
G02*
X168705000Y-81335000I-200000J0D01*
G01*
G37*
%TD.AperFunction*%
%TD*%
%TO.P,R3,2*%
%TO.N,Net-(R3-Pad2)*%
%TA.AperFunction,SMDPad,CuDef*%
G36*
G01*
X166645000Y-82195000D02*
X167195000Y-82195000D01*
G75*
G02*
X167395000Y-82395000I0J-200000D01*
G01*
X167395000Y-82795000D01*
G75*
G02*
X167195000Y-82995000I-200000J0D01*
G01*
X166645000Y-82995000D01*
G75*
G02*
X166445000Y-82795000I0J200000D01*
G01*
X166445000Y-82395000D01*
G75*
G02*
X166645000Y-82195000I200000J0D01*
G01*
G37*
%TD.AperFunction*%
%TO.P,R3,1*%
%TO.N,Net-(R2-Pad2)*%
%TA.AperFunction,SMDPad,CuDef*%
G36*
G01*
X166645000Y-80545000D02*
X167195000Y-80545000D01*
G75*
G02*
X167395000Y-80745000I0J-200000D01*
G01*
X167395000Y-81145000D01*
G75*
G02*
X167195000Y-81345000I-200000J0D01*
G01*
X166645000Y-81345000D01*
G75*
G02*
X166445000Y-81145000I0J200000D01*
G01*
X166445000Y-80745000D01*
G75*
G02*
X166645000Y-80545000I200000J0D01*
G01*
G37*
%TD.AperFunction*%
%TD*%
%TO.P,R4,2*%
%TO.N,GND*%
%TA.AperFunction,SMDPad,CuDef*%
G36*
G01*
X164785000Y-79185000D02*
X164785000Y-78635000D01*
G75*
G02*
X164985000Y-78435000I200000J0D01*
G01*
X165385000Y-78435000D01*
G75*
G02*
X165585000Y-78635000I0J-200000D01*
G01*
X165585000Y-79185000D01*
G75*
G02*
X165385000Y-79385000I-200000J0D01*
G01*
X164985000Y-79385000D01*
G75*
G02*
X164785000Y-79185000I0J200000D01*
G01*
G37*
%TD.AperFunction*%
%TO.P,R4,1*%
%TO.N,Net-(R3-Pad2)*%
%TA.AperFunction,SMDPad,CuDef*%
G36*
G01*
X163135000Y-79185000D02*
X163135000Y-78635000D01*
G75*
G02*
X163335000Y-78435000I200000J0D01*
G01*
X163735000Y-78435000D01*
G75*
G02*
X163935000Y-78635000I0J-200000D01*
G01*
X163935000Y-79185000D01*
G75*
G02*
X163735000Y-79385000I-200000J0D01*
G01*
X163335000Y-79385000D01*
G75*
G02*
X163135000Y-79185000I0J200000D01*
G01*
G37*
%TD.AperFunction*%
%TD*%
%TO.P,R5,2*%
%TO.N,Net-(C6-Pad1)*%
%TA.AperFunction,SMDPad,CuDef*%
G36*
G01*
X168875000Y-117715000D02*
X168325000Y-117715000D01*
G75*
G02*
X168125000Y-117515000I0J200000D01*
G01*
X168125000Y-117115000D01*
G75*
G02*
X168325000Y-116915000I200000J0D01*
G01*
X168875000Y-116915000D01*
G75*
G02*
X169075000Y-117115000I0J-200000D01*
G01*
X169075000Y-117515000D01*
G75*
G02*
X168875000Y-117715000I-200000J0D01*
G01*
G37*
%TD.AperFunction*%
%TO.P,R5,1*%
%TO.N,spdif_tx*%
%TA.AperFunction,SMDPad,CuDef*%
G36*
G01*
X168875000Y-119365000D02*
X168325000Y-119365000D01*
G75*
G02*
X168125000Y-119165000I0J200000D01*
G01*
X168125000Y-118765000D01*
G75*
G02*
X168325000Y-118565000I200000J0D01*
G01*
X168875000Y-118565000D01*
G75*
G02*
X169075000Y-118765000I0J-200000D01*
G01*
X169075000Y-119165000D01*
G75*
G02*
X168875000Y-119365000I-200000J0D01*
G01*
G37*
%TD.AperFunction*%
%TD*%
%TO.P,R6,1*%
%TO.N,spdif_tx*%
%TA.AperFunction,SMDPad,CuDef*%
G36*
G01*
X170395000Y-119365000D02*
X169845000Y-119365000D01*
G75*
G02*
X169645000Y-119165000I0J200000D01*
G01*
X169645000Y-118765000D01*
G75*
G02*
X169845000Y-118565000I200000J0D01*
G01*
X170395000Y-118565000D01*
G75*
G02*
X170595000Y-118765000I0J-200000D01*
G01*
X170595000Y-119165000D01*
G75*
G02*
X170395000Y-119365000I-200000J0D01*
G01*
G37*
%TD.AperFunction*%
%TO.P,R6,2*%
%TO.N,GND*%
%TA.AperFunction,SMDPad,CuDef*%
G36*
G01*
X170395000Y-117715000D02*
X169845000Y-117715000D01*
G75*
G02*
X169645000Y-117515000I0J200000D01*
G01*
X169645000Y-117115000D01*
G75*
G02*
X169845000Y-116915000I200000J0D01*
G01*
X170395000Y-116915000D01*
G75*
G02*
X170595000Y-117115000I0J-200000D01*
G01*
X170595000Y-117515000D01*
G75*
G02*
X170395000Y-117715000I-200000J0D01*
G01*
G37*
%TD.AperFunction*%
%TD*%
D17*
%TO.P,U4,1*%
%TO.N,Net-(R2-Pad2)*%
X165310000Y-80670000D03*
%TO.P,U4,2*%
%TO.N,GND*%
X164360000Y-80670000D03*
%TO.P,U4,3*%
%TO.N,Net-(R3-Pad2)*%
X163410000Y-80670000D03*
%TO.P,U4,4*%
%TO.N,spdifrx_in1*%
X163410000Y-82870000D03*
%TO.P,U4,6*%
%TO.N,Net-(R3-Pad2)*%
X165310000Y-82870000D03*
%TO.P,U4,5*%
%TO.N,+3V3*%
X164360000Y-82870000D03*
%TD*%
%TO.P,U5,5*%
%TO.N,+3V3*%
X164540000Y-119260000D03*
%TO.P,U5,6*%
%TO.N,Net-(C6-Pad2)*%
X165490000Y-119260000D03*
%TO.P,U5,4*%
X163590000Y-119260000D03*
%TO.P,U5,3*%
%TO.N,sai1_sd_a_pc1*%
X163590000Y-117060000D03*
%TO.P,U5,2*%
%TO.N,GND*%
X164540000Y-117060000D03*
%TO.P,U5,1*%
%TO.N,sai1_sd_a_pc1*%
X165490000Y-117060000D03*
%TD*%
D18*
%TO.P,J3,1*%
%TO.N,N/C*%
X193280000Y-95500000D03*
%TO.P,J3,2*%
%TO.N,GND*%
X193280000Y-96000000D03*
%TO.P,J3,3*%
%TO.N,N/C*%
X193280000Y-96500000D03*
%TO.P,J3,4*%
X193280000Y-97000000D03*
%TO.P,J3,5*%
%TO.N,GND*%
X193280000Y-97500000D03*
%TO.P,J3,6*%
%TO.N,N/C*%
X193280000Y-98000000D03*
%TO.P,J3,7*%
X193280000Y-98500000D03*
%TO.P,J3,8*%
%TO.N,GND*%
X193280000Y-99000000D03*
%TO.P,J3,9*%
%TO.N,N/C*%
X193280000Y-99500000D03*
%TO.P,J3,10*%
X193280000Y-100000000D03*
%TO.P,J3,11*%
%TO.N,GND*%
X193280000Y-100500000D03*
%TO.P,J3,12*%
%TO.N,N/C*%
X193280000Y-101000000D03*
%TO.P,J3,13*%
%TO.N,hdmi_cec*%
X193280000Y-101500000D03*
%TO.P,J3,14*%
%TO.N,hdmi_utility*%
X193280000Y-102000000D03*
%TO.P,J3,15*%
%TO.N,hdmi_scl*%
X193280000Y-102500000D03*
%TO.P,J3,16*%
%TO.N,hdmi_sda*%
X193280000Y-103000000D03*
%TO.P,J3,17*%
%TO.N,GND*%
X193280000Y-103500000D03*
%TO.P,J3,18*%
%TO.N,hdmi_5v*%
X193280000Y-104000000D03*
%TO.P,J3,19*%
%TO.N,hdmi_hpd*%
X193280000Y-104500000D03*
D19*
%TO.P,J3,S2*%
%TO.N,N/C*%
X194040000Y-107250000D03*
%TO.P,J3,S1*%
X194040000Y-92750000D03*
D20*
%TO.P,J3,S3*%
X200000000Y-107250000D03*
%TO.P,J3,S4*%
X200000000Y-92750000D03*
%TD*%
%TO.P,C7,1*%
%TO.N,hdmi_5v*%
%TA.AperFunction,SMDPad,CuDef*%
G36*
G01*
X181465000Y-106510000D02*
X181465000Y-106010000D01*
G75*
G02*
X181690000Y-105785000I225000J0D01*
G01*
X182140000Y-105785000D01*
G75*
G02*
X182365000Y-106010000I0J-225000D01*
G01*
X182365000Y-106510000D01*
G75*
G02*
X182140000Y-106735000I-225000J0D01*
G01*
X181690000Y-106735000D01*
G75*
G02*
X181465000Y-106510000I0J225000D01*
G01*
G37*
%TD.AperFunction*%
%TO.P,C7,2*%
%TO.N,GND*%
%TA.AperFunction,SMDPad,CuDef*%
G36*
G01*
X183015000Y-106510000D02*
X183015000Y-106010000D01*
G75*
G02*
X183240000Y-105785000I225000J0D01*
G01*
X183690000Y-105785000D01*
G75*
G02*
X183915000Y-106010000I0J-225000D01*
G01*
X183915000Y-106510000D01*
G75*
G02*
X183690000Y-106735000I-225000J0D01*
G01*
X183240000Y-106735000D01*
G75*
G02*
X183015000Y-106510000I0J225000D01*
G01*
G37*
%TD.AperFunction*%
%TD*%
%TO.P,C8,1*%
%TO.N,GND*%
%TA.AperFunction,SMDPad,CuDef*%
G36*
G01*
X173800000Y-105105000D02*
X174300000Y-105105000D01*
G75*
G02*
X174525000Y-105330000I0J-225000D01*
G01*
X174525000Y-105780000D01*
G75*
G02*
X174300000Y-106005000I-225000J0D01*
G01*
X173800000Y-106005000D01*
G75*
G02*
X173575000Y-105780000I0J225000D01*
G01*
X173575000Y-105330000D01*
G75*
G02*
X173800000Y-105105000I225000J0D01*
G01*
G37*
%TD.AperFunction*%
%TO.P,C8,2*%
%TO.N,+5V*%
%TA.AperFunction,SMDPad,CuDef*%
G36*
G01*
X173800000Y-106655000D02*
X174300000Y-106655000D01*
G75*
G02*
X174525000Y-106880000I0J-225000D01*
G01*
X174525000Y-107330000D01*
G75*
G02*
X174300000Y-107555000I-225000J0D01*
G01*
X173800000Y-107555000D01*
G75*
G02*
X173575000Y-107330000I0J225000D01*
G01*
X173575000Y-106880000D01*
G75*
G02*
X173800000Y-106655000I225000J0D01*
G01*
G37*
%TD.AperFunction*%
%TD*%
%TO.P,C9,2*%
%TO.N,+5V*%
%TA.AperFunction,SMDPad,CuDef*%
G36*
G01*
X173810000Y-99675000D02*
X174310000Y-99675000D01*
G75*
G02*
X174535000Y-99900000I0J-225000D01*
G01*
X174535000Y-100350000D01*
G75*
G02*
X174310000Y-100575000I-225000J0D01*
G01*
X173810000Y-100575000D01*
G75*
G02*
X173585000Y-100350000I0J225000D01*
G01*
X173585000Y-99900000D01*
G75*
G02*
X173810000Y-99675000I225000J0D01*
G01*
G37*
%TD.AperFunction*%
%TO.P,C9,1*%
%TO.N,GND*%
%TA.AperFunction,SMDPad,CuDef*%
G36*
G01*
X173810000Y-98125000D02*
X174310000Y-98125000D01*
G75*
G02*
X174535000Y-98350000I0J-225000D01*
G01*
X174535000Y-98800000D01*
G75*
G02*
X174310000Y-99025000I-225000J0D01*
G01*
X173810000Y-99025000D01*
G75*
G02*
X173585000Y-98800000I0J225000D01*
G01*
X173585000Y-98350000D01*
G75*
G02*
X173810000Y-98125000I225000J0D01*
G01*
G37*
%TD.AperFunction*%
%TD*%
D21*
%TO.P,D1,2*%
%TO.N,GND*%
X183400000Y-109200000D03*
%TO.P,D1,1*%
%TO.N,hdmi_hpd*%
X182000000Y-109200000D03*
%TD*%
%TO.P,D2,2*%
%TO.N,GND*%
X183400000Y-104810000D03*
%TO.P,D2,1*%
%TO.N,hdmi_5v*%
X182000000Y-104810000D03*
%TD*%
%TO.P,D3,1*%
%TO.N,hdmi_sda*%
X182000000Y-102200000D03*
%TO.P,D3,2*%
%TO.N,GND*%
X183400000Y-102200000D03*
%TD*%
%TO.P,D4,2*%
%TO.N,GND*%
X183400000Y-97800000D03*
%TO.P,D4,1*%
%TO.N,hdmi_scl*%
X182000000Y-97800000D03*
%TD*%
%TO.P,D5,1*%
%TO.N,hdmi_cec*%
X167700000Y-110030000D03*
%TO.P,D5,2*%
%TO.N,GND*%
X166300000Y-110030000D03*
%TD*%
D22*
%TO.P,Q1,1*%
%TO.N,+3V3*%
X166000000Y-111550000D03*
%TO.P,Q1,2*%
%TO.N,cec_pa15*%
X166000000Y-113450000D03*
%TO.P,Q1,3*%
%TO.N,hdmi_cec*%
X168000000Y-112500000D03*
%TD*%
%TO.P,R7,1*%
%TO.N,i2c2_sda*%
%TA.AperFunction,SMDPad,CuDef*%
G36*
G01*
X178475000Y-102795000D02*
X178475000Y-102245000D01*
G75*
G02*
X178675000Y-102045000I200000J0D01*
G01*
X179075000Y-102045000D01*
G75*
G02*
X179275000Y-102245000I0J-200000D01*
G01*
X179275000Y-102795000D01*
G75*
G02*
X179075000Y-102995000I-200000J0D01*
G01*
X178675000Y-102995000D01*
G75*
G02*
X178475000Y-102795000I0J200000D01*
G01*
G37*
%TD.AperFunction*%
%TO.P,R7,2*%
%TO.N,hdmi_sda*%
%TA.AperFunction,SMDPad,CuDef*%
G36*
G01*
X180125000Y-102795000D02*
X180125000Y-102245000D01*
G75*
G02*
X180325000Y-102045000I200000J0D01*
G01*
X180725000Y-102045000D01*
G75*
G02*
X180925000Y-102245000I0J-200000D01*
G01*
X180925000Y-102795000D01*
G75*
G02*
X180725000Y-102995000I-200000J0D01*
G01*
X180325000Y-102995000D01*
G75*
G02*
X180125000Y-102795000I0J200000D01*
G01*
G37*
%TD.AperFunction*%
%TD*%
%TO.P,R8,2*%
%TO.N,hdmi_hpd*%
%TA.AperFunction,SMDPad,CuDef*%
G36*
G01*
X183115000Y-108015000D02*
X183115000Y-107465000D01*
G75*
G02*
X183315000Y-107265000I200000J0D01*
G01*
X183715000Y-107265000D01*
G75*
G02*
X183915000Y-107465000I0J-200000D01*
G01*
X183915000Y-108015000D01*
G75*
G02*
X183715000Y-108215000I-200000J0D01*
G01*
X183315000Y-108215000D01*
G75*
G02*
X183115000Y-108015000I0J200000D01*
G01*
G37*
%TD.AperFunction*%
%TO.P,R8,1*%
%TO.N,Net-(R8-Pad1)*%
%TA.AperFunction,SMDPad,CuDef*%
G36*
G01*
X181465000Y-108015000D02*
X181465000Y-107465000D01*
G75*
G02*
X181665000Y-107265000I200000J0D01*
G01*
X182065000Y-107265000D01*
G75*
G02*
X182265000Y-107465000I0J-200000D01*
G01*
X182265000Y-108015000D01*
G75*
G02*
X182065000Y-108215000I-200000J0D01*
G01*
X181665000Y-108215000D01*
G75*
G02*
X181465000Y-108015000I0J200000D01*
G01*
G37*
%TD.AperFunction*%
%TD*%
%TO.P,R9,2*%
%TO.N,hdmi_scl*%
%TA.AperFunction,SMDPad,CuDef*%
G36*
G01*
X180125000Y-97755000D02*
X180125000Y-97205000D01*
G75*
G02*
X180325000Y-97005000I200000J0D01*
G01*
X180725000Y-97005000D01*
G75*
G02*
X180925000Y-97205000I0J-200000D01*
G01*
X180925000Y-97755000D01*
G75*
G02*
X180725000Y-97955000I-200000J0D01*
G01*
X180325000Y-97955000D01*
G75*
G02*
X180125000Y-97755000I0J200000D01*
G01*
G37*
%TD.AperFunction*%
%TO.P,R9,1*%
%TO.N,i2c2_scl*%
%TA.AperFunction,SMDPad,CuDef*%
G36*
G01*
X178475000Y-97755000D02*
X178475000Y-97205000D01*
G75*
G02*
X178675000Y-97005000I200000J0D01*
G01*
X179075000Y-97005000D01*
G75*
G02*
X179275000Y-97205000I0J-200000D01*
G01*
X179275000Y-97755000D01*
G75*
G02*
X179075000Y-97955000I-200000J0D01*
G01*
X178675000Y-97955000D01*
G75*
G02*
X178475000Y-97755000I0J200000D01*
G01*
G37*
%TD.AperFunction*%
%TD*%
%TO.P,R10,2*%
%TO.N,hdmi_scl*%
%TA.AperFunction,SMDPad,CuDef*%
G36*
G01*
X183125000Y-99525000D02*
X183125000Y-98975000D01*
G75*
G02*
X183325000Y-98775000I200000J0D01*
G01*
X183725000Y-98775000D01*
G75*
G02*
X183925000Y-98975000I0J-200000D01*
G01*
X183925000Y-99525000D01*
G75*
G02*
X183725000Y-99725000I-200000J0D01*
G01*
X183325000Y-99725000D01*
G75*
G02*
X183125000Y-99525000I0J200000D01*
G01*
G37*
%TD.AperFunction*%
%TO.P,R10,1*%
%TO.N,Net-(R10-Pad1)*%
%TA.AperFunction,SMDPad,CuDef*%
G36*
G01*
X181475000Y-99525000D02*
X181475000Y-98975000D01*
G75*
G02*
X181675000Y-98775000I200000J0D01*
G01*
X182075000Y-98775000D01*
G75*
G02*
X182275000Y-98975000I0J-200000D01*
G01*
X182275000Y-99525000D01*
G75*
G02*
X182075000Y-99725000I-200000J0D01*
G01*
X181675000Y-99725000D01*
G75*
G02*
X181475000Y-99525000I0J200000D01*
G01*
G37*
%TD.AperFunction*%
%TD*%
%TO.P,R11,1*%
%TO.N,Net-(R11-Pad1)*%
%TA.AperFunction,SMDPad,CuDef*%
G36*
G01*
X181475000Y-101025000D02*
X181475000Y-100475000D01*
G75*
G02*
X181675000Y-100275000I200000J0D01*
G01*
X182075000Y-100275000D01*
G75*
G02*
X182275000Y-100475000I0J-200000D01*
G01*
X182275000Y-101025000D01*
G75*
G02*
X182075000Y-101225000I-200000J0D01*
G01*
X181675000Y-101225000D01*
G75*
G02*
X181475000Y-101025000I0J200000D01*
G01*
G37*
%TD.AperFunction*%
%TO.P,R11,2*%
%TO.N,hdmi_sda*%
%TA.AperFunction,SMDPad,CuDef*%
G36*
G01*
X183125000Y-101025000D02*
X183125000Y-100475000D01*
G75*
G02*
X183325000Y-100275000I200000J0D01*
G01*
X183725000Y-100275000D01*
G75*
G02*
X183925000Y-100475000I0J-200000D01*
G01*
X183925000Y-101025000D01*
G75*
G02*
X183725000Y-101225000I-200000J0D01*
G01*
X183325000Y-101225000D01*
G75*
G02*
X183125000Y-101025000I0J200000D01*
G01*
G37*
%TD.AperFunction*%
%TD*%
%TO.P,R12,1*%
%TO.N,hdmi_5v*%
%TA.AperFunction,SMDPad,CuDef*%
G36*
G01*
X180715000Y-104205000D02*
X180715000Y-104755000D01*
G75*
G02*
X180515000Y-104955000I-200000J0D01*
G01*
X180115000Y-104955000D01*
G75*
G02*
X179915000Y-104755000I0J200000D01*
G01*
X179915000Y-104205000D01*
G75*
G02*
X180115000Y-104005000I200000J0D01*
G01*
X180515000Y-104005000D01*
G75*
G02*
X180715000Y-104205000I0J-200000D01*
G01*
G37*
%TD.AperFunction*%
%TO.P,R12,2*%
%TO.N,hdmi_5v_in*%
%TA.AperFunction,SMDPad,CuDef*%
G36*
G01*
X179065000Y-104205000D02*
X179065000Y-104755000D01*
G75*
G02*
X178865000Y-104955000I-200000J0D01*
G01*
X178465000Y-104955000D01*
G75*
G02*
X178265000Y-104755000I0J200000D01*
G01*
X178265000Y-104205000D01*
G75*
G02*
X178465000Y-104005000I200000J0D01*
G01*
X178865000Y-104005000D01*
G75*
G02*
X179065000Y-104205000I0J-200000D01*
G01*
G37*
%TD.AperFunction*%
%TD*%
%TO.P,R13,2*%
%TO.N,GND*%
%TA.AperFunction,SMDPad,CuDef*%
G36*
G01*
X176085000Y-104205000D02*
X176085000Y-104755000D01*
G75*
G02*
X175885000Y-104955000I-200000J0D01*
G01*
X175485000Y-104955000D01*
G75*
G02*
X175285000Y-104755000I0J200000D01*
G01*
X175285000Y-104205000D01*
G75*
G02*
X175485000Y-104005000I200000J0D01*
G01*
X175885000Y-104005000D01*
G75*
G02*
X176085000Y-104205000I0J-200000D01*
G01*
G37*
%TD.AperFunction*%
%TO.P,R13,1*%
%TO.N,hdmi_5v_in*%
%TA.AperFunction,SMDPad,CuDef*%
G36*
G01*
X177735000Y-104205000D02*
X177735000Y-104755000D01*
G75*
G02*
X177535000Y-104955000I-200000J0D01*
G01*
X177135000Y-104955000D01*
G75*
G02*
X176935000Y-104755000I0J200000D01*
G01*
X176935000Y-104205000D01*
G75*
G02*
X177135000Y-104005000I200000J0D01*
G01*
X177535000Y-104005000D01*
G75*
G02*
X177735000Y-104205000I0J-200000D01*
G01*
G37*
%TD.AperFunction*%
%TD*%
%TO.P,R14,1*%
%TO.N,+3V3*%
%TA.AperFunction,SMDPad,CuDef*%
G36*
G01*
X164275000Y-111275000D02*
X164825000Y-111275000D01*
G75*
G02*
X165025000Y-111475000I0J-200000D01*
G01*
X165025000Y-111875000D01*
G75*
G02*
X164825000Y-112075000I-200000J0D01*
G01*
X164275000Y-112075000D01*
G75*
G02*
X164075000Y-111875000I0J200000D01*
G01*
X164075000Y-111475000D01*
G75*
G02*
X164275000Y-111275000I200000J0D01*
G01*
G37*
%TD.AperFunction*%
%TO.P,R14,2*%
%TO.N,cec_pa15*%
%TA.AperFunction,SMDPad,CuDef*%
G36*
G01*
X164275000Y-112925000D02*
X164825000Y-112925000D01*
G75*
G02*
X165025000Y-113125000I0J-200000D01*
G01*
X165025000Y-113525000D01*
G75*
G02*
X164825000Y-113725000I-200000J0D01*
G01*
X164275000Y-113725000D01*
G75*
G02*
X164075000Y-113525000I0J200000D01*
G01*
X164075000Y-113125000D01*
G75*
G02*
X164275000Y-112925000I200000J0D01*
G01*
G37*
%TD.AperFunction*%
%TD*%
%TO.P,R15,1*%
%TO.N,hdmi_hpd*%
%TA.AperFunction,SMDPad,CuDef*%
G36*
G01*
X180725000Y-109245000D02*
X180725000Y-109795000D01*
G75*
G02*
X180525000Y-109995000I-200000J0D01*
G01*
X180125000Y-109995000D01*
G75*
G02*
X179925000Y-109795000I0J200000D01*
G01*
X179925000Y-109245000D01*
G75*
G02*
X180125000Y-109045000I200000J0D01*
G01*
X180525000Y-109045000D01*
G75*
G02*
X180725000Y-109245000I0J-200000D01*
G01*
G37*
%TD.AperFunction*%
%TO.P,R15,2*%
%TO.N,hdmi_hpd_in*%
%TA.AperFunction,SMDPad,CuDef*%
G36*
G01*
X179075000Y-109245000D02*
X179075000Y-109795000D01*
G75*
G02*
X178875000Y-109995000I-200000J0D01*
G01*
X178475000Y-109995000D01*
G75*
G02*
X178275000Y-109795000I0J200000D01*
G01*
X178275000Y-109245000D01*
G75*
G02*
X178475000Y-109045000I200000J0D01*
G01*
X178875000Y-109045000D01*
G75*
G02*
X179075000Y-109245000I0J-200000D01*
G01*
G37*
%TD.AperFunction*%
%TD*%
%TO.P,R16,2*%
%TO.N,GND*%
%TA.AperFunction,SMDPad,CuDef*%
G36*
G01*
X176075000Y-109245000D02*
X176075000Y-109795000D01*
G75*
G02*
X175875000Y-109995000I-200000J0D01*
G01*
X175475000Y-109995000D01*
G75*
G02*
X175275000Y-109795000I0J200000D01*
G01*
X175275000Y-109245000D01*
G75*
G02*
X175475000Y-109045000I200000J0D01*
G01*
X175875000Y-109045000D01*
G75*
G02*
X176075000Y-109245000I0J-200000D01*
G01*
G37*
%TD.AperFunction*%
%TO.P,R16,1*%
%TO.N,hdmi_hpd_in*%
%TA.AperFunction,SMDPad,CuDef*%
G36*
G01*
X177725000Y-109245000D02*
X177725000Y-109795000D01*
G75*
G02*
X177525000Y-109995000I-200000J0D01*
G01*
X177125000Y-109995000D01*
G75*
G02*
X176925000Y-109795000I0J200000D01*
G01*
X176925000Y-109245000D01*
G75*
G02*
X177125000Y-109045000I200000J0D01*
G01*
X177525000Y-109045000D01*
G75*
G02*
X177725000Y-109245000I0J-200000D01*
G01*
G37*
%TD.AperFunction*%
%TD*%
%TO.P,U6,8*%
%TO.N,N/C*%
%TA.AperFunction,SMDPad,CuDef*%
G36*
G01*
X179300000Y-106125000D02*
X179300000Y-105925000D01*
G75*
G02*
X179400000Y-105825000I100000J0D01*
G01*
X180825000Y-105825000D01*
G75*
G02*
X180925000Y-105925000I0J-100000D01*
G01*
X180925000Y-106125000D01*
G75*
G02*
X180825000Y-106225000I-100000J0D01*
G01*
X179400000Y-106225000D01*
G75*
G02*
X179300000Y-106125000I0J100000D01*
G01*
G37*
%TD.AperFunction*%
%TO.P,U6,7*%
%TO.N,hdmi_5v*%
%TA.AperFunction,SMDPad,CuDef*%
G36*
G01*
X179300000Y-106775000D02*
X179300000Y-106575000D01*
G75*
G02*
X179400000Y-106475000I100000J0D01*
G01*
X180825000Y-106475000D01*
G75*
G02*
X180925000Y-106575000I0J-100000D01*
G01*
X180925000Y-106775000D01*
G75*
G02*
X180825000Y-106875000I-100000J0D01*
G01*
X179400000Y-106875000D01*
G75*
G02*
X179300000Y-106775000I0J100000D01*
G01*
G37*
%TD.AperFunction*%
%TO.P,U6,6*%
%TO.N,Net-(R8-Pad1)*%
%TA.AperFunction,SMDPad,CuDef*%
G36*
G01*
X179300000Y-107425000D02*
X179300000Y-107225000D01*
G75*
G02*
X179400000Y-107125000I100000J0D01*
G01*
X180825000Y-107125000D01*
G75*
G02*
X180925000Y-107225000I0J-100000D01*
G01*
X180925000Y-107425000D01*
G75*
G02*
X180825000Y-107525000I-100000J0D01*
G01*
X179400000Y-107525000D01*
G75*
G02*
X179300000Y-107425000I0J100000D01*
G01*
G37*
%TD.AperFunction*%
%TO.P,U6,5*%
%TO.N,N/C*%
%TA.AperFunction,SMDPad,CuDef*%
G36*
G01*
X179300000Y-108075000D02*
X179300000Y-107875000D01*
G75*
G02*
X179400000Y-107775000I100000J0D01*
G01*
X180825000Y-107775000D01*
G75*
G02*
X180925000Y-107875000I0J-100000D01*
G01*
X180925000Y-108075000D01*
G75*
G02*
X180825000Y-108175000I-100000J0D01*
G01*
X179400000Y-108175000D01*
G75*
G02*
X179300000Y-108075000I0J100000D01*
G01*
G37*
%TD.AperFunction*%
%TO.P,U6,4*%
%TO.N,hdmi_hpd_en*%
%TA.AperFunction,SMDPad,CuDef*%
G36*
G01*
X175075000Y-108075000D02*
X175075000Y-107875000D01*
G75*
G02*
X175175000Y-107775000I100000J0D01*
G01*
X176600000Y-107775000D01*
G75*
G02*
X176700000Y-107875000I0J-100000D01*
G01*
X176700000Y-108075000D01*
G75*
G02*
X176600000Y-108175000I-100000J0D01*
G01*
X175175000Y-108175000D01*
G75*
G02*
X175075000Y-108075000I0J100000D01*
G01*
G37*
%TD.AperFunction*%
%TO.P,U6,3*%
%TO.N,hdmi_5v_en*%
%TA.AperFunction,SMDPad,CuDef*%
G36*
G01*
X175075000Y-107425000D02*
X175075000Y-107225000D01*
G75*
G02*
X175175000Y-107125000I100000J0D01*
G01*
X176600000Y-107125000D01*
G75*
G02*
X176700000Y-107225000I0J-100000D01*
G01*
X176700000Y-107425000D01*
G75*
G02*
X176600000Y-107525000I-100000J0D01*
G01*
X175175000Y-107525000D01*
G75*
G02*
X175075000Y-107425000I0J100000D01*
G01*
G37*
%TD.AperFunction*%
%TO.P,U6,2*%
%TO.N,+5V*%
%TA.AperFunction,SMDPad,CuDef*%
G36*
G01*
X175075000Y-106775000D02*
X175075000Y-106575000D01*
G75*
G02*
X175175000Y-106475000I100000J0D01*
G01*
X176600000Y-106475000D01*
G75*
G02*
X176700000Y-106575000I0J-100000D01*
G01*
X176700000Y-106775000D01*
G75*
G02*
X176600000Y-106875000I-100000J0D01*
G01*
X175175000Y-106875000D01*
G75*
G02*
X175075000Y-106775000I0J100000D01*
G01*
G37*
%TD.AperFunction*%
%TO.P,U6,1*%
%TO.N,GND*%
%TA.AperFunction,SMDPad,CuDef*%
G36*
G01*
X175075000Y-106125000D02*
X175075000Y-105925000D01*
G75*
G02*
X175175000Y-105825000I100000J0D01*
G01*
X176600000Y-105825000D01*
G75*
G02*
X176700000Y-105925000I0J-100000D01*
G01*
X176700000Y-106125000D01*
G75*
G02*
X176600000Y-106225000I-100000J0D01*
G01*
X175175000Y-106225000D01*
G75*
G02*
X175075000Y-106125000I0J100000D01*
G01*
G37*
%TD.AperFunction*%
%TD*%
%TO.P,U7,1*%
%TO.N,GND*%
%TA.AperFunction,SMDPad,CuDef*%
G36*
G01*
X175075000Y-99125000D02*
X175075000Y-98925000D01*
G75*
G02*
X175175000Y-98825000I100000J0D01*
G01*
X176600000Y-98825000D01*
G75*
G02*
X176700000Y-98925000I0J-100000D01*
G01*
X176700000Y-99125000D01*
G75*
G02*
X176600000Y-99225000I-100000J0D01*
G01*
X175175000Y-99225000D01*
G75*
G02*
X175075000Y-99125000I0J100000D01*
G01*
G37*
%TD.AperFunction*%
%TO.P,U7,2*%
%TO.N,+5V*%
%TA.AperFunction,SMDPad,CuDef*%
G36*
G01*
X175075000Y-99775000D02*
X175075000Y-99575000D01*
G75*
G02*
X175175000Y-99475000I100000J0D01*
G01*
X176600000Y-99475000D01*
G75*
G02*
X176700000Y-99575000I0J-100000D01*
G01*
X176700000Y-99775000D01*
G75*
G02*
X176600000Y-99875000I-100000J0D01*
G01*
X175175000Y-99875000D01*
G75*
G02*
X175075000Y-99775000I0J100000D01*
G01*
G37*
%TD.AperFunction*%
%TO.P,U7,3*%
%TO.N,hdmi_5v_en*%
%TA.AperFunction,SMDPad,CuDef*%
G36*
G01*
X175075000Y-100425000D02*
X175075000Y-100225000D01*
G75*
G02*
X175175000Y-100125000I100000J0D01*
G01*
X176600000Y-100125000D01*
G75*
G02*
X176700000Y-100225000I0J-100000D01*
G01*
X176700000Y-100425000D01*
G75*
G02*
X176600000Y-100525000I-100000J0D01*
G01*
X175175000Y-100525000D01*
G75*
G02*
X175075000Y-100425000I0J100000D01*
G01*
G37*
%TD.AperFunction*%
%TO.P,U7,4*%
%TA.AperFunction,SMDPad,CuDef*%
G36*
G01*
X175075000Y-101075000D02*
X175075000Y-100875000D01*
G75*
G02*
X175175000Y-100775000I100000J0D01*
G01*
X176600000Y-100775000D01*
G75*
G02*
X176700000Y-100875000I0J-100000D01*
G01*
X176700000Y-101075000D01*
G75*
G02*
X176600000Y-101175000I-100000J0D01*
G01*
X175175000Y-101175000D01*
G75*
G02*
X175075000Y-101075000I0J100000D01*
G01*
G37*
%TD.AperFunction*%
%TO.P,U7,5*%
%TO.N,N/C*%
%TA.AperFunction,SMDPad,CuDef*%
G36*
G01*
X179300000Y-101075000D02*
X179300000Y-100875000D01*
G75*
G02*
X179400000Y-100775000I100000J0D01*
G01*
X180825000Y-100775000D01*
G75*
G02*
X180925000Y-100875000I0J-100000D01*
G01*
X180925000Y-101075000D01*
G75*
G02*
X180825000Y-101175000I-100000J0D01*
G01*
X179400000Y-101175000D01*
G75*
G02*
X179300000Y-101075000I0J100000D01*
G01*
G37*
%TD.AperFunction*%
%TO.P,U7,6*%
%TO.N,Net-(R11-Pad1)*%
%TA.AperFunction,SMDPad,CuDef*%
G36*
G01*
X179300000Y-100425000D02*
X179300000Y-100225000D01*
G75*
G02*
X179400000Y-100125000I100000J0D01*
G01*
X180825000Y-100125000D01*
G75*
G02*
X180925000Y-100225000I0J-100000D01*
G01*
X180925000Y-100425000D01*
G75*
G02*
X180825000Y-100525000I-100000J0D01*
G01*
X179400000Y-100525000D01*
G75*
G02*
X179300000Y-100425000I0J100000D01*
G01*
G37*
%TD.AperFunction*%
%TO.P,U7,7*%
%TO.N,Net-(R10-Pad1)*%
%TA.AperFunction,SMDPad,CuDef*%
G36*
G01*
X179300000Y-99775000D02*
X179300000Y-99575000D01*
G75*
G02*
X179400000Y-99475000I100000J0D01*
G01*
X180825000Y-99475000D01*
G75*
G02*
X180925000Y-99575000I0J-100000D01*
G01*
X180925000Y-99775000D01*
G75*
G02*
X180825000Y-99875000I-100000J0D01*
G01*
X179400000Y-99875000D01*
G75*
G02*
X179300000Y-99775000I0J100000D01*
G01*
G37*
%TD.AperFunction*%
%TO.P,U7,8*%
%TO.N,N/C*%
%TA.AperFunction,SMDPad,CuDef*%
G36*
G01*
X179300000Y-99125000D02*
X179300000Y-98925000D01*
G75*
G02*
X179400000Y-98825000I100000J0D01*
G01*
X180825000Y-98825000D01*
G75*
G02*
X180925000Y-98925000I0J-100000D01*
G01*
X180925000Y-99125000D01*
G75*
G02*
X180825000Y-99225000I-100000J0D01*
G01*
X179400000Y-99225000D01*
G75*
G02*
X179300000Y-99125000I0J100000D01*
G01*
G37*
%TD.AperFunction*%
%TD*%
%TO.P,IC1,1*%
%TO.N,spdif_rx*%
%TA.AperFunction,SMDPad,CuDef*%
G36*
G01*
X174975000Y-92125000D02*
X174975000Y-91925000D01*
G75*
G02*
X175075000Y-91825000I100000J0D01*
G01*
X176500000Y-91825000D01*
G75*
G02*
X176600000Y-91925000I0J-100000D01*
G01*
X176600000Y-92125000D01*
G75*
G02*
X176500000Y-92225000I-100000J0D01*
G01*
X175075000Y-92225000D01*
G75*
G02*
X174975000Y-92125000I0J100000D01*
G01*
G37*
%TD.AperFunction*%
%TO.P,IC1,2*%
%TO.N,hdmi_utility*%
%TA.AperFunction,SMDPad,CuDef*%
G36*
G01*
X174975000Y-92775000D02*
X174975000Y-92575000D01*
G75*
G02*
X175075000Y-92475000I100000J0D01*
G01*
X176500000Y-92475000D01*
G75*
G02*
X176600000Y-92575000I0J-100000D01*
G01*
X176600000Y-92775000D01*
G75*
G02*
X176500000Y-92875000I-100000J0D01*
G01*
X175075000Y-92875000D01*
G75*
G02*
X174975000Y-92775000I0J100000D01*
G01*
G37*
%TD.AperFunction*%
%TO.P,IC1,3*%
%TO.N,hdmi_tx_en*%
%TA.AperFunction,SMDPad,CuDef*%
G36*
G01*
X174975000Y-93425000D02*
X174975000Y-93225000D01*
G75*
G02*
X175075000Y-93125000I100000J0D01*
G01*
X176500000Y-93125000D01*
G75*
G02*
X176600000Y-93225000I0J-100000D01*
G01*
X176600000Y-93425000D01*
G75*
G02*
X176500000Y-93525000I-100000J0D01*
G01*
X175075000Y-93525000D01*
G75*
G02*
X174975000Y-93425000I0J100000D01*
G01*
G37*
%TD.AperFunction*%
%TO.P,IC1,4*%
%TO.N,GND*%
%TA.AperFunction,SMDPad,CuDef*%
G36*
G01*
X174975000Y-94075000D02*
X174975000Y-93875000D01*
G75*
G02*
X175075000Y-93775000I100000J0D01*
G01*
X176500000Y-93775000D01*
G75*
G02*
X176600000Y-93875000I0J-100000D01*
G01*
X176600000Y-94075000D01*
G75*
G02*
X176500000Y-94175000I-100000J0D01*
G01*
X175075000Y-94175000D01*
G75*
G02*
X174975000Y-94075000I0J100000D01*
G01*
G37*
%TD.AperFunction*%
%TO.P,IC1,5*%
%TO.N,spdif_tx*%
%TA.AperFunction,SMDPad,CuDef*%
G36*
G01*
X179200000Y-94075000D02*
X179200000Y-93875000D01*
G75*
G02*
X179300000Y-93775000I100000J0D01*
G01*
X180725000Y-93775000D01*
G75*
G02*
X180825000Y-93875000I0J-100000D01*
G01*
X180825000Y-94075000D01*
G75*
G02*
X180725000Y-94175000I-100000J0D01*
G01*
X179300000Y-94175000D01*
G75*
G02*
X179200000Y-94075000I0J100000D01*
G01*
G37*
%TD.AperFunction*%
%TO.P,IC1,6*%
%TO.N,hdmi_utility*%
%TA.AperFunction,SMDPad,CuDef*%
G36*
G01*
X179200000Y-93425000D02*
X179200000Y-93225000D01*
G75*
G02*
X179300000Y-93125000I100000J0D01*
G01*
X180725000Y-93125000D01*
G75*
G02*
X180825000Y-93225000I0J-100000D01*
G01*
X180825000Y-93425000D01*
G75*
G02*
X180725000Y-93525000I-100000J0D01*
G01*
X179300000Y-93525000D01*
G75*
G02*
X179200000Y-93425000I0J100000D01*
G01*
G37*
%TD.AperFunction*%
%TO.P,IC1,7*%
%TO.N,hdmi_rx_en*%
%TA.AperFunction,SMDPad,CuDef*%
G36*
G01*
X179200000Y-92775000D02*
X179200000Y-92575000D01*
G75*
G02*
X179300000Y-92475000I100000J0D01*
G01*
X180725000Y-92475000D01*
G75*
G02*
X180825000Y-92575000I0J-100000D01*
G01*
X180825000Y-92775000D01*
G75*
G02*
X180725000Y-92875000I-100000J0D01*
G01*
X179300000Y-92875000D01*
G75*
G02*
X179200000Y-92775000I0J100000D01*
G01*
G37*
%TD.AperFunction*%
%TO.P,IC1,8*%
%TO.N,+3V3*%
%TA.AperFunction,SMDPad,CuDef*%
G36*
G01*
X179200000Y-92125000D02*
X179200000Y-91925000D01*
G75*
G02*
X179300000Y-91825000I100000J0D01*
G01*
X180725000Y-91825000D01*
G75*
G02*
X180825000Y-91925000I0J-100000D01*
G01*
X180825000Y-92125000D01*
G75*
G02*
X180725000Y-92225000I-100000J0D01*
G01*
X179300000Y-92225000D01*
G75*
G02*
X179200000Y-92125000I0J100000D01*
G01*
G37*
%TD.AperFunction*%
%TD*%
%TO.P,C10,1*%
%TO.N,+3V3*%
%TA.AperFunction,SMDPad,CuDef*%
G36*
G01*
X179225000Y-90250000D02*
X179225000Y-90750000D01*
G75*
G02*
X179000000Y-90975000I-225000J0D01*
G01*
X178550000Y-90975000D01*
G75*
G02*
X178325000Y-90750000I0J225000D01*
G01*
X178325000Y-90250000D01*
G75*
G02*
X178550000Y-90025000I225000J0D01*
G01*
X179000000Y-90025000D01*
G75*
G02*
X179225000Y-90250000I0J-225000D01*
G01*
G37*
%TD.AperFunction*%
%TO.P,C10,2*%
%TO.N,GND*%
%TA.AperFunction,SMDPad,CuDef*%
G36*
G01*
X177675000Y-90250000D02*
X177675000Y-90750000D01*
G75*
G02*
X177450000Y-90975000I-225000J0D01*
G01*
X177000000Y-90975000D01*
G75*
G02*
X176775000Y-90750000I0J225000D01*
G01*
X176775000Y-90250000D01*
G75*
G02*
X177000000Y-90025000I225000J0D01*
G01*
X177450000Y-90025000D01*
G75*
G02*
X177675000Y-90250000I0J-225000D01*
G01*
G37*
%TD.AperFunction*%
%TD*%
%TO.P,C11,1*%
%TO.N,GND*%
%TA.AperFunction,SMDPad,CuDef*%
G36*
G01*
X157525000Y-107620000D02*
X157525000Y-108120000D01*
G75*
G02*
X157300000Y-108345000I-225000J0D01*
G01*
X156850000Y-108345000D01*
G75*
G02*
X156625000Y-108120000I0J225000D01*
G01*
X156625000Y-107620000D01*
G75*
G02*
X156850000Y-107395000I225000J0D01*
G01*
X157300000Y-107395000D01*
G75*
G02*
X157525000Y-107620000I0J-225000D01*
G01*
G37*
%TD.AperFunction*%
%TO.P,C11,2*%
%TO.N,+3V3*%
%TA.AperFunction,SMDPad,CuDef*%
G36*
G01*
X155975000Y-107620000D02*
X155975000Y-108120000D01*
G75*
G02*
X155750000Y-108345000I-225000J0D01*
G01*
X155300000Y-108345000D01*
G75*
G02*
X155075000Y-108120000I0J225000D01*
G01*
X155075000Y-107620000D01*
G75*
G02*
X155300000Y-107395000I225000J0D01*
G01*
X155750000Y-107395000D01*
G75*
G02*
X155975000Y-107620000I0J-225000D01*
G01*
G37*
%TD.AperFunction*%
%TD*%
D23*
%TO.P,U8,1*%
%TO.N,i2c3_sda*%
X155015001Y-112270000D03*
%TO.P,U8,2*%
%TO.N,i2c3_scl*%
X156285001Y-112270000D03*
%TO.P,U8,3*%
%TO.N,GND*%
X157585001Y-112240000D03*
%TO.P,U8,4*%
%TO.N,i2s_clk*%
X157555001Y-109670000D03*
%TO.P,U8,5*%
%TO.N,N/C*%
X156285001Y-109670000D03*
%TO.P,U8,6*%
%TO.N,+3V3*%
X155015001Y-109670000D03*
%TD*%
D24*
%TO.P,J4,10*%
%TO.N,spdifrx_in3*%
X162700000Y-105000000D03*
%TO.P,J4,9*%
%TO.N,cec_pb6*%
X160160000Y-105000000D03*
%TO.P,J4,8*%
%TO.N,sai1_mclk_b*%
X157620000Y-105000000D03*
%TO.P,J4,7*%
%TO.N,sai1_sck_b*%
X155080000Y-105000000D03*
%TO.P,J4,6*%
%TO.N,sai1_fs_b*%
X152540000Y-105000000D03*
%TO.P,J4,5*%
%TO.N,sai1_sd_b*%
X150000000Y-105000000D03*
%TO.P,J4,4*%
%TO.N,i2c3_sda*%
X147460000Y-105000000D03*
%TO.P,J4,3*%
%TO.N,i2c3_scl*%
X144920000Y-105000000D03*
%TO.P,J4,2*%
%TO.N,+5V*%
X142380000Y-105000000D03*
D25*
%TO.P,J4,1*%
%TO.N,GND*%
X139840000Y-105000000D03*
%TD*%
%TO.P,J5,1*%
%TO.N,GND*%
X139840000Y-95000000D03*
D24*
%TO.P,J5,2*%
%TO.N,+5V*%
X142380000Y-95000000D03*
%TO.P,J5,3*%
%TO.N,i2c3_scl*%
X144920000Y-95000000D03*
%TO.P,J5,4*%
%TO.N,i2c3_sda*%
X147460000Y-95000000D03*
%TO.P,J5,5*%
%TO.N,i2s1_sd*%
X150000000Y-95000000D03*
%TO.P,J5,6*%
%TO.N,i2s1_ws*%
X152540000Y-95000000D03*
%TO.P,J5,7*%
%TO.N,i2s1_ck*%
X155080000Y-95000000D03*
%TO.P,J5,8*%
%TO.N,i2s1_mck*%
X157620000Y-95000000D03*
%TO.P,J5,9*%
%TO.N,pc14*%
X160160000Y-95000000D03*
%TO.P,J5,10*%
%TO.N,pc15*%
X162700000Y-95000000D03*
%TD*%
%TO.P,R17,1*%
%TO.N,+3V3*%
%TA.AperFunction,SMDPad,CuDef*%
G36*
G01*
X149725000Y-111035000D02*
X150275000Y-111035000D01*
G75*
G02*
X150475000Y-111235000I0J-200000D01*
G01*
X150475000Y-111635000D01*
G75*
G02*
X150275000Y-111835000I-200000J0D01*
G01*
X149725000Y-111835000D01*
G75*
G02*
X149525000Y-111635000I0J200000D01*
G01*
X149525000Y-111235000D01*
G75*
G02*
X149725000Y-111035000I200000J0D01*
G01*
G37*
%TD.AperFunction*%
%TO.P,R17,2*%
%TO.N,i2c3_sda*%
%TA.AperFunction,SMDPad,CuDef*%
G36*
G01*
X149725000Y-112685000D02*
X150275000Y-112685000D01*
G75*
G02*
X150475000Y-112885000I0J-200000D01*
G01*
X150475000Y-113285000D01*
G75*
G02*
X150275000Y-113485000I-200000J0D01*
G01*
X149725000Y-113485000D01*
G75*
G02*
X149525000Y-113285000I0J200000D01*
G01*
X149525000Y-112885000D01*
G75*
G02*
X149725000Y-112685000I200000J0D01*
G01*
G37*
%TD.AperFunction*%
%TD*%
D25*
%TO.P,J6,1*%
%TO.N,GND*%
X139840000Y-111930000D03*
D24*
%TO.P,J6,2*%
X139840000Y-109390000D03*
%TO.P,J6,3*%
%TO.N,swdio*%
X142380000Y-111930000D03*
%TO.P,J6,4*%
%TO.N,uart5_tx*%
X142380000Y-109390000D03*
%TO.P,J6,5*%
%TO.N,swclk*%
X144920000Y-111930000D03*
%TO.P,J6,6*%
%TO.N,uart5_rx*%
X144920000Y-109390000D03*
%TD*%
D26*
%TO.N,GND*%
X187820000Y-115980000D03*
X164530000Y-116130000D03*
X187780000Y-83555000D03*
X166790000Y-84430000D03*
X166929998Y-120820000D03*
X170120000Y-116520000D03*
X195080000Y-96000000D03*
X195180000Y-97500000D03*
X195170000Y-99000000D03*
X195180000Y-100500000D03*
X195180000Y-103490000D03*
X184100000Y-97800000D03*
X174060000Y-97730000D03*
X165600000Y-110030000D03*
X184100000Y-109220000D03*
X184310000Y-106260000D03*
X184100000Y-104810000D03*
X174880000Y-109520000D03*
X174890000Y-104480000D03*
X171050000Y-78450000D03*
X164330000Y-79720000D03*
X177010000Y-93950000D03*
X157590000Y-113500000D03*
X157920000Y-107870000D03*
X184100000Y-102200000D03*
X174060000Y-104700000D03*
X177229998Y-91370000D03*
X165980000Y-78910000D03*
%TO.N,+3V3*%
X163510000Y-84430000D03*
X187790000Y-86810000D03*
X186200000Y-115700000D03*
X163670000Y-120810000D03*
X179620000Y-90500000D03*
X154680000Y-107870000D03*
X164550000Y-110880000D03*
X150000000Y-110564979D03*
%TO.N,+5V*%
X172650000Y-102550000D03*
%TO.N,hdmi_tx_en*%
X175370000Y-83130000D03*
%TO.N,spdif_tx*%
X180000000Y-94569994D03*
%TO.N,spdifrx_in1*%
X162300000Y-82950000D03*
%TO.N,i2c3_scl*%
X149160000Y-107210000D03*
%TO.N,i2c2_sda*%
X169130000Y-111559998D03*
%TO.N,i2c2_scl*%
X163480000Y-85990000D03*
%TO.N,cec_pa15*%
X162230029Y-116514847D03*
%TD*%
D27*
%TO.N,GND*%
X164540000Y-116140000D02*
X164530000Y-116130000D01*
X164540000Y-117060000D02*
X164540000Y-116140000D01*
X166085000Y-120820000D02*
X166929998Y-120820000D01*
X170120000Y-117315000D02*
X170120000Y-116520000D01*
X193280000Y-96000000D02*
X195080000Y-96000000D01*
X193280000Y-97500000D02*
X195180000Y-97500000D01*
X193280000Y-99000000D02*
X195170000Y-99000000D01*
X193280000Y-100500000D02*
X195180000Y-100500000D01*
X195170000Y-103500000D02*
X195180000Y-103490000D01*
X193280000Y-103500000D02*
X195170000Y-103500000D01*
X165915000Y-84430000D02*
X166790000Y-84430000D01*
X174520000Y-106025000D02*
X174050000Y-105555000D01*
X175887500Y-106025000D02*
X174520000Y-106025000D01*
X171045000Y-78445000D02*
X171050000Y-78450000D01*
X170160000Y-78445000D02*
X171045000Y-78445000D01*
X176995000Y-93965000D02*
X177010000Y-93950000D01*
X175777500Y-93965000D02*
X176995000Y-93965000D01*
X157585001Y-113495001D02*
X157590000Y-113500000D01*
X157585001Y-112240000D02*
X157585001Y-113495001D01*
X174050000Y-105555000D02*
X174050000Y-104710000D01*
X174050000Y-104710000D02*
X174060000Y-104700000D01*
X184090000Y-109230000D02*
X184100000Y-109220000D01*
X183400000Y-109230000D02*
X184090000Y-109230000D01*
X184100000Y-102200000D02*
X183400000Y-102200000D01*
X184100000Y-97800000D02*
X183400000Y-97800000D01*
X174060000Y-97730000D02*
X174060000Y-98575000D01*
X174510000Y-99025000D02*
X174060000Y-98575000D01*
X175887500Y-99025000D02*
X174510000Y-99025000D01*
X175685000Y-104480000D02*
X174890000Y-104480000D01*
X175675000Y-109520000D02*
X174880000Y-109520000D01*
X184310000Y-106260000D02*
X183465000Y-106260000D01*
X184100000Y-104810000D02*
X183400000Y-104810000D01*
X177225000Y-90500000D02*
X177225000Y-91365002D01*
X177225000Y-91365002D02*
X177229998Y-91370000D01*
X166300000Y-110030000D02*
X165600000Y-110030000D01*
X157075000Y-107870000D02*
X157920000Y-107870000D01*
X187780000Y-84410000D02*
X187780000Y-83555000D01*
X191990000Y-84410000D02*
X192440000Y-83960000D01*
X187780000Y-84410000D02*
X191990000Y-84410000D01*
X187820000Y-116830000D02*
X187820000Y-115980000D01*
X191610000Y-116830000D02*
X192370000Y-116070000D01*
X187820000Y-116830000D02*
X191610000Y-116830000D01*
X164360000Y-79750000D02*
X164330000Y-79720000D01*
X164360000Y-80670000D02*
X164360000Y-79750000D01*
X165185000Y-78910000D02*
X165980000Y-78910000D01*
%TO.N,Net-(C1-Pad2)*%
X170160000Y-83075000D02*
X168920000Y-83075000D01*
X168920000Y-83075000D02*
X168430000Y-82585000D01*
%TO.N,+3V3*%
X164360000Y-84425000D02*
X164365000Y-84430000D01*
X164360000Y-82870000D02*
X164360000Y-84425000D01*
X164540000Y-120815000D02*
X164535000Y-120820000D01*
X164540000Y-119260000D02*
X164540000Y-120815000D01*
X164365000Y-84430000D02*
X163510000Y-84430000D01*
X163680000Y-120820000D02*
X163670000Y-120810000D01*
X164535000Y-120820000D02*
X163680000Y-120820000D01*
X178775000Y-90500000D02*
X179620000Y-90500000D01*
X180012500Y-92025000D02*
X179055000Y-92025000D01*
X178775000Y-91745000D02*
X178775000Y-90500000D01*
X179055000Y-92025000D02*
X178775000Y-91745000D01*
X165875000Y-111675000D02*
X166000000Y-111550000D01*
X164550000Y-111675000D02*
X165875000Y-111675000D01*
X164550000Y-110880000D02*
X164550000Y-111675000D01*
X155525000Y-107870000D02*
X154680000Y-107870000D01*
X155015001Y-108394999D02*
X155015001Y-109670000D01*
X155525000Y-107885000D02*
X155015001Y-108394999D01*
X155525000Y-107870000D02*
X155525000Y-107885000D01*
X187780000Y-86800000D02*
X187790000Y-86810000D01*
X187780000Y-85960000D02*
X187780000Y-86800000D01*
X191900000Y-85960000D02*
X192440000Y-86500000D01*
X187780000Y-85960000D02*
X191900000Y-85960000D01*
X186200000Y-116542500D02*
X186200000Y-115700000D01*
X150000000Y-110564979D02*
X150000000Y-111435000D01*
%TO.N,Net-(C3-Pad2)*%
X186487500Y-118380000D02*
X186200000Y-118667500D01*
X187820000Y-118380000D02*
X186487500Y-118380000D01*
X187820000Y-118380000D02*
X192140000Y-118380000D01*
X192140000Y-118380000D02*
X192370000Y-118610000D01*
%TO.N,Net-(C6-Pad2)*%
X165490000Y-119470000D02*
X165490000Y-119260000D01*
X165490000Y-118880000D02*
X165490000Y-119260000D01*
X165000000Y-118390000D02*
X165490000Y-118880000D01*
X163590000Y-118880000D02*
X164080000Y-118390000D01*
X164080000Y-118390000D02*
X165000000Y-118390000D01*
X163590000Y-119260000D02*
X163590000Y-118880000D01*
X166775000Y-119260000D02*
X167120000Y-118915000D01*
X165490000Y-119260000D02*
X166775000Y-119260000D01*
%TO.N,Net-(C6-Pad1)*%
X167170000Y-117315000D02*
X167120000Y-117365000D01*
X168600000Y-117315000D02*
X167170000Y-117315000D01*
%TO.N,Net-(R2-Pad2)*%
X168420000Y-80945000D02*
X168430000Y-80935000D01*
X166930000Y-80935000D02*
X166920000Y-80945000D01*
X168430000Y-80935000D02*
X166930000Y-80935000D01*
X166645000Y-80670000D02*
X166920000Y-80945000D01*
X165310000Y-80670000D02*
X166645000Y-80670000D01*
%TO.N,Net-(R3-Pad2)*%
X165585000Y-82595000D02*
X165310000Y-82870000D01*
X166920000Y-82595000D02*
X165585000Y-82595000D01*
X163410000Y-79035000D02*
X163535000Y-78910000D01*
X163410000Y-80670000D02*
X163410000Y-79035000D01*
X165310000Y-82130000D02*
X165310000Y-82870000D01*
X164960000Y-81780000D02*
X165310000Y-82130000D01*
X163730000Y-81780000D02*
X164960000Y-81780000D01*
X163410000Y-81460000D02*
X163730000Y-81780000D01*
X163410000Y-80670000D02*
X163410000Y-81460000D01*
%TO.N,hdmi_5v*%
X181500000Y-106675000D02*
X181915000Y-106260000D01*
X180112500Y-106675000D02*
X181500000Y-106675000D01*
X180645000Y-104810000D02*
X180315000Y-104480000D01*
X182000000Y-104810000D02*
X180645000Y-104810000D01*
X181915000Y-104895000D02*
X182000000Y-104810000D01*
X181915000Y-106260000D02*
X181915000Y-104895000D01*
X182810000Y-104000000D02*
X182000000Y-104810000D01*
X193280000Y-104000000D02*
X182810000Y-104000000D01*
%TO.N,+5V*%
X174480000Y-106675000D02*
X174050000Y-107105000D01*
X175887500Y-106675000D02*
X174480000Y-106675000D01*
X174510000Y-99675000D02*
X174060000Y-100125000D01*
X175887500Y-99675000D02*
X174510000Y-99675000D01*
D28*
X172650000Y-100790000D02*
X172650000Y-102550000D01*
X173315000Y-100125000D02*
X172650000Y-100790000D01*
X174060000Y-100125000D02*
X173315000Y-100125000D01*
X172650000Y-106590000D02*
X172650000Y-102550000D01*
X173165000Y-107105000D02*
X172650000Y-106590000D01*
X174050000Y-107105000D02*
X173165000Y-107105000D01*
X142380000Y-95000000D02*
X142380000Y-105000000D01*
D29*
X148730000Y-119050000D02*
X147460000Y-120320000D01*
X148730000Y-111350000D02*
X148730000Y-119050000D01*
X142380000Y-105000000D02*
X148730000Y-111350000D01*
D27*
%TO.N,hdmi_hpd*%
X180645000Y-109200000D02*
X180325000Y-109520000D01*
X182000000Y-109200000D02*
X180645000Y-109200000D01*
X183460000Y-107740000D02*
X182000000Y-109200000D01*
X183515000Y-107740000D02*
X183460000Y-107740000D01*
X184800000Y-107740000D02*
X183515000Y-107740000D01*
X188040000Y-104500000D02*
X184800000Y-107740000D01*
X193280000Y-104500000D02*
X188040000Y-104500000D01*
%TO.N,hdmi_scl*%
X183450000Y-99250000D02*
X182000000Y-97800000D01*
X183525000Y-99250000D02*
X183450000Y-99250000D01*
X181680000Y-97480000D02*
X182000000Y-97800000D01*
X180525000Y-97480000D02*
X181680000Y-97480000D01*
X186420000Y-99250000D02*
X183525000Y-99250000D01*
X189670000Y-102500000D02*
X186420000Y-99250000D01*
X193280000Y-102500000D02*
X189670000Y-102500000D01*
%TO.N,hdmi_sda*%
X183450000Y-100750000D02*
X182000000Y-102200000D01*
X183525000Y-100750000D02*
X183450000Y-100750000D01*
X181680000Y-102520000D02*
X182000000Y-102200000D01*
X180525000Y-102520000D02*
X181680000Y-102520000D01*
X186440000Y-100750000D02*
X183525000Y-100750000D01*
X188690000Y-103000000D02*
X186440000Y-100750000D01*
X193280000Y-103000000D02*
X188690000Y-103000000D01*
%TO.N,hdmi_cec*%
X167700000Y-112200000D02*
X168000000Y-112500000D01*
X167700000Y-110030000D02*
X167700000Y-112200000D01*
X195070000Y-101500000D02*
X193280000Y-101500000D01*
X195905001Y-102335001D02*
X195070000Y-101500000D01*
X195905001Y-104424999D02*
X195905001Y-102335001D01*
X194790000Y-105540000D02*
X195905001Y-104424999D01*
X190290000Y-105540000D02*
X194790000Y-105540000D01*
X183330000Y-112500000D02*
X190290000Y-105540000D01*
X168000000Y-112500000D02*
X183330000Y-112500000D01*
%TO.N,Net-(R8-Pad1)*%
X181450000Y-107325000D02*
X181865000Y-107740000D01*
X180112500Y-107325000D02*
X181450000Y-107325000D01*
%TO.N,Net-(R10-Pad1)*%
X181450000Y-99675000D02*
X181875000Y-99250000D01*
X180112500Y-99675000D02*
X181450000Y-99675000D01*
%TO.N,Net-(R11-Pad1)*%
X181450000Y-100325000D02*
X181875000Y-100750000D01*
X180112500Y-100325000D02*
X181450000Y-100325000D01*
%TO.N,hdmi_5v_in*%
X178665000Y-104480000D02*
X177335000Y-104480000D01*
X165290000Y-87630000D02*
X162440000Y-87630000D01*
X173620000Y-95960000D02*
X165290000Y-87630000D01*
X161470000Y-83530000D02*
X160160000Y-82220000D01*
X177880000Y-98060000D02*
X175780000Y-95960000D01*
X177880000Y-100430000D02*
X177880000Y-98060000D01*
X175780000Y-95960000D02*
X173620000Y-95960000D01*
X177335000Y-100975000D02*
X177880000Y-100430000D01*
X161470000Y-86660000D02*
X161470000Y-83530000D01*
X162440000Y-87630000D02*
X161470000Y-86660000D01*
X177335000Y-104480000D02*
X177335000Y-100975000D01*
%TO.N,hdmi_hpd_in*%
X178675000Y-109520000D02*
X177325000Y-109520000D01*
X160210000Y-90870000D02*
X157620000Y-88280000D01*
X163790000Y-90870000D02*
X160210000Y-90870000D01*
X157620000Y-88280000D02*
X157620000Y-84760000D01*
X168690000Y-95770000D02*
X163790000Y-90870000D01*
X168690000Y-105970000D02*
X168690000Y-95770000D01*
X171330000Y-108610000D02*
X168690000Y-105970000D01*
X176415000Y-108610000D02*
X171330000Y-108610000D01*
X177325000Y-109520000D02*
X176415000Y-108610000D01*
%TO.N,hdmi_5v_en*%
X175887500Y-100325000D02*
X175887500Y-100975000D01*
X176975000Y-107325000D02*
X175887500Y-107325000D01*
X177210000Y-107090000D02*
X176975000Y-107325000D01*
X177210000Y-105750000D02*
X177210000Y-107090000D01*
X176510000Y-105050000D02*
X177210000Y-105750000D01*
X176510000Y-103950000D02*
X176510000Y-105050000D01*
X175887500Y-103327500D02*
X176510000Y-103950000D01*
X175887500Y-100975000D02*
X175887500Y-103327500D01*
X160160000Y-87450000D02*
X160160000Y-84760000D01*
X161280000Y-88570000D02*
X160160000Y-87450000D01*
X164690000Y-88570000D02*
X161280000Y-88570000D01*
X173120000Y-97000000D02*
X164690000Y-88570000D01*
X177190000Y-98860000D02*
X175330000Y-97000000D01*
X175330000Y-97000000D02*
X173120000Y-97000000D01*
X177190000Y-100060000D02*
X177190000Y-98860000D01*
X176925000Y-100325000D02*
X177190000Y-100060000D01*
X175887500Y-100325000D02*
X176925000Y-100325000D01*
%TO.N,hdmi_hpd_en*%
X158880000Y-83480000D02*
X157620000Y-82220000D01*
X158880000Y-87620000D02*
X158880000Y-83480000D01*
X160930000Y-89670000D02*
X158880000Y-87620000D01*
X164170000Y-89670000D02*
X160930000Y-89670000D01*
X170530000Y-96030000D02*
X164170000Y-89670000D01*
X170530000Y-106100000D02*
X170530000Y-96030000D01*
X172405000Y-107975000D02*
X170530000Y-106100000D01*
X175887500Y-107975000D02*
X172405000Y-107975000D01*
%TO.N,spdif_rx*%
X170160000Y-80095000D02*
X170160000Y-81525000D01*
X175525000Y-81525000D02*
X178000000Y-84000000D01*
X170160000Y-81525000D02*
X175525000Y-81525000D01*
X175787500Y-86212500D02*
X178000000Y-84000000D01*
X175787500Y-92025000D02*
X175787500Y-86212500D01*
%TO.N,hdmi_utility*%
X177805000Y-92665000D02*
X175777500Y-92665000D01*
X178465000Y-93325000D02*
X177805000Y-92665000D01*
X179992500Y-93325000D02*
X178465000Y-93325000D01*
X180002500Y-93315000D02*
X179992500Y-93325000D01*
X181955000Y-93325000D02*
X180012500Y-93325000D01*
X190630000Y-102000000D02*
X181955000Y-93325000D01*
X193280000Y-102000000D02*
X190630000Y-102000000D01*
%TO.N,hdmi_tx_en*%
X174480000Y-84020000D02*
X175370000Y-83130000D01*
X174480000Y-93090000D02*
X174480000Y-84020000D01*
X174715000Y-93325000D02*
X174480000Y-93090000D01*
X175787500Y-93325000D02*
X174715000Y-93325000D01*
%TO.N,spdif_tx*%
X175035000Y-118965000D02*
X178000000Y-116000000D01*
X170120000Y-118965000D02*
X175035000Y-118965000D01*
X170120000Y-118965000D02*
X168600000Y-118965000D01*
X180012500Y-93975000D02*
X180012500Y-94557494D01*
X180012500Y-94557494D02*
X180000000Y-94569994D01*
%TO.N,hdmi_rx_en*%
X153810000Y-78410000D02*
X153810000Y-80950000D01*
X174150000Y-77710000D02*
X154510000Y-77710000D01*
X179720000Y-83280000D02*
X174150000Y-77710000D01*
X179720000Y-84710000D02*
X179720000Y-83280000D01*
X154510000Y-77710000D02*
X153810000Y-78410000D01*
X178000000Y-86430000D02*
X179720000Y-84710000D01*
X178000000Y-91890000D02*
X178000000Y-86430000D01*
X178775000Y-92665000D02*
X178000000Y-91890000D01*
X153810000Y-80950000D02*
X152540000Y-82220000D01*
X180002500Y-92665000D02*
X178775000Y-92665000D01*
%TO.N,i2s_clk*%
X158890000Y-119050000D02*
X157620000Y-120320000D01*
X158890000Y-110270000D02*
X158890000Y-119050000D01*
X158290000Y-109670000D02*
X158890000Y-110270000D01*
X157555001Y-109670000D02*
X158290000Y-109670000D01*
%TO.N,i2s1_mck*%
X151240000Y-83460000D02*
X150000000Y-82220000D01*
X151240000Y-85990000D02*
X151240000Y-83460000D01*
X157620000Y-92370000D02*
X151240000Y-85990000D01*
X157620000Y-95000000D02*
X157620000Y-92370000D01*
%TO.N,i2s1_sd*%
X152500002Y-84799998D02*
X152540000Y-84760000D01*
%TO.N,spdifrx_in3*%
X153800000Y-96100000D02*
X162700000Y-105000000D01*
X153800000Y-91170000D02*
X153800000Y-96100000D01*
X150000000Y-87370000D02*
X153800000Y-91170000D01*
X150000000Y-84760000D02*
X150000000Y-87370000D01*
%TO.N,sai1_mclk_b*%
X151270000Y-91150000D02*
X151270000Y-98650000D01*
X151270000Y-98650000D02*
X157620000Y-105000000D01*
X148730000Y-88610000D02*
X151270000Y-91150000D01*
X148730000Y-80950000D02*
X148730000Y-88610000D01*
X147460000Y-79680000D02*
X148730000Y-80950000D01*
%TO.N,sai1_sck_b*%
X148740000Y-98660000D02*
X155080000Y-105000000D01*
X148740000Y-91070000D02*
X148740000Y-98660000D01*
X146200000Y-88530000D02*
X148740000Y-91070000D01*
X146200000Y-80960000D02*
X146200000Y-88530000D01*
X144920000Y-79680000D02*
X146200000Y-80960000D01*
%TO.N,sai1_sd_a_pc1*%
X165490000Y-117440000D02*
X165490000Y-117060000D01*
X164990000Y-117940000D02*
X165490000Y-117440000D01*
X164090000Y-117940000D02*
X164990000Y-117940000D01*
X163590000Y-117440000D02*
X164090000Y-117940000D01*
X163590000Y-117060000D02*
X163590000Y-117440000D01*
X151290000Y-80970000D02*
X150000000Y-79680000D01*
X153170000Y-83480000D02*
X151900000Y-83480000D01*
X153830000Y-84140000D02*
X153170000Y-83480000D01*
X151900000Y-83480000D02*
X151290000Y-82870000D01*
X159580000Y-92190000D02*
X153830000Y-86440000D01*
X163270000Y-92190000D02*
X159580000Y-92190000D01*
X151290000Y-82870000D02*
X151290000Y-80970000D01*
X167000000Y-95920000D02*
X163270000Y-92190000D01*
X167000000Y-114250000D02*
X167000000Y-95920000D01*
X153830000Y-86440000D02*
X153830000Y-84140000D01*
X165490000Y-115760000D02*
X167000000Y-114250000D01*
X165490000Y-117060000D02*
X165490000Y-115760000D01*
%TO.N,spdifrx_in1*%
X163330000Y-82950000D02*
X163410000Y-82870000D01*
X162300000Y-82950000D02*
X163330000Y-82950000D01*
%TO.N,i2c3_scl*%
X156360000Y-119040000D02*
X155080000Y-120320000D01*
X156360000Y-112344999D02*
X156360000Y-119040000D01*
X156285001Y-112270000D02*
X156360000Y-112344999D01*
X144920000Y-95000000D02*
X144920000Y-105000000D01*
X156085001Y-110970000D02*
X152920000Y-110970000D01*
X152920000Y-110970000D02*
X149160000Y-107210000D01*
X156285001Y-111170000D02*
X156085001Y-110970000D01*
X156285001Y-112270000D02*
X156285001Y-111170000D01*
%TO.N,i2c3_sda*%
X147460000Y-105000000D02*
X147460000Y-95000000D01*
X150000000Y-113085000D02*
X150000000Y-115240000D01*
X150000000Y-113085000D02*
X150685000Y-113085000D01*
X151500000Y-112270000D02*
X155015001Y-112270000D01*
X150685000Y-113085000D02*
X151500000Y-112270000D01*
X151500000Y-110650000D02*
X147460000Y-106610000D01*
X147460000Y-106610000D02*
X147460000Y-105000000D01*
X151500000Y-112270000D02*
X151500000Y-110650000D01*
%TO.N,i2c2_sda*%
X178040002Y-111559998D02*
X169130000Y-111559998D01*
X179510000Y-110090000D02*
X178040002Y-111559998D01*
X179510000Y-108950000D02*
X179510000Y-110090000D01*
X178830000Y-108270000D02*
X179510000Y-108950000D01*
X178830000Y-105700000D02*
X178830000Y-108270000D01*
X179490000Y-105040000D02*
X178830000Y-105700000D01*
X178875000Y-102520000D02*
X179490000Y-103135000D01*
X179490000Y-103135000D02*
X179490000Y-105040000D01*
%TO.N,i2c2_scl*%
X174166410Y-94940000D02*
X165216410Y-85990000D01*
X176335000Y-94940000D02*
X174166410Y-94940000D01*
X165216410Y-85990000D02*
X163480000Y-85990000D01*
X178875000Y-97480000D02*
X176335000Y-94940000D01*
%TO.N,swdio*%
X142380000Y-112300000D02*
X142380000Y-111930000D01*
X139840000Y-114840000D02*
X142380000Y-112300000D01*
X139840000Y-115240000D02*
X139840000Y-114840000D01*
%TO.N,swclk*%
X141110000Y-114630000D02*
X141110000Y-116510000D01*
X141110000Y-116510000D02*
X139840000Y-117780000D01*
X142100000Y-113640000D02*
X141110000Y-114630000D01*
X143210000Y-113640000D02*
X142100000Y-113640000D01*
X144920000Y-111930000D02*
X143210000Y-113640000D01*
%TO.N,cec_pa15*%
X165875000Y-113325000D02*
X166000000Y-113450000D01*
X164550000Y-113325000D02*
X165875000Y-113325000D01*
X164550000Y-113325000D02*
X164550000Y-114194876D01*
X164550000Y-114194876D02*
X162230029Y-116514847D01*
%TO.N,pc14*%
X160160000Y-110100000D02*
X160160000Y-113050000D01*
X164500000Y-105760000D02*
X160160000Y-110100000D01*
X160160000Y-113050000D02*
X160160000Y-115240000D01*
X164500000Y-99340000D02*
X164500000Y-105760000D01*
X160160000Y-95000000D02*
X164500000Y-99340000D01*
%TO.N,pc15*%
X161510000Y-116430000D02*
X160160000Y-117780000D01*
X161510000Y-110640000D02*
X161510000Y-116430000D01*
X165770000Y-106380000D02*
X161510000Y-110640000D01*
X165770000Y-98070000D02*
X165770000Y-106380000D01*
X162700000Y-95000000D02*
X165770000Y-98070000D01*
%TO.N,uart5_rx*%
X147460000Y-111930000D02*
X147460000Y-115240000D01*
X144920000Y-109390000D02*
X147460000Y-111930000D01*
%TO.N,uart5_tx*%
X143650000Y-110660000D02*
X142380000Y-109390000D01*
X146190000Y-111510000D02*
X145340000Y-110660000D01*
X146190000Y-116510000D02*
X146190000Y-111510000D01*
X145340000Y-110660000D02*
X143650000Y-110660000D01*
X144920000Y-117780000D02*
X146190000Y-116510000D01*
%TD*%
M02*
