%TF.GenerationSoftware,KiCad,Pcbnew,5.1.9-73d0e3b20d~88~ubuntu20.04.1*%
%TF.CreationDate,2021-06-05T19:42:07+02:00*%
%TF.ProjectId,andy,616e6479-2e6b-4696-9361-645f70636258,v1.00*%
%TF.SameCoordinates,Original*%
%TF.FileFunction,Copper,L2,Inr*%
%TF.FilePolarity,Positive*%
%FSLAX46Y46*%
G04 Gerber Fmt 4.6, Leading zero omitted, Abs format (unit mm)*
G04 Created by KiCad (PCBNEW 5.1.9-73d0e3b20d~88~ubuntu20.04.1) date 2021-06-05 19:42:07*
%MOMM*%
%LPD*%
G01*
G04 APERTURE LIST*
%TA.AperFunction,ComponentPad*%
%ADD10C,1.700000*%
%TD*%
%TA.AperFunction,ComponentPad*%
%ADD11C,1.381250*%
%TD*%
%TA.AperFunction,ComponentPad*%
%ADD12C,1.725000*%
%TD*%
%TA.AperFunction,ComponentPad*%
%ADD13C,1.381000*%
%TD*%
%TA.AperFunction,ComponentPad*%
%ADD14C,2.500000*%
%TD*%
%TA.AperFunction,ComponentPad*%
%ADD15O,2.500000X3.800000*%
%TD*%
%TA.AperFunction,ComponentPad*%
%ADD16O,3.800000X2.500000*%
%TD*%
%TA.AperFunction,ComponentPad*%
%ADD17O,3.100000X1.500000*%
%TD*%
%TA.AperFunction,ComponentPad*%
%ADD18O,2.300000X1.500000*%
%TD*%
%TA.AperFunction,ComponentPad*%
%ADD19O,1.700000X1.700000*%
%TD*%
%TA.AperFunction,ComponentPad*%
%ADD20R,1.700000X1.700000*%
%TD*%
%TA.AperFunction,ViaPad*%
%ADD21C,0.800000*%
%TD*%
%TA.AperFunction,Conductor*%
%ADD22C,0.254000*%
%TD*%
%TA.AperFunction,Conductor*%
%ADD23C,0.100000*%
%TD*%
G04 APERTURE END LIST*
D10*
%TO.N,GND*%
%TO.C,U1*%
X160160000Y-79680000D03*
%TO.N,+3V3*%
X157620000Y-79680000D03*
%TO.N,N/C*%
X155080000Y-79680000D03*
%TO.N,hdmi_tx_en*%
X152540000Y-79680000D03*
%TO.N,sai1_sd_a_pc1*%
X150000000Y-79680000D03*
%TO.N,sai1_mclk_b*%
X147460000Y-79680000D03*
%TO.N,sai1_sck_b*%
X144920000Y-79680000D03*
%TO.N,spdifrx_in1*%
X142380000Y-79680000D03*
%TO.N,N/C*%
X139840000Y-79680000D03*
%TO.N,hdmi_5v_in*%
X160160000Y-82220000D03*
%TO.N,hdmi_hpd_en*%
X157620000Y-82220000D03*
%TO.N,i2s1_ws*%
X155080000Y-82220000D03*
%TO.N,hdmi_rx_en*%
X152540000Y-82220000D03*
%TO.N,i2s1_mck*%
X150000000Y-82220000D03*
%TO.N,N/C*%
X147460000Y-82220000D03*
%TO.N,sai1_sd_a_pb2*%
X144920000Y-82220000D03*
%TO.N,N/C*%
X142380000Y-82220000D03*
X139840000Y-82220000D03*
%TO.N,hdmi_5v_en*%
X160160000Y-84760000D03*
%TO.N,hdmi_hpd_in*%
X157620000Y-84760000D03*
%TO.N,i2s1_ck*%
X155080000Y-84760000D03*
%TO.N,i2s1_sd*%
X152540000Y-84760000D03*
%TO.N,spdifrx_in3*%
X150000000Y-84760000D03*
%TO.N,N/C*%
X147460000Y-84760000D03*
%TO.N,i2c2_scl*%
X144920000Y-84760000D03*
%TO.N,N/C*%
X142380000Y-84760000D03*
X139840000Y-84760000D03*
%TO.N,pc14*%
X160160000Y-115240000D03*
%TO.N,N/C*%
X157620000Y-115240000D03*
X155080000Y-115240000D03*
%TO.N,cec_pb6*%
X152540000Y-115240000D03*
%TO.N,i2c3_sda*%
X150000000Y-115240000D03*
%TO.N,uart5_rx*%
X147460000Y-115240000D03*
%TO.N,N/C*%
X144920000Y-115240000D03*
%TO.N,cec_pa15*%
X142380000Y-115240000D03*
%TO.N,swdio*%
X139840000Y-115240000D03*
%TO.N,pc15*%
X160160000Y-117780000D03*
%TO.N,N/C*%
X157620000Y-117780000D03*
%TO.N,sai1_fs_b*%
X155080000Y-117780000D03*
%TO.N,spdifrx_in0*%
X152540000Y-117780000D03*
%TO.N,N/C*%
X150000000Y-117780000D03*
%TO.N,i2c2_sda*%
X147460000Y-117780000D03*
%TO.N,uart5_tx*%
X144920000Y-117780000D03*
%TO.N,N/C*%
X142380000Y-117780000D03*
%TO.N,swclk*%
X139840000Y-117780000D03*
%TO.N,N/C*%
X160160000Y-120320000D03*
%TO.N,i2s_clk*%
X157620000Y-120320000D03*
%TO.N,i2c3_scl*%
X155080000Y-120320000D03*
%TO.N,sai1_sd_b*%
X152540000Y-120320000D03*
%TO.N,N/C*%
X150000000Y-120320000D03*
%TO.N,+5V*%
X147460000Y-120320000D03*
%TO.N,GND*%
X144920000Y-120320000D03*
%TO.N,+3V3*%
X142380000Y-120320000D03*
%TO.N,GND*%
X139840000Y-120320000D03*
%TD*%
D11*
%TO.N,+3V3*%
%TO.C,U2*%
X192440000Y-86500000D03*
%TO.N,GND*%
X192440000Y-83960000D03*
%TO.N,sai1_sd_a_pb2*%
X192440000Y-81420000D03*
D12*
%TO.N,N/C*%
X195070000Y-86500000D03*
X195070000Y-81420000D03*
%TD*%
D13*
%TO.N,Net-(C3-Pad2)*%
%TO.C,U3*%
X192490000Y-118540000D03*
%TO.N,GND*%
X192490000Y-116000000D03*
%TO.N,spdifrx_in0*%
X192490000Y-113460000D03*
D12*
%TO.N,N/C*%
X195110000Y-118540000D03*
X195110000Y-113460000D03*
%TD*%
D14*
%TO.N,spdif_rx*%
%TO.C,J1*%
X178000000Y-84000000D03*
D15*
%TO.N,GND*%
X172500000Y-84000000D03*
X183500000Y-84000000D03*
D16*
X178000000Y-78500000D03*
%TD*%
%TO.N,GND*%
%TO.C,J2*%
X178000000Y-121500000D03*
D15*
X172500000Y-116000000D03*
X183500000Y-116000000D03*
D14*
%TO.N,spdif_tx*%
X178000000Y-116000000D03*
%TD*%
D17*
%TO.N,N/C*%
%TO.C,J3*%
X194040000Y-107250000D03*
X194040000Y-92750000D03*
D18*
X200000000Y-107250000D03*
X200000000Y-92750000D03*
%TD*%
D19*
%TO.N,spdifrx_in3*%
%TO.C,J4*%
X162700000Y-105000000D03*
%TO.N,cec_pb6*%
X160160000Y-105000000D03*
%TO.N,sai1_mclk_b*%
X157620000Y-105000000D03*
%TO.N,sai1_sck_b*%
X155080000Y-105000000D03*
%TO.N,sai1_fs_b*%
X152540000Y-105000000D03*
%TO.N,sai1_sd_b*%
X150000000Y-105000000D03*
%TO.N,i2c3_sda*%
X147460000Y-105000000D03*
%TO.N,i2c3_scl*%
X144920000Y-105000000D03*
%TO.N,+5V*%
X142380000Y-105000000D03*
D20*
%TO.N,GND*%
X139840000Y-105000000D03*
%TD*%
%TO.N,GND*%
%TO.C,J5*%
X139840000Y-95000000D03*
D19*
%TO.N,+5V*%
X142380000Y-95000000D03*
%TO.N,i2c3_scl*%
X144920000Y-95000000D03*
%TO.N,i2c3_sda*%
X147460000Y-95000000D03*
%TO.N,i2s1_sd*%
X150000000Y-95000000D03*
%TO.N,i2s1_ws*%
X152540000Y-95000000D03*
%TO.N,i2s1_ck*%
X155080000Y-95000000D03*
%TO.N,i2s1_mck*%
X157620000Y-95000000D03*
%TO.N,pc14*%
X160160000Y-95000000D03*
%TO.N,pc15*%
X162700000Y-95000000D03*
%TD*%
D20*
%TO.N,GND*%
%TO.C,J6*%
X139840000Y-111930000D03*
D19*
X139840000Y-109390000D03*
%TO.N,swdio*%
X142380000Y-111930000D03*
%TO.N,uart5_tx*%
X142380000Y-109390000D03*
%TO.N,swclk*%
X144920000Y-111930000D03*
%TO.N,uart5_rx*%
X144920000Y-109390000D03*
%TD*%
D21*
%TO.N,GND*%
X187820000Y-115980000D03*
X164530000Y-116130000D03*
X187780000Y-83555000D03*
X166790000Y-84430000D03*
X166929998Y-120820000D03*
X170120000Y-116520000D03*
X195080000Y-96000000D03*
X195180000Y-97500000D03*
X195170000Y-99000000D03*
X195180000Y-100500000D03*
X195180000Y-103490000D03*
X184100000Y-97800000D03*
X174060000Y-97730000D03*
X165600000Y-110030000D03*
X184100000Y-109220000D03*
X184310000Y-106260000D03*
X184100000Y-104810000D03*
X174880000Y-109520000D03*
X174890000Y-104480000D03*
X171050000Y-78450000D03*
X164330000Y-79720000D03*
X177010000Y-93950000D03*
X157590000Y-113500000D03*
X157920000Y-107870000D03*
X184100000Y-102200000D03*
X174060000Y-104700000D03*
X177229998Y-91370000D03*
X165980000Y-78910000D03*
%TO.N,+3V3*%
X163510000Y-84430000D03*
X187790000Y-86810000D03*
X186200000Y-115700000D03*
X163670000Y-120810000D03*
X179620000Y-90500000D03*
X154680000Y-107870000D03*
X164550000Y-110880000D03*
X150000000Y-110564979D03*
%TO.N,+5V*%
X172650000Y-102550000D03*
%TO.N,hdmi_tx_en*%
X175370000Y-83130000D03*
%TO.N,spdif_tx*%
X180000000Y-94569994D03*
%TO.N,spdifrx_in1*%
X162300000Y-82950000D03*
%TO.N,i2c3_scl*%
X149160000Y-107210000D03*
%TO.N,i2c2_sda*%
X169130000Y-111559998D03*
%TO.N,i2c2_scl*%
X163480000Y-85990000D03*
%TO.N,cec_pa15*%
X162230029Y-116514847D03*
%TD*%
D22*
%TO.N,GND*%
X175559886Y-77895975D02*
X175512305Y-78080355D01*
X175628428Y-78373000D01*
X177873000Y-78373000D01*
X177873000Y-78353000D01*
X178127000Y-78353000D01*
X178127000Y-78373000D01*
X180371572Y-78373000D01*
X180487695Y-78080355D01*
X180440114Y-77895975D01*
X180333713Y-77660000D01*
X202967721Y-77660000D01*
X203065424Y-77669580D01*
X203128356Y-77688580D01*
X203186405Y-77719445D01*
X203237343Y-77760989D01*
X203279248Y-77811644D01*
X203310515Y-77869471D01*
X203329956Y-77932272D01*
X203340000Y-78027835D01*
X203340001Y-121967711D01*
X203330420Y-122065424D01*
X203311420Y-122128357D01*
X203280554Y-122186406D01*
X203239011Y-122237343D01*
X203188356Y-122279248D01*
X203130529Y-122310515D01*
X203067728Y-122329956D01*
X202972165Y-122340000D01*
X180333713Y-122340000D01*
X180440114Y-122104025D01*
X180487695Y-121919645D01*
X180371572Y-121627000D01*
X178127000Y-121627000D01*
X178127000Y-121647000D01*
X177873000Y-121647000D01*
X177873000Y-121627000D01*
X175628428Y-121627000D01*
X175512305Y-121919645D01*
X175559886Y-122104025D01*
X175666287Y-122340000D01*
X138032279Y-122340000D01*
X137934576Y-122330420D01*
X137871643Y-122311420D01*
X137813594Y-122280554D01*
X137762657Y-122239011D01*
X137720752Y-122188356D01*
X137689485Y-122130529D01*
X137670044Y-122067728D01*
X137660000Y-121972165D01*
X137660000Y-121348397D01*
X138991208Y-121348397D01*
X139068843Y-121597472D01*
X139332883Y-121723371D01*
X139616411Y-121795339D01*
X139908531Y-121810611D01*
X140198019Y-121768599D01*
X140473747Y-121670919D01*
X140611157Y-121597472D01*
X140688792Y-121348397D01*
X139840000Y-120499605D01*
X138991208Y-121348397D01*
X137660000Y-121348397D01*
X137660000Y-120388531D01*
X138349389Y-120388531D01*
X138391401Y-120678019D01*
X138489081Y-120953747D01*
X138562528Y-121091157D01*
X138811603Y-121168792D01*
X139660395Y-120320000D01*
X138811603Y-119471208D01*
X138562528Y-119548843D01*
X138436629Y-119812883D01*
X138364661Y-120096411D01*
X138349389Y-120388531D01*
X137660000Y-120388531D01*
X137660000Y-115093740D01*
X138355000Y-115093740D01*
X138355000Y-115386260D01*
X138412068Y-115673158D01*
X138524010Y-115943411D01*
X138686525Y-116186632D01*
X138893368Y-116393475D01*
X139067760Y-116510000D01*
X138893368Y-116626525D01*
X138686525Y-116833368D01*
X138524010Y-117076589D01*
X138412068Y-117346842D01*
X138355000Y-117633740D01*
X138355000Y-117926260D01*
X138412068Y-118213158D01*
X138524010Y-118483411D01*
X138686525Y-118726632D01*
X138893368Y-118933475D01*
X139066729Y-119049311D01*
X138991208Y-119291603D01*
X139840000Y-120140395D01*
X140688792Y-119291603D01*
X140613271Y-119049311D01*
X140786632Y-118933475D01*
X140993475Y-118726632D01*
X141110000Y-118552240D01*
X141226525Y-118726632D01*
X141433368Y-118933475D01*
X141607760Y-119050000D01*
X141433368Y-119166525D01*
X141226525Y-119373368D01*
X141110689Y-119546729D01*
X140868397Y-119471208D01*
X140019605Y-120320000D01*
X140868397Y-121168792D01*
X141110689Y-121093271D01*
X141226525Y-121266632D01*
X141433368Y-121473475D01*
X141676589Y-121635990D01*
X141946842Y-121747932D01*
X142233740Y-121805000D01*
X142526260Y-121805000D01*
X142813158Y-121747932D01*
X143083411Y-121635990D01*
X143326632Y-121473475D01*
X143451710Y-121348397D01*
X144071208Y-121348397D01*
X144148843Y-121597472D01*
X144412883Y-121723371D01*
X144696411Y-121795339D01*
X144988531Y-121810611D01*
X145278019Y-121768599D01*
X145553747Y-121670919D01*
X145691157Y-121597472D01*
X145768792Y-121348397D01*
X144920000Y-120499605D01*
X144071208Y-121348397D01*
X143451710Y-121348397D01*
X143533475Y-121266632D01*
X143649311Y-121093271D01*
X143891603Y-121168792D01*
X144740395Y-120320000D01*
X143891603Y-119471208D01*
X143649311Y-119546729D01*
X143533475Y-119373368D01*
X143326632Y-119166525D01*
X143152240Y-119050000D01*
X143326632Y-118933475D01*
X143533475Y-118726632D01*
X143650000Y-118552240D01*
X143766525Y-118726632D01*
X143973368Y-118933475D01*
X144146729Y-119049311D01*
X144071208Y-119291603D01*
X144920000Y-120140395D01*
X145768792Y-119291603D01*
X145693271Y-119049311D01*
X145866632Y-118933475D01*
X146073475Y-118726632D01*
X146190000Y-118552240D01*
X146306525Y-118726632D01*
X146513368Y-118933475D01*
X146687760Y-119050000D01*
X146513368Y-119166525D01*
X146306525Y-119373368D01*
X146190689Y-119546729D01*
X145948397Y-119471208D01*
X145099605Y-120320000D01*
X145948397Y-121168792D01*
X146190689Y-121093271D01*
X146306525Y-121266632D01*
X146513368Y-121473475D01*
X146756589Y-121635990D01*
X147026842Y-121747932D01*
X147313740Y-121805000D01*
X147606260Y-121805000D01*
X147893158Y-121747932D01*
X148163411Y-121635990D01*
X148406632Y-121473475D01*
X148613475Y-121266632D01*
X148730000Y-121092240D01*
X148846525Y-121266632D01*
X149053368Y-121473475D01*
X149296589Y-121635990D01*
X149566842Y-121747932D01*
X149853740Y-121805000D01*
X150146260Y-121805000D01*
X150433158Y-121747932D01*
X150703411Y-121635990D01*
X150946632Y-121473475D01*
X151153475Y-121266632D01*
X151270000Y-121092240D01*
X151386525Y-121266632D01*
X151593368Y-121473475D01*
X151836589Y-121635990D01*
X152106842Y-121747932D01*
X152393740Y-121805000D01*
X152686260Y-121805000D01*
X152973158Y-121747932D01*
X153243411Y-121635990D01*
X153486632Y-121473475D01*
X153693475Y-121266632D01*
X153810000Y-121092240D01*
X153926525Y-121266632D01*
X154133368Y-121473475D01*
X154376589Y-121635990D01*
X154646842Y-121747932D01*
X154933740Y-121805000D01*
X155226260Y-121805000D01*
X155513158Y-121747932D01*
X155783411Y-121635990D01*
X156026632Y-121473475D01*
X156233475Y-121266632D01*
X156350000Y-121092240D01*
X156466525Y-121266632D01*
X156673368Y-121473475D01*
X156916589Y-121635990D01*
X157186842Y-121747932D01*
X157473740Y-121805000D01*
X157766260Y-121805000D01*
X158053158Y-121747932D01*
X158323411Y-121635990D01*
X158566632Y-121473475D01*
X158773475Y-121266632D01*
X158890000Y-121092240D01*
X159006525Y-121266632D01*
X159213368Y-121473475D01*
X159456589Y-121635990D01*
X159726842Y-121747932D01*
X160013740Y-121805000D01*
X160306260Y-121805000D01*
X160593158Y-121747932D01*
X160863411Y-121635990D01*
X161106632Y-121473475D01*
X161313475Y-121266632D01*
X161475990Y-121023411D01*
X161587932Y-120753158D01*
X161596902Y-120708061D01*
X162635000Y-120708061D01*
X162635000Y-120911939D01*
X162674774Y-121111898D01*
X162752795Y-121300256D01*
X162866063Y-121469774D01*
X163010226Y-121613937D01*
X163179744Y-121727205D01*
X163368102Y-121805226D01*
X163568061Y-121845000D01*
X163771939Y-121845000D01*
X163971898Y-121805226D01*
X164160256Y-121727205D01*
X164329774Y-121613937D01*
X164473937Y-121469774D01*
X164587205Y-121300256D01*
X164665226Y-121111898D01*
X164671500Y-121080355D01*
X175512305Y-121080355D01*
X175628428Y-121373000D01*
X177873000Y-121373000D01*
X177873000Y-119615000D01*
X178127000Y-119615000D01*
X178127000Y-121373000D01*
X180371572Y-121373000D01*
X180487695Y-121080355D01*
X180440114Y-120895975D01*
X180287878Y-120558347D01*
X180072699Y-120256906D01*
X179802847Y-120003237D01*
X179488691Y-119807088D01*
X179142305Y-119675996D01*
X178777000Y-119615000D01*
X178127000Y-119615000D01*
X177873000Y-119615000D01*
X177223000Y-119615000D01*
X176857695Y-119675996D01*
X176511309Y-119807088D01*
X176197153Y-120003237D01*
X175927301Y-120256906D01*
X175712122Y-120558347D01*
X175559886Y-120895975D01*
X175512305Y-121080355D01*
X164671500Y-121080355D01*
X164705000Y-120911939D01*
X164705000Y-120708061D01*
X164665226Y-120508102D01*
X164587205Y-120319744D01*
X164473937Y-120150226D01*
X164329774Y-120006063D01*
X164160256Y-119892795D01*
X163971898Y-119814774D01*
X163771939Y-119775000D01*
X163568061Y-119775000D01*
X163368102Y-119814774D01*
X163179744Y-119892795D01*
X163010226Y-120006063D01*
X162866063Y-120150226D01*
X162752795Y-120319744D01*
X162674774Y-120508102D01*
X162635000Y-120708061D01*
X161596902Y-120708061D01*
X161645000Y-120466260D01*
X161645000Y-120173740D01*
X161587932Y-119886842D01*
X161475990Y-119616589D01*
X161313475Y-119373368D01*
X161106632Y-119166525D01*
X160932240Y-119050000D01*
X161106632Y-118933475D01*
X161313475Y-118726632D01*
X161475990Y-118483411D01*
X161587932Y-118213158D01*
X161645000Y-117926260D01*
X161645000Y-117633740D01*
X161587932Y-117346842D01*
X161578627Y-117324378D01*
X161739773Y-117432052D01*
X161928131Y-117510073D01*
X162128090Y-117549847D01*
X162331968Y-117549847D01*
X162531927Y-117510073D01*
X162720285Y-117432052D01*
X162889803Y-117318784D01*
X163033966Y-117174621D01*
X163147234Y-117005103D01*
X163225255Y-116816745D01*
X163265029Y-116616786D01*
X163265029Y-116412908D01*
X163225255Y-116212949D01*
X163189654Y-116127000D01*
X170615000Y-116127000D01*
X170615000Y-116777000D01*
X170675996Y-117142305D01*
X170807088Y-117488691D01*
X171003237Y-117802847D01*
X171256906Y-118072699D01*
X171558347Y-118287878D01*
X171895975Y-118440114D01*
X172080355Y-118487695D01*
X172373000Y-118371572D01*
X172373000Y-116127000D01*
X172627000Y-116127000D01*
X172627000Y-118371572D01*
X172919645Y-118487695D01*
X173104025Y-118440114D01*
X173441653Y-118287878D01*
X173743094Y-118072699D01*
X173996763Y-117802847D01*
X174192912Y-117488691D01*
X174324004Y-117142305D01*
X174385000Y-116777000D01*
X174385000Y-116127000D01*
X172627000Y-116127000D01*
X172373000Y-116127000D01*
X170615000Y-116127000D01*
X163189654Y-116127000D01*
X163147234Y-116024591D01*
X163033966Y-115855073D01*
X162889803Y-115710910D01*
X162720285Y-115597642D01*
X162531927Y-115519621D01*
X162331968Y-115479847D01*
X162128090Y-115479847D01*
X161928131Y-115519621D01*
X161739773Y-115597642D01*
X161573075Y-115709026D01*
X161587932Y-115673158D01*
X161645000Y-115386260D01*
X161645000Y-115223000D01*
X170615000Y-115223000D01*
X170615000Y-115873000D01*
X172373000Y-115873000D01*
X172373000Y-113628428D01*
X172627000Y-113628428D01*
X172627000Y-115873000D01*
X174385000Y-115873000D01*
X174385000Y-115814344D01*
X176115000Y-115814344D01*
X176115000Y-116185656D01*
X176187439Y-116549834D01*
X176329534Y-116892882D01*
X176535825Y-117201618D01*
X176798382Y-117464175D01*
X177107118Y-117670466D01*
X177450166Y-117812561D01*
X177814344Y-117885000D01*
X178185656Y-117885000D01*
X178549834Y-117812561D01*
X178892882Y-117670466D01*
X179201618Y-117464175D01*
X179464175Y-117201618D01*
X179670466Y-116892882D01*
X179812561Y-116549834D01*
X179885000Y-116185656D01*
X179885000Y-116127000D01*
X181615000Y-116127000D01*
X181615000Y-116777000D01*
X181675996Y-117142305D01*
X181807088Y-117488691D01*
X182003237Y-117802847D01*
X182256906Y-118072699D01*
X182558347Y-118287878D01*
X182895975Y-118440114D01*
X183080355Y-118487695D01*
X183373000Y-118371572D01*
X183373000Y-116127000D01*
X181615000Y-116127000D01*
X179885000Y-116127000D01*
X179885000Y-115814344D01*
X179812561Y-115450166D01*
X179718466Y-115223000D01*
X181615000Y-115223000D01*
X181615000Y-115873000D01*
X183373000Y-115873000D01*
X183373000Y-113628428D01*
X183627000Y-113628428D01*
X183627000Y-115873000D01*
X183647000Y-115873000D01*
X183647000Y-116127000D01*
X183627000Y-116127000D01*
X183627000Y-118371572D01*
X183919645Y-118487695D01*
X184104025Y-118440114D01*
X184172031Y-118409450D01*
X191164500Y-118409450D01*
X191164500Y-118670550D01*
X191215438Y-118926634D01*
X191315357Y-119167860D01*
X191460417Y-119384957D01*
X191645043Y-119569583D01*
X191862140Y-119714643D01*
X192103366Y-119814562D01*
X192359450Y-119865500D01*
X192620550Y-119865500D01*
X192876634Y-119814562D01*
X193117860Y-119714643D01*
X193334957Y-119569583D01*
X193519583Y-119384957D01*
X193664643Y-119167860D01*
X193706914Y-119065808D01*
X193782933Y-119249332D01*
X193946816Y-119494601D01*
X194155399Y-119703184D01*
X194400668Y-119867067D01*
X194673195Y-119979952D01*
X194962509Y-120037500D01*
X195257491Y-120037500D01*
X195546805Y-119979952D01*
X195819332Y-119867067D01*
X196064601Y-119703184D01*
X196273184Y-119494601D01*
X196437067Y-119249332D01*
X196549952Y-118976805D01*
X196607500Y-118687491D01*
X196607500Y-118392509D01*
X196549952Y-118103195D01*
X196437067Y-117830668D01*
X196273184Y-117585399D01*
X196064601Y-117376816D01*
X195819332Y-117212933D01*
X195546805Y-117100048D01*
X195257491Y-117042500D01*
X194962509Y-117042500D01*
X194673195Y-117100048D01*
X194400668Y-117212933D01*
X194155399Y-117376816D01*
X193946816Y-117585399D01*
X193782933Y-117830668D01*
X193706914Y-118014192D01*
X193664643Y-117912140D01*
X193519583Y-117695043D01*
X193334957Y-117510417D01*
X193117860Y-117365357D01*
X192882448Y-117267846D01*
X193068047Y-117199939D01*
X193166567Y-117147279D01*
X193224875Y-116914480D01*
X192490000Y-116179605D01*
X191755125Y-116914480D01*
X191813433Y-117147279D01*
X192050257Y-117257227D01*
X192096229Y-117268394D01*
X191862140Y-117365357D01*
X191645043Y-117510417D01*
X191460417Y-117695043D01*
X191315357Y-117912140D01*
X191215438Y-118153366D01*
X191164500Y-118409450D01*
X184172031Y-118409450D01*
X184441653Y-118287878D01*
X184743094Y-118072699D01*
X184996763Y-117802847D01*
X185192912Y-117488691D01*
X185324004Y-117142305D01*
X185385000Y-116777000D01*
X185385000Y-116343217D01*
X185396063Y-116359774D01*
X185540226Y-116503937D01*
X185709744Y-116617205D01*
X185898102Y-116695226D01*
X186098061Y-116735000D01*
X186301939Y-116735000D01*
X186501898Y-116695226D01*
X186690256Y-116617205D01*
X186859774Y-116503937D01*
X187003937Y-116359774D01*
X187117205Y-116190256D01*
X187165008Y-116074849D01*
X191160192Y-116074849D01*
X191200346Y-116332844D01*
X191290061Y-116578047D01*
X191342721Y-116676567D01*
X191575520Y-116734875D01*
X192310395Y-116000000D01*
X192669605Y-116000000D01*
X193404480Y-116734875D01*
X193637279Y-116676567D01*
X193747227Y-116439743D01*
X193808859Y-116186021D01*
X193819808Y-115925151D01*
X193779654Y-115667156D01*
X193689939Y-115421953D01*
X193637279Y-115323433D01*
X193404480Y-115265125D01*
X192669605Y-116000000D01*
X192310395Y-116000000D01*
X191575520Y-115265125D01*
X191342721Y-115323433D01*
X191232773Y-115560257D01*
X191171141Y-115813979D01*
X191160192Y-116074849D01*
X187165008Y-116074849D01*
X187195226Y-116001898D01*
X187235000Y-115801939D01*
X187235000Y-115598061D01*
X187195226Y-115398102D01*
X187117205Y-115209744D01*
X187003937Y-115040226D01*
X186859774Y-114896063D01*
X186690256Y-114782795D01*
X186501898Y-114704774D01*
X186301939Y-114665000D01*
X186098061Y-114665000D01*
X185898102Y-114704774D01*
X185709744Y-114782795D01*
X185540226Y-114896063D01*
X185396063Y-115040226D01*
X185362795Y-115090015D01*
X185324004Y-114857695D01*
X185192912Y-114511309D01*
X184996763Y-114197153D01*
X184743094Y-113927301D01*
X184441653Y-113712122D01*
X184104025Y-113559886D01*
X183919645Y-113512305D01*
X183627000Y-113628428D01*
X183373000Y-113628428D01*
X183080355Y-113512305D01*
X182895975Y-113559886D01*
X182558347Y-113712122D01*
X182256906Y-113927301D01*
X182003237Y-114197153D01*
X181807088Y-114511309D01*
X181675996Y-114857695D01*
X181615000Y-115223000D01*
X179718466Y-115223000D01*
X179670466Y-115107118D01*
X179464175Y-114798382D01*
X179201618Y-114535825D01*
X178892882Y-114329534D01*
X178549834Y-114187439D01*
X178185656Y-114115000D01*
X177814344Y-114115000D01*
X177450166Y-114187439D01*
X177107118Y-114329534D01*
X176798382Y-114535825D01*
X176535825Y-114798382D01*
X176329534Y-115107118D01*
X176187439Y-115450166D01*
X176115000Y-115814344D01*
X174385000Y-115814344D01*
X174385000Y-115223000D01*
X174324004Y-114857695D01*
X174192912Y-114511309D01*
X173996763Y-114197153D01*
X173743094Y-113927301D01*
X173441653Y-113712122D01*
X173104025Y-113559886D01*
X172919645Y-113512305D01*
X172627000Y-113628428D01*
X172373000Y-113628428D01*
X172080355Y-113512305D01*
X171895975Y-113559886D01*
X171558347Y-113712122D01*
X171256906Y-113927301D01*
X171003237Y-114197153D01*
X170807088Y-114511309D01*
X170675996Y-114857695D01*
X170615000Y-115223000D01*
X161645000Y-115223000D01*
X161645000Y-115093740D01*
X161587932Y-114806842D01*
X161475990Y-114536589D01*
X161313475Y-114293368D01*
X161106632Y-114086525D01*
X160863411Y-113924010D01*
X160593158Y-113812068D01*
X160306260Y-113755000D01*
X160013740Y-113755000D01*
X159726842Y-113812068D01*
X159456589Y-113924010D01*
X159213368Y-114086525D01*
X159006525Y-114293368D01*
X158890000Y-114467760D01*
X158773475Y-114293368D01*
X158566632Y-114086525D01*
X158323411Y-113924010D01*
X158053158Y-113812068D01*
X157766260Y-113755000D01*
X157473740Y-113755000D01*
X157186842Y-113812068D01*
X156916589Y-113924010D01*
X156673368Y-114086525D01*
X156466525Y-114293368D01*
X156350000Y-114467760D01*
X156233475Y-114293368D01*
X156026632Y-114086525D01*
X155783411Y-113924010D01*
X155513158Y-113812068D01*
X155226260Y-113755000D01*
X154933740Y-113755000D01*
X154646842Y-113812068D01*
X154376589Y-113924010D01*
X154133368Y-114086525D01*
X153926525Y-114293368D01*
X153810000Y-114467760D01*
X153693475Y-114293368D01*
X153486632Y-114086525D01*
X153243411Y-113924010D01*
X152973158Y-113812068D01*
X152686260Y-113755000D01*
X152393740Y-113755000D01*
X152106842Y-113812068D01*
X151836589Y-113924010D01*
X151593368Y-114086525D01*
X151386525Y-114293368D01*
X151270000Y-114467760D01*
X151153475Y-114293368D01*
X150946632Y-114086525D01*
X150703411Y-113924010D01*
X150433158Y-113812068D01*
X150146260Y-113755000D01*
X149853740Y-113755000D01*
X149566842Y-113812068D01*
X149296589Y-113924010D01*
X149053368Y-114086525D01*
X148846525Y-114293368D01*
X148730000Y-114467760D01*
X148613475Y-114293368D01*
X148406632Y-114086525D01*
X148163411Y-113924010D01*
X147893158Y-113812068D01*
X147606260Y-113755000D01*
X147313740Y-113755000D01*
X147026842Y-113812068D01*
X146756589Y-113924010D01*
X146513368Y-114086525D01*
X146306525Y-114293368D01*
X146190000Y-114467760D01*
X146073475Y-114293368D01*
X145866632Y-114086525D01*
X145623411Y-113924010D01*
X145353158Y-113812068D01*
X145066260Y-113755000D01*
X144773740Y-113755000D01*
X144486842Y-113812068D01*
X144216589Y-113924010D01*
X143973368Y-114086525D01*
X143766525Y-114293368D01*
X143650000Y-114467760D01*
X143533475Y-114293368D01*
X143326632Y-114086525D01*
X143083411Y-113924010D01*
X142813158Y-113812068D01*
X142526260Y-113755000D01*
X142233740Y-113755000D01*
X141946842Y-113812068D01*
X141676589Y-113924010D01*
X141433368Y-114086525D01*
X141226525Y-114293368D01*
X141110000Y-114467760D01*
X140993475Y-114293368D01*
X140786632Y-114086525D01*
X140543411Y-113924010D01*
X140273158Y-113812068D01*
X139986260Y-113755000D01*
X139693740Y-113755000D01*
X139406842Y-113812068D01*
X139136589Y-113924010D01*
X138893368Y-114086525D01*
X138686525Y-114293368D01*
X138524010Y-114536589D01*
X138412068Y-114806842D01*
X138355000Y-115093740D01*
X137660000Y-115093740D01*
X137660000Y-112780000D01*
X138351928Y-112780000D01*
X138364188Y-112904482D01*
X138400498Y-113024180D01*
X138459463Y-113134494D01*
X138538815Y-113231185D01*
X138635506Y-113310537D01*
X138745820Y-113369502D01*
X138865518Y-113405812D01*
X138990000Y-113418072D01*
X139554250Y-113415000D01*
X139713000Y-113256250D01*
X139713000Y-112057000D01*
X138513750Y-112057000D01*
X138355000Y-112215750D01*
X138351928Y-112780000D01*
X137660000Y-112780000D01*
X137660000Y-111080000D01*
X138351928Y-111080000D01*
X138355000Y-111644250D01*
X138513750Y-111803000D01*
X139713000Y-111803000D01*
X139713000Y-109517000D01*
X138519186Y-109517000D01*
X138398519Y-109746891D01*
X138495843Y-110021252D01*
X138644822Y-110271355D01*
X138821626Y-110467502D01*
X138745820Y-110490498D01*
X138635506Y-110549463D01*
X138538815Y-110628815D01*
X138459463Y-110725506D01*
X138400498Y-110835820D01*
X138364188Y-110955518D01*
X138351928Y-111080000D01*
X137660000Y-111080000D01*
X137660000Y-109033109D01*
X138398519Y-109033109D01*
X138519186Y-109263000D01*
X139713000Y-109263000D01*
X139713000Y-108069845D01*
X139967000Y-108069845D01*
X139967000Y-109263000D01*
X139987000Y-109263000D01*
X139987000Y-109517000D01*
X139967000Y-109517000D01*
X139967000Y-111803000D01*
X139987000Y-111803000D01*
X139987000Y-112057000D01*
X139967000Y-112057000D01*
X139967000Y-113256250D01*
X140125750Y-113415000D01*
X140690000Y-113418072D01*
X140814482Y-113405812D01*
X140934180Y-113369502D01*
X141044494Y-113310537D01*
X141141185Y-113231185D01*
X141220537Y-113134494D01*
X141279502Y-113024180D01*
X141301513Y-112951620D01*
X141433368Y-113083475D01*
X141676589Y-113245990D01*
X141946842Y-113357932D01*
X142233740Y-113415000D01*
X142526260Y-113415000D01*
X142813158Y-113357932D01*
X143083411Y-113245990D01*
X143326632Y-113083475D01*
X143533475Y-112876632D01*
X143650000Y-112702240D01*
X143766525Y-112876632D01*
X143973368Y-113083475D01*
X144216589Y-113245990D01*
X144486842Y-113357932D01*
X144773740Y-113415000D01*
X145066260Y-113415000D01*
X145353158Y-113357932D01*
X145421919Y-113329450D01*
X191164500Y-113329450D01*
X191164500Y-113590550D01*
X191215438Y-113846634D01*
X191315357Y-114087860D01*
X191460417Y-114304957D01*
X191645043Y-114489583D01*
X191862140Y-114634643D01*
X192097552Y-114732154D01*
X191911953Y-114800061D01*
X191813433Y-114852721D01*
X191755125Y-115085520D01*
X192490000Y-115820395D01*
X193224875Y-115085520D01*
X193166567Y-114852721D01*
X192929743Y-114742773D01*
X192883771Y-114731606D01*
X193117860Y-114634643D01*
X193334957Y-114489583D01*
X193519583Y-114304957D01*
X193664643Y-114087860D01*
X193706914Y-113985808D01*
X193782933Y-114169332D01*
X193946816Y-114414601D01*
X194155399Y-114623184D01*
X194400668Y-114787067D01*
X194673195Y-114899952D01*
X194962509Y-114957500D01*
X195257491Y-114957500D01*
X195546805Y-114899952D01*
X195819332Y-114787067D01*
X196064601Y-114623184D01*
X196273184Y-114414601D01*
X196437067Y-114169332D01*
X196549952Y-113896805D01*
X196607500Y-113607491D01*
X196607500Y-113312509D01*
X196549952Y-113023195D01*
X196437067Y-112750668D01*
X196273184Y-112505399D01*
X196064601Y-112296816D01*
X195819332Y-112132933D01*
X195546805Y-112020048D01*
X195257491Y-111962500D01*
X194962509Y-111962500D01*
X194673195Y-112020048D01*
X194400668Y-112132933D01*
X194155399Y-112296816D01*
X193946816Y-112505399D01*
X193782933Y-112750668D01*
X193706914Y-112934192D01*
X193664643Y-112832140D01*
X193519583Y-112615043D01*
X193334957Y-112430417D01*
X193117860Y-112285357D01*
X192876634Y-112185438D01*
X192620550Y-112134500D01*
X192359450Y-112134500D01*
X192103366Y-112185438D01*
X191862140Y-112285357D01*
X191645043Y-112430417D01*
X191460417Y-112615043D01*
X191315357Y-112832140D01*
X191215438Y-113073366D01*
X191164500Y-113329450D01*
X145421919Y-113329450D01*
X145623411Y-113245990D01*
X145866632Y-113083475D01*
X146073475Y-112876632D01*
X146235990Y-112633411D01*
X146347932Y-112363158D01*
X146405000Y-112076260D01*
X146405000Y-111783740D01*
X146347932Y-111496842D01*
X146235990Y-111226589D01*
X146073475Y-110983368D01*
X145866632Y-110776525D01*
X145692240Y-110660000D01*
X145866632Y-110543475D01*
X145947067Y-110463040D01*
X148965000Y-110463040D01*
X148965000Y-110666918D01*
X149004774Y-110866877D01*
X149082795Y-111055235D01*
X149196063Y-111224753D01*
X149340226Y-111368916D01*
X149509744Y-111482184D01*
X149698102Y-111560205D01*
X149898061Y-111599979D01*
X150101939Y-111599979D01*
X150301898Y-111560205D01*
X150490256Y-111482184D01*
X150659774Y-111368916D01*
X150803937Y-111224753D01*
X150917205Y-111055235D01*
X150995226Y-110866877D01*
X151012892Y-110778061D01*
X163515000Y-110778061D01*
X163515000Y-110981939D01*
X163554774Y-111181898D01*
X163632795Y-111370256D01*
X163746063Y-111539774D01*
X163890226Y-111683937D01*
X164059744Y-111797205D01*
X164248102Y-111875226D01*
X164448061Y-111915000D01*
X164651939Y-111915000D01*
X164851898Y-111875226D01*
X165040256Y-111797205D01*
X165209774Y-111683937D01*
X165353937Y-111539774D01*
X165408537Y-111458059D01*
X168095000Y-111458059D01*
X168095000Y-111661937D01*
X168134774Y-111861896D01*
X168212795Y-112050254D01*
X168326063Y-112219772D01*
X168470226Y-112363935D01*
X168639744Y-112477203D01*
X168828102Y-112555224D01*
X169028061Y-112594998D01*
X169231939Y-112594998D01*
X169431898Y-112555224D01*
X169620256Y-112477203D01*
X169789774Y-112363935D01*
X169933937Y-112219772D01*
X170047205Y-112050254D01*
X170125226Y-111861896D01*
X170165000Y-111661937D01*
X170165000Y-111458059D01*
X170125226Y-111258100D01*
X170047205Y-111069742D01*
X169933937Y-110900224D01*
X169789774Y-110756061D01*
X169620256Y-110642793D01*
X169431898Y-110564772D01*
X169231939Y-110524998D01*
X169028061Y-110524998D01*
X168828102Y-110564772D01*
X168639744Y-110642793D01*
X168470226Y-110756061D01*
X168326063Y-110900224D01*
X168212795Y-111069742D01*
X168134774Y-111258100D01*
X168095000Y-111458059D01*
X165408537Y-111458059D01*
X165467205Y-111370256D01*
X165545226Y-111181898D01*
X165585000Y-110981939D01*
X165585000Y-110778061D01*
X165545226Y-110578102D01*
X165467205Y-110389744D01*
X165353937Y-110220226D01*
X165209774Y-110076063D01*
X165040256Y-109962795D01*
X164851898Y-109884774D01*
X164651939Y-109845000D01*
X164448061Y-109845000D01*
X164248102Y-109884774D01*
X164059744Y-109962795D01*
X163890226Y-110076063D01*
X163746063Y-110220226D01*
X163632795Y-110389744D01*
X163554774Y-110578102D01*
X163515000Y-110778061D01*
X151012892Y-110778061D01*
X151035000Y-110666918D01*
X151035000Y-110463040D01*
X150995226Y-110263081D01*
X150917205Y-110074723D01*
X150803937Y-109905205D01*
X150659774Y-109761042D01*
X150490256Y-109647774D01*
X150301898Y-109569753D01*
X150101939Y-109529979D01*
X149898061Y-109529979D01*
X149698102Y-109569753D01*
X149509744Y-109647774D01*
X149340226Y-109761042D01*
X149196063Y-109905205D01*
X149082795Y-110074723D01*
X149004774Y-110263081D01*
X148965000Y-110463040D01*
X145947067Y-110463040D01*
X146073475Y-110336632D01*
X146235990Y-110093411D01*
X146347932Y-109823158D01*
X146405000Y-109536260D01*
X146405000Y-109243740D01*
X146347932Y-108956842D01*
X146235990Y-108686589D01*
X146073475Y-108443368D01*
X145866632Y-108236525D01*
X145623411Y-108074010D01*
X145353158Y-107962068D01*
X145066260Y-107905000D01*
X144773740Y-107905000D01*
X144486842Y-107962068D01*
X144216589Y-108074010D01*
X143973368Y-108236525D01*
X143766525Y-108443368D01*
X143650000Y-108617760D01*
X143533475Y-108443368D01*
X143326632Y-108236525D01*
X143083411Y-108074010D01*
X142813158Y-107962068D01*
X142526260Y-107905000D01*
X142233740Y-107905000D01*
X141946842Y-107962068D01*
X141676589Y-108074010D01*
X141433368Y-108236525D01*
X141226525Y-108443368D01*
X141104805Y-108625534D01*
X141035178Y-108508645D01*
X140840269Y-108292412D01*
X140606920Y-108118359D01*
X140344099Y-107993175D01*
X140196890Y-107948524D01*
X139967000Y-108069845D01*
X139713000Y-108069845D01*
X139483110Y-107948524D01*
X139335901Y-107993175D01*
X139073080Y-108118359D01*
X138839731Y-108292412D01*
X138644822Y-108508645D01*
X138495843Y-108758748D01*
X138398519Y-109033109D01*
X137660000Y-109033109D01*
X137660000Y-105850000D01*
X138351928Y-105850000D01*
X138364188Y-105974482D01*
X138400498Y-106094180D01*
X138459463Y-106204494D01*
X138538815Y-106301185D01*
X138635506Y-106380537D01*
X138745820Y-106439502D01*
X138865518Y-106475812D01*
X138990000Y-106488072D01*
X139554250Y-106485000D01*
X139713000Y-106326250D01*
X139713000Y-105127000D01*
X138513750Y-105127000D01*
X138355000Y-105285750D01*
X138351928Y-105850000D01*
X137660000Y-105850000D01*
X137660000Y-104150000D01*
X138351928Y-104150000D01*
X138355000Y-104714250D01*
X138513750Y-104873000D01*
X139713000Y-104873000D01*
X139713000Y-103673750D01*
X139967000Y-103673750D01*
X139967000Y-104873000D01*
X139987000Y-104873000D01*
X139987000Y-105127000D01*
X139967000Y-105127000D01*
X139967000Y-106326250D01*
X140125750Y-106485000D01*
X140690000Y-106488072D01*
X140814482Y-106475812D01*
X140934180Y-106439502D01*
X141044494Y-106380537D01*
X141141185Y-106301185D01*
X141220537Y-106204494D01*
X141279502Y-106094180D01*
X141301513Y-106021620D01*
X141433368Y-106153475D01*
X141676589Y-106315990D01*
X141946842Y-106427932D01*
X142233740Y-106485000D01*
X142526260Y-106485000D01*
X142813158Y-106427932D01*
X143083411Y-106315990D01*
X143326632Y-106153475D01*
X143533475Y-105946632D01*
X143650000Y-105772240D01*
X143766525Y-105946632D01*
X143973368Y-106153475D01*
X144216589Y-106315990D01*
X144486842Y-106427932D01*
X144773740Y-106485000D01*
X145066260Y-106485000D01*
X145353158Y-106427932D01*
X145623411Y-106315990D01*
X145866632Y-106153475D01*
X146073475Y-105946632D01*
X146190000Y-105772240D01*
X146306525Y-105946632D01*
X146513368Y-106153475D01*
X146756589Y-106315990D01*
X147026842Y-106427932D01*
X147313740Y-106485000D01*
X147606260Y-106485000D01*
X147893158Y-106427932D01*
X148163411Y-106315990D01*
X148406632Y-106153475D01*
X148613475Y-105946632D01*
X148730000Y-105772240D01*
X148846525Y-105946632D01*
X149053368Y-106153475D01*
X149085582Y-106175000D01*
X149058061Y-106175000D01*
X148858102Y-106214774D01*
X148669744Y-106292795D01*
X148500226Y-106406063D01*
X148356063Y-106550226D01*
X148242795Y-106719744D01*
X148164774Y-106908102D01*
X148125000Y-107108061D01*
X148125000Y-107311939D01*
X148164774Y-107511898D01*
X148242795Y-107700256D01*
X148356063Y-107869774D01*
X148500226Y-108013937D01*
X148669744Y-108127205D01*
X148858102Y-108205226D01*
X149058061Y-108245000D01*
X149261939Y-108245000D01*
X149461898Y-108205226D01*
X149650256Y-108127205D01*
X149819774Y-108013937D01*
X149963937Y-107869774D01*
X150031899Y-107768061D01*
X153645000Y-107768061D01*
X153645000Y-107971939D01*
X153684774Y-108171898D01*
X153762795Y-108360256D01*
X153876063Y-108529774D01*
X154020226Y-108673937D01*
X154189744Y-108787205D01*
X154378102Y-108865226D01*
X154578061Y-108905000D01*
X154781939Y-108905000D01*
X154981898Y-108865226D01*
X155170256Y-108787205D01*
X155339774Y-108673937D01*
X155483937Y-108529774D01*
X155597205Y-108360256D01*
X155675226Y-108171898D01*
X155715000Y-107971939D01*
X155715000Y-107768061D01*
X155675226Y-107568102D01*
X155597205Y-107379744D01*
X155510514Y-107250000D01*
X191848299Y-107250000D01*
X191875040Y-107521507D01*
X191954236Y-107782581D01*
X192082843Y-108023188D01*
X192255919Y-108234081D01*
X192466812Y-108407157D01*
X192707419Y-108535764D01*
X192968493Y-108614960D01*
X193171963Y-108635000D01*
X194908037Y-108635000D01*
X195111507Y-108614960D01*
X195372581Y-108535764D01*
X195613188Y-108407157D01*
X195824081Y-108234081D01*
X195997157Y-108023188D01*
X196125764Y-107782581D01*
X196204960Y-107521507D01*
X196231701Y-107250000D01*
X198208299Y-107250000D01*
X198235040Y-107521507D01*
X198314236Y-107782581D01*
X198442843Y-108023188D01*
X198615919Y-108234081D01*
X198826812Y-108407157D01*
X199067419Y-108535764D01*
X199328493Y-108614960D01*
X199531963Y-108635000D01*
X200468037Y-108635000D01*
X200671507Y-108614960D01*
X200932581Y-108535764D01*
X201173188Y-108407157D01*
X201384081Y-108234081D01*
X201557157Y-108023188D01*
X201685764Y-107782581D01*
X201764960Y-107521507D01*
X201791701Y-107250000D01*
X201764960Y-106978493D01*
X201685764Y-106717419D01*
X201557157Y-106476812D01*
X201384081Y-106265919D01*
X201173188Y-106092843D01*
X200932581Y-105964236D01*
X200671507Y-105885040D01*
X200468037Y-105865000D01*
X199531963Y-105865000D01*
X199328493Y-105885040D01*
X199067419Y-105964236D01*
X198826812Y-106092843D01*
X198615919Y-106265919D01*
X198442843Y-106476812D01*
X198314236Y-106717419D01*
X198235040Y-106978493D01*
X198208299Y-107250000D01*
X196231701Y-107250000D01*
X196204960Y-106978493D01*
X196125764Y-106717419D01*
X195997157Y-106476812D01*
X195824081Y-106265919D01*
X195613188Y-106092843D01*
X195372581Y-105964236D01*
X195111507Y-105885040D01*
X194908037Y-105865000D01*
X193171963Y-105865000D01*
X192968493Y-105885040D01*
X192707419Y-105964236D01*
X192466812Y-106092843D01*
X192255919Y-106265919D01*
X192082843Y-106476812D01*
X191954236Y-106717419D01*
X191875040Y-106978493D01*
X191848299Y-107250000D01*
X155510514Y-107250000D01*
X155483937Y-107210226D01*
X155339774Y-107066063D01*
X155170256Y-106952795D01*
X154981898Y-106874774D01*
X154781939Y-106835000D01*
X154578061Y-106835000D01*
X154378102Y-106874774D01*
X154189744Y-106952795D01*
X154020226Y-107066063D01*
X153876063Y-107210226D01*
X153762795Y-107379744D01*
X153684774Y-107568102D01*
X153645000Y-107768061D01*
X150031899Y-107768061D01*
X150077205Y-107700256D01*
X150155226Y-107511898D01*
X150195000Y-107311939D01*
X150195000Y-107108061D01*
X150155226Y-106908102D01*
X150077205Y-106719744D01*
X149963937Y-106550226D01*
X149898711Y-106485000D01*
X150146260Y-106485000D01*
X150433158Y-106427932D01*
X150703411Y-106315990D01*
X150946632Y-106153475D01*
X151153475Y-105946632D01*
X151270000Y-105772240D01*
X151386525Y-105946632D01*
X151593368Y-106153475D01*
X151836589Y-106315990D01*
X152106842Y-106427932D01*
X152393740Y-106485000D01*
X152686260Y-106485000D01*
X152973158Y-106427932D01*
X153243411Y-106315990D01*
X153486632Y-106153475D01*
X153693475Y-105946632D01*
X153810000Y-105772240D01*
X153926525Y-105946632D01*
X154133368Y-106153475D01*
X154376589Y-106315990D01*
X154646842Y-106427932D01*
X154933740Y-106485000D01*
X155226260Y-106485000D01*
X155513158Y-106427932D01*
X155783411Y-106315990D01*
X156026632Y-106153475D01*
X156233475Y-105946632D01*
X156350000Y-105772240D01*
X156466525Y-105946632D01*
X156673368Y-106153475D01*
X156916589Y-106315990D01*
X157186842Y-106427932D01*
X157473740Y-106485000D01*
X157766260Y-106485000D01*
X158053158Y-106427932D01*
X158323411Y-106315990D01*
X158566632Y-106153475D01*
X158773475Y-105946632D01*
X158890000Y-105772240D01*
X159006525Y-105946632D01*
X159213368Y-106153475D01*
X159456589Y-106315990D01*
X159726842Y-106427932D01*
X160013740Y-106485000D01*
X160306260Y-106485000D01*
X160593158Y-106427932D01*
X160863411Y-106315990D01*
X161106632Y-106153475D01*
X161313475Y-105946632D01*
X161430000Y-105772240D01*
X161546525Y-105946632D01*
X161753368Y-106153475D01*
X161996589Y-106315990D01*
X162266842Y-106427932D01*
X162553740Y-106485000D01*
X162846260Y-106485000D01*
X163133158Y-106427932D01*
X163403411Y-106315990D01*
X163646632Y-106153475D01*
X163853475Y-105946632D01*
X164015990Y-105703411D01*
X164127932Y-105433158D01*
X164185000Y-105146260D01*
X164185000Y-104853740D01*
X164127932Y-104566842D01*
X164015990Y-104296589D01*
X163853475Y-104053368D01*
X163646632Y-103846525D01*
X163403411Y-103684010D01*
X163133158Y-103572068D01*
X162846260Y-103515000D01*
X162553740Y-103515000D01*
X162266842Y-103572068D01*
X161996589Y-103684010D01*
X161753368Y-103846525D01*
X161546525Y-104053368D01*
X161430000Y-104227760D01*
X161313475Y-104053368D01*
X161106632Y-103846525D01*
X160863411Y-103684010D01*
X160593158Y-103572068D01*
X160306260Y-103515000D01*
X160013740Y-103515000D01*
X159726842Y-103572068D01*
X159456589Y-103684010D01*
X159213368Y-103846525D01*
X159006525Y-104053368D01*
X158890000Y-104227760D01*
X158773475Y-104053368D01*
X158566632Y-103846525D01*
X158323411Y-103684010D01*
X158053158Y-103572068D01*
X157766260Y-103515000D01*
X157473740Y-103515000D01*
X157186842Y-103572068D01*
X156916589Y-103684010D01*
X156673368Y-103846525D01*
X156466525Y-104053368D01*
X156350000Y-104227760D01*
X156233475Y-104053368D01*
X156026632Y-103846525D01*
X155783411Y-103684010D01*
X155513158Y-103572068D01*
X155226260Y-103515000D01*
X154933740Y-103515000D01*
X154646842Y-103572068D01*
X154376589Y-103684010D01*
X154133368Y-103846525D01*
X153926525Y-104053368D01*
X153810000Y-104227760D01*
X153693475Y-104053368D01*
X153486632Y-103846525D01*
X153243411Y-103684010D01*
X152973158Y-103572068D01*
X152686260Y-103515000D01*
X152393740Y-103515000D01*
X152106842Y-103572068D01*
X151836589Y-103684010D01*
X151593368Y-103846525D01*
X151386525Y-104053368D01*
X151270000Y-104227760D01*
X151153475Y-104053368D01*
X150946632Y-103846525D01*
X150703411Y-103684010D01*
X150433158Y-103572068D01*
X150146260Y-103515000D01*
X149853740Y-103515000D01*
X149566842Y-103572068D01*
X149296589Y-103684010D01*
X149053368Y-103846525D01*
X148846525Y-104053368D01*
X148730000Y-104227760D01*
X148613475Y-104053368D01*
X148406632Y-103846525D01*
X148163411Y-103684010D01*
X147893158Y-103572068D01*
X147606260Y-103515000D01*
X147313740Y-103515000D01*
X147026842Y-103572068D01*
X146756589Y-103684010D01*
X146513368Y-103846525D01*
X146306525Y-104053368D01*
X146190000Y-104227760D01*
X146073475Y-104053368D01*
X145866632Y-103846525D01*
X145623411Y-103684010D01*
X145353158Y-103572068D01*
X145066260Y-103515000D01*
X144773740Y-103515000D01*
X144486842Y-103572068D01*
X144216589Y-103684010D01*
X143973368Y-103846525D01*
X143766525Y-104053368D01*
X143650000Y-104227760D01*
X143533475Y-104053368D01*
X143326632Y-103846525D01*
X143083411Y-103684010D01*
X142813158Y-103572068D01*
X142526260Y-103515000D01*
X142233740Y-103515000D01*
X141946842Y-103572068D01*
X141676589Y-103684010D01*
X141433368Y-103846525D01*
X141301513Y-103978380D01*
X141279502Y-103905820D01*
X141220537Y-103795506D01*
X141141185Y-103698815D01*
X141044494Y-103619463D01*
X140934180Y-103560498D01*
X140814482Y-103524188D01*
X140690000Y-103511928D01*
X140125750Y-103515000D01*
X139967000Y-103673750D01*
X139713000Y-103673750D01*
X139554250Y-103515000D01*
X138990000Y-103511928D01*
X138865518Y-103524188D01*
X138745820Y-103560498D01*
X138635506Y-103619463D01*
X138538815Y-103698815D01*
X138459463Y-103795506D01*
X138400498Y-103905820D01*
X138364188Y-104025518D01*
X138351928Y-104150000D01*
X137660000Y-104150000D01*
X137660000Y-102448061D01*
X171615000Y-102448061D01*
X171615000Y-102651939D01*
X171654774Y-102851898D01*
X171732795Y-103040256D01*
X171846063Y-103209774D01*
X171990226Y-103353937D01*
X172159744Y-103467205D01*
X172348102Y-103545226D01*
X172548061Y-103585000D01*
X172751939Y-103585000D01*
X172951898Y-103545226D01*
X173140256Y-103467205D01*
X173309774Y-103353937D01*
X173453937Y-103209774D01*
X173567205Y-103040256D01*
X173645226Y-102851898D01*
X173685000Y-102651939D01*
X173685000Y-102448061D01*
X173645226Y-102248102D01*
X173567205Y-102059744D01*
X173453937Y-101890226D01*
X173309774Y-101746063D01*
X173140256Y-101632795D01*
X172951898Y-101554774D01*
X172751939Y-101515000D01*
X172548061Y-101515000D01*
X172348102Y-101554774D01*
X172159744Y-101632795D01*
X171990226Y-101746063D01*
X171846063Y-101890226D01*
X171732795Y-102059744D01*
X171654774Y-102248102D01*
X171615000Y-102448061D01*
X137660000Y-102448061D01*
X137660000Y-95850000D01*
X138351928Y-95850000D01*
X138364188Y-95974482D01*
X138400498Y-96094180D01*
X138459463Y-96204494D01*
X138538815Y-96301185D01*
X138635506Y-96380537D01*
X138745820Y-96439502D01*
X138865518Y-96475812D01*
X138990000Y-96488072D01*
X139554250Y-96485000D01*
X139713000Y-96326250D01*
X139713000Y-95127000D01*
X138513750Y-95127000D01*
X138355000Y-95285750D01*
X138351928Y-95850000D01*
X137660000Y-95850000D01*
X137660000Y-94150000D01*
X138351928Y-94150000D01*
X138355000Y-94714250D01*
X138513750Y-94873000D01*
X139713000Y-94873000D01*
X139713000Y-93673750D01*
X139967000Y-93673750D01*
X139967000Y-94873000D01*
X139987000Y-94873000D01*
X139987000Y-95127000D01*
X139967000Y-95127000D01*
X139967000Y-96326250D01*
X140125750Y-96485000D01*
X140690000Y-96488072D01*
X140814482Y-96475812D01*
X140934180Y-96439502D01*
X141044494Y-96380537D01*
X141141185Y-96301185D01*
X141220537Y-96204494D01*
X141279502Y-96094180D01*
X141301513Y-96021620D01*
X141433368Y-96153475D01*
X141676589Y-96315990D01*
X141946842Y-96427932D01*
X142233740Y-96485000D01*
X142526260Y-96485000D01*
X142813158Y-96427932D01*
X143083411Y-96315990D01*
X143326632Y-96153475D01*
X143533475Y-95946632D01*
X143650000Y-95772240D01*
X143766525Y-95946632D01*
X143973368Y-96153475D01*
X144216589Y-96315990D01*
X144486842Y-96427932D01*
X144773740Y-96485000D01*
X145066260Y-96485000D01*
X145353158Y-96427932D01*
X145623411Y-96315990D01*
X145866632Y-96153475D01*
X146073475Y-95946632D01*
X146190000Y-95772240D01*
X146306525Y-95946632D01*
X146513368Y-96153475D01*
X146756589Y-96315990D01*
X147026842Y-96427932D01*
X147313740Y-96485000D01*
X147606260Y-96485000D01*
X147893158Y-96427932D01*
X148163411Y-96315990D01*
X148406632Y-96153475D01*
X148613475Y-95946632D01*
X148730000Y-95772240D01*
X148846525Y-95946632D01*
X149053368Y-96153475D01*
X149296589Y-96315990D01*
X149566842Y-96427932D01*
X149853740Y-96485000D01*
X150146260Y-96485000D01*
X150433158Y-96427932D01*
X150703411Y-96315990D01*
X150946632Y-96153475D01*
X151153475Y-95946632D01*
X151270000Y-95772240D01*
X151386525Y-95946632D01*
X151593368Y-96153475D01*
X151836589Y-96315990D01*
X152106842Y-96427932D01*
X152393740Y-96485000D01*
X152686260Y-96485000D01*
X152973158Y-96427932D01*
X153243411Y-96315990D01*
X153486632Y-96153475D01*
X153693475Y-95946632D01*
X153810000Y-95772240D01*
X153926525Y-95946632D01*
X154133368Y-96153475D01*
X154376589Y-96315990D01*
X154646842Y-96427932D01*
X154933740Y-96485000D01*
X155226260Y-96485000D01*
X155513158Y-96427932D01*
X155783411Y-96315990D01*
X156026632Y-96153475D01*
X156233475Y-95946632D01*
X156350000Y-95772240D01*
X156466525Y-95946632D01*
X156673368Y-96153475D01*
X156916589Y-96315990D01*
X157186842Y-96427932D01*
X157473740Y-96485000D01*
X157766260Y-96485000D01*
X158053158Y-96427932D01*
X158323411Y-96315990D01*
X158566632Y-96153475D01*
X158773475Y-95946632D01*
X158890000Y-95772240D01*
X159006525Y-95946632D01*
X159213368Y-96153475D01*
X159456589Y-96315990D01*
X159726842Y-96427932D01*
X160013740Y-96485000D01*
X160306260Y-96485000D01*
X160593158Y-96427932D01*
X160863411Y-96315990D01*
X161106632Y-96153475D01*
X161313475Y-95946632D01*
X161430000Y-95772240D01*
X161546525Y-95946632D01*
X161753368Y-96153475D01*
X161996589Y-96315990D01*
X162266842Y-96427932D01*
X162553740Y-96485000D01*
X162846260Y-96485000D01*
X163133158Y-96427932D01*
X163403411Y-96315990D01*
X163646632Y-96153475D01*
X163853475Y-95946632D01*
X164015990Y-95703411D01*
X164127932Y-95433158D01*
X164185000Y-95146260D01*
X164185000Y-94853740D01*
X164127932Y-94566842D01*
X164087014Y-94468055D01*
X178965000Y-94468055D01*
X178965000Y-94671933D01*
X179004774Y-94871892D01*
X179082795Y-95060250D01*
X179196063Y-95229768D01*
X179340226Y-95373931D01*
X179509744Y-95487199D01*
X179698102Y-95565220D01*
X179898061Y-95604994D01*
X180101939Y-95604994D01*
X180301898Y-95565220D01*
X180490256Y-95487199D01*
X180659774Y-95373931D01*
X180803937Y-95229768D01*
X180917205Y-95060250D01*
X180995226Y-94871892D01*
X181035000Y-94671933D01*
X181035000Y-94468055D01*
X180995226Y-94268096D01*
X180917205Y-94079738D01*
X180803937Y-93910220D01*
X180659774Y-93766057D01*
X180490256Y-93652789D01*
X180301898Y-93574768D01*
X180101939Y-93534994D01*
X179898061Y-93534994D01*
X179698102Y-93574768D01*
X179509744Y-93652789D01*
X179340226Y-93766057D01*
X179196063Y-93910220D01*
X179082795Y-94079738D01*
X179004774Y-94268096D01*
X178965000Y-94468055D01*
X164087014Y-94468055D01*
X164015990Y-94296589D01*
X163853475Y-94053368D01*
X163646632Y-93846525D01*
X163403411Y-93684010D01*
X163133158Y-93572068D01*
X162846260Y-93515000D01*
X162553740Y-93515000D01*
X162266842Y-93572068D01*
X161996589Y-93684010D01*
X161753368Y-93846525D01*
X161546525Y-94053368D01*
X161430000Y-94227760D01*
X161313475Y-94053368D01*
X161106632Y-93846525D01*
X160863411Y-93684010D01*
X160593158Y-93572068D01*
X160306260Y-93515000D01*
X160013740Y-93515000D01*
X159726842Y-93572068D01*
X159456589Y-93684010D01*
X159213368Y-93846525D01*
X159006525Y-94053368D01*
X158890000Y-94227760D01*
X158773475Y-94053368D01*
X158566632Y-93846525D01*
X158323411Y-93684010D01*
X158053158Y-93572068D01*
X157766260Y-93515000D01*
X157473740Y-93515000D01*
X157186842Y-93572068D01*
X156916589Y-93684010D01*
X156673368Y-93846525D01*
X156466525Y-94053368D01*
X156350000Y-94227760D01*
X156233475Y-94053368D01*
X156026632Y-93846525D01*
X155783411Y-93684010D01*
X155513158Y-93572068D01*
X155226260Y-93515000D01*
X154933740Y-93515000D01*
X154646842Y-93572068D01*
X154376589Y-93684010D01*
X154133368Y-93846525D01*
X153926525Y-94053368D01*
X153810000Y-94227760D01*
X153693475Y-94053368D01*
X153486632Y-93846525D01*
X153243411Y-93684010D01*
X152973158Y-93572068D01*
X152686260Y-93515000D01*
X152393740Y-93515000D01*
X152106842Y-93572068D01*
X151836589Y-93684010D01*
X151593368Y-93846525D01*
X151386525Y-94053368D01*
X151270000Y-94227760D01*
X151153475Y-94053368D01*
X150946632Y-93846525D01*
X150703411Y-93684010D01*
X150433158Y-93572068D01*
X150146260Y-93515000D01*
X149853740Y-93515000D01*
X149566842Y-93572068D01*
X149296589Y-93684010D01*
X149053368Y-93846525D01*
X148846525Y-94053368D01*
X148730000Y-94227760D01*
X148613475Y-94053368D01*
X148406632Y-93846525D01*
X148163411Y-93684010D01*
X147893158Y-93572068D01*
X147606260Y-93515000D01*
X147313740Y-93515000D01*
X147026842Y-93572068D01*
X146756589Y-93684010D01*
X146513368Y-93846525D01*
X146306525Y-94053368D01*
X146190000Y-94227760D01*
X146073475Y-94053368D01*
X145866632Y-93846525D01*
X145623411Y-93684010D01*
X145353158Y-93572068D01*
X145066260Y-93515000D01*
X144773740Y-93515000D01*
X144486842Y-93572068D01*
X144216589Y-93684010D01*
X143973368Y-93846525D01*
X143766525Y-94053368D01*
X143650000Y-94227760D01*
X143533475Y-94053368D01*
X143326632Y-93846525D01*
X143083411Y-93684010D01*
X142813158Y-93572068D01*
X142526260Y-93515000D01*
X142233740Y-93515000D01*
X141946842Y-93572068D01*
X141676589Y-93684010D01*
X141433368Y-93846525D01*
X141301513Y-93978380D01*
X141279502Y-93905820D01*
X141220537Y-93795506D01*
X141141185Y-93698815D01*
X141044494Y-93619463D01*
X140934180Y-93560498D01*
X140814482Y-93524188D01*
X140690000Y-93511928D01*
X140125750Y-93515000D01*
X139967000Y-93673750D01*
X139713000Y-93673750D01*
X139554250Y-93515000D01*
X138990000Y-93511928D01*
X138865518Y-93524188D01*
X138745820Y-93560498D01*
X138635506Y-93619463D01*
X138538815Y-93698815D01*
X138459463Y-93795506D01*
X138400498Y-93905820D01*
X138364188Y-94025518D01*
X138351928Y-94150000D01*
X137660000Y-94150000D01*
X137660000Y-92750000D01*
X191848299Y-92750000D01*
X191875040Y-93021507D01*
X191954236Y-93282581D01*
X192082843Y-93523188D01*
X192255919Y-93734081D01*
X192466812Y-93907157D01*
X192707419Y-94035764D01*
X192968493Y-94114960D01*
X193171963Y-94135000D01*
X194908037Y-94135000D01*
X195111507Y-94114960D01*
X195372581Y-94035764D01*
X195613188Y-93907157D01*
X195824081Y-93734081D01*
X195997157Y-93523188D01*
X196125764Y-93282581D01*
X196204960Y-93021507D01*
X196231701Y-92750000D01*
X198208299Y-92750000D01*
X198235040Y-93021507D01*
X198314236Y-93282581D01*
X198442843Y-93523188D01*
X198615919Y-93734081D01*
X198826812Y-93907157D01*
X199067419Y-94035764D01*
X199328493Y-94114960D01*
X199531963Y-94135000D01*
X200468037Y-94135000D01*
X200671507Y-94114960D01*
X200932581Y-94035764D01*
X201173188Y-93907157D01*
X201384081Y-93734081D01*
X201557157Y-93523188D01*
X201685764Y-93282581D01*
X201764960Y-93021507D01*
X201791701Y-92750000D01*
X201764960Y-92478493D01*
X201685764Y-92217419D01*
X201557157Y-91976812D01*
X201384081Y-91765919D01*
X201173188Y-91592843D01*
X200932581Y-91464236D01*
X200671507Y-91385040D01*
X200468037Y-91365000D01*
X199531963Y-91365000D01*
X199328493Y-91385040D01*
X199067419Y-91464236D01*
X198826812Y-91592843D01*
X198615919Y-91765919D01*
X198442843Y-91976812D01*
X198314236Y-92217419D01*
X198235040Y-92478493D01*
X198208299Y-92750000D01*
X196231701Y-92750000D01*
X196204960Y-92478493D01*
X196125764Y-92217419D01*
X195997157Y-91976812D01*
X195824081Y-91765919D01*
X195613188Y-91592843D01*
X195372581Y-91464236D01*
X195111507Y-91385040D01*
X194908037Y-91365000D01*
X193171963Y-91365000D01*
X192968493Y-91385040D01*
X192707419Y-91464236D01*
X192466812Y-91592843D01*
X192255919Y-91765919D01*
X192082843Y-91976812D01*
X191954236Y-92217419D01*
X191875040Y-92478493D01*
X191848299Y-92750000D01*
X137660000Y-92750000D01*
X137660000Y-90398061D01*
X178585000Y-90398061D01*
X178585000Y-90601939D01*
X178624774Y-90801898D01*
X178702795Y-90990256D01*
X178816063Y-91159774D01*
X178960226Y-91303937D01*
X179129744Y-91417205D01*
X179318102Y-91495226D01*
X179518061Y-91535000D01*
X179721939Y-91535000D01*
X179921898Y-91495226D01*
X180110256Y-91417205D01*
X180279774Y-91303937D01*
X180423937Y-91159774D01*
X180537205Y-90990256D01*
X180615226Y-90801898D01*
X180655000Y-90601939D01*
X180655000Y-90398061D01*
X180615226Y-90198102D01*
X180537205Y-90009744D01*
X180423937Y-89840226D01*
X180279774Y-89696063D01*
X180110256Y-89582795D01*
X179921898Y-89504774D01*
X179721939Y-89465000D01*
X179518061Y-89465000D01*
X179318102Y-89504774D01*
X179129744Y-89582795D01*
X178960226Y-89696063D01*
X178816063Y-89840226D01*
X178702795Y-90009744D01*
X178624774Y-90198102D01*
X178585000Y-90398061D01*
X137660000Y-90398061D01*
X137660000Y-79533740D01*
X138355000Y-79533740D01*
X138355000Y-79826260D01*
X138412068Y-80113158D01*
X138524010Y-80383411D01*
X138686525Y-80626632D01*
X138893368Y-80833475D01*
X139067760Y-80950000D01*
X138893368Y-81066525D01*
X138686525Y-81273368D01*
X138524010Y-81516589D01*
X138412068Y-81786842D01*
X138355000Y-82073740D01*
X138355000Y-82366260D01*
X138412068Y-82653158D01*
X138524010Y-82923411D01*
X138686525Y-83166632D01*
X138893368Y-83373475D01*
X139067760Y-83490000D01*
X138893368Y-83606525D01*
X138686525Y-83813368D01*
X138524010Y-84056589D01*
X138412068Y-84326842D01*
X138355000Y-84613740D01*
X138355000Y-84906260D01*
X138412068Y-85193158D01*
X138524010Y-85463411D01*
X138686525Y-85706632D01*
X138893368Y-85913475D01*
X139136589Y-86075990D01*
X139406842Y-86187932D01*
X139693740Y-86245000D01*
X139986260Y-86245000D01*
X140273158Y-86187932D01*
X140543411Y-86075990D01*
X140786632Y-85913475D01*
X140993475Y-85706632D01*
X141110000Y-85532240D01*
X141226525Y-85706632D01*
X141433368Y-85913475D01*
X141676589Y-86075990D01*
X141946842Y-86187932D01*
X142233740Y-86245000D01*
X142526260Y-86245000D01*
X142813158Y-86187932D01*
X143083411Y-86075990D01*
X143326632Y-85913475D01*
X143533475Y-85706632D01*
X143650000Y-85532240D01*
X143766525Y-85706632D01*
X143973368Y-85913475D01*
X144216589Y-86075990D01*
X144486842Y-86187932D01*
X144773740Y-86245000D01*
X145066260Y-86245000D01*
X145353158Y-86187932D01*
X145623411Y-86075990D01*
X145866632Y-85913475D01*
X146073475Y-85706632D01*
X146190000Y-85532240D01*
X146306525Y-85706632D01*
X146513368Y-85913475D01*
X146756589Y-86075990D01*
X147026842Y-86187932D01*
X147313740Y-86245000D01*
X147606260Y-86245000D01*
X147893158Y-86187932D01*
X148163411Y-86075990D01*
X148406632Y-85913475D01*
X148613475Y-85706632D01*
X148730000Y-85532240D01*
X148846525Y-85706632D01*
X149053368Y-85913475D01*
X149296589Y-86075990D01*
X149566842Y-86187932D01*
X149853740Y-86245000D01*
X150146260Y-86245000D01*
X150433158Y-86187932D01*
X150703411Y-86075990D01*
X150946632Y-85913475D01*
X151153475Y-85706632D01*
X151270000Y-85532240D01*
X151386525Y-85706632D01*
X151593368Y-85913475D01*
X151836589Y-86075990D01*
X152106842Y-86187932D01*
X152393740Y-86245000D01*
X152686260Y-86245000D01*
X152973158Y-86187932D01*
X153243411Y-86075990D01*
X153486632Y-85913475D01*
X153693475Y-85706632D01*
X153810000Y-85532240D01*
X153926525Y-85706632D01*
X154133368Y-85913475D01*
X154376589Y-86075990D01*
X154646842Y-86187932D01*
X154933740Y-86245000D01*
X155226260Y-86245000D01*
X155513158Y-86187932D01*
X155783411Y-86075990D01*
X156026632Y-85913475D01*
X156233475Y-85706632D01*
X156350000Y-85532240D01*
X156466525Y-85706632D01*
X156673368Y-85913475D01*
X156916589Y-86075990D01*
X157186842Y-86187932D01*
X157473740Y-86245000D01*
X157766260Y-86245000D01*
X158053158Y-86187932D01*
X158323411Y-86075990D01*
X158566632Y-85913475D01*
X158773475Y-85706632D01*
X158890000Y-85532240D01*
X159006525Y-85706632D01*
X159213368Y-85913475D01*
X159456589Y-86075990D01*
X159726842Y-86187932D01*
X160013740Y-86245000D01*
X160306260Y-86245000D01*
X160593158Y-86187932D01*
X160863411Y-86075990D01*
X161106632Y-85913475D01*
X161313475Y-85706632D01*
X161475990Y-85463411D01*
X161587932Y-85193158D01*
X161645000Y-84906260D01*
X161645000Y-84613740D01*
X161587932Y-84326842D01*
X161475990Y-84056589D01*
X161313475Y-83813368D01*
X161106632Y-83606525D01*
X160932240Y-83490000D01*
X161106632Y-83373475D01*
X161292071Y-83188036D01*
X161304774Y-83251898D01*
X161382795Y-83440256D01*
X161496063Y-83609774D01*
X161640226Y-83753937D01*
X161809744Y-83867205D01*
X161998102Y-83945226D01*
X162198061Y-83985000D01*
X162401939Y-83985000D01*
X162589503Y-83947691D01*
X162514774Y-84128102D01*
X162475000Y-84328061D01*
X162475000Y-84531939D01*
X162514774Y-84731898D01*
X162592795Y-84920256D01*
X162706063Y-85089774D01*
X162811289Y-85195000D01*
X162676063Y-85330226D01*
X162562795Y-85499744D01*
X162484774Y-85688102D01*
X162445000Y-85888061D01*
X162445000Y-86091939D01*
X162484774Y-86291898D01*
X162562795Y-86480256D01*
X162676063Y-86649774D01*
X162820226Y-86793937D01*
X162989744Y-86907205D01*
X163178102Y-86985226D01*
X163378061Y-87025000D01*
X163581939Y-87025000D01*
X163781898Y-86985226D01*
X163970256Y-86907205D01*
X164139774Y-86793937D01*
X164225650Y-86708061D01*
X186755000Y-86708061D01*
X186755000Y-86911939D01*
X186794774Y-87111898D01*
X186872795Y-87300256D01*
X186986063Y-87469774D01*
X187130226Y-87613937D01*
X187299744Y-87727205D01*
X187488102Y-87805226D01*
X187688061Y-87845000D01*
X187891939Y-87845000D01*
X188091898Y-87805226D01*
X188280256Y-87727205D01*
X188449774Y-87613937D01*
X188593937Y-87469774D01*
X188707205Y-87300256D01*
X188785226Y-87111898D01*
X188825000Y-86911939D01*
X188825000Y-86708061D01*
X188785226Y-86508102D01*
X188727789Y-86369437D01*
X191114375Y-86369437D01*
X191114375Y-86630563D01*
X191165318Y-86886671D01*
X191265246Y-87127919D01*
X191410320Y-87345037D01*
X191594963Y-87529680D01*
X191812081Y-87674754D01*
X192053329Y-87774682D01*
X192309437Y-87825625D01*
X192570563Y-87825625D01*
X192826671Y-87774682D01*
X193067919Y-87674754D01*
X193285037Y-87529680D01*
X193469680Y-87345037D01*
X193614754Y-87127919D01*
X193661982Y-87013900D01*
X193742933Y-87209332D01*
X193906816Y-87454601D01*
X194115399Y-87663184D01*
X194360668Y-87827067D01*
X194633195Y-87939952D01*
X194922509Y-87997500D01*
X195217491Y-87997500D01*
X195506805Y-87939952D01*
X195779332Y-87827067D01*
X196024601Y-87663184D01*
X196233184Y-87454601D01*
X196397067Y-87209332D01*
X196509952Y-86936805D01*
X196567500Y-86647491D01*
X196567500Y-86352509D01*
X196509952Y-86063195D01*
X196397067Y-85790668D01*
X196233184Y-85545399D01*
X196024601Y-85336816D01*
X195779332Y-85172933D01*
X195506805Y-85060048D01*
X195217491Y-85002500D01*
X194922509Y-85002500D01*
X194633195Y-85060048D01*
X194360668Y-85172933D01*
X194115399Y-85336816D01*
X193906816Y-85545399D01*
X193742933Y-85790668D01*
X193661982Y-85986100D01*
X193614754Y-85872081D01*
X193469680Y-85654963D01*
X193285037Y-85470320D01*
X193067919Y-85325246D01*
X192832793Y-85227854D01*
X193018092Y-85160058D01*
X193116641Y-85107382D01*
X193174963Y-84874568D01*
X192440000Y-84139605D01*
X191705037Y-84874568D01*
X191763359Y-85107382D01*
X192000204Y-85217342D01*
X192045828Y-85228425D01*
X191812081Y-85325246D01*
X191594963Y-85470320D01*
X191410320Y-85654963D01*
X191265246Y-85872081D01*
X191165318Y-86113329D01*
X191114375Y-86369437D01*
X188727789Y-86369437D01*
X188707205Y-86319744D01*
X188593937Y-86150226D01*
X188449774Y-86006063D01*
X188280256Y-85892795D01*
X188091898Y-85814774D01*
X187891939Y-85775000D01*
X187688061Y-85775000D01*
X187488102Y-85814774D01*
X187299744Y-85892795D01*
X187130226Y-86006063D01*
X186986063Y-86150226D01*
X186872795Y-86319744D01*
X186794774Y-86508102D01*
X186755000Y-86708061D01*
X164225650Y-86708061D01*
X164283937Y-86649774D01*
X164397205Y-86480256D01*
X164475226Y-86291898D01*
X164515000Y-86091939D01*
X164515000Y-85888061D01*
X164475226Y-85688102D01*
X164397205Y-85499744D01*
X164283937Y-85330226D01*
X164178711Y-85225000D01*
X164313937Y-85089774D01*
X164427205Y-84920256D01*
X164505226Y-84731898D01*
X164545000Y-84531939D01*
X164545000Y-84328061D01*
X164505226Y-84128102D01*
X164504770Y-84127000D01*
X170615000Y-84127000D01*
X170615000Y-84777000D01*
X170675996Y-85142305D01*
X170807088Y-85488691D01*
X171003237Y-85802847D01*
X171256906Y-86072699D01*
X171558347Y-86287878D01*
X171895975Y-86440114D01*
X172080355Y-86487695D01*
X172373000Y-86371572D01*
X172373000Y-84127000D01*
X172627000Y-84127000D01*
X172627000Y-86371572D01*
X172919645Y-86487695D01*
X173104025Y-86440114D01*
X173441653Y-86287878D01*
X173743094Y-86072699D01*
X173996763Y-85802847D01*
X174192912Y-85488691D01*
X174324004Y-85142305D01*
X174385000Y-84777000D01*
X174385000Y-84127000D01*
X172627000Y-84127000D01*
X172373000Y-84127000D01*
X170615000Y-84127000D01*
X164504770Y-84127000D01*
X164427205Y-83939744D01*
X164313937Y-83770226D01*
X164169774Y-83626063D01*
X164000256Y-83512795D01*
X163811898Y-83434774D01*
X163611939Y-83395000D01*
X163408061Y-83395000D01*
X163220497Y-83432309D01*
X163295226Y-83251898D01*
X163300974Y-83223000D01*
X170615000Y-83223000D01*
X170615000Y-83873000D01*
X172373000Y-83873000D01*
X172373000Y-81628428D01*
X172627000Y-81628428D01*
X172627000Y-83873000D01*
X174385000Y-83873000D01*
X174385000Y-83456586D01*
X174452795Y-83620256D01*
X174566063Y-83789774D01*
X174710226Y-83933937D01*
X174879744Y-84047205D01*
X175068102Y-84125226D01*
X175268061Y-84165000D01*
X175471939Y-84165000D01*
X175671898Y-84125226D01*
X175860256Y-84047205D01*
X176029774Y-83933937D01*
X176115000Y-83848711D01*
X176115000Y-84185656D01*
X176187439Y-84549834D01*
X176329534Y-84892882D01*
X176535825Y-85201618D01*
X176798382Y-85464175D01*
X177107118Y-85670466D01*
X177450166Y-85812561D01*
X177814344Y-85885000D01*
X178185656Y-85885000D01*
X178549834Y-85812561D01*
X178892882Y-85670466D01*
X179201618Y-85464175D01*
X179464175Y-85201618D01*
X179670466Y-84892882D01*
X179812561Y-84549834D01*
X179885000Y-84185656D01*
X179885000Y-84127000D01*
X181615000Y-84127000D01*
X181615000Y-84777000D01*
X181675996Y-85142305D01*
X181807088Y-85488691D01*
X182003237Y-85802847D01*
X182256906Y-86072699D01*
X182558347Y-86287878D01*
X182895975Y-86440114D01*
X183080355Y-86487695D01*
X183373000Y-86371572D01*
X183373000Y-84127000D01*
X183627000Y-84127000D01*
X183627000Y-86371572D01*
X183919645Y-86487695D01*
X184104025Y-86440114D01*
X184441653Y-86287878D01*
X184743094Y-86072699D01*
X184996763Y-85802847D01*
X185192912Y-85488691D01*
X185324004Y-85142305D01*
X185385000Y-84777000D01*
X185385000Y-84127000D01*
X183627000Y-84127000D01*
X183373000Y-84127000D01*
X181615000Y-84127000D01*
X179885000Y-84127000D01*
X179885000Y-84034845D01*
X191110064Y-84034845D01*
X191150220Y-84292865D01*
X191239942Y-84538092D01*
X191292618Y-84636641D01*
X191525432Y-84694963D01*
X192260395Y-83960000D01*
X192619605Y-83960000D01*
X193354568Y-84694963D01*
X193587382Y-84636641D01*
X193697342Y-84399796D01*
X193758983Y-84146050D01*
X193769936Y-83885155D01*
X193729780Y-83627135D01*
X193640058Y-83381908D01*
X193587382Y-83283359D01*
X193354568Y-83225037D01*
X192619605Y-83960000D01*
X192260395Y-83960000D01*
X191525432Y-83225037D01*
X191292618Y-83283359D01*
X191182658Y-83520204D01*
X191121017Y-83773950D01*
X191110064Y-84034845D01*
X179885000Y-84034845D01*
X179885000Y-83814344D01*
X179812561Y-83450166D01*
X179718466Y-83223000D01*
X181615000Y-83223000D01*
X181615000Y-83873000D01*
X183373000Y-83873000D01*
X183373000Y-81628428D01*
X183627000Y-81628428D01*
X183627000Y-83873000D01*
X185385000Y-83873000D01*
X185385000Y-83223000D01*
X185324004Y-82857695D01*
X185192912Y-82511309D01*
X184996763Y-82197153D01*
X184743094Y-81927301D01*
X184441653Y-81712122D01*
X184104025Y-81559886D01*
X183919645Y-81512305D01*
X183627000Y-81628428D01*
X183373000Y-81628428D01*
X183080355Y-81512305D01*
X182895975Y-81559886D01*
X182558347Y-81712122D01*
X182256906Y-81927301D01*
X182003237Y-82197153D01*
X181807088Y-82511309D01*
X181675996Y-82857695D01*
X181615000Y-83223000D01*
X179718466Y-83223000D01*
X179670466Y-83107118D01*
X179464175Y-82798382D01*
X179201618Y-82535825D01*
X178892882Y-82329534D01*
X178549834Y-82187439D01*
X178185656Y-82115000D01*
X177814344Y-82115000D01*
X177450166Y-82187439D01*
X177107118Y-82329534D01*
X176798382Y-82535825D01*
X176535825Y-82798382D01*
X176399806Y-83001949D01*
X176365226Y-82828102D01*
X176287205Y-82639744D01*
X176173937Y-82470226D01*
X176029774Y-82326063D01*
X175860256Y-82212795D01*
X175671898Y-82134774D01*
X175471939Y-82095000D01*
X175268061Y-82095000D01*
X175068102Y-82134774D01*
X174879744Y-82212795D01*
X174710226Y-82326063D01*
X174566063Y-82470226D01*
X174452795Y-82639744D01*
X174374774Y-82828102D01*
X174344487Y-82980367D01*
X174324004Y-82857695D01*
X174192912Y-82511309D01*
X173996763Y-82197153D01*
X173743094Y-81927301D01*
X173441653Y-81712122D01*
X173104025Y-81559886D01*
X172919645Y-81512305D01*
X172627000Y-81628428D01*
X172373000Y-81628428D01*
X172080355Y-81512305D01*
X171895975Y-81559886D01*
X171558347Y-81712122D01*
X171256906Y-81927301D01*
X171003237Y-82197153D01*
X170807088Y-82511309D01*
X170675996Y-82857695D01*
X170615000Y-83223000D01*
X163300974Y-83223000D01*
X163335000Y-83051939D01*
X163335000Y-82848061D01*
X163295226Y-82648102D01*
X163217205Y-82459744D01*
X163103937Y-82290226D01*
X162959774Y-82146063D01*
X162790256Y-82032795D01*
X162601898Y-81954774D01*
X162401939Y-81915000D01*
X162198061Y-81915000D01*
X161998102Y-81954774D01*
X161809744Y-82032795D01*
X161645000Y-82142873D01*
X161645000Y-82073740D01*
X161587932Y-81786842D01*
X161475990Y-81516589D01*
X161324212Y-81289437D01*
X191114375Y-81289437D01*
X191114375Y-81550563D01*
X191165318Y-81806671D01*
X191265246Y-82047919D01*
X191410320Y-82265037D01*
X191594963Y-82449680D01*
X191812081Y-82594754D01*
X192047207Y-82692146D01*
X191861908Y-82759942D01*
X191763359Y-82812618D01*
X191705037Y-83045432D01*
X192440000Y-83780395D01*
X193174963Y-83045432D01*
X193116641Y-82812618D01*
X192879796Y-82702658D01*
X192834172Y-82691575D01*
X193067919Y-82594754D01*
X193285037Y-82449680D01*
X193469680Y-82265037D01*
X193614754Y-82047919D01*
X193661982Y-81933900D01*
X193742933Y-82129332D01*
X193906816Y-82374601D01*
X194115399Y-82583184D01*
X194360668Y-82747067D01*
X194633195Y-82859952D01*
X194922509Y-82917500D01*
X195217491Y-82917500D01*
X195506805Y-82859952D01*
X195779332Y-82747067D01*
X196024601Y-82583184D01*
X196233184Y-82374601D01*
X196397067Y-82129332D01*
X196509952Y-81856805D01*
X196567500Y-81567491D01*
X196567500Y-81272509D01*
X196509952Y-80983195D01*
X196397067Y-80710668D01*
X196233184Y-80465399D01*
X196024601Y-80256816D01*
X195779332Y-80092933D01*
X195506805Y-79980048D01*
X195217491Y-79922500D01*
X194922509Y-79922500D01*
X194633195Y-79980048D01*
X194360668Y-80092933D01*
X194115399Y-80256816D01*
X193906816Y-80465399D01*
X193742933Y-80710668D01*
X193661982Y-80906100D01*
X193614754Y-80792081D01*
X193469680Y-80574963D01*
X193285037Y-80390320D01*
X193067919Y-80245246D01*
X192826671Y-80145318D01*
X192570563Y-80094375D01*
X192309437Y-80094375D01*
X192053329Y-80145318D01*
X191812081Y-80245246D01*
X191594963Y-80390320D01*
X191410320Y-80574963D01*
X191265246Y-80792081D01*
X191165318Y-81033329D01*
X191114375Y-81289437D01*
X161324212Y-81289437D01*
X161313475Y-81273368D01*
X161106632Y-81066525D01*
X160933271Y-80950689D01*
X161008792Y-80708397D01*
X160160000Y-79859605D01*
X159311208Y-80708397D01*
X159386729Y-80950689D01*
X159213368Y-81066525D01*
X159006525Y-81273368D01*
X158890000Y-81447760D01*
X158773475Y-81273368D01*
X158566632Y-81066525D01*
X158392240Y-80950000D01*
X158566632Y-80833475D01*
X158773475Y-80626632D01*
X158889311Y-80453271D01*
X159131603Y-80528792D01*
X159980395Y-79680000D01*
X160339605Y-79680000D01*
X161188397Y-80528792D01*
X161437472Y-80451157D01*
X161563371Y-80187117D01*
X161635339Y-79903589D01*
X161650611Y-79611469D01*
X161608599Y-79321981D01*
X161510919Y-79046253D01*
X161443246Y-78919645D01*
X175512305Y-78919645D01*
X175559886Y-79104025D01*
X175712122Y-79441653D01*
X175927301Y-79743094D01*
X176197153Y-79996763D01*
X176511309Y-80192912D01*
X176857695Y-80324004D01*
X177223000Y-80385000D01*
X177873000Y-80385000D01*
X177873000Y-78627000D01*
X178127000Y-78627000D01*
X178127000Y-80385000D01*
X178777000Y-80385000D01*
X179142305Y-80324004D01*
X179488691Y-80192912D01*
X179802847Y-79996763D01*
X180072699Y-79743094D01*
X180287878Y-79441653D01*
X180440114Y-79104025D01*
X180487695Y-78919645D01*
X180371572Y-78627000D01*
X178127000Y-78627000D01*
X177873000Y-78627000D01*
X175628428Y-78627000D01*
X175512305Y-78919645D01*
X161443246Y-78919645D01*
X161437472Y-78908843D01*
X161188397Y-78831208D01*
X160339605Y-79680000D01*
X159980395Y-79680000D01*
X159131603Y-78831208D01*
X158889311Y-78906729D01*
X158773475Y-78733368D01*
X158691710Y-78651603D01*
X159311208Y-78651603D01*
X160160000Y-79500395D01*
X161008792Y-78651603D01*
X160931157Y-78402528D01*
X160667117Y-78276629D01*
X160383589Y-78204661D01*
X160091469Y-78189389D01*
X159801981Y-78231401D01*
X159526253Y-78329081D01*
X159388843Y-78402528D01*
X159311208Y-78651603D01*
X158691710Y-78651603D01*
X158566632Y-78526525D01*
X158323411Y-78364010D01*
X158053158Y-78252068D01*
X157766260Y-78195000D01*
X157473740Y-78195000D01*
X157186842Y-78252068D01*
X156916589Y-78364010D01*
X156673368Y-78526525D01*
X156466525Y-78733368D01*
X156350000Y-78907760D01*
X156233475Y-78733368D01*
X156026632Y-78526525D01*
X155783411Y-78364010D01*
X155513158Y-78252068D01*
X155226260Y-78195000D01*
X154933740Y-78195000D01*
X154646842Y-78252068D01*
X154376589Y-78364010D01*
X154133368Y-78526525D01*
X153926525Y-78733368D01*
X153810000Y-78907760D01*
X153693475Y-78733368D01*
X153486632Y-78526525D01*
X153243411Y-78364010D01*
X152973158Y-78252068D01*
X152686260Y-78195000D01*
X152393740Y-78195000D01*
X152106842Y-78252068D01*
X151836589Y-78364010D01*
X151593368Y-78526525D01*
X151386525Y-78733368D01*
X151270000Y-78907760D01*
X151153475Y-78733368D01*
X150946632Y-78526525D01*
X150703411Y-78364010D01*
X150433158Y-78252068D01*
X150146260Y-78195000D01*
X149853740Y-78195000D01*
X149566842Y-78252068D01*
X149296589Y-78364010D01*
X149053368Y-78526525D01*
X148846525Y-78733368D01*
X148730000Y-78907760D01*
X148613475Y-78733368D01*
X148406632Y-78526525D01*
X148163411Y-78364010D01*
X147893158Y-78252068D01*
X147606260Y-78195000D01*
X147313740Y-78195000D01*
X147026842Y-78252068D01*
X146756589Y-78364010D01*
X146513368Y-78526525D01*
X146306525Y-78733368D01*
X146190000Y-78907760D01*
X146073475Y-78733368D01*
X145866632Y-78526525D01*
X145623411Y-78364010D01*
X145353158Y-78252068D01*
X145066260Y-78195000D01*
X144773740Y-78195000D01*
X144486842Y-78252068D01*
X144216589Y-78364010D01*
X143973368Y-78526525D01*
X143766525Y-78733368D01*
X143650000Y-78907760D01*
X143533475Y-78733368D01*
X143326632Y-78526525D01*
X143083411Y-78364010D01*
X142813158Y-78252068D01*
X142526260Y-78195000D01*
X142233740Y-78195000D01*
X141946842Y-78252068D01*
X141676589Y-78364010D01*
X141433368Y-78526525D01*
X141226525Y-78733368D01*
X141110000Y-78907760D01*
X140993475Y-78733368D01*
X140786632Y-78526525D01*
X140543411Y-78364010D01*
X140273158Y-78252068D01*
X139986260Y-78195000D01*
X139693740Y-78195000D01*
X139406842Y-78252068D01*
X139136589Y-78364010D01*
X138893368Y-78526525D01*
X138686525Y-78733368D01*
X138524010Y-78976589D01*
X138412068Y-79246842D01*
X138355000Y-79533740D01*
X137660000Y-79533740D01*
X137660000Y-78032279D01*
X137669580Y-77934576D01*
X137688580Y-77871644D01*
X137719445Y-77813595D01*
X137760989Y-77762657D01*
X137811644Y-77720752D01*
X137869471Y-77689485D01*
X137932272Y-77670044D01*
X138027835Y-77660000D01*
X175666287Y-77660000D01*
X175559886Y-77895975D01*
%TA.AperFunction,Conductor*%
D23*
G36*
X175559886Y-77895975D02*
G01*
X175512305Y-78080355D01*
X175628428Y-78373000D01*
X177873000Y-78373000D01*
X177873000Y-78353000D01*
X178127000Y-78353000D01*
X178127000Y-78373000D01*
X180371572Y-78373000D01*
X180487695Y-78080355D01*
X180440114Y-77895975D01*
X180333713Y-77660000D01*
X202967721Y-77660000D01*
X203065424Y-77669580D01*
X203128356Y-77688580D01*
X203186405Y-77719445D01*
X203237343Y-77760989D01*
X203279248Y-77811644D01*
X203310515Y-77869471D01*
X203329956Y-77932272D01*
X203340000Y-78027835D01*
X203340001Y-121967711D01*
X203330420Y-122065424D01*
X203311420Y-122128357D01*
X203280554Y-122186406D01*
X203239011Y-122237343D01*
X203188356Y-122279248D01*
X203130529Y-122310515D01*
X203067728Y-122329956D01*
X202972165Y-122340000D01*
X180333713Y-122340000D01*
X180440114Y-122104025D01*
X180487695Y-121919645D01*
X180371572Y-121627000D01*
X178127000Y-121627000D01*
X178127000Y-121647000D01*
X177873000Y-121647000D01*
X177873000Y-121627000D01*
X175628428Y-121627000D01*
X175512305Y-121919645D01*
X175559886Y-122104025D01*
X175666287Y-122340000D01*
X138032279Y-122340000D01*
X137934576Y-122330420D01*
X137871643Y-122311420D01*
X137813594Y-122280554D01*
X137762657Y-122239011D01*
X137720752Y-122188356D01*
X137689485Y-122130529D01*
X137670044Y-122067728D01*
X137660000Y-121972165D01*
X137660000Y-121348397D01*
X138991208Y-121348397D01*
X139068843Y-121597472D01*
X139332883Y-121723371D01*
X139616411Y-121795339D01*
X139908531Y-121810611D01*
X140198019Y-121768599D01*
X140473747Y-121670919D01*
X140611157Y-121597472D01*
X140688792Y-121348397D01*
X139840000Y-120499605D01*
X138991208Y-121348397D01*
X137660000Y-121348397D01*
X137660000Y-120388531D01*
X138349389Y-120388531D01*
X138391401Y-120678019D01*
X138489081Y-120953747D01*
X138562528Y-121091157D01*
X138811603Y-121168792D01*
X139660395Y-120320000D01*
X138811603Y-119471208D01*
X138562528Y-119548843D01*
X138436629Y-119812883D01*
X138364661Y-120096411D01*
X138349389Y-120388531D01*
X137660000Y-120388531D01*
X137660000Y-115093740D01*
X138355000Y-115093740D01*
X138355000Y-115386260D01*
X138412068Y-115673158D01*
X138524010Y-115943411D01*
X138686525Y-116186632D01*
X138893368Y-116393475D01*
X139067760Y-116510000D01*
X138893368Y-116626525D01*
X138686525Y-116833368D01*
X138524010Y-117076589D01*
X138412068Y-117346842D01*
X138355000Y-117633740D01*
X138355000Y-117926260D01*
X138412068Y-118213158D01*
X138524010Y-118483411D01*
X138686525Y-118726632D01*
X138893368Y-118933475D01*
X139066729Y-119049311D01*
X138991208Y-119291603D01*
X139840000Y-120140395D01*
X140688792Y-119291603D01*
X140613271Y-119049311D01*
X140786632Y-118933475D01*
X140993475Y-118726632D01*
X141110000Y-118552240D01*
X141226525Y-118726632D01*
X141433368Y-118933475D01*
X141607760Y-119050000D01*
X141433368Y-119166525D01*
X141226525Y-119373368D01*
X141110689Y-119546729D01*
X140868397Y-119471208D01*
X140019605Y-120320000D01*
X140868397Y-121168792D01*
X141110689Y-121093271D01*
X141226525Y-121266632D01*
X141433368Y-121473475D01*
X141676589Y-121635990D01*
X141946842Y-121747932D01*
X142233740Y-121805000D01*
X142526260Y-121805000D01*
X142813158Y-121747932D01*
X143083411Y-121635990D01*
X143326632Y-121473475D01*
X143451710Y-121348397D01*
X144071208Y-121348397D01*
X144148843Y-121597472D01*
X144412883Y-121723371D01*
X144696411Y-121795339D01*
X144988531Y-121810611D01*
X145278019Y-121768599D01*
X145553747Y-121670919D01*
X145691157Y-121597472D01*
X145768792Y-121348397D01*
X144920000Y-120499605D01*
X144071208Y-121348397D01*
X143451710Y-121348397D01*
X143533475Y-121266632D01*
X143649311Y-121093271D01*
X143891603Y-121168792D01*
X144740395Y-120320000D01*
X143891603Y-119471208D01*
X143649311Y-119546729D01*
X143533475Y-119373368D01*
X143326632Y-119166525D01*
X143152240Y-119050000D01*
X143326632Y-118933475D01*
X143533475Y-118726632D01*
X143650000Y-118552240D01*
X143766525Y-118726632D01*
X143973368Y-118933475D01*
X144146729Y-119049311D01*
X144071208Y-119291603D01*
X144920000Y-120140395D01*
X145768792Y-119291603D01*
X145693271Y-119049311D01*
X145866632Y-118933475D01*
X146073475Y-118726632D01*
X146190000Y-118552240D01*
X146306525Y-118726632D01*
X146513368Y-118933475D01*
X146687760Y-119050000D01*
X146513368Y-119166525D01*
X146306525Y-119373368D01*
X146190689Y-119546729D01*
X145948397Y-119471208D01*
X145099605Y-120320000D01*
X145948397Y-121168792D01*
X146190689Y-121093271D01*
X146306525Y-121266632D01*
X146513368Y-121473475D01*
X146756589Y-121635990D01*
X147026842Y-121747932D01*
X147313740Y-121805000D01*
X147606260Y-121805000D01*
X147893158Y-121747932D01*
X148163411Y-121635990D01*
X148406632Y-121473475D01*
X148613475Y-121266632D01*
X148730000Y-121092240D01*
X148846525Y-121266632D01*
X149053368Y-121473475D01*
X149296589Y-121635990D01*
X149566842Y-121747932D01*
X149853740Y-121805000D01*
X150146260Y-121805000D01*
X150433158Y-121747932D01*
X150703411Y-121635990D01*
X150946632Y-121473475D01*
X151153475Y-121266632D01*
X151270000Y-121092240D01*
X151386525Y-121266632D01*
X151593368Y-121473475D01*
X151836589Y-121635990D01*
X152106842Y-121747932D01*
X152393740Y-121805000D01*
X152686260Y-121805000D01*
X152973158Y-121747932D01*
X153243411Y-121635990D01*
X153486632Y-121473475D01*
X153693475Y-121266632D01*
X153810000Y-121092240D01*
X153926525Y-121266632D01*
X154133368Y-121473475D01*
X154376589Y-121635990D01*
X154646842Y-121747932D01*
X154933740Y-121805000D01*
X155226260Y-121805000D01*
X155513158Y-121747932D01*
X155783411Y-121635990D01*
X156026632Y-121473475D01*
X156233475Y-121266632D01*
X156350000Y-121092240D01*
X156466525Y-121266632D01*
X156673368Y-121473475D01*
X156916589Y-121635990D01*
X157186842Y-121747932D01*
X157473740Y-121805000D01*
X157766260Y-121805000D01*
X158053158Y-121747932D01*
X158323411Y-121635990D01*
X158566632Y-121473475D01*
X158773475Y-121266632D01*
X158890000Y-121092240D01*
X159006525Y-121266632D01*
X159213368Y-121473475D01*
X159456589Y-121635990D01*
X159726842Y-121747932D01*
X160013740Y-121805000D01*
X160306260Y-121805000D01*
X160593158Y-121747932D01*
X160863411Y-121635990D01*
X161106632Y-121473475D01*
X161313475Y-121266632D01*
X161475990Y-121023411D01*
X161587932Y-120753158D01*
X161596902Y-120708061D01*
X162635000Y-120708061D01*
X162635000Y-120911939D01*
X162674774Y-121111898D01*
X162752795Y-121300256D01*
X162866063Y-121469774D01*
X163010226Y-121613937D01*
X163179744Y-121727205D01*
X163368102Y-121805226D01*
X163568061Y-121845000D01*
X163771939Y-121845000D01*
X163971898Y-121805226D01*
X164160256Y-121727205D01*
X164329774Y-121613937D01*
X164473937Y-121469774D01*
X164587205Y-121300256D01*
X164665226Y-121111898D01*
X164671500Y-121080355D01*
X175512305Y-121080355D01*
X175628428Y-121373000D01*
X177873000Y-121373000D01*
X177873000Y-119615000D01*
X178127000Y-119615000D01*
X178127000Y-121373000D01*
X180371572Y-121373000D01*
X180487695Y-121080355D01*
X180440114Y-120895975D01*
X180287878Y-120558347D01*
X180072699Y-120256906D01*
X179802847Y-120003237D01*
X179488691Y-119807088D01*
X179142305Y-119675996D01*
X178777000Y-119615000D01*
X178127000Y-119615000D01*
X177873000Y-119615000D01*
X177223000Y-119615000D01*
X176857695Y-119675996D01*
X176511309Y-119807088D01*
X176197153Y-120003237D01*
X175927301Y-120256906D01*
X175712122Y-120558347D01*
X175559886Y-120895975D01*
X175512305Y-121080355D01*
X164671500Y-121080355D01*
X164705000Y-120911939D01*
X164705000Y-120708061D01*
X164665226Y-120508102D01*
X164587205Y-120319744D01*
X164473937Y-120150226D01*
X164329774Y-120006063D01*
X164160256Y-119892795D01*
X163971898Y-119814774D01*
X163771939Y-119775000D01*
X163568061Y-119775000D01*
X163368102Y-119814774D01*
X163179744Y-119892795D01*
X163010226Y-120006063D01*
X162866063Y-120150226D01*
X162752795Y-120319744D01*
X162674774Y-120508102D01*
X162635000Y-120708061D01*
X161596902Y-120708061D01*
X161645000Y-120466260D01*
X161645000Y-120173740D01*
X161587932Y-119886842D01*
X161475990Y-119616589D01*
X161313475Y-119373368D01*
X161106632Y-119166525D01*
X160932240Y-119050000D01*
X161106632Y-118933475D01*
X161313475Y-118726632D01*
X161475990Y-118483411D01*
X161587932Y-118213158D01*
X161645000Y-117926260D01*
X161645000Y-117633740D01*
X161587932Y-117346842D01*
X161578627Y-117324378D01*
X161739773Y-117432052D01*
X161928131Y-117510073D01*
X162128090Y-117549847D01*
X162331968Y-117549847D01*
X162531927Y-117510073D01*
X162720285Y-117432052D01*
X162889803Y-117318784D01*
X163033966Y-117174621D01*
X163147234Y-117005103D01*
X163225255Y-116816745D01*
X163265029Y-116616786D01*
X163265029Y-116412908D01*
X163225255Y-116212949D01*
X163189654Y-116127000D01*
X170615000Y-116127000D01*
X170615000Y-116777000D01*
X170675996Y-117142305D01*
X170807088Y-117488691D01*
X171003237Y-117802847D01*
X171256906Y-118072699D01*
X171558347Y-118287878D01*
X171895975Y-118440114D01*
X172080355Y-118487695D01*
X172373000Y-118371572D01*
X172373000Y-116127000D01*
X172627000Y-116127000D01*
X172627000Y-118371572D01*
X172919645Y-118487695D01*
X173104025Y-118440114D01*
X173441653Y-118287878D01*
X173743094Y-118072699D01*
X173996763Y-117802847D01*
X174192912Y-117488691D01*
X174324004Y-117142305D01*
X174385000Y-116777000D01*
X174385000Y-116127000D01*
X172627000Y-116127000D01*
X172373000Y-116127000D01*
X170615000Y-116127000D01*
X163189654Y-116127000D01*
X163147234Y-116024591D01*
X163033966Y-115855073D01*
X162889803Y-115710910D01*
X162720285Y-115597642D01*
X162531927Y-115519621D01*
X162331968Y-115479847D01*
X162128090Y-115479847D01*
X161928131Y-115519621D01*
X161739773Y-115597642D01*
X161573075Y-115709026D01*
X161587932Y-115673158D01*
X161645000Y-115386260D01*
X161645000Y-115223000D01*
X170615000Y-115223000D01*
X170615000Y-115873000D01*
X172373000Y-115873000D01*
X172373000Y-113628428D01*
X172627000Y-113628428D01*
X172627000Y-115873000D01*
X174385000Y-115873000D01*
X174385000Y-115814344D01*
X176115000Y-115814344D01*
X176115000Y-116185656D01*
X176187439Y-116549834D01*
X176329534Y-116892882D01*
X176535825Y-117201618D01*
X176798382Y-117464175D01*
X177107118Y-117670466D01*
X177450166Y-117812561D01*
X177814344Y-117885000D01*
X178185656Y-117885000D01*
X178549834Y-117812561D01*
X178892882Y-117670466D01*
X179201618Y-117464175D01*
X179464175Y-117201618D01*
X179670466Y-116892882D01*
X179812561Y-116549834D01*
X179885000Y-116185656D01*
X179885000Y-116127000D01*
X181615000Y-116127000D01*
X181615000Y-116777000D01*
X181675996Y-117142305D01*
X181807088Y-117488691D01*
X182003237Y-117802847D01*
X182256906Y-118072699D01*
X182558347Y-118287878D01*
X182895975Y-118440114D01*
X183080355Y-118487695D01*
X183373000Y-118371572D01*
X183373000Y-116127000D01*
X181615000Y-116127000D01*
X179885000Y-116127000D01*
X179885000Y-115814344D01*
X179812561Y-115450166D01*
X179718466Y-115223000D01*
X181615000Y-115223000D01*
X181615000Y-115873000D01*
X183373000Y-115873000D01*
X183373000Y-113628428D01*
X183627000Y-113628428D01*
X183627000Y-115873000D01*
X183647000Y-115873000D01*
X183647000Y-116127000D01*
X183627000Y-116127000D01*
X183627000Y-118371572D01*
X183919645Y-118487695D01*
X184104025Y-118440114D01*
X184172031Y-118409450D01*
X191164500Y-118409450D01*
X191164500Y-118670550D01*
X191215438Y-118926634D01*
X191315357Y-119167860D01*
X191460417Y-119384957D01*
X191645043Y-119569583D01*
X191862140Y-119714643D01*
X192103366Y-119814562D01*
X192359450Y-119865500D01*
X192620550Y-119865500D01*
X192876634Y-119814562D01*
X193117860Y-119714643D01*
X193334957Y-119569583D01*
X193519583Y-119384957D01*
X193664643Y-119167860D01*
X193706914Y-119065808D01*
X193782933Y-119249332D01*
X193946816Y-119494601D01*
X194155399Y-119703184D01*
X194400668Y-119867067D01*
X194673195Y-119979952D01*
X194962509Y-120037500D01*
X195257491Y-120037500D01*
X195546805Y-119979952D01*
X195819332Y-119867067D01*
X196064601Y-119703184D01*
X196273184Y-119494601D01*
X196437067Y-119249332D01*
X196549952Y-118976805D01*
X196607500Y-118687491D01*
X196607500Y-118392509D01*
X196549952Y-118103195D01*
X196437067Y-117830668D01*
X196273184Y-117585399D01*
X196064601Y-117376816D01*
X195819332Y-117212933D01*
X195546805Y-117100048D01*
X195257491Y-117042500D01*
X194962509Y-117042500D01*
X194673195Y-117100048D01*
X194400668Y-117212933D01*
X194155399Y-117376816D01*
X193946816Y-117585399D01*
X193782933Y-117830668D01*
X193706914Y-118014192D01*
X193664643Y-117912140D01*
X193519583Y-117695043D01*
X193334957Y-117510417D01*
X193117860Y-117365357D01*
X192882448Y-117267846D01*
X193068047Y-117199939D01*
X193166567Y-117147279D01*
X193224875Y-116914480D01*
X192490000Y-116179605D01*
X191755125Y-116914480D01*
X191813433Y-117147279D01*
X192050257Y-117257227D01*
X192096229Y-117268394D01*
X191862140Y-117365357D01*
X191645043Y-117510417D01*
X191460417Y-117695043D01*
X191315357Y-117912140D01*
X191215438Y-118153366D01*
X191164500Y-118409450D01*
X184172031Y-118409450D01*
X184441653Y-118287878D01*
X184743094Y-118072699D01*
X184996763Y-117802847D01*
X185192912Y-117488691D01*
X185324004Y-117142305D01*
X185385000Y-116777000D01*
X185385000Y-116343217D01*
X185396063Y-116359774D01*
X185540226Y-116503937D01*
X185709744Y-116617205D01*
X185898102Y-116695226D01*
X186098061Y-116735000D01*
X186301939Y-116735000D01*
X186501898Y-116695226D01*
X186690256Y-116617205D01*
X186859774Y-116503937D01*
X187003937Y-116359774D01*
X187117205Y-116190256D01*
X187165008Y-116074849D01*
X191160192Y-116074849D01*
X191200346Y-116332844D01*
X191290061Y-116578047D01*
X191342721Y-116676567D01*
X191575520Y-116734875D01*
X192310395Y-116000000D01*
X192669605Y-116000000D01*
X193404480Y-116734875D01*
X193637279Y-116676567D01*
X193747227Y-116439743D01*
X193808859Y-116186021D01*
X193819808Y-115925151D01*
X193779654Y-115667156D01*
X193689939Y-115421953D01*
X193637279Y-115323433D01*
X193404480Y-115265125D01*
X192669605Y-116000000D01*
X192310395Y-116000000D01*
X191575520Y-115265125D01*
X191342721Y-115323433D01*
X191232773Y-115560257D01*
X191171141Y-115813979D01*
X191160192Y-116074849D01*
X187165008Y-116074849D01*
X187195226Y-116001898D01*
X187235000Y-115801939D01*
X187235000Y-115598061D01*
X187195226Y-115398102D01*
X187117205Y-115209744D01*
X187003937Y-115040226D01*
X186859774Y-114896063D01*
X186690256Y-114782795D01*
X186501898Y-114704774D01*
X186301939Y-114665000D01*
X186098061Y-114665000D01*
X185898102Y-114704774D01*
X185709744Y-114782795D01*
X185540226Y-114896063D01*
X185396063Y-115040226D01*
X185362795Y-115090015D01*
X185324004Y-114857695D01*
X185192912Y-114511309D01*
X184996763Y-114197153D01*
X184743094Y-113927301D01*
X184441653Y-113712122D01*
X184104025Y-113559886D01*
X183919645Y-113512305D01*
X183627000Y-113628428D01*
X183373000Y-113628428D01*
X183080355Y-113512305D01*
X182895975Y-113559886D01*
X182558347Y-113712122D01*
X182256906Y-113927301D01*
X182003237Y-114197153D01*
X181807088Y-114511309D01*
X181675996Y-114857695D01*
X181615000Y-115223000D01*
X179718466Y-115223000D01*
X179670466Y-115107118D01*
X179464175Y-114798382D01*
X179201618Y-114535825D01*
X178892882Y-114329534D01*
X178549834Y-114187439D01*
X178185656Y-114115000D01*
X177814344Y-114115000D01*
X177450166Y-114187439D01*
X177107118Y-114329534D01*
X176798382Y-114535825D01*
X176535825Y-114798382D01*
X176329534Y-115107118D01*
X176187439Y-115450166D01*
X176115000Y-115814344D01*
X174385000Y-115814344D01*
X174385000Y-115223000D01*
X174324004Y-114857695D01*
X174192912Y-114511309D01*
X173996763Y-114197153D01*
X173743094Y-113927301D01*
X173441653Y-113712122D01*
X173104025Y-113559886D01*
X172919645Y-113512305D01*
X172627000Y-113628428D01*
X172373000Y-113628428D01*
X172080355Y-113512305D01*
X171895975Y-113559886D01*
X171558347Y-113712122D01*
X171256906Y-113927301D01*
X171003237Y-114197153D01*
X170807088Y-114511309D01*
X170675996Y-114857695D01*
X170615000Y-115223000D01*
X161645000Y-115223000D01*
X161645000Y-115093740D01*
X161587932Y-114806842D01*
X161475990Y-114536589D01*
X161313475Y-114293368D01*
X161106632Y-114086525D01*
X160863411Y-113924010D01*
X160593158Y-113812068D01*
X160306260Y-113755000D01*
X160013740Y-113755000D01*
X159726842Y-113812068D01*
X159456589Y-113924010D01*
X159213368Y-114086525D01*
X159006525Y-114293368D01*
X158890000Y-114467760D01*
X158773475Y-114293368D01*
X158566632Y-114086525D01*
X158323411Y-113924010D01*
X158053158Y-113812068D01*
X157766260Y-113755000D01*
X157473740Y-113755000D01*
X157186842Y-113812068D01*
X156916589Y-113924010D01*
X156673368Y-114086525D01*
X156466525Y-114293368D01*
X156350000Y-114467760D01*
X156233475Y-114293368D01*
X156026632Y-114086525D01*
X155783411Y-113924010D01*
X155513158Y-113812068D01*
X155226260Y-113755000D01*
X154933740Y-113755000D01*
X154646842Y-113812068D01*
X154376589Y-113924010D01*
X154133368Y-114086525D01*
X153926525Y-114293368D01*
X153810000Y-114467760D01*
X153693475Y-114293368D01*
X153486632Y-114086525D01*
X153243411Y-113924010D01*
X152973158Y-113812068D01*
X152686260Y-113755000D01*
X152393740Y-113755000D01*
X152106842Y-113812068D01*
X151836589Y-113924010D01*
X151593368Y-114086525D01*
X151386525Y-114293368D01*
X151270000Y-114467760D01*
X151153475Y-114293368D01*
X150946632Y-114086525D01*
X150703411Y-113924010D01*
X150433158Y-113812068D01*
X150146260Y-113755000D01*
X149853740Y-113755000D01*
X149566842Y-113812068D01*
X149296589Y-113924010D01*
X149053368Y-114086525D01*
X148846525Y-114293368D01*
X148730000Y-114467760D01*
X148613475Y-114293368D01*
X148406632Y-114086525D01*
X148163411Y-113924010D01*
X147893158Y-113812068D01*
X147606260Y-113755000D01*
X147313740Y-113755000D01*
X147026842Y-113812068D01*
X146756589Y-113924010D01*
X146513368Y-114086525D01*
X146306525Y-114293368D01*
X146190000Y-114467760D01*
X146073475Y-114293368D01*
X145866632Y-114086525D01*
X145623411Y-113924010D01*
X145353158Y-113812068D01*
X145066260Y-113755000D01*
X144773740Y-113755000D01*
X144486842Y-113812068D01*
X144216589Y-113924010D01*
X143973368Y-114086525D01*
X143766525Y-114293368D01*
X143650000Y-114467760D01*
X143533475Y-114293368D01*
X143326632Y-114086525D01*
X143083411Y-113924010D01*
X142813158Y-113812068D01*
X142526260Y-113755000D01*
X142233740Y-113755000D01*
X141946842Y-113812068D01*
X141676589Y-113924010D01*
X141433368Y-114086525D01*
X141226525Y-114293368D01*
X141110000Y-114467760D01*
X140993475Y-114293368D01*
X140786632Y-114086525D01*
X140543411Y-113924010D01*
X140273158Y-113812068D01*
X139986260Y-113755000D01*
X139693740Y-113755000D01*
X139406842Y-113812068D01*
X139136589Y-113924010D01*
X138893368Y-114086525D01*
X138686525Y-114293368D01*
X138524010Y-114536589D01*
X138412068Y-114806842D01*
X138355000Y-115093740D01*
X137660000Y-115093740D01*
X137660000Y-112780000D01*
X138351928Y-112780000D01*
X138364188Y-112904482D01*
X138400498Y-113024180D01*
X138459463Y-113134494D01*
X138538815Y-113231185D01*
X138635506Y-113310537D01*
X138745820Y-113369502D01*
X138865518Y-113405812D01*
X138990000Y-113418072D01*
X139554250Y-113415000D01*
X139713000Y-113256250D01*
X139713000Y-112057000D01*
X138513750Y-112057000D01*
X138355000Y-112215750D01*
X138351928Y-112780000D01*
X137660000Y-112780000D01*
X137660000Y-111080000D01*
X138351928Y-111080000D01*
X138355000Y-111644250D01*
X138513750Y-111803000D01*
X139713000Y-111803000D01*
X139713000Y-109517000D01*
X138519186Y-109517000D01*
X138398519Y-109746891D01*
X138495843Y-110021252D01*
X138644822Y-110271355D01*
X138821626Y-110467502D01*
X138745820Y-110490498D01*
X138635506Y-110549463D01*
X138538815Y-110628815D01*
X138459463Y-110725506D01*
X138400498Y-110835820D01*
X138364188Y-110955518D01*
X138351928Y-111080000D01*
X137660000Y-111080000D01*
X137660000Y-109033109D01*
X138398519Y-109033109D01*
X138519186Y-109263000D01*
X139713000Y-109263000D01*
X139713000Y-108069845D01*
X139967000Y-108069845D01*
X139967000Y-109263000D01*
X139987000Y-109263000D01*
X139987000Y-109517000D01*
X139967000Y-109517000D01*
X139967000Y-111803000D01*
X139987000Y-111803000D01*
X139987000Y-112057000D01*
X139967000Y-112057000D01*
X139967000Y-113256250D01*
X140125750Y-113415000D01*
X140690000Y-113418072D01*
X140814482Y-113405812D01*
X140934180Y-113369502D01*
X141044494Y-113310537D01*
X141141185Y-113231185D01*
X141220537Y-113134494D01*
X141279502Y-113024180D01*
X141301513Y-112951620D01*
X141433368Y-113083475D01*
X141676589Y-113245990D01*
X141946842Y-113357932D01*
X142233740Y-113415000D01*
X142526260Y-113415000D01*
X142813158Y-113357932D01*
X143083411Y-113245990D01*
X143326632Y-113083475D01*
X143533475Y-112876632D01*
X143650000Y-112702240D01*
X143766525Y-112876632D01*
X143973368Y-113083475D01*
X144216589Y-113245990D01*
X144486842Y-113357932D01*
X144773740Y-113415000D01*
X145066260Y-113415000D01*
X145353158Y-113357932D01*
X145421919Y-113329450D01*
X191164500Y-113329450D01*
X191164500Y-113590550D01*
X191215438Y-113846634D01*
X191315357Y-114087860D01*
X191460417Y-114304957D01*
X191645043Y-114489583D01*
X191862140Y-114634643D01*
X192097552Y-114732154D01*
X191911953Y-114800061D01*
X191813433Y-114852721D01*
X191755125Y-115085520D01*
X192490000Y-115820395D01*
X193224875Y-115085520D01*
X193166567Y-114852721D01*
X192929743Y-114742773D01*
X192883771Y-114731606D01*
X193117860Y-114634643D01*
X193334957Y-114489583D01*
X193519583Y-114304957D01*
X193664643Y-114087860D01*
X193706914Y-113985808D01*
X193782933Y-114169332D01*
X193946816Y-114414601D01*
X194155399Y-114623184D01*
X194400668Y-114787067D01*
X194673195Y-114899952D01*
X194962509Y-114957500D01*
X195257491Y-114957500D01*
X195546805Y-114899952D01*
X195819332Y-114787067D01*
X196064601Y-114623184D01*
X196273184Y-114414601D01*
X196437067Y-114169332D01*
X196549952Y-113896805D01*
X196607500Y-113607491D01*
X196607500Y-113312509D01*
X196549952Y-113023195D01*
X196437067Y-112750668D01*
X196273184Y-112505399D01*
X196064601Y-112296816D01*
X195819332Y-112132933D01*
X195546805Y-112020048D01*
X195257491Y-111962500D01*
X194962509Y-111962500D01*
X194673195Y-112020048D01*
X194400668Y-112132933D01*
X194155399Y-112296816D01*
X193946816Y-112505399D01*
X193782933Y-112750668D01*
X193706914Y-112934192D01*
X193664643Y-112832140D01*
X193519583Y-112615043D01*
X193334957Y-112430417D01*
X193117860Y-112285357D01*
X192876634Y-112185438D01*
X192620550Y-112134500D01*
X192359450Y-112134500D01*
X192103366Y-112185438D01*
X191862140Y-112285357D01*
X191645043Y-112430417D01*
X191460417Y-112615043D01*
X191315357Y-112832140D01*
X191215438Y-113073366D01*
X191164500Y-113329450D01*
X145421919Y-113329450D01*
X145623411Y-113245990D01*
X145866632Y-113083475D01*
X146073475Y-112876632D01*
X146235990Y-112633411D01*
X146347932Y-112363158D01*
X146405000Y-112076260D01*
X146405000Y-111783740D01*
X146347932Y-111496842D01*
X146235990Y-111226589D01*
X146073475Y-110983368D01*
X145866632Y-110776525D01*
X145692240Y-110660000D01*
X145866632Y-110543475D01*
X145947067Y-110463040D01*
X148965000Y-110463040D01*
X148965000Y-110666918D01*
X149004774Y-110866877D01*
X149082795Y-111055235D01*
X149196063Y-111224753D01*
X149340226Y-111368916D01*
X149509744Y-111482184D01*
X149698102Y-111560205D01*
X149898061Y-111599979D01*
X150101939Y-111599979D01*
X150301898Y-111560205D01*
X150490256Y-111482184D01*
X150659774Y-111368916D01*
X150803937Y-111224753D01*
X150917205Y-111055235D01*
X150995226Y-110866877D01*
X151012892Y-110778061D01*
X163515000Y-110778061D01*
X163515000Y-110981939D01*
X163554774Y-111181898D01*
X163632795Y-111370256D01*
X163746063Y-111539774D01*
X163890226Y-111683937D01*
X164059744Y-111797205D01*
X164248102Y-111875226D01*
X164448061Y-111915000D01*
X164651939Y-111915000D01*
X164851898Y-111875226D01*
X165040256Y-111797205D01*
X165209774Y-111683937D01*
X165353937Y-111539774D01*
X165408537Y-111458059D01*
X168095000Y-111458059D01*
X168095000Y-111661937D01*
X168134774Y-111861896D01*
X168212795Y-112050254D01*
X168326063Y-112219772D01*
X168470226Y-112363935D01*
X168639744Y-112477203D01*
X168828102Y-112555224D01*
X169028061Y-112594998D01*
X169231939Y-112594998D01*
X169431898Y-112555224D01*
X169620256Y-112477203D01*
X169789774Y-112363935D01*
X169933937Y-112219772D01*
X170047205Y-112050254D01*
X170125226Y-111861896D01*
X170165000Y-111661937D01*
X170165000Y-111458059D01*
X170125226Y-111258100D01*
X170047205Y-111069742D01*
X169933937Y-110900224D01*
X169789774Y-110756061D01*
X169620256Y-110642793D01*
X169431898Y-110564772D01*
X169231939Y-110524998D01*
X169028061Y-110524998D01*
X168828102Y-110564772D01*
X168639744Y-110642793D01*
X168470226Y-110756061D01*
X168326063Y-110900224D01*
X168212795Y-111069742D01*
X168134774Y-111258100D01*
X168095000Y-111458059D01*
X165408537Y-111458059D01*
X165467205Y-111370256D01*
X165545226Y-111181898D01*
X165585000Y-110981939D01*
X165585000Y-110778061D01*
X165545226Y-110578102D01*
X165467205Y-110389744D01*
X165353937Y-110220226D01*
X165209774Y-110076063D01*
X165040256Y-109962795D01*
X164851898Y-109884774D01*
X164651939Y-109845000D01*
X164448061Y-109845000D01*
X164248102Y-109884774D01*
X164059744Y-109962795D01*
X163890226Y-110076063D01*
X163746063Y-110220226D01*
X163632795Y-110389744D01*
X163554774Y-110578102D01*
X163515000Y-110778061D01*
X151012892Y-110778061D01*
X151035000Y-110666918D01*
X151035000Y-110463040D01*
X150995226Y-110263081D01*
X150917205Y-110074723D01*
X150803937Y-109905205D01*
X150659774Y-109761042D01*
X150490256Y-109647774D01*
X150301898Y-109569753D01*
X150101939Y-109529979D01*
X149898061Y-109529979D01*
X149698102Y-109569753D01*
X149509744Y-109647774D01*
X149340226Y-109761042D01*
X149196063Y-109905205D01*
X149082795Y-110074723D01*
X149004774Y-110263081D01*
X148965000Y-110463040D01*
X145947067Y-110463040D01*
X146073475Y-110336632D01*
X146235990Y-110093411D01*
X146347932Y-109823158D01*
X146405000Y-109536260D01*
X146405000Y-109243740D01*
X146347932Y-108956842D01*
X146235990Y-108686589D01*
X146073475Y-108443368D01*
X145866632Y-108236525D01*
X145623411Y-108074010D01*
X145353158Y-107962068D01*
X145066260Y-107905000D01*
X144773740Y-107905000D01*
X144486842Y-107962068D01*
X144216589Y-108074010D01*
X143973368Y-108236525D01*
X143766525Y-108443368D01*
X143650000Y-108617760D01*
X143533475Y-108443368D01*
X143326632Y-108236525D01*
X143083411Y-108074010D01*
X142813158Y-107962068D01*
X142526260Y-107905000D01*
X142233740Y-107905000D01*
X141946842Y-107962068D01*
X141676589Y-108074010D01*
X141433368Y-108236525D01*
X141226525Y-108443368D01*
X141104805Y-108625534D01*
X141035178Y-108508645D01*
X140840269Y-108292412D01*
X140606920Y-108118359D01*
X140344099Y-107993175D01*
X140196890Y-107948524D01*
X139967000Y-108069845D01*
X139713000Y-108069845D01*
X139483110Y-107948524D01*
X139335901Y-107993175D01*
X139073080Y-108118359D01*
X138839731Y-108292412D01*
X138644822Y-108508645D01*
X138495843Y-108758748D01*
X138398519Y-109033109D01*
X137660000Y-109033109D01*
X137660000Y-105850000D01*
X138351928Y-105850000D01*
X138364188Y-105974482D01*
X138400498Y-106094180D01*
X138459463Y-106204494D01*
X138538815Y-106301185D01*
X138635506Y-106380537D01*
X138745820Y-106439502D01*
X138865518Y-106475812D01*
X138990000Y-106488072D01*
X139554250Y-106485000D01*
X139713000Y-106326250D01*
X139713000Y-105127000D01*
X138513750Y-105127000D01*
X138355000Y-105285750D01*
X138351928Y-105850000D01*
X137660000Y-105850000D01*
X137660000Y-104150000D01*
X138351928Y-104150000D01*
X138355000Y-104714250D01*
X138513750Y-104873000D01*
X139713000Y-104873000D01*
X139713000Y-103673750D01*
X139967000Y-103673750D01*
X139967000Y-104873000D01*
X139987000Y-104873000D01*
X139987000Y-105127000D01*
X139967000Y-105127000D01*
X139967000Y-106326250D01*
X140125750Y-106485000D01*
X140690000Y-106488072D01*
X140814482Y-106475812D01*
X140934180Y-106439502D01*
X141044494Y-106380537D01*
X141141185Y-106301185D01*
X141220537Y-106204494D01*
X141279502Y-106094180D01*
X141301513Y-106021620D01*
X141433368Y-106153475D01*
X141676589Y-106315990D01*
X141946842Y-106427932D01*
X142233740Y-106485000D01*
X142526260Y-106485000D01*
X142813158Y-106427932D01*
X143083411Y-106315990D01*
X143326632Y-106153475D01*
X143533475Y-105946632D01*
X143650000Y-105772240D01*
X143766525Y-105946632D01*
X143973368Y-106153475D01*
X144216589Y-106315990D01*
X144486842Y-106427932D01*
X144773740Y-106485000D01*
X145066260Y-106485000D01*
X145353158Y-106427932D01*
X145623411Y-106315990D01*
X145866632Y-106153475D01*
X146073475Y-105946632D01*
X146190000Y-105772240D01*
X146306525Y-105946632D01*
X146513368Y-106153475D01*
X146756589Y-106315990D01*
X147026842Y-106427932D01*
X147313740Y-106485000D01*
X147606260Y-106485000D01*
X147893158Y-106427932D01*
X148163411Y-106315990D01*
X148406632Y-106153475D01*
X148613475Y-105946632D01*
X148730000Y-105772240D01*
X148846525Y-105946632D01*
X149053368Y-106153475D01*
X149085582Y-106175000D01*
X149058061Y-106175000D01*
X148858102Y-106214774D01*
X148669744Y-106292795D01*
X148500226Y-106406063D01*
X148356063Y-106550226D01*
X148242795Y-106719744D01*
X148164774Y-106908102D01*
X148125000Y-107108061D01*
X148125000Y-107311939D01*
X148164774Y-107511898D01*
X148242795Y-107700256D01*
X148356063Y-107869774D01*
X148500226Y-108013937D01*
X148669744Y-108127205D01*
X148858102Y-108205226D01*
X149058061Y-108245000D01*
X149261939Y-108245000D01*
X149461898Y-108205226D01*
X149650256Y-108127205D01*
X149819774Y-108013937D01*
X149963937Y-107869774D01*
X150031899Y-107768061D01*
X153645000Y-107768061D01*
X153645000Y-107971939D01*
X153684774Y-108171898D01*
X153762795Y-108360256D01*
X153876063Y-108529774D01*
X154020226Y-108673937D01*
X154189744Y-108787205D01*
X154378102Y-108865226D01*
X154578061Y-108905000D01*
X154781939Y-108905000D01*
X154981898Y-108865226D01*
X155170256Y-108787205D01*
X155339774Y-108673937D01*
X155483937Y-108529774D01*
X155597205Y-108360256D01*
X155675226Y-108171898D01*
X155715000Y-107971939D01*
X155715000Y-107768061D01*
X155675226Y-107568102D01*
X155597205Y-107379744D01*
X155510514Y-107250000D01*
X191848299Y-107250000D01*
X191875040Y-107521507D01*
X191954236Y-107782581D01*
X192082843Y-108023188D01*
X192255919Y-108234081D01*
X192466812Y-108407157D01*
X192707419Y-108535764D01*
X192968493Y-108614960D01*
X193171963Y-108635000D01*
X194908037Y-108635000D01*
X195111507Y-108614960D01*
X195372581Y-108535764D01*
X195613188Y-108407157D01*
X195824081Y-108234081D01*
X195997157Y-108023188D01*
X196125764Y-107782581D01*
X196204960Y-107521507D01*
X196231701Y-107250000D01*
X198208299Y-107250000D01*
X198235040Y-107521507D01*
X198314236Y-107782581D01*
X198442843Y-108023188D01*
X198615919Y-108234081D01*
X198826812Y-108407157D01*
X199067419Y-108535764D01*
X199328493Y-108614960D01*
X199531963Y-108635000D01*
X200468037Y-108635000D01*
X200671507Y-108614960D01*
X200932581Y-108535764D01*
X201173188Y-108407157D01*
X201384081Y-108234081D01*
X201557157Y-108023188D01*
X201685764Y-107782581D01*
X201764960Y-107521507D01*
X201791701Y-107250000D01*
X201764960Y-106978493D01*
X201685764Y-106717419D01*
X201557157Y-106476812D01*
X201384081Y-106265919D01*
X201173188Y-106092843D01*
X200932581Y-105964236D01*
X200671507Y-105885040D01*
X200468037Y-105865000D01*
X199531963Y-105865000D01*
X199328493Y-105885040D01*
X199067419Y-105964236D01*
X198826812Y-106092843D01*
X198615919Y-106265919D01*
X198442843Y-106476812D01*
X198314236Y-106717419D01*
X198235040Y-106978493D01*
X198208299Y-107250000D01*
X196231701Y-107250000D01*
X196204960Y-106978493D01*
X196125764Y-106717419D01*
X195997157Y-106476812D01*
X195824081Y-106265919D01*
X195613188Y-106092843D01*
X195372581Y-105964236D01*
X195111507Y-105885040D01*
X194908037Y-105865000D01*
X193171963Y-105865000D01*
X192968493Y-105885040D01*
X192707419Y-105964236D01*
X192466812Y-106092843D01*
X192255919Y-106265919D01*
X192082843Y-106476812D01*
X191954236Y-106717419D01*
X191875040Y-106978493D01*
X191848299Y-107250000D01*
X155510514Y-107250000D01*
X155483937Y-107210226D01*
X155339774Y-107066063D01*
X155170256Y-106952795D01*
X154981898Y-106874774D01*
X154781939Y-106835000D01*
X154578061Y-106835000D01*
X154378102Y-106874774D01*
X154189744Y-106952795D01*
X154020226Y-107066063D01*
X153876063Y-107210226D01*
X153762795Y-107379744D01*
X153684774Y-107568102D01*
X153645000Y-107768061D01*
X150031899Y-107768061D01*
X150077205Y-107700256D01*
X150155226Y-107511898D01*
X150195000Y-107311939D01*
X150195000Y-107108061D01*
X150155226Y-106908102D01*
X150077205Y-106719744D01*
X149963937Y-106550226D01*
X149898711Y-106485000D01*
X150146260Y-106485000D01*
X150433158Y-106427932D01*
X150703411Y-106315990D01*
X150946632Y-106153475D01*
X151153475Y-105946632D01*
X151270000Y-105772240D01*
X151386525Y-105946632D01*
X151593368Y-106153475D01*
X151836589Y-106315990D01*
X152106842Y-106427932D01*
X152393740Y-106485000D01*
X152686260Y-106485000D01*
X152973158Y-106427932D01*
X153243411Y-106315990D01*
X153486632Y-106153475D01*
X153693475Y-105946632D01*
X153810000Y-105772240D01*
X153926525Y-105946632D01*
X154133368Y-106153475D01*
X154376589Y-106315990D01*
X154646842Y-106427932D01*
X154933740Y-106485000D01*
X155226260Y-106485000D01*
X155513158Y-106427932D01*
X155783411Y-106315990D01*
X156026632Y-106153475D01*
X156233475Y-105946632D01*
X156350000Y-105772240D01*
X156466525Y-105946632D01*
X156673368Y-106153475D01*
X156916589Y-106315990D01*
X157186842Y-106427932D01*
X157473740Y-106485000D01*
X157766260Y-106485000D01*
X158053158Y-106427932D01*
X158323411Y-106315990D01*
X158566632Y-106153475D01*
X158773475Y-105946632D01*
X158890000Y-105772240D01*
X159006525Y-105946632D01*
X159213368Y-106153475D01*
X159456589Y-106315990D01*
X159726842Y-106427932D01*
X160013740Y-106485000D01*
X160306260Y-106485000D01*
X160593158Y-106427932D01*
X160863411Y-106315990D01*
X161106632Y-106153475D01*
X161313475Y-105946632D01*
X161430000Y-105772240D01*
X161546525Y-105946632D01*
X161753368Y-106153475D01*
X161996589Y-106315990D01*
X162266842Y-106427932D01*
X162553740Y-106485000D01*
X162846260Y-106485000D01*
X163133158Y-106427932D01*
X163403411Y-106315990D01*
X163646632Y-106153475D01*
X163853475Y-105946632D01*
X164015990Y-105703411D01*
X164127932Y-105433158D01*
X164185000Y-105146260D01*
X164185000Y-104853740D01*
X164127932Y-104566842D01*
X164015990Y-104296589D01*
X163853475Y-104053368D01*
X163646632Y-103846525D01*
X163403411Y-103684010D01*
X163133158Y-103572068D01*
X162846260Y-103515000D01*
X162553740Y-103515000D01*
X162266842Y-103572068D01*
X161996589Y-103684010D01*
X161753368Y-103846525D01*
X161546525Y-104053368D01*
X161430000Y-104227760D01*
X161313475Y-104053368D01*
X161106632Y-103846525D01*
X160863411Y-103684010D01*
X160593158Y-103572068D01*
X160306260Y-103515000D01*
X160013740Y-103515000D01*
X159726842Y-103572068D01*
X159456589Y-103684010D01*
X159213368Y-103846525D01*
X159006525Y-104053368D01*
X158890000Y-104227760D01*
X158773475Y-104053368D01*
X158566632Y-103846525D01*
X158323411Y-103684010D01*
X158053158Y-103572068D01*
X157766260Y-103515000D01*
X157473740Y-103515000D01*
X157186842Y-103572068D01*
X156916589Y-103684010D01*
X156673368Y-103846525D01*
X156466525Y-104053368D01*
X156350000Y-104227760D01*
X156233475Y-104053368D01*
X156026632Y-103846525D01*
X155783411Y-103684010D01*
X155513158Y-103572068D01*
X155226260Y-103515000D01*
X154933740Y-103515000D01*
X154646842Y-103572068D01*
X154376589Y-103684010D01*
X154133368Y-103846525D01*
X153926525Y-104053368D01*
X153810000Y-104227760D01*
X153693475Y-104053368D01*
X153486632Y-103846525D01*
X153243411Y-103684010D01*
X152973158Y-103572068D01*
X152686260Y-103515000D01*
X152393740Y-103515000D01*
X152106842Y-103572068D01*
X151836589Y-103684010D01*
X151593368Y-103846525D01*
X151386525Y-104053368D01*
X151270000Y-104227760D01*
X151153475Y-104053368D01*
X150946632Y-103846525D01*
X150703411Y-103684010D01*
X150433158Y-103572068D01*
X150146260Y-103515000D01*
X149853740Y-103515000D01*
X149566842Y-103572068D01*
X149296589Y-103684010D01*
X149053368Y-103846525D01*
X148846525Y-104053368D01*
X148730000Y-104227760D01*
X148613475Y-104053368D01*
X148406632Y-103846525D01*
X148163411Y-103684010D01*
X147893158Y-103572068D01*
X147606260Y-103515000D01*
X147313740Y-103515000D01*
X147026842Y-103572068D01*
X146756589Y-103684010D01*
X146513368Y-103846525D01*
X146306525Y-104053368D01*
X146190000Y-104227760D01*
X146073475Y-104053368D01*
X145866632Y-103846525D01*
X145623411Y-103684010D01*
X145353158Y-103572068D01*
X145066260Y-103515000D01*
X144773740Y-103515000D01*
X144486842Y-103572068D01*
X144216589Y-103684010D01*
X143973368Y-103846525D01*
X143766525Y-104053368D01*
X143650000Y-104227760D01*
X143533475Y-104053368D01*
X143326632Y-103846525D01*
X143083411Y-103684010D01*
X142813158Y-103572068D01*
X142526260Y-103515000D01*
X142233740Y-103515000D01*
X141946842Y-103572068D01*
X141676589Y-103684010D01*
X141433368Y-103846525D01*
X141301513Y-103978380D01*
X141279502Y-103905820D01*
X141220537Y-103795506D01*
X141141185Y-103698815D01*
X141044494Y-103619463D01*
X140934180Y-103560498D01*
X140814482Y-103524188D01*
X140690000Y-103511928D01*
X140125750Y-103515000D01*
X139967000Y-103673750D01*
X139713000Y-103673750D01*
X139554250Y-103515000D01*
X138990000Y-103511928D01*
X138865518Y-103524188D01*
X138745820Y-103560498D01*
X138635506Y-103619463D01*
X138538815Y-103698815D01*
X138459463Y-103795506D01*
X138400498Y-103905820D01*
X138364188Y-104025518D01*
X138351928Y-104150000D01*
X137660000Y-104150000D01*
X137660000Y-102448061D01*
X171615000Y-102448061D01*
X171615000Y-102651939D01*
X171654774Y-102851898D01*
X171732795Y-103040256D01*
X171846063Y-103209774D01*
X171990226Y-103353937D01*
X172159744Y-103467205D01*
X172348102Y-103545226D01*
X172548061Y-103585000D01*
X172751939Y-103585000D01*
X172951898Y-103545226D01*
X173140256Y-103467205D01*
X173309774Y-103353937D01*
X173453937Y-103209774D01*
X173567205Y-103040256D01*
X173645226Y-102851898D01*
X173685000Y-102651939D01*
X173685000Y-102448061D01*
X173645226Y-102248102D01*
X173567205Y-102059744D01*
X173453937Y-101890226D01*
X173309774Y-101746063D01*
X173140256Y-101632795D01*
X172951898Y-101554774D01*
X172751939Y-101515000D01*
X172548061Y-101515000D01*
X172348102Y-101554774D01*
X172159744Y-101632795D01*
X171990226Y-101746063D01*
X171846063Y-101890226D01*
X171732795Y-102059744D01*
X171654774Y-102248102D01*
X171615000Y-102448061D01*
X137660000Y-102448061D01*
X137660000Y-95850000D01*
X138351928Y-95850000D01*
X138364188Y-95974482D01*
X138400498Y-96094180D01*
X138459463Y-96204494D01*
X138538815Y-96301185D01*
X138635506Y-96380537D01*
X138745820Y-96439502D01*
X138865518Y-96475812D01*
X138990000Y-96488072D01*
X139554250Y-96485000D01*
X139713000Y-96326250D01*
X139713000Y-95127000D01*
X138513750Y-95127000D01*
X138355000Y-95285750D01*
X138351928Y-95850000D01*
X137660000Y-95850000D01*
X137660000Y-94150000D01*
X138351928Y-94150000D01*
X138355000Y-94714250D01*
X138513750Y-94873000D01*
X139713000Y-94873000D01*
X139713000Y-93673750D01*
X139967000Y-93673750D01*
X139967000Y-94873000D01*
X139987000Y-94873000D01*
X139987000Y-95127000D01*
X139967000Y-95127000D01*
X139967000Y-96326250D01*
X140125750Y-96485000D01*
X140690000Y-96488072D01*
X140814482Y-96475812D01*
X140934180Y-96439502D01*
X141044494Y-96380537D01*
X141141185Y-96301185D01*
X141220537Y-96204494D01*
X141279502Y-96094180D01*
X141301513Y-96021620D01*
X141433368Y-96153475D01*
X141676589Y-96315990D01*
X141946842Y-96427932D01*
X142233740Y-96485000D01*
X142526260Y-96485000D01*
X142813158Y-96427932D01*
X143083411Y-96315990D01*
X143326632Y-96153475D01*
X143533475Y-95946632D01*
X143650000Y-95772240D01*
X143766525Y-95946632D01*
X143973368Y-96153475D01*
X144216589Y-96315990D01*
X144486842Y-96427932D01*
X144773740Y-96485000D01*
X145066260Y-96485000D01*
X145353158Y-96427932D01*
X145623411Y-96315990D01*
X145866632Y-96153475D01*
X146073475Y-95946632D01*
X146190000Y-95772240D01*
X146306525Y-95946632D01*
X146513368Y-96153475D01*
X146756589Y-96315990D01*
X147026842Y-96427932D01*
X147313740Y-96485000D01*
X147606260Y-96485000D01*
X147893158Y-96427932D01*
X148163411Y-96315990D01*
X148406632Y-96153475D01*
X148613475Y-95946632D01*
X148730000Y-95772240D01*
X148846525Y-95946632D01*
X149053368Y-96153475D01*
X149296589Y-96315990D01*
X149566842Y-96427932D01*
X149853740Y-96485000D01*
X150146260Y-96485000D01*
X150433158Y-96427932D01*
X150703411Y-96315990D01*
X150946632Y-96153475D01*
X151153475Y-95946632D01*
X151270000Y-95772240D01*
X151386525Y-95946632D01*
X151593368Y-96153475D01*
X151836589Y-96315990D01*
X152106842Y-96427932D01*
X152393740Y-96485000D01*
X152686260Y-96485000D01*
X152973158Y-96427932D01*
X153243411Y-96315990D01*
X153486632Y-96153475D01*
X153693475Y-95946632D01*
X153810000Y-95772240D01*
X153926525Y-95946632D01*
X154133368Y-96153475D01*
X154376589Y-96315990D01*
X154646842Y-96427932D01*
X154933740Y-96485000D01*
X155226260Y-96485000D01*
X155513158Y-96427932D01*
X155783411Y-96315990D01*
X156026632Y-96153475D01*
X156233475Y-95946632D01*
X156350000Y-95772240D01*
X156466525Y-95946632D01*
X156673368Y-96153475D01*
X156916589Y-96315990D01*
X157186842Y-96427932D01*
X157473740Y-96485000D01*
X157766260Y-96485000D01*
X158053158Y-96427932D01*
X158323411Y-96315990D01*
X158566632Y-96153475D01*
X158773475Y-95946632D01*
X158890000Y-95772240D01*
X159006525Y-95946632D01*
X159213368Y-96153475D01*
X159456589Y-96315990D01*
X159726842Y-96427932D01*
X160013740Y-96485000D01*
X160306260Y-96485000D01*
X160593158Y-96427932D01*
X160863411Y-96315990D01*
X161106632Y-96153475D01*
X161313475Y-95946632D01*
X161430000Y-95772240D01*
X161546525Y-95946632D01*
X161753368Y-96153475D01*
X161996589Y-96315990D01*
X162266842Y-96427932D01*
X162553740Y-96485000D01*
X162846260Y-96485000D01*
X163133158Y-96427932D01*
X163403411Y-96315990D01*
X163646632Y-96153475D01*
X163853475Y-95946632D01*
X164015990Y-95703411D01*
X164127932Y-95433158D01*
X164185000Y-95146260D01*
X164185000Y-94853740D01*
X164127932Y-94566842D01*
X164087014Y-94468055D01*
X178965000Y-94468055D01*
X178965000Y-94671933D01*
X179004774Y-94871892D01*
X179082795Y-95060250D01*
X179196063Y-95229768D01*
X179340226Y-95373931D01*
X179509744Y-95487199D01*
X179698102Y-95565220D01*
X179898061Y-95604994D01*
X180101939Y-95604994D01*
X180301898Y-95565220D01*
X180490256Y-95487199D01*
X180659774Y-95373931D01*
X180803937Y-95229768D01*
X180917205Y-95060250D01*
X180995226Y-94871892D01*
X181035000Y-94671933D01*
X181035000Y-94468055D01*
X180995226Y-94268096D01*
X180917205Y-94079738D01*
X180803937Y-93910220D01*
X180659774Y-93766057D01*
X180490256Y-93652789D01*
X180301898Y-93574768D01*
X180101939Y-93534994D01*
X179898061Y-93534994D01*
X179698102Y-93574768D01*
X179509744Y-93652789D01*
X179340226Y-93766057D01*
X179196063Y-93910220D01*
X179082795Y-94079738D01*
X179004774Y-94268096D01*
X178965000Y-94468055D01*
X164087014Y-94468055D01*
X164015990Y-94296589D01*
X163853475Y-94053368D01*
X163646632Y-93846525D01*
X163403411Y-93684010D01*
X163133158Y-93572068D01*
X162846260Y-93515000D01*
X162553740Y-93515000D01*
X162266842Y-93572068D01*
X161996589Y-93684010D01*
X161753368Y-93846525D01*
X161546525Y-94053368D01*
X161430000Y-94227760D01*
X161313475Y-94053368D01*
X161106632Y-93846525D01*
X160863411Y-93684010D01*
X160593158Y-93572068D01*
X160306260Y-93515000D01*
X160013740Y-93515000D01*
X159726842Y-93572068D01*
X159456589Y-93684010D01*
X159213368Y-93846525D01*
X159006525Y-94053368D01*
X158890000Y-94227760D01*
X158773475Y-94053368D01*
X158566632Y-93846525D01*
X158323411Y-93684010D01*
X158053158Y-93572068D01*
X157766260Y-93515000D01*
X157473740Y-93515000D01*
X157186842Y-93572068D01*
X156916589Y-93684010D01*
X156673368Y-93846525D01*
X156466525Y-94053368D01*
X156350000Y-94227760D01*
X156233475Y-94053368D01*
X156026632Y-93846525D01*
X155783411Y-93684010D01*
X155513158Y-93572068D01*
X155226260Y-93515000D01*
X154933740Y-93515000D01*
X154646842Y-93572068D01*
X154376589Y-93684010D01*
X154133368Y-93846525D01*
X153926525Y-94053368D01*
X153810000Y-94227760D01*
X153693475Y-94053368D01*
X153486632Y-93846525D01*
X153243411Y-93684010D01*
X152973158Y-93572068D01*
X152686260Y-93515000D01*
X152393740Y-93515000D01*
X152106842Y-93572068D01*
X151836589Y-93684010D01*
X151593368Y-93846525D01*
X151386525Y-94053368D01*
X151270000Y-94227760D01*
X151153475Y-94053368D01*
X150946632Y-93846525D01*
X150703411Y-93684010D01*
X150433158Y-93572068D01*
X150146260Y-93515000D01*
X149853740Y-93515000D01*
X149566842Y-93572068D01*
X149296589Y-93684010D01*
X149053368Y-93846525D01*
X148846525Y-94053368D01*
X148730000Y-94227760D01*
X148613475Y-94053368D01*
X148406632Y-93846525D01*
X148163411Y-93684010D01*
X147893158Y-93572068D01*
X147606260Y-93515000D01*
X147313740Y-93515000D01*
X147026842Y-93572068D01*
X146756589Y-93684010D01*
X146513368Y-93846525D01*
X146306525Y-94053368D01*
X146190000Y-94227760D01*
X146073475Y-94053368D01*
X145866632Y-93846525D01*
X145623411Y-93684010D01*
X145353158Y-93572068D01*
X145066260Y-93515000D01*
X144773740Y-93515000D01*
X144486842Y-93572068D01*
X144216589Y-93684010D01*
X143973368Y-93846525D01*
X143766525Y-94053368D01*
X143650000Y-94227760D01*
X143533475Y-94053368D01*
X143326632Y-93846525D01*
X143083411Y-93684010D01*
X142813158Y-93572068D01*
X142526260Y-93515000D01*
X142233740Y-93515000D01*
X141946842Y-93572068D01*
X141676589Y-93684010D01*
X141433368Y-93846525D01*
X141301513Y-93978380D01*
X141279502Y-93905820D01*
X141220537Y-93795506D01*
X141141185Y-93698815D01*
X141044494Y-93619463D01*
X140934180Y-93560498D01*
X140814482Y-93524188D01*
X140690000Y-93511928D01*
X140125750Y-93515000D01*
X139967000Y-93673750D01*
X139713000Y-93673750D01*
X139554250Y-93515000D01*
X138990000Y-93511928D01*
X138865518Y-93524188D01*
X138745820Y-93560498D01*
X138635506Y-93619463D01*
X138538815Y-93698815D01*
X138459463Y-93795506D01*
X138400498Y-93905820D01*
X138364188Y-94025518D01*
X138351928Y-94150000D01*
X137660000Y-94150000D01*
X137660000Y-92750000D01*
X191848299Y-92750000D01*
X191875040Y-93021507D01*
X191954236Y-93282581D01*
X192082843Y-93523188D01*
X192255919Y-93734081D01*
X192466812Y-93907157D01*
X192707419Y-94035764D01*
X192968493Y-94114960D01*
X193171963Y-94135000D01*
X194908037Y-94135000D01*
X195111507Y-94114960D01*
X195372581Y-94035764D01*
X195613188Y-93907157D01*
X195824081Y-93734081D01*
X195997157Y-93523188D01*
X196125764Y-93282581D01*
X196204960Y-93021507D01*
X196231701Y-92750000D01*
X198208299Y-92750000D01*
X198235040Y-93021507D01*
X198314236Y-93282581D01*
X198442843Y-93523188D01*
X198615919Y-93734081D01*
X198826812Y-93907157D01*
X199067419Y-94035764D01*
X199328493Y-94114960D01*
X199531963Y-94135000D01*
X200468037Y-94135000D01*
X200671507Y-94114960D01*
X200932581Y-94035764D01*
X201173188Y-93907157D01*
X201384081Y-93734081D01*
X201557157Y-93523188D01*
X201685764Y-93282581D01*
X201764960Y-93021507D01*
X201791701Y-92750000D01*
X201764960Y-92478493D01*
X201685764Y-92217419D01*
X201557157Y-91976812D01*
X201384081Y-91765919D01*
X201173188Y-91592843D01*
X200932581Y-91464236D01*
X200671507Y-91385040D01*
X200468037Y-91365000D01*
X199531963Y-91365000D01*
X199328493Y-91385040D01*
X199067419Y-91464236D01*
X198826812Y-91592843D01*
X198615919Y-91765919D01*
X198442843Y-91976812D01*
X198314236Y-92217419D01*
X198235040Y-92478493D01*
X198208299Y-92750000D01*
X196231701Y-92750000D01*
X196204960Y-92478493D01*
X196125764Y-92217419D01*
X195997157Y-91976812D01*
X195824081Y-91765919D01*
X195613188Y-91592843D01*
X195372581Y-91464236D01*
X195111507Y-91385040D01*
X194908037Y-91365000D01*
X193171963Y-91365000D01*
X192968493Y-91385040D01*
X192707419Y-91464236D01*
X192466812Y-91592843D01*
X192255919Y-91765919D01*
X192082843Y-91976812D01*
X191954236Y-92217419D01*
X191875040Y-92478493D01*
X191848299Y-92750000D01*
X137660000Y-92750000D01*
X137660000Y-90398061D01*
X178585000Y-90398061D01*
X178585000Y-90601939D01*
X178624774Y-90801898D01*
X178702795Y-90990256D01*
X178816063Y-91159774D01*
X178960226Y-91303937D01*
X179129744Y-91417205D01*
X179318102Y-91495226D01*
X179518061Y-91535000D01*
X179721939Y-91535000D01*
X179921898Y-91495226D01*
X180110256Y-91417205D01*
X180279774Y-91303937D01*
X180423937Y-91159774D01*
X180537205Y-90990256D01*
X180615226Y-90801898D01*
X180655000Y-90601939D01*
X180655000Y-90398061D01*
X180615226Y-90198102D01*
X180537205Y-90009744D01*
X180423937Y-89840226D01*
X180279774Y-89696063D01*
X180110256Y-89582795D01*
X179921898Y-89504774D01*
X179721939Y-89465000D01*
X179518061Y-89465000D01*
X179318102Y-89504774D01*
X179129744Y-89582795D01*
X178960226Y-89696063D01*
X178816063Y-89840226D01*
X178702795Y-90009744D01*
X178624774Y-90198102D01*
X178585000Y-90398061D01*
X137660000Y-90398061D01*
X137660000Y-79533740D01*
X138355000Y-79533740D01*
X138355000Y-79826260D01*
X138412068Y-80113158D01*
X138524010Y-80383411D01*
X138686525Y-80626632D01*
X138893368Y-80833475D01*
X139067760Y-80950000D01*
X138893368Y-81066525D01*
X138686525Y-81273368D01*
X138524010Y-81516589D01*
X138412068Y-81786842D01*
X138355000Y-82073740D01*
X138355000Y-82366260D01*
X138412068Y-82653158D01*
X138524010Y-82923411D01*
X138686525Y-83166632D01*
X138893368Y-83373475D01*
X139067760Y-83490000D01*
X138893368Y-83606525D01*
X138686525Y-83813368D01*
X138524010Y-84056589D01*
X138412068Y-84326842D01*
X138355000Y-84613740D01*
X138355000Y-84906260D01*
X138412068Y-85193158D01*
X138524010Y-85463411D01*
X138686525Y-85706632D01*
X138893368Y-85913475D01*
X139136589Y-86075990D01*
X139406842Y-86187932D01*
X139693740Y-86245000D01*
X139986260Y-86245000D01*
X140273158Y-86187932D01*
X140543411Y-86075990D01*
X140786632Y-85913475D01*
X140993475Y-85706632D01*
X141110000Y-85532240D01*
X141226525Y-85706632D01*
X141433368Y-85913475D01*
X141676589Y-86075990D01*
X141946842Y-86187932D01*
X142233740Y-86245000D01*
X142526260Y-86245000D01*
X142813158Y-86187932D01*
X143083411Y-86075990D01*
X143326632Y-85913475D01*
X143533475Y-85706632D01*
X143650000Y-85532240D01*
X143766525Y-85706632D01*
X143973368Y-85913475D01*
X144216589Y-86075990D01*
X144486842Y-86187932D01*
X144773740Y-86245000D01*
X145066260Y-86245000D01*
X145353158Y-86187932D01*
X145623411Y-86075990D01*
X145866632Y-85913475D01*
X146073475Y-85706632D01*
X146190000Y-85532240D01*
X146306525Y-85706632D01*
X146513368Y-85913475D01*
X146756589Y-86075990D01*
X147026842Y-86187932D01*
X147313740Y-86245000D01*
X147606260Y-86245000D01*
X147893158Y-86187932D01*
X148163411Y-86075990D01*
X148406632Y-85913475D01*
X148613475Y-85706632D01*
X148730000Y-85532240D01*
X148846525Y-85706632D01*
X149053368Y-85913475D01*
X149296589Y-86075990D01*
X149566842Y-86187932D01*
X149853740Y-86245000D01*
X150146260Y-86245000D01*
X150433158Y-86187932D01*
X150703411Y-86075990D01*
X150946632Y-85913475D01*
X151153475Y-85706632D01*
X151270000Y-85532240D01*
X151386525Y-85706632D01*
X151593368Y-85913475D01*
X151836589Y-86075990D01*
X152106842Y-86187932D01*
X152393740Y-86245000D01*
X152686260Y-86245000D01*
X152973158Y-86187932D01*
X153243411Y-86075990D01*
X153486632Y-85913475D01*
X153693475Y-85706632D01*
X153810000Y-85532240D01*
X153926525Y-85706632D01*
X154133368Y-85913475D01*
X154376589Y-86075990D01*
X154646842Y-86187932D01*
X154933740Y-86245000D01*
X155226260Y-86245000D01*
X155513158Y-86187932D01*
X155783411Y-86075990D01*
X156026632Y-85913475D01*
X156233475Y-85706632D01*
X156350000Y-85532240D01*
X156466525Y-85706632D01*
X156673368Y-85913475D01*
X156916589Y-86075990D01*
X157186842Y-86187932D01*
X157473740Y-86245000D01*
X157766260Y-86245000D01*
X158053158Y-86187932D01*
X158323411Y-86075990D01*
X158566632Y-85913475D01*
X158773475Y-85706632D01*
X158890000Y-85532240D01*
X159006525Y-85706632D01*
X159213368Y-85913475D01*
X159456589Y-86075990D01*
X159726842Y-86187932D01*
X160013740Y-86245000D01*
X160306260Y-86245000D01*
X160593158Y-86187932D01*
X160863411Y-86075990D01*
X161106632Y-85913475D01*
X161313475Y-85706632D01*
X161475990Y-85463411D01*
X161587932Y-85193158D01*
X161645000Y-84906260D01*
X161645000Y-84613740D01*
X161587932Y-84326842D01*
X161475990Y-84056589D01*
X161313475Y-83813368D01*
X161106632Y-83606525D01*
X160932240Y-83490000D01*
X161106632Y-83373475D01*
X161292071Y-83188036D01*
X161304774Y-83251898D01*
X161382795Y-83440256D01*
X161496063Y-83609774D01*
X161640226Y-83753937D01*
X161809744Y-83867205D01*
X161998102Y-83945226D01*
X162198061Y-83985000D01*
X162401939Y-83985000D01*
X162589503Y-83947691D01*
X162514774Y-84128102D01*
X162475000Y-84328061D01*
X162475000Y-84531939D01*
X162514774Y-84731898D01*
X162592795Y-84920256D01*
X162706063Y-85089774D01*
X162811289Y-85195000D01*
X162676063Y-85330226D01*
X162562795Y-85499744D01*
X162484774Y-85688102D01*
X162445000Y-85888061D01*
X162445000Y-86091939D01*
X162484774Y-86291898D01*
X162562795Y-86480256D01*
X162676063Y-86649774D01*
X162820226Y-86793937D01*
X162989744Y-86907205D01*
X163178102Y-86985226D01*
X163378061Y-87025000D01*
X163581939Y-87025000D01*
X163781898Y-86985226D01*
X163970256Y-86907205D01*
X164139774Y-86793937D01*
X164225650Y-86708061D01*
X186755000Y-86708061D01*
X186755000Y-86911939D01*
X186794774Y-87111898D01*
X186872795Y-87300256D01*
X186986063Y-87469774D01*
X187130226Y-87613937D01*
X187299744Y-87727205D01*
X187488102Y-87805226D01*
X187688061Y-87845000D01*
X187891939Y-87845000D01*
X188091898Y-87805226D01*
X188280256Y-87727205D01*
X188449774Y-87613937D01*
X188593937Y-87469774D01*
X188707205Y-87300256D01*
X188785226Y-87111898D01*
X188825000Y-86911939D01*
X188825000Y-86708061D01*
X188785226Y-86508102D01*
X188727789Y-86369437D01*
X191114375Y-86369437D01*
X191114375Y-86630563D01*
X191165318Y-86886671D01*
X191265246Y-87127919D01*
X191410320Y-87345037D01*
X191594963Y-87529680D01*
X191812081Y-87674754D01*
X192053329Y-87774682D01*
X192309437Y-87825625D01*
X192570563Y-87825625D01*
X192826671Y-87774682D01*
X193067919Y-87674754D01*
X193285037Y-87529680D01*
X193469680Y-87345037D01*
X193614754Y-87127919D01*
X193661982Y-87013900D01*
X193742933Y-87209332D01*
X193906816Y-87454601D01*
X194115399Y-87663184D01*
X194360668Y-87827067D01*
X194633195Y-87939952D01*
X194922509Y-87997500D01*
X195217491Y-87997500D01*
X195506805Y-87939952D01*
X195779332Y-87827067D01*
X196024601Y-87663184D01*
X196233184Y-87454601D01*
X196397067Y-87209332D01*
X196509952Y-86936805D01*
X196567500Y-86647491D01*
X196567500Y-86352509D01*
X196509952Y-86063195D01*
X196397067Y-85790668D01*
X196233184Y-85545399D01*
X196024601Y-85336816D01*
X195779332Y-85172933D01*
X195506805Y-85060048D01*
X195217491Y-85002500D01*
X194922509Y-85002500D01*
X194633195Y-85060048D01*
X194360668Y-85172933D01*
X194115399Y-85336816D01*
X193906816Y-85545399D01*
X193742933Y-85790668D01*
X193661982Y-85986100D01*
X193614754Y-85872081D01*
X193469680Y-85654963D01*
X193285037Y-85470320D01*
X193067919Y-85325246D01*
X192832793Y-85227854D01*
X193018092Y-85160058D01*
X193116641Y-85107382D01*
X193174963Y-84874568D01*
X192440000Y-84139605D01*
X191705037Y-84874568D01*
X191763359Y-85107382D01*
X192000204Y-85217342D01*
X192045828Y-85228425D01*
X191812081Y-85325246D01*
X191594963Y-85470320D01*
X191410320Y-85654963D01*
X191265246Y-85872081D01*
X191165318Y-86113329D01*
X191114375Y-86369437D01*
X188727789Y-86369437D01*
X188707205Y-86319744D01*
X188593937Y-86150226D01*
X188449774Y-86006063D01*
X188280256Y-85892795D01*
X188091898Y-85814774D01*
X187891939Y-85775000D01*
X187688061Y-85775000D01*
X187488102Y-85814774D01*
X187299744Y-85892795D01*
X187130226Y-86006063D01*
X186986063Y-86150226D01*
X186872795Y-86319744D01*
X186794774Y-86508102D01*
X186755000Y-86708061D01*
X164225650Y-86708061D01*
X164283937Y-86649774D01*
X164397205Y-86480256D01*
X164475226Y-86291898D01*
X164515000Y-86091939D01*
X164515000Y-85888061D01*
X164475226Y-85688102D01*
X164397205Y-85499744D01*
X164283937Y-85330226D01*
X164178711Y-85225000D01*
X164313937Y-85089774D01*
X164427205Y-84920256D01*
X164505226Y-84731898D01*
X164545000Y-84531939D01*
X164545000Y-84328061D01*
X164505226Y-84128102D01*
X164504770Y-84127000D01*
X170615000Y-84127000D01*
X170615000Y-84777000D01*
X170675996Y-85142305D01*
X170807088Y-85488691D01*
X171003237Y-85802847D01*
X171256906Y-86072699D01*
X171558347Y-86287878D01*
X171895975Y-86440114D01*
X172080355Y-86487695D01*
X172373000Y-86371572D01*
X172373000Y-84127000D01*
X172627000Y-84127000D01*
X172627000Y-86371572D01*
X172919645Y-86487695D01*
X173104025Y-86440114D01*
X173441653Y-86287878D01*
X173743094Y-86072699D01*
X173996763Y-85802847D01*
X174192912Y-85488691D01*
X174324004Y-85142305D01*
X174385000Y-84777000D01*
X174385000Y-84127000D01*
X172627000Y-84127000D01*
X172373000Y-84127000D01*
X170615000Y-84127000D01*
X164504770Y-84127000D01*
X164427205Y-83939744D01*
X164313937Y-83770226D01*
X164169774Y-83626063D01*
X164000256Y-83512795D01*
X163811898Y-83434774D01*
X163611939Y-83395000D01*
X163408061Y-83395000D01*
X163220497Y-83432309D01*
X163295226Y-83251898D01*
X163300974Y-83223000D01*
X170615000Y-83223000D01*
X170615000Y-83873000D01*
X172373000Y-83873000D01*
X172373000Y-81628428D01*
X172627000Y-81628428D01*
X172627000Y-83873000D01*
X174385000Y-83873000D01*
X174385000Y-83456586D01*
X174452795Y-83620256D01*
X174566063Y-83789774D01*
X174710226Y-83933937D01*
X174879744Y-84047205D01*
X175068102Y-84125226D01*
X175268061Y-84165000D01*
X175471939Y-84165000D01*
X175671898Y-84125226D01*
X175860256Y-84047205D01*
X176029774Y-83933937D01*
X176115000Y-83848711D01*
X176115000Y-84185656D01*
X176187439Y-84549834D01*
X176329534Y-84892882D01*
X176535825Y-85201618D01*
X176798382Y-85464175D01*
X177107118Y-85670466D01*
X177450166Y-85812561D01*
X177814344Y-85885000D01*
X178185656Y-85885000D01*
X178549834Y-85812561D01*
X178892882Y-85670466D01*
X179201618Y-85464175D01*
X179464175Y-85201618D01*
X179670466Y-84892882D01*
X179812561Y-84549834D01*
X179885000Y-84185656D01*
X179885000Y-84127000D01*
X181615000Y-84127000D01*
X181615000Y-84777000D01*
X181675996Y-85142305D01*
X181807088Y-85488691D01*
X182003237Y-85802847D01*
X182256906Y-86072699D01*
X182558347Y-86287878D01*
X182895975Y-86440114D01*
X183080355Y-86487695D01*
X183373000Y-86371572D01*
X183373000Y-84127000D01*
X183627000Y-84127000D01*
X183627000Y-86371572D01*
X183919645Y-86487695D01*
X184104025Y-86440114D01*
X184441653Y-86287878D01*
X184743094Y-86072699D01*
X184996763Y-85802847D01*
X185192912Y-85488691D01*
X185324004Y-85142305D01*
X185385000Y-84777000D01*
X185385000Y-84127000D01*
X183627000Y-84127000D01*
X183373000Y-84127000D01*
X181615000Y-84127000D01*
X179885000Y-84127000D01*
X179885000Y-84034845D01*
X191110064Y-84034845D01*
X191150220Y-84292865D01*
X191239942Y-84538092D01*
X191292618Y-84636641D01*
X191525432Y-84694963D01*
X192260395Y-83960000D01*
X192619605Y-83960000D01*
X193354568Y-84694963D01*
X193587382Y-84636641D01*
X193697342Y-84399796D01*
X193758983Y-84146050D01*
X193769936Y-83885155D01*
X193729780Y-83627135D01*
X193640058Y-83381908D01*
X193587382Y-83283359D01*
X193354568Y-83225037D01*
X192619605Y-83960000D01*
X192260395Y-83960000D01*
X191525432Y-83225037D01*
X191292618Y-83283359D01*
X191182658Y-83520204D01*
X191121017Y-83773950D01*
X191110064Y-84034845D01*
X179885000Y-84034845D01*
X179885000Y-83814344D01*
X179812561Y-83450166D01*
X179718466Y-83223000D01*
X181615000Y-83223000D01*
X181615000Y-83873000D01*
X183373000Y-83873000D01*
X183373000Y-81628428D01*
X183627000Y-81628428D01*
X183627000Y-83873000D01*
X185385000Y-83873000D01*
X185385000Y-83223000D01*
X185324004Y-82857695D01*
X185192912Y-82511309D01*
X184996763Y-82197153D01*
X184743094Y-81927301D01*
X184441653Y-81712122D01*
X184104025Y-81559886D01*
X183919645Y-81512305D01*
X183627000Y-81628428D01*
X183373000Y-81628428D01*
X183080355Y-81512305D01*
X182895975Y-81559886D01*
X182558347Y-81712122D01*
X182256906Y-81927301D01*
X182003237Y-82197153D01*
X181807088Y-82511309D01*
X181675996Y-82857695D01*
X181615000Y-83223000D01*
X179718466Y-83223000D01*
X179670466Y-83107118D01*
X179464175Y-82798382D01*
X179201618Y-82535825D01*
X178892882Y-82329534D01*
X178549834Y-82187439D01*
X178185656Y-82115000D01*
X177814344Y-82115000D01*
X177450166Y-82187439D01*
X177107118Y-82329534D01*
X176798382Y-82535825D01*
X176535825Y-82798382D01*
X176399806Y-83001949D01*
X176365226Y-82828102D01*
X176287205Y-82639744D01*
X176173937Y-82470226D01*
X176029774Y-82326063D01*
X175860256Y-82212795D01*
X175671898Y-82134774D01*
X175471939Y-82095000D01*
X175268061Y-82095000D01*
X175068102Y-82134774D01*
X174879744Y-82212795D01*
X174710226Y-82326063D01*
X174566063Y-82470226D01*
X174452795Y-82639744D01*
X174374774Y-82828102D01*
X174344487Y-82980367D01*
X174324004Y-82857695D01*
X174192912Y-82511309D01*
X173996763Y-82197153D01*
X173743094Y-81927301D01*
X173441653Y-81712122D01*
X173104025Y-81559886D01*
X172919645Y-81512305D01*
X172627000Y-81628428D01*
X172373000Y-81628428D01*
X172080355Y-81512305D01*
X171895975Y-81559886D01*
X171558347Y-81712122D01*
X171256906Y-81927301D01*
X171003237Y-82197153D01*
X170807088Y-82511309D01*
X170675996Y-82857695D01*
X170615000Y-83223000D01*
X163300974Y-83223000D01*
X163335000Y-83051939D01*
X163335000Y-82848061D01*
X163295226Y-82648102D01*
X163217205Y-82459744D01*
X163103937Y-82290226D01*
X162959774Y-82146063D01*
X162790256Y-82032795D01*
X162601898Y-81954774D01*
X162401939Y-81915000D01*
X162198061Y-81915000D01*
X161998102Y-81954774D01*
X161809744Y-82032795D01*
X161645000Y-82142873D01*
X161645000Y-82073740D01*
X161587932Y-81786842D01*
X161475990Y-81516589D01*
X161324212Y-81289437D01*
X191114375Y-81289437D01*
X191114375Y-81550563D01*
X191165318Y-81806671D01*
X191265246Y-82047919D01*
X191410320Y-82265037D01*
X191594963Y-82449680D01*
X191812081Y-82594754D01*
X192047207Y-82692146D01*
X191861908Y-82759942D01*
X191763359Y-82812618D01*
X191705037Y-83045432D01*
X192440000Y-83780395D01*
X193174963Y-83045432D01*
X193116641Y-82812618D01*
X192879796Y-82702658D01*
X192834172Y-82691575D01*
X193067919Y-82594754D01*
X193285037Y-82449680D01*
X193469680Y-82265037D01*
X193614754Y-82047919D01*
X193661982Y-81933900D01*
X193742933Y-82129332D01*
X193906816Y-82374601D01*
X194115399Y-82583184D01*
X194360668Y-82747067D01*
X194633195Y-82859952D01*
X194922509Y-82917500D01*
X195217491Y-82917500D01*
X195506805Y-82859952D01*
X195779332Y-82747067D01*
X196024601Y-82583184D01*
X196233184Y-82374601D01*
X196397067Y-82129332D01*
X196509952Y-81856805D01*
X196567500Y-81567491D01*
X196567500Y-81272509D01*
X196509952Y-80983195D01*
X196397067Y-80710668D01*
X196233184Y-80465399D01*
X196024601Y-80256816D01*
X195779332Y-80092933D01*
X195506805Y-79980048D01*
X195217491Y-79922500D01*
X194922509Y-79922500D01*
X194633195Y-79980048D01*
X194360668Y-80092933D01*
X194115399Y-80256816D01*
X193906816Y-80465399D01*
X193742933Y-80710668D01*
X193661982Y-80906100D01*
X193614754Y-80792081D01*
X193469680Y-80574963D01*
X193285037Y-80390320D01*
X193067919Y-80245246D01*
X192826671Y-80145318D01*
X192570563Y-80094375D01*
X192309437Y-80094375D01*
X192053329Y-80145318D01*
X191812081Y-80245246D01*
X191594963Y-80390320D01*
X191410320Y-80574963D01*
X191265246Y-80792081D01*
X191165318Y-81033329D01*
X191114375Y-81289437D01*
X161324212Y-81289437D01*
X161313475Y-81273368D01*
X161106632Y-81066525D01*
X160933271Y-80950689D01*
X161008792Y-80708397D01*
X160160000Y-79859605D01*
X159311208Y-80708397D01*
X159386729Y-80950689D01*
X159213368Y-81066525D01*
X159006525Y-81273368D01*
X158890000Y-81447760D01*
X158773475Y-81273368D01*
X158566632Y-81066525D01*
X158392240Y-80950000D01*
X158566632Y-80833475D01*
X158773475Y-80626632D01*
X158889311Y-80453271D01*
X159131603Y-80528792D01*
X159980395Y-79680000D01*
X160339605Y-79680000D01*
X161188397Y-80528792D01*
X161437472Y-80451157D01*
X161563371Y-80187117D01*
X161635339Y-79903589D01*
X161650611Y-79611469D01*
X161608599Y-79321981D01*
X161510919Y-79046253D01*
X161443246Y-78919645D01*
X175512305Y-78919645D01*
X175559886Y-79104025D01*
X175712122Y-79441653D01*
X175927301Y-79743094D01*
X176197153Y-79996763D01*
X176511309Y-80192912D01*
X176857695Y-80324004D01*
X177223000Y-80385000D01*
X177873000Y-80385000D01*
X177873000Y-78627000D01*
X178127000Y-78627000D01*
X178127000Y-80385000D01*
X178777000Y-80385000D01*
X179142305Y-80324004D01*
X179488691Y-80192912D01*
X179802847Y-79996763D01*
X180072699Y-79743094D01*
X180287878Y-79441653D01*
X180440114Y-79104025D01*
X180487695Y-78919645D01*
X180371572Y-78627000D01*
X178127000Y-78627000D01*
X177873000Y-78627000D01*
X175628428Y-78627000D01*
X175512305Y-78919645D01*
X161443246Y-78919645D01*
X161437472Y-78908843D01*
X161188397Y-78831208D01*
X160339605Y-79680000D01*
X159980395Y-79680000D01*
X159131603Y-78831208D01*
X158889311Y-78906729D01*
X158773475Y-78733368D01*
X158691710Y-78651603D01*
X159311208Y-78651603D01*
X160160000Y-79500395D01*
X161008792Y-78651603D01*
X160931157Y-78402528D01*
X160667117Y-78276629D01*
X160383589Y-78204661D01*
X160091469Y-78189389D01*
X159801981Y-78231401D01*
X159526253Y-78329081D01*
X159388843Y-78402528D01*
X159311208Y-78651603D01*
X158691710Y-78651603D01*
X158566632Y-78526525D01*
X158323411Y-78364010D01*
X158053158Y-78252068D01*
X157766260Y-78195000D01*
X157473740Y-78195000D01*
X157186842Y-78252068D01*
X156916589Y-78364010D01*
X156673368Y-78526525D01*
X156466525Y-78733368D01*
X156350000Y-78907760D01*
X156233475Y-78733368D01*
X156026632Y-78526525D01*
X155783411Y-78364010D01*
X155513158Y-78252068D01*
X155226260Y-78195000D01*
X154933740Y-78195000D01*
X154646842Y-78252068D01*
X154376589Y-78364010D01*
X154133368Y-78526525D01*
X153926525Y-78733368D01*
X153810000Y-78907760D01*
X153693475Y-78733368D01*
X153486632Y-78526525D01*
X153243411Y-78364010D01*
X152973158Y-78252068D01*
X152686260Y-78195000D01*
X152393740Y-78195000D01*
X152106842Y-78252068D01*
X151836589Y-78364010D01*
X151593368Y-78526525D01*
X151386525Y-78733368D01*
X151270000Y-78907760D01*
X151153475Y-78733368D01*
X150946632Y-78526525D01*
X150703411Y-78364010D01*
X150433158Y-78252068D01*
X150146260Y-78195000D01*
X149853740Y-78195000D01*
X149566842Y-78252068D01*
X149296589Y-78364010D01*
X149053368Y-78526525D01*
X148846525Y-78733368D01*
X148730000Y-78907760D01*
X148613475Y-78733368D01*
X148406632Y-78526525D01*
X148163411Y-78364010D01*
X147893158Y-78252068D01*
X147606260Y-78195000D01*
X147313740Y-78195000D01*
X147026842Y-78252068D01*
X146756589Y-78364010D01*
X146513368Y-78526525D01*
X146306525Y-78733368D01*
X146190000Y-78907760D01*
X146073475Y-78733368D01*
X145866632Y-78526525D01*
X145623411Y-78364010D01*
X145353158Y-78252068D01*
X145066260Y-78195000D01*
X144773740Y-78195000D01*
X144486842Y-78252068D01*
X144216589Y-78364010D01*
X143973368Y-78526525D01*
X143766525Y-78733368D01*
X143650000Y-78907760D01*
X143533475Y-78733368D01*
X143326632Y-78526525D01*
X143083411Y-78364010D01*
X142813158Y-78252068D01*
X142526260Y-78195000D01*
X142233740Y-78195000D01*
X141946842Y-78252068D01*
X141676589Y-78364010D01*
X141433368Y-78526525D01*
X141226525Y-78733368D01*
X141110000Y-78907760D01*
X140993475Y-78733368D01*
X140786632Y-78526525D01*
X140543411Y-78364010D01*
X140273158Y-78252068D01*
X139986260Y-78195000D01*
X139693740Y-78195000D01*
X139406842Y-78252068D01*
X139136589Y-78364010D01*
X138893368Y-78526525D01*
X138686525Y-78733368D01*
X138524010Y-78976589D01*
X138412068Y-79246842D01*
X138355000Y-79533740D01*
X137660000Y-79533740D01*
X137660000Y-78032279D01*
X137669580Y-77934576D01*
X137688580Y-77871644D01*
X137719445Y-77813595D01*
X137760989Y-77762657D01*
X137811644Y-77720752D01*
X137869471Y-77689485D01*
X137932272Y-77670044D01*
X138027835Y-77660000D01*
X175666287Y-77660000D01*
X175559886Y-77895975D01*
G37*
%TD.AperFunction*%
%TD*%
M02*
