%TF.GenerationSoftware,KiCad,Pcbnew,5.1.9-73d0e3b20d~88~ubuntu20.04.1*%
%TF.CreationDate,2021-06-05T19:42:07+02:00*%
%TF.ProjectId,andy,616e6479-2e6b-4696-9361-645f70636258,v1.00*%
%TF.SameCoordinates,Original*%
%TF.FileFunction,Legend,Top*%
%TF.FilePolarity,Positive*%
%FSLAX46Y46*%
G04 Gerber Fmt 4.6, Leading zero omitted, Abs format (unit mm)*
G04 Created by KiCad (PCBNEW 5.1.9-73d0e3b20d~88~ubuntu20.04.1) date 2021-06-05 19:42:07*
%MOMM*%
%LPD*%
G01*
G04 APERTURE LIST*
%ADD10C,0.150000*%
%ADD11C,0.250000*%
%ADD12C,0.200000*%
%ADD13C,0.100000*%
%ADD14C,0.120000*%
%ADD15C,0.127000*%
%ADD16C,0.254000*%
G04 APERTURE END LIST*
D10*
X196842857Y-105532857D02*
X197700000Y-105532857D01*
X197871428Y-105590000D01*
X197985714Y-105704285D01*
X198042857Y-105875714D01*
X198042857Y-105990000D01*
X198042857Y-104390000D02*
X198042857Y-104961428D01*
X196842857Y-104961428D01*
X197928571Y-103304285D02*
X197985714Y-103361428D01*
X198042857Y-103532857D01*
X198042857Y-103647142D01*
X197985714Y-103818571D01*
X197871428Y-103932857D01*
X197757142Y-103990000D01*
X197528571Y-104047142D01*
X197357142Y-104047142D01*
X197128571Y-103990000D01*
X197014285Y-103932857D01*
X196900000Y-103818571D01*
X196842857Y-103647142D01*
X196842857Y-103532857D01*
X196900000Y-103361428D01*
X196957142Y-103304285D01*
X196842857Y-102447142D02*
X197700000Y-102447142D01*
X197871428Y-102504285D01*
X197985714Y-102618571D01*
X198042857Y-102790000D01*
X198042857Y-102904285D01*
X198042857Y-101304285D02*
X198042857Y-101875714D01*
X196842857Y-101875714D01*
X197928571Y-100218571D02*
X197985714Y-100275714D01*
X198042857Y-100447142D01*
X198042857Y-100561428D01*
X197985714Y-100732857D01*
X197871428Y-100847142D01*
X197757142Y-100904285D01*
X197528571Y-100961428D01*
X197357142Y-100961428D01*
X197128571Y-100904285D01*
X197014285Y-100847142D01*
X196900000Y-100732857D01*
X196842857Y-100561428D01*
X196842857Y-100447142D01*
X196900000Y-100275714D01*
X196957142Y-100218571D01*
X196842857Y-99361428D02*
X197700000Y-99361428D01*
X197871428Y-99418571D01*
X197985714Y-99532857D01*
X198042857Y-99704285D01*
X198042857Y-99818571D01*
X198042857Y-98218571D02*
X198042857Y-98790000D01*
X196842857Y-98790000D01*
X197928571Y-97132857D02*
X197985714Y-97190000D01*
X198042857Y-97361428D01*
X198042857Y-97475714D01*
X197985714Y-97647142D01*
X197871428Y-97761428D01*
X197757142Y-97818571D01*
X197528571Y-97875714D01*
X197357142Y-97875714D01*
X197128571Y-97818571D01*
X197014285Y-97761428D01*
X196900000Y-97647142D01*
X196842857Y-97475714D01*
X196842857Y-97361428D01*
X196900000Y-97190000D01*
X196957142Y-97132857D01*
X196842857Y-96275714D02*
X197700000Y-96275714D01*
X197871428Y-96332857D01*
X197985714Y-96447142D01*
X198042857Y-96618571D01*
X198042857Y-96732857D01*
X198042857Y-95132857D02*
X198042857Y-95704285D01*
X196842857Y-95704285D01*
X197928571Y-94047142D02*
X197985714Y-94104285D01*
X198042857Y-94275714D01*
X198042857Y-94390000D01*
X197985714Y-94561428D01*
X197871428Y-94675714D01*
X197757142Y-94732857D01*
X197528571Y-94790000D01*
X197357142Y-94790000D01*
X197128571Y-94732857D01*
X197014285Y-94675714D01*
X196900000Y-94561428D01*
X196842857Y-94390000D01*
X196842857Y-94275714D01*
X196900000Y-94104285D01*
X196957142Y-94047142D01*
D11*
X143395238Y-98708333D02*
X144347619Y-98708333D01*
X143204761Y-99279761D02*
X143871428Y-97279761D01*
X144538095Y-99279761D01*
X145204761Y-97946428D02*
X145204761Y-99279761D01*
X145204761Y-98136904D02*
X145300000Y-98041666D01*
X145490476Y-97946428D01*
X145776190Y-97946428D01*
X145966666Y-98041666D01*
X146061904Y-98232142D01*
X146061904Y-99279761D01*
X147871428Y-99279761D02*
X147871428Y-97279761D01*
X147871428Y-99184523D02*
X147680952Y-99279761D01*
X147300000Y-99279761D01*
X147109523Y-99184523D01*
X147014285Y-99089285D01*
X146919047Y-98898809D01*
X146919047Y-98327380D01*
X147014285Y-98136904D01*
X147109523Y-98041666D01*
X147300000Y-97946428D01*
X147680952Y-97946428D01*
X147871428Y-98041666D01*
X148633333Y-97946428D02*
X149109523Y-99279761D01*
X149585714Y-97946428D02*
X149109523Y-99279761D01*
X148919047Y-99755952D01*
X148823809Y-99851190D01*
X148633333Y-99946428D01*
X151680952Y-97946428D02*
X152157142Y-99279761D01*
X152633333Y-97946428D01*
X154442857Y-99279761D02*
X153300000Y-99279761D01*
X153871428Y-99279761D02*
X153871428Y-97279761D01*
X153680952Y-97565476D01*
X153490476Y-97755952D01*
X153300000Y-97851190D01*
X155300000Y-99089285D02*
X155395238Y-99184523D01*
X155300000Y-99279761D01*
X155204761Y-99184523D01*
X155300000Y-99089285D01*
X155300000Y-99279761D01*
X156633333Y-97279761D02*
X156823809Y-97279761D01*
X157014285Y-97375000D01*
X157109523Y-97470238D01*
X157204761Y-97660714D01*
X157300000Y-98041666D01*
X157300000Y-98517857D01*
X157204761Y-98898809D01*
X157109523Y-99089285D01*
X157014285Y-99184523D01*
X156823809Y-99279761D01*
X156633333Y-99279761D01*
X156442857Y-99184523D01*
X156347619Y-99089285D01*
X156252380Y-98898809D01*
X156157142Y-98517857D01*
X156157142Y-98041666D01*
X156252380Y-97660714D01*
X156347619Y-97470238D01*
X156442857Y-97375000D01*
X156633333Y-97279761D01*
X158538095Y-97279761D02*
X158728571Y-97279761D01*
X158919047Y-97375000D01*
X159014285Y-97470238D01*
X159109523Y-97660714D01*
X159204761Y-98041666D01*
X159204761Y-98517857D01*
X159109523Y-98898809D01*
X159014285Y-99089285D01*
X158919047Y-99184523D01*
X158728571Y-99279761D01*
X158538095Y-99279761D01*
X158347619Y-99184523D01*
X158252380Y-99089285D01*
X158157142Y-98898809D01*
X158061904Y-98517857D01*
X158061904Y-98041666D01*
X158157142Y-97660714D01*
X158252380Y-97470238D01*
X158347619Y-97375000D01*
X158538095Y-97279761D01*
X142633333Y-101196428D02*
X143014285Y-102529761D01*
X143395238Y-101577380D01*
X143776190Y-102529761D01*
X144157142Y-101196428D01*
X144728571Y-101196428D02*
X145109523Y-102529761D01*
X145490476Y-101577380D01*
X145871428Y-102529761D01*
X146252380Y-101196428D01*
X146823809Y-101196428D02*
X147204761Y-102529761D01*
X147585714Y-101577380D01*
X147966666Y-102529761D01*
X148347619Y-101196428D01*
X149109523Y-102339285D02*
X149204761Y-102434523D01*
X149109523Y-102529761D01*
X149014285Y-102434523D01*
X149109523Y-102339285D01*
X149109523Y-102529761D01*
X149966666Y-100720238D02*
X150061904Y-100625000D01*
X150252380Y-100529761D01*
X150728571Y-100529761D01*
X150919047Y-100625000D01*
X151014285Y-100720238D01*
X151109523Y-100910714D01*
X151109523Y-101101190D01*
X151014285Y-101386904D01*
X149871428Y-102529761D01*
X151109523Y-102529761D01*
X151966666Y-101767857D02*
X153490476Y-101767857D01*
X154823809Y-100529761D02*
X155014285Y-100529761D01*
X155204761Y-100625000D01*
X155300000Y-100720238D01*
X155395238Y-100910714D01*
X155490476Y-101291666D01*
X155490476Y-101767857D01*
X155395238Y-102148809D01*
X155300000Y-102339285D01*
X155204761Y-102434523D01*
X155014285Y-102529761D01*
X154823809Y-102529761D01*
X154633333Y-102434523D01*
X154538095Y-102339285D01*
X154442857Y-102148809D01*
X154347619Y-101767857D01*
X154347619Y-101291666D01*
X154442857Y-100910714D01*
X154538095Y-100720238D01*
X154633333Y-100625000D01*
X154823809Y-100529761D01*
X156347619Y-102339285D02*
X156442857Y-102434523D01*
X156347619Y-102529761D01*
X156252380Y-102434523D01*
X156347619Y-102339285D01*
X156347619Y-102529761D01*
X158157142Y-102529761D02*
X158157142Y-100529761D01*
X158157142Y-102434523D02*
X157966666Y-102529761D01*
X157585714Y-102529761D01*
X157395238Y-102434523D01*
X157300000Y-102339285D01*
X157204761Y-102148809D01*
X157204761Y-101577380D01*
X157300000Y-101386904D01*
X157395238Y-101291666D01*
X157585714Y-101196428D01*
X157966666Y-101196428D01*
X158157142Y-101291666D01*
X159109523Y-102529761D02*
X159109523Y-100529761D01*
X159300000Y-101767857D02*
X159871428Y-102529761D01*
X159871428Y-101196428D02*
X159109523Y-101958333D01*
D10*
%TO.C,U1*%
X161430000Y-86030000D02*
X161430000Y-78410000D01*
X138570000Y-78410000D02*
X161430000Y-78410000D01*
X161430000Y-113970000D02*
X161430000Y-121590000D01*
X161430000Y-121590000D02*
X138570000Y-121590000D01*
X138570000Y-78410000D02*
X138570000Y-86030000D01*
X138570000Y-86030000D02*
X161430000Y-86030000D01*
X161430000Y-113970000D02*
X138570000Y-113970000D01*
X138570000Y-113970000D02*
X138570000Y-121590000D01*
D12*
%TO.C,U2*%
X189650000Y-86660000D02*
X189650000Y-86660000D01*
X189650000Y-86460000D02*
X189650000Y-86460000D01*
D13*
X190050000Y-79110000D02*
X203550000Y-79110000D01*
X190050000Y-88810000D02*
X190050000Y-79110000D01*
X203550000Y-88810000D02*
X190050000Y-88810000D01*
X203550000Y-79110000D02*
X203550000Y-88810000D01*
D12*
X189650000Y-86660000D02*
G75*
G03*
X189650000Y-86460000I0J100000D01*
G01*
X189650000Y-86460000D02*
G75*
G03*
X189650000Y-86660000I0J-100000D01*
G01*
D13*
%TO.C,U3*%
X189800000Y-118600000D02*
X189800000Y-118600000D01*
X189800000Y-118500000D02*
X189800000Y-118500000D01*
X190100000Y-111150000D02*
X203600000Y-111150000D01*
X190100000Y-120850000D02*
X190100000Y-111150000D01*
X203600000Y-120850000D02*
X190100000Y-120850000D01*
X203600000Y-111150000D02*
X203600000Y-120850000D01*
X189800000Y-118600000D02*
G75*
G03*
X189800000Y-118500000I0J50000D01*
G01*
X189800000Y-118500000D02*
G75*
G03*
X189800000Y-118600000I0J-50000D01*
G01*
D14*
%TO.C,J1*%
X171100000Y-77100000D02*
X184900000Y-77100000D01*
X184900000Y-77100000D02*
X184900000Y-86000000D01*
X184900000Y-86000000D02*
X171100000Y-86000000D01*
X171100000Y-86000000D02*
X171100000Y-77100000D01*
%TO.C,J2*%
X184900000Y-114000000D02*
X184900000Y-122900000D01*
X171100000Y-114000000D02*
X184900000Y-114000000D01*
X171100000Y-122900000D02*
X171100000Y-114000000D01*
X184900000Y-122900000D02*
X171100000Y-122900000D01*
%TO.C,C1*%
X170670000Y-82159420D02*
X170670000Y-82440580D01*
X169650000Y-82159420D02*
X169650000Y-82440580D01*
%TO.C,C2*%
X188290000Y-85044420D02*
X188290000Y-85325580D01*
X187270000Y-85044420D02*
X187270000Y-85325580D01*
%TO.C,C3*%
X187310000Y-117464420D02*
X187310000Y-117745580D01*
X188330000Y-117464420D02*
X188330000Y-117745580D01*
%TO.C,C4*%
X165450580Y-120310000D02*
X165169420Y-120310000D01*
X165450580Y-121330000D02*
X165169420Y-121330000D01*
%TO.C,C5*%
X165280580Y-83920000D02*
X164999420Y-83920000D01*
X165280580Y-84940000D02*
X164999420Y-84940000D01*
%TO.C,C6*%
X167630000Y-117999420D02*
X167630000Y-118280580D01*
X166610000Y-117999420D02*
X166610000Y-118280580D01*
%TO.C,L1*%
X186760000Y-118004622D02*
X186760000Y-117205378D01*
X185640000Y-118004622D02*
X185640000Y-117205378D01*
%TO.C,R1*%
X170682500Y-79507258D02*
X170682500Y-79032742D01*
X169637500Y-79507258D02*
X169637500Y-79032742D01*
%TO.C,R2*%
X168952500Y-81997258D02*
X168952500Y-81522742D01*
X167907500Y-81997258D02*
X167907500Y-81522742D01*
%TO.C,R3*%
X167442500Y-81532742D02*
X167442500Y-82007258D01*
X166397500Y-81532742D02*
X166397500Y-82007258D01*
%TO.C,R4*%
X164122742Y-78387500D02*
X164597258Y-78387500D01*
X164122742Y-79432500D02*
X164597258Y-79432500D01*
%TO.C,R5*%
X168077500Y-118377258D02*
X168077500Y-117902742D01*
X169122500Y-118377258D02*
X169122500Y-117902742D01*
%TO.C,R6*%
X170642500Y-118377258D02*
X170642500Y-117902742D01*
X169597500Y-118377258D02*
X169597500Y-117902742D01*
%TO.C,U4*%
X165970000Y-82670000D02*
X165970000Y-80220000D01*
X162750000Y-80870000D02*
X162750000Y-82670000D01*
%TO.C,U5*%
X162930000Y-117260000D02*
X162930000Y-119060000D01*
X166150000Y-119060000D02*
X166150000Y-116610000D01*
D15*
%TO.C,J3*%
X203500000Y-92500000D02*
X203500000Y-107500000D01*
D14*
X203500000Y-92500000D02*
X201300000Y-92500000D01*
X198700000Y-92500000D02*
X195800000Y-92500000D01*
X203500000Y-107500000D02*
X201300000Y-107500000D01*
X198700000Y-107500000D02*
X195800000Y-107500000D01*
X192300000Y-92700000D02*
X192300000Y-95100000D01*
X192300000Y-107200000D02*
X192300000Y-104900000D01*
%TO.C,C7*%
X182549420Y-106770000D02*
X182830580Y-106770000D01*
X182549420Y-105750000D02*
X182830580Y-105750000D01*
%TO.C,C8*%
X173540000Y-106189420D02*
X173540000Y-106470580D01*
X174560000Y-106189420D02*
X174560000Y-106470580D01*
%TO.C,C9*%
X174570000Y-99209420D02*
X174570000Y-99490580D01*
X173550000Y-99209420D02*
X173550000Y-99490580D01*
%TO.C,D1*%
X183400000Y-109800000D02*
X181550000Y-109800000D01*
X183400000Y-108600000D02*
X181550000Y-108600000D01*
X181550000Y-108600000D02*
X181550000Y-109800000D01*
%TO.C,D2*%
X183400000Y-105410000D02*
X181550000Y-105410000D01*
X183400000Y-104210000D02*
X181550000Y-104210000D01*
X181550000Y-104210000D02*
X181550000Y-105410000D01*
%TO.C,D3*%
X181550000Y-101600000D02*
X181550000Y-102800000D01*
X183400000Y-101600000D02*
X181550000Y-101600000D01*
X183400000Y-102800000D02*
X181550000Y-102800000D01*
%TO.C,D4*%
X183400000Y-98400000D02*
X181550000Y-98400000D01*
X183400000Y-97200000D02*
X181550000Y-97200000D01*
X181550000Y-97200000D02*
X181550000Y-98400000D01*
%TO.C,D5*%
X168150000Y-110630000D02*
X168150000Y-109430000D01*
X166300000Y-110630000D02*
X168150000Y-110630000D01*
X166300000Y-109430000D02*
X168150000Y-109430000D01*
%TO.C,Q1*%
X167760000Y-114080000D02*
X166300000Y-114080000D01*
X167760000Y-110920000D02*
X165600000Y-110920000D01*
X167760000Y-110920000D02*
X167760000Y-111850000D01*
X167760000Y-114080000D02*
X167760000Y-113150000D01*
%TO.C,R7*%
X179462742Y-103042500D02*
X179937258Y-103042500D01*
X179462742Y-101997500D02*
X179937258Y-101997500D01*
%TO.C,R8*%
X182452742Y-107217500D02*
X182927258Y-107217500D01*
X182452742Y-108262500D02*
X182927258Y-108262500D01*
%TO.C,R9*%
X179462742Y-96957500D02*
X179937258Y-96957500D01*
X179462742Y-98002500D02*
X179937258Y-98002500D01*
%TO.C,R10*%
X182462742Y-98727500D02*
X182937258Y-98727500D01*
X182462742Y-99772500D02*
X182937258Y-99772500D01*
%TO.C,R11*%
X182462742Y-101272500D02*
X182937258Y-101272500D01*
X182462742Y-100227500D02*
X182937258Y-100227500D01*
%TO.C,R12*%
X179727258Y-103957500D02*
X179252742Y-103957500D01*
X179727258Y-105002500D02*
X179252742Y-105002500D01*
%TO.C,R13*%
X176747258Y-105002500D02*
X176272742Y-105002500D01*
X176747258Y-103957500D02*
X176272742Y-103957500D01*
%TO.C,R14*%
X164027500Y-112262742D02*
X164027500Y-112737258D01*
X165072500Y-112262742D02*
X165072500Y-112737258D01*
%TO.C,R15*%
X179737258Y-108997500D02*
X179262742Y-108997500D01*
X179737258Y-110042500D02*
X179262742Y-110042500D01*
%TO.C,R16*%
X176737258Y-110042500D02*
X176262742Y-110042500D01*
X176737258Y-108997500D02*
X176262742Y-108997500D01*
%TO.C,U6*%
X178000000Y-108610000D02*
X179500000Y-108610000D01*
X178000000Y-108610000D02*
X176500000Y-108610000D01*
X178000000Y-105390000D02*
X179500000Y-105390000D01*
X178000000Y-105390000D02*
X175075000Y-105390000D01*
%TO.C,U7*%
X178000000Y-98390000D02*
X175075000Y-98390000D01*
X178000000Y-98390000D02*
X179500000Y-98390000D01*
X178000000Y-101610000D02*
X176500000Y-101610000D01*
X178000000Y-101610000D02*
X179500000Y-101610000D01*
%TO.C,IC1*%
X177900000Y-94610000D02*
X179400000Y-94610000D01*
X177900000Y-94610000D02*
X176400000Y-94610000D01*
X177900000Y-91390000D02*
X179400000Y-91390000D01*
X177900000Y-91390000D02*
X174975000Y-91390000D01*
%TO.C,C10*%
X178140580Y-91010000D02*
X177859420Y-91010000D01*
X178140580Y-89990000D02*
X177859420Y-89990000D01*
%TO.C,C11*%
X156440580Y-107360000D02*
X156159420Y-107360000D01*
X156440580Y-108380000D02*
X156159420Y-108380000D01*
%TO.C,U8*%
X153635001Y-112820000D02*
X158935001Y-112820000D01*
X153635001Y-109120000D02*
X153635001Y-112820000D01*
%TO.C,J4*%
X138510000Y-106330000D02*
X138510000Y-105000000D01*
X139840000Y-106330000D02*
X138510000Y-106330000D01*
X141110000Y-106330000D02*
X141110000Y-103670000D01*
X141110000Y-103670000D02*
X164030000Y-103670000D01*
X141110000Y-106330000D02*
X164030000Y-106330000D01*
X164030000Y-106330000D02*
X164030000Y-103670000D01*
%TO.C,J5*%
X164030000Y-96330000D02*
X164030000Y-93670000D01*
X141110000Y-96330000D02*
X164030000Y-96330000D01*
X141110000Y-93670000D02*
X164030000Y-93670000D01*
X141110000Y-96330000D02*
X141110000Y-93670000D01*
X139840000Y-96330000D02*
X138510000Y-96330000D01*
X138510000Y-96330000D02*
X138510000Y-95000000D01*
%TO.C,R17*%
X150522500Y-112022742D02*
X150522500Y-112497258D01*
X149477500Y-112022742D02*
X149477500Y-112497258D01*
%TO.C,J6*%
X146250000Y-113260000D02*
X146250000Y-108060000D01*
X141110000Y-113260000D02*
X146250000Y-113260000D01*
X138510000Y-108060000D02*
X146250000Y-108060000D01*
X141110000Y-113260000D02*
X141110000Y-110660000D01*
X141110000Y-110660000D02*
X138510000Y-110660000D01*
X138510000Y-110660000D02*
X138510000Y-108060000D01*
X139840000Y-113260000D02*
X138510000Y-113260000D01*
X138510000Y-113260000D02*
X138510000Y-111930000D01*
%TO.C,U1*%
D10*
X138748095Y-86542380D02*
X138748095Y-87351904D01*
X138795714Y-87447142D01*
X138843333Y-87494761D01*
X138938571Y-87542380D01*
X139129047Y-87542380D01*
X139224285Y-87494761D01*
X139271904Y-87447142D01*
X139319523Y-87351904D01*
X139319523Y-86542380D01*
X140319523Y-87542380D02*
X139748095Y-87542380D01*
X140033809Y-87542380D02*
X140033809Y-86542380D01*
X139938571Y-86685238D01*
X139843333Y-86780476D01*
X139748095Y-86828095D01*
%TO.C,U2*%
D16*
X187914523Y-81237619D02*
X188942619Y-81237619D01*
X189063571Y-81177142D01*
X189124047Y-81116666D01*
X189184523Y-80995714D01*
X189184523Y-80753809D01*
X189124047Y-80632857D01*
X189063571Y-80572380D01*
X188942619Y-80511904D01*
X187914523Y-80511904D01*
X188035476Y-79967619D02*
X187975000Y-79907142D01*
X187914523Y-79786190D01*
X187914523Y-79483809D01*
X187975000Y-79362857D01*
X188035476Y-79302380D01*
X188156428Y-79241904D01*
X188277380Y-79241904D01*
X188458809Y-79302380D01*
X189184523Y-80028095D01*
X189184523Y-79241904D01*
%TO.C,U3*%
X188034523Y-113267619D02*
X189062619Y-113267619D01*
X189183571Y-113207142D01*
X189244047Y-113146666D01*
X189304523Y-113025714D01*
X189304523Y-112783809D01*
X189244047Y-112662857D01*
X189183571Y-112602380D01*
X189062619Y-112541904D01*
X188034523Y-112541904D01*
X188034523Y-112058095D02*
X188034523Y-111271904D01*
X188518333Y-111695238D01*
X188518333Y-111513809D01*
X188578809Y-111392857D01*
X188639285Y-111332380D01*
X188760238Y-111271904D01*
X189062619Y-111271904D01*
X189183571Y-111332380D01*
X189244047Y-111392857D01*
X189304523Y-111513809D01*
X189304523Y-111876666D01*
X189244047Y-111997619D01*
X189183571Y-112058095D01*
%TO.C,J1*%
D10*
X177906666Y-86472380D02*
X177906666Y-87186666D01*
X177859047Y-87329523D01*
X177763809Y-87424761D01*
X177620952Y-87472380D01*
X177525714Y-87472380D01*
X178906666Y-87472380D02*
X178335238Y-87472380D01*
X178620952Y-87472380D02*
X178620952Y-86472380D01*
X178525714Y-86615238D01*
X178430476Y-86710476D01*
X178335238Y-86758095D01*
%TO.C,J2*%
X177706666Y-112392380D02*
X177706666Y-113106666D01*
X177659047Y-113249523D01*
X177563809Y-113344761D01*
X177420952Y-113392380D01*
X177325714Y-113392380D01*
X178135238Y-112487619D02*
X178182857Y-112440000D01*
X178278095Y-112392380D01*
X178516190Y-112392380D01*
X178611428Y-112440000D01*
X178659047Y-112487619D01*
X178706666Y-112582857D01*
X178706666Y-112678095D01*
X178659047Y-112820952D01*
X178087619Y-113392380D01*
X178706666Y-113392380D01*
%TO.C,C1*%
X170617142Y-84946666D02*
X170664761Y-84994285D01*
X170712380Y-85137142D01*
X170712380Y-85232380D01*
X170664761Y-85375238D01*
X170569523Y-85470476D01*
X170474285Y-85518095D01*
X170283809Y-85565714D01*
X170140952Y-85565714D01*
X169950476Y-85518095D01*
X169855238Y-85470476D01*
X169760000Y-85375238D01*
X169712380Y-85232380D01*
X169712380Y-85137142D01*
X169760000Y-84994285D01*
X169807619Y-84946666D01*
X170712380Y-83994285D02*
X170712380Y-84565714D01*
X170712380Y-84280000D02*
X169712380Y-84280000D01*
X169855238Y-84375238D01*
X169950476Y-84470476D01*
X169998095Y-84565714D01*
%TO.C,C2*%
X186817142Y-85346666D02*
X186864761Y-85394285D01*
X186912380Y-85537142D01*
X186912380Y-85632380D01*
X186864761Y-85775238D01*
X186769523Y-85870476D01*
X186674285Y-85918095D01*
X186483809Y-85965714D01*
X186340952Y-85965714D01*
X186150476Y-85918095D01*
X186055238Y-85870476D01*
X185960000Y-85775238D01*
X185912380Y-85632380D01*
X185912380Y-85537142D01*
X185960000Y-85394285D01*
X186007619Y-85346666D01*
X186007619Y-84965714D02*
X185960000Y-84918095D01*
X185912380Y-84822857D01*
X185912380Y-84584761D01*
X185960000Y-84489523D01*
X186007619Y-84441904D01*
X186102857Y-84394285D01*
X186198095Y-84394285D01*
X186340952Y-84441904D01*
X186912380Y-85013333D01*
X186912380Y-84394285D01*
%TO.C,C3*%
X188177142Y-120256666D02*
X188224761Y-120304285D01*
X188272380Y-120447142D01*
X188272380Y-120542380D01*
X188224761Y-120685238D01*
X188129523Y-120780476D01*
X188034285Y-120828095D01*
X187843809Y-120875714D01*
X187700952Y-120875714D01*
X187510476Y-120828095D01*
X187415238Y-120780476D01*
X187320000Y-120685238D01*
X187272380Y-120542380D01*
X187272380Y-120447142D01*
X187320000Y-120304285D01*
X187367619Y-120256666D01*
X187272380Y-119923333D02*
X187272380Y-119304285D01*
X187653333Y-119637619D01*
X187653333Y-119494761D01*
X187700952Y-119399523D01*
X187748571Y-119351904D01*
X187843809Y-119304285D01*
X188081904Y-119304285D01*
X188177142Y-119351904D01*
X188224761Y-119399523D01*
X188272380Y-119494761D01*
X188272380Y-119780476D01*
X188224761Y-119875714D01*
X188177142Y-119923333D01*
%TO.C,C4*%
X167723333Y-121167142D02*
X167675714Y-121214761D01*
X167532857Y-121262380D01*
X167437619Y-121262380D01*
X167294761Y-121214761D01*
X167199523Y-121119523D01*
X167151904Y-121024285D01*
X167104285Y-120833809D01*
X167104285Y-120690952D01*
X167151904Y-120500476D01*
X167199523Y-120405238D01*
X167294761Y-120310000D01*
X167437619Y-120262380D01*
X167532857Y-120262380D01*
X167675714Y-120310000D01*
X167723333Y-120357619D01*
X168580476Y-120595714D02*
X168580476Y-121262380D01*
X168342380Y-120214761D02*
X168104285Y-120929047D01*
X168723333Y-120929047D01*
%TO.C,C5*%
X164943333Y-86177142D02*
X164895714Y-86224761D01*
X164752857Y-86272380D01*
X164657619Y-86272380D01*
X164514761Y-86224761D01*
X164419523Y-86129523D01*
X164371904Y-86034285D01*
X164324285Y-85843809D01*
X164324285Y-85700952D01*
X164371904Y-85510476D01*
X164419523Y-85415238D01*
X164514761Y-85320000D01*
X164657619Y-85272380D01*
X164752857Y-85272380D01*
X164895714Y-85320000D01*
X164943333Y-85367619D01*
X165848095Y-85272380D02*
X165371904Y-85272380D01*
X165324285Y-85748571D01*
X165371904Y-85700952D01*
X165467142Y-85653333D01*
X165705238Y-85653333D01*
X165800476Y-85700952D01*
X165848095Y-85748571D01*
X165895714Y-85843809D01*
X165895714Y-86081904D01*
X165848095Y-86177142D01*
X165800476Y-86224761D01*
X165705238Y-86272380D01*
X165467142Y-86272380D01*
X165371904Y-86224761D01*
X165324285Y-86177142D01*
%TO.C,C6*%
X167607142Y-115716666D02*
X167654761Y-115764285D01*
X167702380Y-115907142D01*
X167702380Y-116002380D01*
X167654761Y-116145238D01*
X167559523Y-116240476D01*
X167464285Y-116288095D01*
X167273809Y-116335714D01*
X167130952Y-116335714D01*
X166940476Y-116288095D01*
X166845238Y-116240476D01*
X166750000Y-116145238D01*
X166702380Y-116002380D01*
X166702380Y-115907142D01*
X166750000Y-115764285D01*
X166797619Y-115716666D01*
X166702380Y-114859523D02*
X166702380Y-115050000D01*
X166750000Y-115145238D01*
X166797619Y-115192857D01*
X166940476Y-115288095D01*
X167130952Y-115335714D01*
X167511904Y-115335714D01*
X167607142Y-115288095D01*
X167654761Y-115240476D01*
X167702380Y-115145238D01*
X167702380Y-114954761D01*
X167654761Y-114859523D01*
X167607142Y-114811904D01*
X167511904Y-114764285D01*
X167273809Y-114764285D01*
X167178571Y-114811904D01*
X167130952Y-114859523D01*
X167083333Y-114954761D01*
X167083333Y-115145238D01*
X167130952Y-115240476D01*
X167178571Y-115288095D01*
X167273809Y-115335714D01*
%TO.C,L1*%
X186672380Y-120436666D02*
X186672380Y-120912857D01*
X185672380Y-120912857D01*
X186672380Y-119579523D02*
X186672380Y-120150952D01*
X186672380Y-119865238D02*
X185672380Y-119865238D01*
X185815238Y-119960476D01*
X185910476Y-120055714D01*
X185958095Y-120150952D01*
%TO.C,R1*%
X169162380Y-79266666D02*
X168686190Y-79600000D01*
X169162380Y-79838095D02*
X168162380Y-79838095D01*
X168162380Y-79457142D01*
X168210000Y-79361904D01*
X168257619Y-79314285D01*
X168352857Y-79266666D01*
X168495714Y-79266666D01*
X168590952Y-79314285D01*
X168638571Y-79361904D01*
X168686190Y-79457142D01*
X168686190Y-79838095D01*
X169162380Y-78314285D02*
X169162380Y-78885714D01*
X169162380Y-78600000D02*
X168162380Y-78600000D01*
X168305238Y-78695238D01*
X168400476Y-78790476D01*
X168448095Y-78885714D01*
%TO.C,R2*%
X168722380Y-84376666D02*
X168246190Y-84710000D01*
X168722380Y-84948095D02*
X167722380Y-84948095D01*
X167722380Y-84567142D01*
X167770000Y-84471904D01*
X167817619Y-84424285D01*
X167912857Y-84376666D01*
X168055714Y-84376666D01*
X168150952Y-84424285D01*
X168198571Y-84471904D01*
X168246190Y-84567142D01*
X168246190Y-84948095D01*
X167817619Y-83995714D02*
X167770000Y-83948095D01*
X167722380Y-83852857D01*
X167722380Y-83614761D01*
X167770000Y-83519523D01*
X167817619Y-83471904D01*
X167912857Y-83424285D01*
X168008095Y-83424285D01*
X168150952Y-83471904D01*
X168722380Y-84043333D01*
X168722380Y-83424285D01*
%TO.C,R3*%
X167472380Y-79526666D02*
X166996190Y-79860000D01*
X167472380Y-80098095D02*
X166472380Y-80098095D01*
X166472380Y-79717142D01*
X166520000Y-79621904D01*
X166567619Y-79574285D01*
X166662857Y-79526666D01*
X166805714Y-79526666D01*
X166900952Y-79574285D01*
X166948571Y-79621904D01*
X166996190Y-79717142D01*
X166996190Y-80098095D01*
X166472380Y-79193333D02*
X166472380Y-78574285D01*
X166853333Y-78907619D01*
X166853333Y-78764761D01*
X166900952Y-78669523D01*
X166948571Y-78621904D01*
X167043809Y-78574285D01*
X167281904Y-78574285D01*
X167377142Y-78621904D01*
X167424761Y-78669523D01*
X167472380Y-78764761D01*
X167472380Y-79050476D01*
X167424761Y-79145714D01*
X167377142Y-79193333D01*
%TO.C,R4*%
X162802380Y-79076666D02*
X162326190Y-79410000D01*
X162802380Y-79648095D02*
X161802380Y-79648095D01*
X161802380Y-79267142D01*
X161850000Y-79171904D01*
X161897619Y-79124285D01*
X161992857Y-79076666D01*
X162135714Y-79076666D01*
X162230952Y-79124285D01*
X162278571Y-79171904D01*
X162326190Y-79267142D01*
X162326190Y-79648095D01*
X162135714Y-78219523D02*
X162802380Y-78219523D01*
X161754761Y-78457619D02*
X162469047Y-78695714D01*
X162469047Y-78076666D01*
%TO.C,R5*%
X169042380Y-115796666D02*
X168566190Y-116130000D01*
X169042380Y-116368095D02*
X168042380Y-116368095D01*
X168042380Y-115987142D01*
X168090000Y-115891904D01*
X168137619Y-115844285D01*
X168232857Y-115796666D01*
X168375714Y-115796666D01*
X168470952Y-115844285D01*
X168518571Y-115891904D01*
X168566190Y-115987142D01*
X168566190Y-116368095D01*
X168042380Y-114891904D02*
X168042380Y-115368095D01*
X168518571Y-115415714D01*
X168470952Y-115368095D01*
X168423333Y-115272857D01*
X168423333Y-115034761D01*
X168470952Y-114939523D01*
X168518571Y-114891904D01*
X168613809Y-114844285D01*
X168851904Y-114844285D01*
X168947142Y-114891904D01*
X168994761Y-114939523D01*
X169042380Y-115034761D01*
X169042380Y-115272857D01*
X168994761Y-115368095D01*
X168947142Y-115415714D01*
%TO.C,R6*%
X170522380Y-115716666D02*
X170046190Y-116050000D01*
X170522380Y-116288095D02*
X169522380Y-116288095D01*
X169522380Y-115907142D01*
X169570000Y-115811904D01*
X169617619Y-115764285D01*
X169712857Y-115716666D01*
X169855714Y-115716666D01*
X169950952Y-115764285D01*
X169998571Y-115811904D01*
X170046190Y-115907142D01*
X170046190Y-116288095D01*
X169522380Y-114859523D02*
X169522380Y-115050000D01*
X169570000Y-115145238D01*
X169617619Y-115192857D01*
X169760476Y-115288095D01*
X169950952Y-115335714D01*
X170331904Y-115335714D01*
X170427142Y-115288095D01*
X170474761Y-115240476D01*
X170522380Y-115145238D01*
X170522380Y-114954761D01*
X170474761Y-114859523D01*
X170427142Y-114811904D01*
X170331904Y-114764285D01*
X170093809Y-114764285D01*
X169998571Y-114811904D01*
X169950952Y-114859523D01*
X169903333Y-114954761D01*
X169903333Y-115145238D01*
X169950952Y-115240476D01*
X169998571Y-115288095D01*
X170093809Y-115335714D01*
%TO.C,U4*%
X161812380Y-85081904D02*
X162621904Y-85081904D01*
X162717142Y-85034285D01*
X162764761Y-84986666D01*
X162812380Y-84891428D01*
X162812380Y-84700952D01*
X162764761Y-84605714D01*
X162717142Y-84558095D01*
X162621904Y-84510476D01*
X161812380Y-84510476D01*
X162145714Y-83605714D02*
X162812380Y-83605714D01*
X161764761Y-83843809D02*
X162479047Y-84081904D01*
X162479047Y-83462857D01*
%TO.C,U5*%
X163758095Y-115072380D02*
X163758095Y-115881904D01*
X163805714Y-115977142D01*
X163853333Y-116024761D01*
X163948571Y-116072380D01*
X164139047Y-116072380D01*
X164234285Y-116024761D01*
X164281904Y-115977142D01*
X164329523Y-115881904D01*
X164329523Y-115072380D01*
X165281904Y-115072380D02*
X164805714Y-115072380D01*
X164758095Y-115548571D01*
X164805714Y-115500952D01*
X164900952Y-115453333D01*
X165139047Y-115453333D01*
X165234285Y-115500952D01*
X165281904Y-115548571D01*
X165329523Y-115643809D01*
X165329523Y-115881904D01*
X165281904Y-115977142D01*
X165234285Y-116024761D01*
X165139047Y-116072380D01*
X164900952Y-116072380D01*
X164805714Y-116024761D01*
X164758095Y-115977142D01*
%TO.C,J3*%
X196750000Y-90839285D02*
X196750000Y-91375000D01*
X196714285Y-91482142D01*
X196642857Y-91553571D01*
X196535714Y-91589285D01*
X196464285Y-91589285D01*
X197035714Y-90839285D02*
X197500000Y-90839285D01*
X197250000Y-91125000D01*
X197357142Y-91125000D01*
X197428571Y-91160714D01*
X197464285Y-91196428D01*
X197500000Y-91267857D01*
X197500000Y-91446428D01*
X197464285Y-91517857D01*
X197428571Y-91553571D01*
X197357142Y-91589285D01*
X197142857Y-91589285D01*
X197071428Y-91553571D01*
X197035714Y-91517857D01*
%TO.C,C7*%
X185153333Y-106617142D02*
X185105714Y-106664761D01*
X184962857Y-106712380D01*
X184867619Y-106712380D01*
X184724761Y-106664761D01*
X184629523Y-106569523D01*
X184581904Y-106474285D01*
X184534285Y-106283809D01*
X184534285Y-106140952D01*
X184581904Y-105950476D01*
X184629523Y-105855238D01*
X184724761Y-105760000D01*
X184867619Y-105712380D01*
X184962857Y-105712380D01*
X185105714Y-105760000D01*
X185153333Y-105807619D01*
X185486666Y-105712380D02*
X186153333Y-105712380D01*
X185724761Y-106712380D01*
%TO.C,C8*%
X173047142Y-106496666D02*
X173094761Y-106544285D01*
X173142380Y-106687142D01*
X173142380Y-106782380D01*
X173094761Y-106925238D01*
X172999523Y-107020476D01*
X172904285Y-107068095D01*
X172713809Y-107115714D01*
X172570952Y-107115714D01*
X172380476Y-107068095D01*
X172285238Y-107020476D01*
X172190000Y-106925238D01*
X172142380Y-106782380D01*
X172142380Y-106687142D01*
X172190000Y-106544285D01*
X172237619Y-106496666D01*
X172570952Y-105925238D02*
X172523333Y-106020476D01*
X172475714Y-106068095D01*
X172380476Y-106115714D01*
X172332857Y-106115714D01*
X172237619Y-106068095D01*
X172190000Y-106020476D01*
X172142380Y-105925238D01*
X172142380Y-105734761D01*
X172190000Y-105639523D01*
X172237619Y-105591904D01*
X172332857Y-105544285D01*
X172380476Y-105544285D01*
X172475714Y-105591904D01*
X172523333Y-105639523D01*
X172570952Y-105734761D01*
X172570952Y-105925238D01*
X172618571Y-106020476D01*
X172666190Y-106068095D01*
X172761428Y-106115714D01*
X172951904Y-106115714D01*
X173047142Y-106068095D01*
X173094761Y-106020476D01*
X173142380Y-105925238D01*
X173142380Y-105734761D01*
X173094761Y-105639523D01*
X173047142Y-105591904D01*
X172951904Y-105544285D01*
X172761428Y-105544285D01*
X172666190Y-105591904D01*
X172618571Y-105639523D01*
X172570952Y-105734761D01*
%TO.C,C9*%
X173147142Y-99516666D02*
X173194761Y-99564285D01*
X173242380Y-99707142D01*
X173242380Y-99802380D01*
X173194761Y-99945238D01*
X173099523Y-100040476D01*
X173004285Y-100088095D01*
X172813809Y-100135714D01*
X172670952Y-100135714D01*
X172480476Y-100088095D01*
X172385238Y-100040476D01*
X172290000Y-99945238D01*
X172242380Y-99802380D01*
X172242380Y-99707142D01*
X172290000Y-99564285D01*
X172337619Y-99516666D01*
X173242380Y-99040476D02*
X173242380Y-98850000D01*
X173194761Y-98754761D01*
X173147142Y-98707142D01*
X173004285Y-98611904D01*
X172813809Y-98564285D01*
X172432857Y-98564285D01*
X172337619Y-98611904D01*
X172290000Y-98659523D01*
X172242380Y-98754761D01*
X172242380Y-98945238D01*
X172290000Y-99040476D01*
X172337619Y-99088095D01*
X172432857Y-99135714D01*
X172670952Y-99135714D01*
X172766190Y-99088095D01*
X172813809Y-99040476D01*
X172861428Y-98945238D01*
X172861428Y-98754761D01*
X172813809Y-98659523D01*
X172766190Y-98611904D01*
X172670952Y-98564285D01*
%TO.C,D1*%
X184361904Y-109652380D02*
X184361904Y-108652380D01*
X184600000Y-108652380D01*
X184742857Y-108700000D01*
X184838095Y-108795238D01*
X184885714Y-108890476D01*
X184933333Y-109080952D01*
X184933333Y-109223809D01*
X184885714Y-109414285D01*
X184838095Y-109509523D01*
X184742857Y-109604761D01*
X184600000Y-109652380D01*
X184361904Y-109652380D01*
X185885714Y-109652380D02*
X185314285Y-109652380D01*
X185600000Y-109652380D02*
X185600000Y-108652380D01*
X185504761Y-108795238D01*
X185409523Y-108890476D01*
X185314285Y-108938095D01*
%TO.C,D2*%
X184371904Y-105262380D02*
X184371904Y-104262380D01*
X184610000Y-104262380D01*
X184752857Y-104310000D01*
X184848095Y-104405238D01*
X184895714Y-104500476D01*
X184943333Y-104690952D01*
X184943333Y-104833809D01*
X184895714Y-105024285D01*
X184848095Y-105119523D01*
X184752857Y-105214761D01*
X184610000Y-105262380D01*
X184371904Y-105262380D01*
X185324285Y-104357619D02*
X185371904Y-104310000D01*
X185467142Y-104262380D01*
X185705238Y-104262380D01*
X185800476Y-104310000D01*
X185848095Y-104357619D01*
X185895714Y-104452857D01*
X185895714Y-104548095D01*
X185848095Y-104690952D01*
X185276666Y-105262380D01*
X185895714Y-105262380D01*
%TO.C,D3*%
X184361904Y-102642380D02*
X184361904Y-101642380D01*
X184600000Y-101642380D01*
X184742857Y-101690000D01*
X184838095Y-101785238D01*
X184885714Y-101880476D01*
X184933333Y-102070952D01*
X184933333Y-102213809D01*
X184885714Y-102404285D01*
X184838095Y-102499523D01*
X184742857Y-102594761D01*
X184600000Y-102642380D01*
X184361904Y-102642380D01*
X185266666Y-101642380D02*
X185885714Y-101642380D01*
X185552380Y-102023333D01*
X185695238Y-102023333D01*
X185790476Y-102070952D01*
X185838095Y-102118571D01*
X185885714Y-102213809D01*
X185885714Y-102451904D01*
X185838095Y-102547142D01*
X185790476Y-102594761D01*
X185695238Y-102642380D01*
X185409523Y-102642380D01*
X185314285Y-102594761D01*
X185266666Y-102547142D01*
%TO.C,D4*%
X184361904Y-98252380D02*
X184361904Y-97252380D01*
X184600000Y-97252380D01*
X184742857Y-97300000D01*
X184838095Y-97395238D01*
X184885714Y-97490476D01*
X184933333Y-97680952D01*
X184933333Y-97823809D01*
X184885714Y-98014285D01*
X184838095Y-98109523D01*
X184742857Y-98204761D01*
X184600000Y-98252380D01*
X184361904Y-98252380D01*
X185790476Y-97585714D02*
X185790476Y-98252380D01*
X185552380Y-97204761D02*
X185314285Y-97919047D01*
X185933333Y-97919047D01*
%TO.C,D5*%
X166261904Y-109212380D02*
X166261904Y-108212380D01*
X166500000Y-108212380D01*
X166642857Y-108260000D01*
X166738095Y-108355238D01*
X166785714Y-108450476D01*
X166833333Y-108640952D01*
X166833333Y-108783809D01*
X166785714Y-108974285D01*
X166738095Y-109069523D01*
X166642857Y-109164761D01*
X166500000Y-109212380D01*
X166261904Y-109212380D01*
X167738095Y-108212380D02*
X167261904Y-108212380D01*
X167214285Y-108688571D01*
X167261904Y-108640952D01*
X167357142Y-108593333D01*
X167595238Y-108593333D01*
X167690476Y-108640952D01*
X167738095Y-108688571D01*
X167785714Y-108783809D01*
X167785714Y-109021904D01*
X167738095Y-109117142D01*
X167690476Y-109164761D01*
X167595238Y-109212380D01*
X167357142Y-109212380D01*
X167261904Y-109164761D01*
X167214285Y-109117142D01*
%TO.C,R7*%
X177073333Y-102972380D02*
X176740000Y-102496190D01*
X176501904Y-102972380D02*
X176501904Y-101972380D01*
X176882857Y-101972380D01*
X176978095Y-102020000D01*
X177025714Y-102067619D01*
X177073333Y-102162857D01*
X177073333Y-102305714D01*
X177025714Y-102400952D01*
X176978095Y-102448571D01*
X176882857Y-102496190D01*
X176501904Y-102496190D01*
X177406666Y-101972380D02*
X178073333Y-101972380D01*
X177644761Y-102972380D01*
%TO.C,R8*%
X184913333Y-108192380D02*
X184580000Y-107716190D01*
X184341904Y-108192380D02*
X184341904Y-107192380D01*
X184722857Y-107192380D01*
X184818095Y-107240000D01*
X184865714Y-107287619D01*
X184913333Y-107382857D01*
X184913333Y-107525714D01*
X184865714Y-107620952D01*
X184818095Y-107668571D01*
X184722857Y-107716190D01*
X184341904Y-107716190D01*
X185484761Y-107620952D02*
X185389523Y-107573333D01*
X185341904Y-107525714D01*
X185294285Y-107430476D01*
X185294285Y-107382857D01*
X185341904Y-107287619D01*
X185389523Y-107240000D01*
X185484761Y-107192380D01*
X185675238Y-107192380D01*
X185770476Y-107240000D01*
X185818095Y-107287619D01*
X185865714Y-107382857D01*
X185865714Y-107430476D01*
X185818095Y-107525714D01*
X185770476Y-107573333D01*
X185675238Y-107620952D01*
X185484761Y-107620952D01*
X185389523Y-107668571D01*
X185341904Y-107716190D01*
X185294285Y-107811428D01*
X185294285Y-108001904D01*
X185341904Y-108097142D01*
X185389523Y-108144761D01*
X185484761Y-108192380D01*
X185675238Y-108192380D01*
X185770476Y-108144761D01*
X185818095Y-108097142D01*
X185865714Y-108001904D01*
X185865714Y-107811428D01*
X185818095Y-107716190D01*
X185770476Y-107668571D01*
X185675238Y-107620952D01*
%TO.C,R9*%
X179533333Y-96672380D02*
X179200000Y-96196190D01*
X178961904Y-96672380D02*
X178961904Y-95672380D01*
X179342857Y-95672380D01*
X179438095Y-95720000D01*
X179485714Y-95767619D01*
X179533333Y-95862857D01*
X179533333Y-96005714D01*
X179485714Y-96100952D01*
X179438095Y-96148571D01*
X179342857Y-96196190D01*
X178961904Y-96196190D01*
X180009523Y-96672380D02*
X180200000Y-96672380D01*
X180295238Y-96624761D01*
X180342857Y-96577142D01*
X180438095Y-96434285D01*
X180485714Y-96243809D01*
X180485714Y-95862857D01*
X180438095Y-95767619D01*
X180390476Y-95720000D01*
X180295238Y-95672380D01*
X180104761Y-95672380D01*
X180009523Y-95720000D01*
X179961904Y-95767619D01*
X179914285Y-95862857D01*
X179914285Y-96100952D01*
X179961904Y-96196190D01*
X180009523Y-96243809D01*
X180104761Y-96291428D01*
X180295238Y-96291428D01*
X180390476Y-96243809D01*
X180438095Y-96196190D01*
X180485714Y-96100952D01*
%TO.C,R10*%
X184857142Y-99702380D02*
X184523809Y-99226190D01*
X184285714Y-99702380D02*
X184285714Y-98702380D01*
X184666666Y-98702380D01*
X184761904Y-98750000D01*
X184809523Y-98797619D01*
X184857142Y-98892857D01*
X184857142Y-99035714D01*
X184809523Y-99130952D01*
X184761904Y-99178571D01*
X184666666Y-99226190D01*
X184285714Y-99226190D01*
X185809523Y-99702380D02*
X185238095Y-99702380D01*
X185523809Y-99702380D02*
X185523809Y-98702380D01*
X185428571Y-98845238D01*
X185333333Y-98940476D01*
X185238095Y-98988095D01*
X186428571Y-98702380D02*
X186523809Y-98702380D01*
X186619047Y-98750000D01*
X186666666Y-98797619D01*
X186714285Y-98892857D01*
X186761904Y-99083333D01*
X186761904Y-99321428D01*
X186714285Y-99511904D01*
X186666666Y-99607142D01*
X186619047Y-99654761D01*
X186523809Y-99702380D01*
X186428571Y-99702380D01*
X186333333Y-99654761D01*
X186285714Y-99607142D01*
X186238095Y-99511904D01*
X186190476Y-99321428D01*
X186190476Y-99083333D01*
X186238095Y-98892857D01*
X186285714Y-98797619D01*
X186333333Y-98750000D01*
X186428571Y-98702380D01*
%TO.C,R11*%
X184857142Y-101202380D02*
X184523809Y-100726190D01*
X184285714Y-101202380D02*
X184285714Y-100202380D01*
X184666666Y-100202380D01*
X184761904Y-100250000D01*
X184809523Y-100297619D01*
X184857142Y-100392857D01*
X184857142Y-100535714D01*
X184809523Y-100630952D01*
X184761904Y-100678571D01*
X184666666Y-100726190D01*
X184285714Y-100726190D01*
X185809523Y-101202380D02*
X185238095Y-101202380D01*
X185523809Y-101202380D02*
X185523809Y-100202380D01*
X185428571Y-100345238D01*
X185333333Y-100440476D01*
X185238095Y-100488095D01*
X186761904Y-101202380D02*
X186190476Y-101202380D01*
X186476190Y-101202380D02*
X186476190Y-100202380D01*
X186380952Y-100345238D01*
X186285714Y-100440476D01*
X186190476Y-100488095D01*
%TO.C,R12*%
X181397857Y-103959285D02*
X181147857Y-103602142D01*
X180969285Y-103959285D02*
X180969285Y-103209285D01*
X181255000Y-103209285D01*
X181326428Y-103245000D01*
X181362142Y-103280714D01*
X181397857Y-103352142D01*
X181397857Y-103459285D01*
X181362142Y-103530714D01*
X181326428Y-103566428D01*
X181255000Y-103602142D01*
X180969285Y-103602142D01*
X182112142Y-103959285D02*
X181683571Y-103959285D01*
X181897857Y-103959285D02*
X181897857Y-103209285D01*
X181826428Y-103316428D01*
X181755000Y-103387857D01*
X181683571Y-103423571D01*
X182397857Y-103280714D02*
X182433571Y-103245000D01*
X182505000Y-103209285D01*
X182683571Y-103209285D01*
X182755000Y-103245000D01*
X182790714Y-103280714D01*
X182826428Y-103352142D01*
X182826428Y-103423571D01*
X182790714Y-103530714D01*
X182362142Y-103959285D01*
X182826428Y-103959285D01*
%TO.C,R13*%
X172967142Y-104102380D02*
X172633809Y-103626190D01*
X172395714Y-104102380D02*
X172395714Y-103102380D01*
X172776666Y-103102380D01*
X172871904Y-103150000D01*
X172919523Y-103197619D01*
X172967142Y-103292857D01*
X172967142Y-103435714D01*
X172919523Y-103530952D01*
X172871904Y-103578571D01*
X172776666Y-103626190D01*
X172395714Y-103626190D01*
X173919523Y-104102380D02*
X173348095Y-104102380D01*
X173633809Y-104102380D02*
X173633809Y-103102380D01*
X173538571Y-103245238D01*
X173443333Y-103340476D01*
X173348095Y-103388095D01*
X174252857Y-103102380D02*
X174871904Y-103102380D01*
X174538571Y-103483333D01*
X174681428Y-103483333D01*
X174776666Y-103530952D01*
X174824285Y-103578571D01*
X174871904Y-103673809D01*
X174871904Y-103911904D01*
X174824285Y-104007142D01*
X174776666Y-104054761D01*
X174681428Y-104102380D01*
X174395714Y-104102380D01*
X174300476Y-104054761D01*
X174252857Y-104007142D01*
%TO.C,R14*%
X163692380Y-113142857D02*
X163216190Y-113476190D01*
X163692380Y-113714285D02*
X162692380Y-113714285D01*
X162692380Y-113333333D01*
X162740000Y-113238095D01*
X162787619Y-113190476D01*
X162882857Y-113142857D01*
X163025714Y-113142857D01*
X163120952Y-113190476D01*
X163168571Y-113238095D01*
X163216190Y-113333333D01*
X163216190Y-113714285D01*
X163692380Y-112190476D02*
X163692380Y-112761904D01*
X163692380Y-112476190D02*
X162692380Y-112476190D01*
X162835238Y-112571428D01*
X162930476Y-112666666D01*
X162978095Y-112761904D01*
X163025714Y-111333333D02*
X163692380Y-111333333D01*
X162644761Y-111571428D02*
X163359047Y-111809523D01*
X163359047Y-111190476D01*
%TO.C,R15*%
X178857142Y-111382380D02*
X178523809Y-110906190D01*
X178285714Y-111382380D02*
X178285714Y-110382380D01*
X178666666Y-110382380D01*
X178761904Y-110430000D01*
X178809523Y-110477619D01*
X178857142Y-110572857D01*
X178857142Y-110715714D01*
X178809523Y-110810952D01*
X178761904Y-110858571D01*
X178666666Y-110906190D01*
X178285714Y-110906190D01*
X179809523Y-111382380D02*
X179238095Y-111382380D01*
X179523809Y-111382380D02*
X179523809Y-110382380D01*
X179428571Y-110525238D01*
X179333333Y-110620476D01*
X179238095Y-110668095D01*
X180714285Y-110382380D02*
X180238095Y-110382380D01*
X180190476Y-110858571D01*
X180238095Y-110810952D01*
X180333333Y-110763333D01*
X180571428Y-110763333D01*
X180666666Y-110810952D01*
X180714285Y-110858571D01*
X180761904Y-110953809D01*
X180761904Y-111191904D01*
X180714285Y-111287142D01*
X180666666Y-111334761D01*
X180571428Y-111382380D01*
X180333333Y-111382380D01*
X180238095Y-111334761D01*
X180190476Y-111287142D01*
%TO.C,R16*%
X175837142Y-111372380D02*
X175503809Y-110896190D01*
X175265714Y-111372380D02*
X175265714Y-110372380D01*
X175646666Y-110372380D01*
X175741904Y-110420000D01*
X175789523Y-110467619D01*
X175837142Y-110562857D01*
X175837142Y-110705714D01*
X175789523Y-110800952D01*
X175741904Y-110848571D01*
X175646666Y-110896190D01*
X175265714Y-110896190D01*
X176789523Y-111372380D02*
X176218095Y-111372380D01*
X176503809Y-111372380D02*
X176503809Y-110372380D01*
X176408571Y-110515238D01*
X176313333Y-110610476D01*
X176218095Y-110658095D01*
X177646666Y-110372380D02*
X177456190Y-110372380D01*
X177360952Y-110420000D01*
X177313333Y-110467619D01*
X177218095Y-110610476D01*
X177170476Y-110800952D01*
X177170476Y-111181904D01*
X177218095Y-111277142D01*
X177265714Y-111324761D01*
X177360952Y-111372380D01*
X177551428Y-111372380D01*
X177646666Y-111324761D01*
X177694285Y-111277142D01*
X177741904Y-111181904D01*
X177741904Y-110943809D01*
X177694285Y-110848571D01*
X177646666Y-110800952D01*
X177551428Y-110753333D01*
X177360952Y-110753333D01*
X177265714Y-110800952D01*
X177218095Y-110848571D01*
X177170476Y-110943809D01*
%TO.C,U6*%
X173158095Y-108172380D02*
X173158095Y-108981904D01*
X173205714Y-109077142D01*
X173253333Y-109124761D01*
X173348571Y-109172380D01*
X173539047Y-109172380D01*
X173634285Y-109124761D01*
X173681904Y-109077142D01*
X173729523Y-108981904D01*
X173729523Y-108172380D01*
X174634285Y-108172380D02*
X174443809Y-108172380D01*
X174348571Y-108220000D01*
X174300952Y-108267619D01*
X174205714Y-108410476D01*
X174158095Y-108600952D01*
X174158095Y-108981904D01*
X174205714Y-109077142D01*
X174253333Y-109124761D01*
X174348571Y-109172380D01*
X174539047Y-109172380D01*
X174634285Y-109124761D01*
X174681904Y-109077142D01*
X174729523Y-108981904D01*
X174729523Y-108743809D01*
X174681904Y-108648571D01*
X174634285Y-108600952D01*
X174539047Y-108553333D01*
X174348571Y-108553333D01*
X174253333Y-108600952D01*
X174205714Y-108648571D01*
X174158095Y-108743809D01*
%TO.C,U7*%
X175378095Y-97032380D02*
X175378095Y-97841904D01*
X175425714Y-97937142D01*
X175473333Y-97984761D01*
X175568571Y-98032380D01*
X175759047Y-98032380D01*
X175854285Y-97984761D01*
X175901904Y-97937142D01*
X175949523Y-97841904D01*
X175949523Y-97032380D01*
X176330476Y-97032380D02*
X176997142Y-97032380D01*
X176568571Y-98032380D01*
%TO.C,IC1*%
X181193809Y-93462380D02*
X181193809Y-92462380D01*
X182241428Y-93367142D02*
X182193809Y-93414761D01*
X182050952Y-93462380D01*
X181955714Y-93462380D01*
X181812857Y-93414761D01*
X181717619Y-93319523D01*
X181670000Y-93224285D01*
X181622380Y-93033809D01*
X181622380Y-92890952D01*
X181670000Y-92700476D01*
X181717619Y-92605238D01*
X181812857Y-92510000D01*
X181955714Y-92462380D01*
X182050952Y-92462380D01*
X182193809Y-92510000D01*
X182241428Y-92557619D01*
X183193809Y-93462380D02*
X182622380Y-93462380D01*
X182908095Y-93462380D02*
X182908095Y-92462380D01*
X182812857Y-92605238D01*
X182717619Y-92700476D01*
X182622380Y-92748095D01*
%TO.C,C10*%
X174517142Y-90857142D02*
X174469523Y-90904761D01*
X174326666Y-90952380D01*
X174231428Y-90952380D01*
X174088571Y-90904761D01*
X173993333Y-90809523D01*
X173945714Y-90714285D01*
X173898095Y-90523809D01*
X173898095Y-90380952D01*
X173945714Y-90190476D01*
X173993333Y-90095238D01*
X174088571Y-90000000D01*
X174231428Y-89952380D01*
X174326666Y-89952380D01*
X174469523Y-90000000D01*
X174517142Y-90047619D01*
X175469523Y-90952380D02*
X174898095Y-90952380D01*
X175183809Y-90952380D02*
X175183809Y-89952380D01*
X175088571Y-90095238D01*
X174993333Y-90190476D01*
X174898095Y-90238095D01*
X176088571Y-89952380D02*
X176183809Y-89952380D01*
X176279047Y-90000000D01*
X176326666Y-90047619D01*
X176374285Y-90142857D01*
X176421904Y-90333333D01*
X176421904Y-90571428D01*
X176374285Y-90761904D01*
X176326666Y-90857142D01*
X176279047Y-90904761D01*
X176183809Y-90952380D01*
X176088571Y-90952380D01*
X175993333Y-90904761D01*
X175945714Y-90857142D01*
X175898095Y-90761904D01*
X175850476Y-90571428D01*
X175850476Y-90333333D01*
X175898095Y-90142857D01*
X175945714Y-90047619D01*
X175993333Y-90000000D01*
X176088571Y-89952380D01*
%TO.C,C11*%
X158717142Y-108217142D02*
X158669523Y-108264761D01*
X158526666Y-108312380D01*
X158431428Y-108312380D01*
X158288571Y-108264761D01*
X158193333Y-108169523D01*
X158145714Y-108074285D01*
X158098095Y-107883809D01*
X158098095Y-107740952D01*
X158145714Y-107550476D01*
X158193333Y-107455238D01*
X158288571Y-107360000D01*
X158431428Y-107312380D01*
X158526666Y-107312380D01*
X158669523Y-107360000D01*
X158717142Y-107407619D01*
X159669523Y-108312380D02*
X159098095Y-108312380D01*
X159383809Y-108312380D02*
X159383809Y-107312380D01*
X159288571Y-107455238D01*
X159193333Y-107550476D01*
X159098095Y-107598095D01*
X160621904Y-108312380D02*
X160050476Y-108312380D01*
X160336190Y-108312380D02*
X160336190Y-107312380D01*
X160240952Y-107455238D01*
X160145714Y-107550476D01*
X160050476Y-107598095D01*
%TO.C,U8*%
X159218095Y-110432380D02*
X159218095Y-111241904D01*
X159265714Y-111337142D01*
X159313333Y-111384761D01*
X159408571Y-111432380D01*
X159599047Y-111432380D01*
X159694285Y-111384761D01*
X159741904Y-111337142D01*
X159789523Y-111241904D01*
X159789523Y-110432380D01*
X160408571Y-110860952D02*
X160313333Y-110813333D01*
X160265714Y-110765714D01*
X160218095Y-110670476D01*
X160218095Y-110622857D01*
X160265714Y-110527619D01*
X160313333Y-110480000D01*
X160408571Y-110432380D01*
X160599047Y-110432380D01*
X160694285Y-110480000D01*
X160741904Y-110527619D01*
X160789523Y-110622857D01*
X160789523Y-110670476D01*
X160741904Y-110765714D01*
X160694285Y-110813333D01*
X160599047Y-110860952D01*
X160408571Y-110860952D01*
X160313333Y-110908571D01*
X160265714Y-110956190D01*
X160218095Y-111051428D01*
X160218095Y-111241904D01*
X160265714Y-111337142D01*
X160313333Y-111384761D01*
X160408571Y-111432380D01*
X160599047Y-111432380D01*
X160694285Y-111384761D01*
X160741904Y-111337142D01*
X160789523Y-111241904D01*
X160789523Y-111051428D01*
X160741904Y-110956190D01*
X160694285Y-110908571D01*
X160599047Y-110860952D01*
%TO.C,J4*%
X164642380Y-105333333D02*
X165356666Y-105333333D01*
X165499523Y-105380952D01*
X165594761Y-105476190D01*
X165642380Y-105619047D01*
X165642380Y-105714285D01*
X164975714Y-104428571D02*
X165642380Y-104428571D01*
X164594761Y-104666666D02*
X165309047Y-104904761D01*
X165309047Y-104285714D01*
%TO.C,J5*%
X164562380Y-95343333D02*
X165276666Y-95343333D01*
X165419523Y-95390952D01*
X165514761Y-95486190D01*
X165562380Y-95629047D01*
X165562380Y-95724285D01*
X164562380Y-94390952D02*
X164562380Y-94867142D01*
X165038571Y-94914761D01*
X164990952Y-94867142D01*
X164943333Y-94771904D01*
X164943333Y-94533809D01*
X164990952Y-94438571D01*
X165038571Y-94390952D01*
X165133809Y-94343333D01*
X165371904Y-94343333D01*
X165467142Y-94390952D01*
X165514761Y-94438571D01*
X165562380Y-94533809D01*
X165562380Y-94771904D01*
X165514761Y-94867142D01*
X165467142Y-94914761D01*
%TO.C,R17*%
X151882380Y-112902857D02*
X151406190Y-113236190D01*
X151882380Y-113474285D02*
X150882380Y-113474285D01*
X150882380Y-113093333D01*
X150930000Y-112998095D01*
X150977619Y-112950476D01*
X151072857Y-112902857D01*
X151215714Y-112902857D01*
X151310952Y-112950476D01*
X151358571Y-112998095D01*
X151406190Y-113093333D01*
X151406190Y-113474285D01*
X151882380Y-111950476D02*
X151882380Y-112521904D01*
X151882380Y-112236190D02*
X150882380Y-112236190D01*
X151025238Y-112331428D01*
X151120476Y-112426666D01*
X151168095Y-112521904D01*
X150882380Y-111617142D02*
X150882380Y-110950476D01*
X151882380Y-111379047D01*
%TO.C,J6*%
X146772380Y-110993333D02*
X147486666Y-110993333D01*
X147629523Y-111040952D01*
X147724761Y-111136190D01*
X147772380Y-111279047D01*
X147772380Y-111374285D01*
X146772380Y-110088571D02*
X146772380Y-110279047D01*
X146820000Y-110374285D01*
X146867619Y-110421904D01*
X147010476Y-110517142D01*
X147200952Y-110564761D01*
X147581904Y-110564761D01*
X147677142Y-110517142D01*
X147724761Y-110469523D01*
X147772380Y-110374285D01*
X147772380Y-110183809D01*
X147724761Y-110088571D01*
X147677142Y-110040952D01*
X147581904Y-109993333D01*
X147343809Y-109993333D01*
X147248571Y-110040952D01*
X147200952Y-110088571D01*
X147153333Y-110183809D01*
X147153333Y-110374285D01*
X147200952Y-110469523D01*
X147248571Y-110517142D01*
X147343809Y-110564761D01*
%TD*%
M02*
