%TF.GenerationSoftware,KiCad,Pcbnew,5.1.9-73d0e3b20d~88~ubuntu20.04.1*%
%TF.CreationDate,2021-06-05T19:42:07+02:00*%
%TF.ProjectId,andy,616e6479-2e6b-4696-9361-645f70636258,v1.00*%
%TF.SameCoordinates,Original*%
%TF.FileFunction,Paste,Top*%
%TF.FilePolarity,Positive*%
%FSLAX46Y46*%
G04 Gerber Fmt 4.6, Leading zero omitted, Abs format (unit mm)*
G04 Created by KiCad (PCBNEW 5.1.9-73d0e3b20d~88~ubuntu20.04.1) date 2021-06-05 19:42:07*
%MOMM*%
%LPD*%
G01*
G04 APERTURE LIST*
%ADD10R,0.650000X1.060000*%
%ADD11R,2.600000X0.280000*%
%ADD12R,0.600000X0.700000*%
%ADD13R,0.900000X0.800000*%
%ADD14R,0.800000X1.700000*%
G04 APERTURE END LIST*
%TO.C,C1*%
G36*
G01*
X169910000Y-82625000D02*
X170410000Y-82625000D01*
G75*
G02*
X170635000Y-82850000I0J-225000D01*
G01*
X170635000Y-83300000D01*
G75*
G02*
X170410000Y-83525000I-225000J0D01*
G01*
X169910000Y-83525000D01*
G75*
G02*
X169685000Y-83300000I0J225000D01*
G01*
X169685000Y-82850000D01*
G75*
G02*
X169910000Y-82625000I225000J0D01*
G01*
G37*
G36*
G01*
X169910000Y-81075000D02*
X170410000Y-81075000D01*
G75*
G02*
X170635000Y-81300000I0J-225000D01*
G01*
X170635000Y-81750000D01*
G75*
G02*
X170410000Y-81975000I-225000J0D01*
G01*
X169910000Y-81975000D01*
G75*
G02*
X169685000Y-81750000I0J225000D01*
G01*
X169685000Y-81300000D01*
G75*
G02*
X169910000Y-81075000I225000J0D01*
G01*
G37*
%TD*%
%TO.C,C2*%
G36*
G01*
X187530000Y-85510000D02*
X188030000Y-85510000D01*
G75*
G02*
X188255000Y-85735000I0J-225000D01*
G01*
X188255000Y-86185000D01*
G75*
G02*
X188030000Y-86410000I-225000J0D01*
G01*
X187530000Y-86410000D01*
G75*
G02*
X187305000Y-86185000I0J225000D01*
G01*
X187305000Y-85735000D01*
G75*
G02*
X187530000Y-85510000I225000J0D01*
G01*
G37*
G36*
G01*
X187530000Y-83960000D02*
X188030000Y-83960000D01*
G75*
G02*
X188255000Y-84185000I0J-225000D01*
G01*
X188255000Y-84635000D01*
G75*
G02*
X188030000Y-84860000I-225000J0D01*
G01*
X187530000Y-84860000D01*
G75*
G02*
X187305000Y-84635000I0J225000D01*
G01*
X187305000Y-84185000D01*
G75*
G02*
X187530000Y-83960000I225000J0D01*
G01*
G37*
%TD*%
%TO.C,C3*%
G36*
G01*
X187570000Y-116380000D02*
X188070000Y-116380000D01*
G75*
G02*
X188295000Y-116605000I0J-225000D01*
G01*
X188295000Y-117055000D01*
G75*
G02*
X188070000Y-117280000I-225000J0D01*
G01*
X187570000Y-117280000D01*
G75*
G02*
X187345000Y-117055000I0J225000D01*
G01*
X187345000Y-116605000D01*
G75*
G02*
X187570000Y-116380000I225000J0D01*
G01*
G37*
G36*
G01*
X187570000Y-117930000D02*
X188070000Y-117930000D01*
G75*
G02*
X188295000Y-118155000I0J-225000D01*
G01*
X188295000Y-118605000D01*
G75*
G02*
X188070000Y-118830000I-225000J0D01*
G01*
X187570000Y-118830000D01*
G75*
G02*
X187345000Y-118605000I0J225000D01*
G01*
X187345000Y-118155000D01*
G75*
G02*
X187570000Y-117930000I225000J0D01*
G01*
G37*
%TD*%
%TO.C,C4*%
G36*
G01*
X166535000Y-120570000D02*
X166535000Y-121070000D01*
G75*
G02*
X166310000Y-121295000I-225000J0D01*
G01*
X165860000Y-121295000D01*
G75*
G02*
X165635000Y-121070000I0J225000D01*
G01*
X165635000Y-120570000D01*
G75*
G02*
X165860000Y-120345000I225000J0D01*
G01*
X166310000Y-120345000D01*
G75*
G02*
X166535000Y-120570000I0J-225000D01*
G01*
G37*
G36*
G01*
X164985000Y-120570000D02*
X164985000Y-121070000D01*
G75*
G02*
X164760000Y-121295000I-225000J0D01*
G01*
X164310000Y-121295000D01*
G75*
G02*
X164085000Y-121070000I0J225000D01*
G01*
X164085000Y-120570000D01*
G75*
G02*
X164310000Y-120345000I225000J0D01*
G01*
X164760000Y-120345000D01*
G75*
G02*
X164985000Y-120570000I0J-225000D01*
G01*
G37*
%TD*%
%TO.C,C5*%
G36*
G01*
X166365000Y-84180000D02*
X166365000Y-84680000D01*
G75*
G02*
X166140000Y-84905000I-225000J0D01*
G01*
X165690000Y-84905000D01*
G75*
G02*
X165465000Y-84680000I0J225000D01*
G01*
X165465000Y-84180000D01*
G75*
G02*
X165690000Y-83955000I225000J0D01*
G01*
X166140000Y-83955000D01*
G75*
G02*
X166365000Y-84180000I0J-225000D01*
G01*
G37*
G36*
G01*
X164815000Y-84180000D02*
X164815000Y-84680000D01*
G75*
G02*
X164590000Y-84905000I-225000J0D01*
G01*
X164140000Y-84905000D01*
G75*
G02*
X163915000Y-84680000I0J225000D01*
G01*
X163915000Y-84180000D01*
G75*
G02*
X164140000Y-83955000I225000J0D01*
G01*
X164590000Y-83955000D01*
G75*
G02*
X164815000Y-84180000I0J-225000D01*
G01*
G37*
%TD*%
%TO.C,C6*%
G36*
G01*
X166870000Y-118465000D02*
X167370000Y-118465000D01*
G75*
G02*
X167595000Y-118690000I0J-225000D01*
G01*
X167595000Y-119140000D01*
G75*
G02*
X167370000Y-119365000I-225000J0D01*
G01*
X166870000Y-119365000D01*
G75*
G02*
X166645000Y-119140000I0J225000D01*
G01*
X166645000Y-118690000D01*
G75*
G02*
X166870000Y-118465000I225000J0D01*
G01*
G37*
G36*
G01*
X166870000Y-116915000D02*
X167370000Y-116915000D01*
G75*
G02*
X167595000Y-117140000I0J-225000D01*
G01*
X167595000Y-117590000D01*
G75*
G02*
X167370000Y-117815000I-225000J0D01*
G01*
X166870000Y-117815000D01*
G75*
G02*
X166645000Y-117590000I0J225000D01*
G01*
X166645000Y-117140000D01*
G75*
G02*
X166870000Y-116915000I225000J0D01*
G01*
G37*
%TD*%
%TO.C,L1*%
G36*
G01*
X186581250Y-119105000D02*
X185818750Y-119105000D01*
G75*
G02*
X185600000Y-118886250I0J218750D01*
G01*
X185600000Y-118448750D01*
G75*
G02*
X185818750Y-118230000I218750J0D01*
G01*
X186581250Y-118230000D01*
G75*
G02*
X186800000Y-118448750I0J-218750D01*
G01*
X186800000Y-118886250D01*
G75*
G02*
X186581250Y-119105000I-218750J0D01*
G01*
G37*
G36*
G01*
X186581250Y-116980000D02*
X185818750Y-116980000D01*
G75*
G02*
X185600000Y-116761250I0J218750D01*
G01*
X185600000Y-116323750D01*
G75*
G02*
X185818750Y-116105000I218750J0D01*
G01*
X186581250Y-116105000D01*
G75*
G02*
X186800000Y-116323750I0J-218750D01*
G01*
X186800000Y-116761250D01*
G75*
G02*
X186581250Y-116980000I-218750J0D01*
G01*
G37*
%TD*%
%TO.C,R1*%
G36*
G01*
X170435000Y-80495000D02*
X169885000Y-80495000D01*
G75*
G02*
X169685000Y-80295000I0J200000D01*
G01*
X169685000Y-79895000D01*
G75*
G02*
X169885000Y-79695000I200000J0D01*
G01*
X170435000Y-79695000D01*
G75*
G02*
X170635000Y-79895000I0J-200000D01*
G01*
X170635000Y-80295000D01*
G75*
G02*
X170435000Y-80495000I-200000J0D01*
G01*
G37*
G36*
G01*
X170435000Y-78845000D02*
X169885000Y-78845000D01*
G75*
G02*
X169685000Y-78645000I0J200000D01*
G01*
X169685000Y-78245000D01*
G75*
G02*
X169885000Y-78045000I200000J0D01*
G01*
X170435000Y-78045000D01*
G75*
G02*
X170635000Y-78245000I0J-200000D01*
G01*
X170635000Y-78645000D01*
G75*
G02*
X170435000Y-78845000I-200000J0D01*
G01*
G37*
%TD*%
%TO.C,R2*%
G36*
G01*
X168705000Y-82985000D02*
X168155000Y-82985000D01*
G75*
G02*
X167955000Y-82785000I0J200000D01*
G01*
X167955000Y-82385000D01*
G75*
G02*
X168155000Y-82185000I200000J0D01*
G01*
X168705000Y-82185000D01*
G75*
G02*
X168905000Y-82385000I0J-200000D01*
G01*
X168905000Y-82785000D01*
G75*
G02*
X168705000Y-82985000I-200000J0D01*
G01*
G37*
G36*
G01*
X168705000Y-81335000D02*
X168155000Y-81335000D01*
G75*
G02*
X167955000Y-81135000I0J200000D01*
G01*
X167955000Y-80735000D01*
G75*
G02*
X168155000Y-80535000I200000J0D01*
G01*
X168705000Y-80535000D01*
G75*
G02*
X168905000Y-80735000I0J-200000D01*
G01*
X168905000Y-81135000D01*
G75*
G02*
X168705000Y-81335000I-200000J0D01*
G01*
G37*
%TD*%
%TO.C,R3*%
G36*
G01*
X166645000Y-82195000D02*
X167195000Y-82195000D01*
G75*
G02*
X167395000Y-82395000I0J-200000D01*
G01*
X167395000Y-82795000D01*
G75*
G02*
X167195000Y-82995000I-200000J0D01*
G01*
X166645000Y-82995000D01*
G75*
G02*
X166445000Y-82795000I0J200000D01*
G01*
X166445000Y-82395000D01*
G75*
G02*
X166645000Y-82195000I200000J0D01*
G01*
G37*
G36*
G01*
X166645000Y-80545000D02*
X167195000Y-80545000D01*
G75*
G02*
X167395000Y-80745000I0J-200000D01*
G01*
X167395000Y-81145000D01*
G75*
G02*
X167195000Y-81345000I-200000J0D01*
G01*
X166645000Y-81345000D01*
G75*
G02*
X166445000Y-81145000I0J200000D01*
G01*
X166445000Y-80745000D01*
G75*
G02*
X166645000Y-80545000I200000J0D01*
G01*
G37*
%TD*%
%TO.C,R4*%
G36*
G01*
X164785000Y-79185000D02*
X164785000Y-78635000D01*
G75*
G02*
X164985000Y-78435000I200000J0D01*
G01*
X165385000Y-78435000D01*
G75*
G02*
X165585000Y-78635000I0J-200000D01*
G01*
X165585000Y-79185000D01*
G75*
G02*
X165385000Y-79385000I-200000J0D01*
G01*
X164985000Y-79385000D01*
G75*
G02*
X164785000Y-79185000I0J200000D01*
G01*
G37*
G36*
G01*
X163135000Y-79185000D02*
X163135000Y-78635000D01*
G75*
G02*
X163335000Y-78435000I200000J0D01*
G01*
X163735000Y-78435000D01*
G75*
G02*
X163935000Y-78635000I0J-200000D01*
G01*
X163935000Y-79185000D01*
G75*
G02*
X163735000Y-79385000I-200000J0D01*
G01*
X163335000Y-79385000D01*
G75*
G02*
X163135000Y-79185000I0J200000D01*
G01*
G37*
%TD*%
%TO.C,R5*%
G36*
G01*
X168875000Y-117715000D02*
X168325000Y-117715000D01*
G75*
G02*
X168125000Y-117515000I0J200000D01*
G01*
X168125000Y-117115000D01*
G75*
G02*
X168325000Y-116915000I200000J0D01*
G01*
X168875000Y-116915000D01*
G75*
G02*
X169075000Y-117115000I0J-200000D01*
G01*
X169075000Y-117515000D01*
G75*
G02*
X168875000Y-117715000I-200000J0D01*
G01*
G37*
G36*
G01*
X168875000Y-119365000D02*
X168325000Y-119365000D01*
G75*
G02*
X168125000Y-119165000I0J200000D01*
G01*
X168125000Y-118765000D01*
G75*
G02*
X168325000Y-118565000I200000J0D01*
G01*
X168875000Y-118565000D01*
G75*
G02*
X169075000Y-118765000I0J-200000D01*
G01*
X169075000Y-119165000D01*
G75*
G02*
X168875000Y-119365000I-200000J0D01*
G01*
G37*
%TD*%
%TO.C,R6*%
G36*
G01*
X170395000Y-119365000D02*
X169845000Y-119365000D01*
G75*
G02*
X169645000Y-119165000I0J200000D01*
G01*
X169645000Y-118765000D01*
G75*
G02*
X169845000Y-118565000I200000J0D01*
G01*
X170395000Y-118565000D01*
G75*
G02*
X170595000Y-118765000I0J-200000D01*
G01*
X170595000Y-119165000D01*
G75*
G02*
X170395000Y-119365000I-200000J0D01*
G01*
G37*
G36*
G01*
X170395000Y-117715000D02*
X169845000Y-117715000D01*
G75*
G02*
X169645000Y-117515000I0J200000D01*
G01*
X169645000Y-117115000D01*
G75*
G02*
X169845000Y-116915000I200000J0D01*
G01*
X170395000Y-116915000D01*
G75*
G02*
X170595000Y-117115000I0J-200000D01*
G01*
X170595000Y-117515000D01*
G75*
G02*
X170395000Y-117715000I-200000J0D01*
G01*
G37*
%TD*%
D10*
%TO.C,U4*%
X165310000Y-80670000D03*
X164360000Y-80670000D03*
X163410000Y-80670000D03*
X163410000Y-82870000D03*
X165310000Y-82870000D03*
X164360000Y-82870000D03*
%TD*%
%TO.C,U5*%
X164540000Y-119260000D03*
X165490000Y-119260000D03*
X163590000Y-119260000D03*
X163590000Y-117060000D03*
X164540000Y-117060000D03*
X165490000Y-117060000D03*
%TD*%
D11*
%TO.C,J3*%
X193280000Y-95500000D03*
X193280000Y-96000000D03*
X193280000Y-96500000D03*
X193280000Y-97000000D03*
X193280000Y-97500000D03*
X193280000Y-98000000D03*
X193280000Y-98500000D03*
X193280000Y-99000000D03*
X193280000Y-99500000D03*
X193280000Y-100000000D03*
X193280000Y-100500000D03*
X193280000Y-101000000D03*
X193280000Y-101500000D03*
X193280000Y-102000000D03*
X193280000Y-102500000D03*
X193280000Y-103000000D03*
X193280000Y-103500000D03*
X193280000Y-104000000D03*
X193280000Y-104500000D03*
%TD*%
%TO.C,C7*%
G36*
G01*
X181465000Y-106510000D02*
X181465000Y-106010000D01*
G75*
G02*
X181690000Y-105785000I225000J0D01*
G01*
X182140000Y-105785000D01*
G75*
G02*
X182365000Y-106010000I0J-225000D01*
G01*
X182365000Y-106510000D01*
G75*
G02*
X182140000Y-106735000I-225000J0D01*
G01*
X181690000Y-106735000D01*
G75*
G02*
X181465000Y-106510000I0J225000D01*
G01*
G37*
G36*
G01*
X183015000Y-106510000D02*
X183015000Y-106010000D01*
G75*
G02*
X183240000Y-105785000I225000J0D01*
G01*
X183690000Y-105785000D01*
G75*
G02*
X183915000Y-106010000I0J-225000D01*
G01*
X183915000Y-106510000D01*
G75*
G02*
X183690000Y-106735000I-225000J0D01*
G01*
X183240000Y-106735000D01*
G75*
G02*
X183015000Y-106510000I0J225000D01*
G01*
G37*
%TD*%
%TO.C,C8*%
G36*
G01*
X173800000Y-105105000D02*
X174300000Y-105105000D01*
G75*
G02*
X174525000Y-105330000I0J-225000D01*
G01*
X174525000Y-105780000D01*
G75*
G02*
X174300000Y-106005000I-225000J0D01*
G01*
X173800000Y-106005000D01*
G75*
G02*
X173575000Y-105780000I0J225000D01*
G01*
X173575000Y-105330000D01*
G75*
G02*
X173800000Y-105105000I225000J0D01*
G01*
G37*
G36*
G01*
X173800000Y-106655000D02*
X174300000Y-106655000D01*
G75*
G02*
X174525000Y-106880000I0J-225000D01*
G01*
X174525000Y-107330000D01*
G75*
G02*
X174300000Y-107555000I-225000J0D01*
G01*
X173800000Y-107555000D01*
G75*
G02*
X173575000Y-107330000I0J225000D01*
G01*
X173575000Y-106880000D01*
G75*
G02*
X173800000Y-106655000I225000J0D01*
G01*
G37*
%TD*%
%TO.C,C9*%
G36*
G01*
X173810000Y-99675000D02*
X174310000Y-99675000D01*
G75*
G02*
X174535000Y-99900000I0J-225000D01*
G01*
X174535000Y-100350000D01*
G75*
G02*
X174310000Y-100575000I-225000J0D01*
G01*
X173810000Y-100575000D01*
G75*
G02*
X173585000Y-100350000I0J225000D01*
G01*
X173585000Y-99900000D01*
G75*
G02*
X173810000Y-99675000I225000J0D01*
G01*
G37*
G36*
G01*
X173810000Y-98125000D02*
X174310000Y-98125000D01*
G75*
G02*
X174535000Y-98350000I0J-225000D01*
G01*
X174535000Y-98800000D01*
G75*
G02*
X174310000Y-99025000I-225000J0D01*
G01*
X173810000Y-99025000D01*
G75*
G02*
X173585000Y-98800000I0J225000D01*
G01*
X173585000Y-98350000D01*
G75*
G02*
X173810000Y-98125000I225000J0D01*
G01*
G37*
%TD*%
D12*
%TO.C,D1*%
X183400000Y-109200000D03*
X182000000Y-109200000D03*
%TD*%
%TO.C,D2*%
X183400000Y-104810000D03*
X182000000Y-104810000D03*
%TD*%
%TO.C,D3*%
X182000000Y-102200000D03*
X183400000Y-102200000D03*
%TD*%
%TO.C,D4*%
X183400000Y-97800000D03*
X182000000Y-97800000D03*
%TD*%
%TO.C,D5*%
X167700000Y-110030000D03*
X166300000Y-110030000D03*
%TD*%
D13*
%TO.C,Q1*%
X166000000Y-111550000D03*
X166000000Y-113450000D03*
X168000000Y-112500000D03*
%TD*%
%TO.C,R7*%
G36*
G01*
X178475000Y-102795000D02*
X178475000Y-102245000D01*
G75*
G02*
X178675000Y-102045000I200000J0D01*
G01*
X179075000Y-102045000D01*
G75*
G02*
X179275000Y-102245000I0J-200000D01*
G01*
X179275000Y-102795000D01*
G75*
G02*
X179075000Y-102995000I-200000J0D01*
G01*
X178675000Y-102995000D01*
G75*
G02*
X178475000Y-102795000I0J200000D01*
G01*
G37*
G36*
G01*
X180125000Y-102795000D02*
X180125000Y-102245000D01*
G75*
G02*
X180325000Y-102045000I200000J0D01*
G01*
X180725000Y-102045000D01*
G75*
G02*
X180925000Y-102245000I0J-200000D01*
G01*
X180925000Y-102795000D01*
G75*
G02*
X180725000Y-102995000I-200000J0D01*
G01*
X180325000Y-102995000D01*
G75*
G02*
X180125000Y-102795000I0J200000D01*
G01*
G37*
%TD*%
%TO.C,R8*%
G36*
G01*
X183115000Y-108015000D02*
X183115000Y-107465000D01*
G75*
G02*
X183315000Y-107265000I200000J0D01*
G01*
X183715000Y-107265000D01*
G75*
G02*
X183915000Y-107465000I0J-200000D01*
G01*
X183915000Y-108015000D01*
G75*
G02*
X183715000Y-108215000I-200000J0D01*
G01*
X183315000Y-108215000D01*
G75*
G02*
X183115000Y-108015000I0J200000D01*
G01*
G37*
G36*
G01*
X181465000Y-108015000D02*
X181465000Y-107465000D01*
G75*
G02*
X181665000Y-107265000I200000J0D01*
G01*
X182065000Y-107265000D01*
G75*
G02*
X182265000Y-107465000I0J-200000D01*
G01*
X182265000Y-108015000D01*
G75*
G02*
X182065000Y-108215000I-200000J0D01*
G01*
X181665000Y-108215000D01*
G75*
G02*
X181465000Y-108015000I0J200000D01*
G01*
G37*
%TD*%
%TO.C,R9*%
G36*
G01*
X180125000Y-97755000D02*
X180125000Y-97205000D01*
G75*
G02*
X180325000Y-97005000I200000J0D01*
G01*
X180725000Y-97005000D01*
G75*
G02*
X180925000Y-97205000I0J-200000D01*
G01*
X180925000Y-97755000D01*
G75*
G02*
X180725000Y-97955000I-200000J0D01*
G01*
X180325000Y-97955000D01*
G75*
G02*
X180125000Y-97755000I0J200000D01*
G01*
G37*
G36*
G01*
X178475000Y-97755000D02*
X178475000Y-97205000D01*
G75*
G02*
X178675000Y-97005000I200000J0D01*
G01*
X179075000Y-97005000D01*
G75*
G02*
X179275000Y-97205000I0J-200000D01*
G01*
X179275000Y-97755000D01*
G75*
G02*
X179075000Y-97955000I-200000J0D01*
G01*
X178675000Y-97955000D01*
G75*
G02*
X178475000Y-97755000I0J200000D01*
G01*
G37*
%TD*%
%TO.C,R10*%
G36*
G01*
X183125000Y-99525000D02*
X183125000Y-98975000D01*
G75*
G02*
X183325000Y-98775000I200000J0D01*
G01*
X183725000Y-98775000D01*
G75*
G02*
X183925000Y-98975000I0J-200000D01*
G01*
X183925000Y-99525000D01*
G75*
G02*
X183725000Y-99725000I-200000J0D01*
G01*
X183325000Y-99725000D01*
G75*
G02*
X183125000Y-99525000I0J200000D01*
G01*
G37*
G36*
G01*
X181475000Y-99525000D02*
X181475000Y-98975000D01*
G75*
G02*
X181675000Y-98775000I200000J0D01*
G01*
X182075000Y-98775000D01*
G75*
G02*
X182275000Y-98975000I0J-200000D01*
G01*
X182275000Y-99525000D01*
G75*
G02*
X182075000Y-99725000I-200000J0D01*
G01*
X181675000Y-99725000D01*
G75*
G02*
X181475000Y-99525000I0J200000D01*
G01*
G37*
%TD*%
%TO.C,R11*%
G36*
G01*
X181475000Y-101025000D02*
X181475000Y-100475000D01*
G75*
G02*
X181675000Y-100275000I200000J0D01*
G01*
X182075000Y-100275000D01*
G75*
G02*
X182275000Y-100475000I0J-200000D01*
G01*
X182275000Y-101025000D01*
G75*
G02*
X182075000Y-101225000I-200000J0D01*
G01*
X181675000Y-101225000D01*
G75*
G02*
X181475000Y-101025000I0J200000D01*
G01*
G37*
G36*
G01*
X183125000Y-101025000D02*
X183125000Y-100475000D01*
G75*
G02*
X183325000Y-100275000I200000J0D01*
G01*
X183725000Y-100275000D01*
G75*
G02*
X183925000Y-100475000I0J-200000D01*
G01*
X183925000Y-101025000D01*
G75*
G02*
X183725000Y-101225000I-200000J0D01*
G01*
X183325000Y-101225000D01*
G75*
G02*
X183125000Y-101025000I0J200000D01*
G01*
G37*
%TD*%
%TO.C,R12*%
G36*
G01*
X180715000Y-104205000D02*
X180715000Y-104755000D01*
G75*
G02*
X180515000Y-104955000I-200000J0D01*
G01*
X180115000Y-104955000D01*
G75*
G02*
X179915000Y-104755000I0J200000D01*
G01*
X179915000Y-104205000D01*
G75*
G02*
X180115000Y-104005000I200000J0D01*
G01*
X180515000Y-104005000D01*
G75*
G02*
X180715000Y-104205000I0J-200000D01*
G01*
G37*
G36*
G01*
X179065000Y-104205000D02*
X179065000Y-104755000D01*
G75*
G02*
X178865000Y-104955000I-200000J0D01*
G01*
X178465000Y-104955000D01*
G75*
G02*
X178265000Y-104755000I0J200000D01*
G01*
X178265000Y-104205000D01*
G75*
G02*
X178465000Y-104005000I200000J0D01*
G01*
X178865000Y-104005000D01*
G75*
G02*
X179065000Y-104205000I0J-200000D01*
G01*
G37*
%TD*%
%TO.C,R13*%
G36*
G01*
X176085000Y-104205000D02*
X176085000Y-104755000D01*
G75*
G02*
X175885000Y-104955000I-200000J0D01*
G01*
X175485000Y-104955000D01*
G75*
G02*
X175285000Y-104755000I0J200000D01*
G01*
X175285000Y-104205000D01*
G75*
G02*
X175485000Y-104005000I200000J0D01*
G01*
X175885000Y-104005000D01*
G75*
G02*
X176085000Y-104205000I0J-200000D01*
G01*
G37*
G36*
G01*
X177735000Y-104205000D02*
X177735000Y-104755000D01*
G75*
G02*
X177535000Y-104955000I-200000J0D01*
G01*
X177135000Y-104955000D01*
G75*
G02*
X176935000Y-104755000I0J200000D01*
G01*
X176935000Y-104205000D01*
G75*
G02*
X177135000Y-104005000I200000J0D01*
G01*
X177535000Y-104005000D01*
G75*
G02*
X177735000Y-104205000I0J-200000D01*
G01*
G37*
%TD*%
%TO.C,R14*%
G36*
G01*
X164275000Y-111275000D02*
X164825000Y-111275000D01*
G75*
G02*
X165025000Y-111475000I0J-200000D01*
G01*
X165025000Y-111875000D01*
G75*
G02*
X164825000Y-112075000I-200000J0D01*
G01*
X164275000Y-112075000D01*
G75*
G02*
X164075000Y-111875000I0J200000D01*
G01*
X164075000Y-111475000D01*
G75*
G02*
X164275000Y-111275000I200000J0D01*
G01*
G37*
G36*
G01*
X164275000Y-112925000D02*
X164825000Y-112925000D01*
G75*
G02*
X165025000Y-113125000I0J-200000D01*
G01*
X165025000Y-113525000D01*
G75*
G02*
X164825000Y-113725000I-200000J0D01*
G01*
X164275000Y-113725000D01*
G75*
G02*
X164075000Y-113525000I0J200000D01*
G01*
X164075000Y-113125000D01*
G75*
G02*
X164275000Y-112925000I200000J0D01*
G01*
G37*
%TD*%
%TO.C,R15*%
G36*
G01*
X180725000Y-109245000D02*
X180725000Y-109795000D01*
G75*
G02*
X180525000Y-109995000I-200000J0D01*
G01*
X180125000Y-109995000D01*
G75*
G02*
X179925000Y-109795000I0J200000D01*
G01*
X179925000Y-109245000D01*
G75*
G02*
X180125000Y-109045000I200000J0D01*
G01*
X180525000Y-109045000D01*
G75*
G02*
X180725000Y-109245000I0J-200000D01*
G01*
G37*
G36*
G01*
X179075000Y-109245000D02*
X179075000Y-109795000D01*
G75*
G02*
X178875000Y-109995000I-200000J0D01*
G01*
X178475000Y-109995000D01*
G75*
G02*
X178275000Y-109795000I0J200000D01*
G01*
X178275000Y-109245000D01*
G75*
G02*
X178475000Y-109045000I200000J0D01*
G01*
X178875000Y-109045000D01*
G75*
G02*
X179075000Y-109245000I0J-200000D01*
G01*
G37*
%TD*%
%TO.C,R16*%
G36*
G01*
X176075000Y-109245000D02*
X176075000Y-109795000D01*
G75*
G02*
X175875000Y-109995000I-200000J0D01*
G01*
X175475000Y-109995000D01*
G75*
G02*
X175275000Y-109795000I0J200000D01*
G01*
X175275000Y-109245000D01*
G75*
G02*
X175475000Y-109045000I200000J0D01*
G01*
X175875000Y-109045000D01*
G75*
G02*
X176075000Y-109245000I0J-200000D01*
G01*
G37*
G36*
G01*
X177725000Y-109245000D02*
X177725000Y-109795000D01*
G75*
G02*
X177525000Y-109995000I-200000J0D01*
G01*
X177125000Y-109995000D01*
G75*
G02*
X176925000Y-109795000I0J200000D01*
G01*
X176925000Y-109245000D01*
G75*
G02*
X177125000Y-109045000I200000J0D01*
G01*
X177525000Y-109045000D01*
G75*
G02*
X177725000Y-109245000I0J-200000D01*
G01*
G37*
%TD*%
%TO.C,U6*%
G36*
G01*
X179300000Y-106125000D02*
X179300000Y-105925000D01*
G75*
G02*
X179400000Y-105825000I100000J0D01*
G01*
X180825000Y-105825000D01*
G75*
G02*
X180925000Y-105925000I0J-100000D01*
G01*
X180925000Y-106125000D01*
G75*
G02*
X180825000Y-106225000I-100000J0D01*
G01*
X179400000Y-106225000D01*
G75*
G02*
X179300000Y-106125000I0J100000D01*
G01*
G37*
G36*
G01*
X179300000Y-106775000D02*
X179300000Y-106575000D01*
G75*
G02*
X179400000Y-106475000I100000J0D01*
G01*
X180825000Y-106475000D01*
G75*
G02*
X180925000Y-106575000I0J-100000D01*
G01*
X180925000Y-106775000D01*
G75*
G02*
X180825000Y-106875000I-100000J0D01*
G01*
X179400000Y-106875000D01*
G75*
G02*
X179300000Y-106775000I0J100000D01*
G01*
G37*
G36*
G01*
X179300000Y-107425000D02*
X179300000Y-107225000D01*
G75*
G02*
X179400000Y-107125000I100000J0D01*
G01*
X180825000Y-107125000D01*
G75*
G02*
X180925000Y-107225000I0J-100000D01*
G01*
X180925000Y-107425000D01*
G75*
G02*
X180825000Y-107525000I-100000J0D01*
G01*
X179400000Y-107525000D01*
G75*
G02*
X179300000Y-107425000I0J100000D01*
G01*
G37*
G36*
G01*
X179300000Y-108075000D02*
X179300000Y-107875000D01*
G75*
G02*
X179400000Y-107775000I100000J0D01*
G01*
X180825000Y-107775000D01*
G75*
G02*
X180925000Y-107875000I0J-100000D01*
G01*
X180925000Y-108075000D01*
G75*
G02*
X180825000Y-108175000I-100000J0D01*
G01*
X179400000Y-108175000D01*
G75*
G02*
X179300000Y-108075000I0J100000D01*
G01*
G37*
G36*
G01*
X175075000Y-108075000D02*
X175075000Y-107875000D01*
G75*
G02*
X175175000Y-107775000I100000J0D01*
G01*
X176600000Y-107775000D01*
G75*
G02*
X176700000Y-107875000I0J-100000D01*
G01*
X176700000Y-108075000D01*
G75*
G02*
X176600000Y-108175000I-100000J0D01*
G01*
X175175000Y-108175000D01*
G75*
G02*
X175075000Y-108075000I0J100000D01*
G01*
G37*
G36*
G01*
X175075000Y-107425000D02*
X175075000Y-107225000D01*
G75*
G02*
X175175000Y-107125000I100000J0D01*
G01*
X176600000Y-107125000D01*
G75*
G02*
X176700000Y-107225000I0J-100000D01*
G01*
X176700000Y-107425000D01*
G75*
G02*
X176600000Y-107525000I-100000J0D01*
G01*
X175175000Y-107525000D01*
G75*
G02*
X175075000Y-107425000I0J100000D01*
G01*
G37*
G36*
G01*
X175075000Y-106775000D02*
X175075000Y-106575000D01*
G75*
G02*
X175175000Y-106475000I100000J0D01*
G01*
X176600000Y-106475000D01*
G75*
G02*
X176700000Y-106575000I0J-100000D01*
G01*
X176700000Y-106775000D01*
G75*
G02*
X176600000Y-106875000I-100000J0D01*
G01*
X175175000Y-106875000D01*
G75*
G02*
X175075000Y-106775000I0J100000D01*
G01*
G37*
G36*
G01*
X175075000Y-106125000D02*
X175075000Y-105925000D01*
G75*
G02*
X175175000Y-105825000I100000J0D01*
G01*
X176600000Y-105825000D01*
G75*
G02*
X176700000Y-105925000I0J-100000D01*
G01*
X176700000Y-106125000D01*
G75*
G02*
X176600000Y-106225000I-100000J0D01*
G01*
X175175000Y-106225000D01*
G75*
G02*
X175075000Y-106125000I0J100000D01*
G01*
G37*
%TD*%
%TO.C,U7*%
G36*
G01*
X175075000Y-99125000D02*
X175075000Y-98925000D01*
G75*
G02*
X175175000Y-98825000I100000J0D01*
G01*
X176600000Y-98825000D01*
G75*
G02*
X176700000Y-98925000I0J-100000D01*
G01*
X176700000Y-99125000D01*
G75*
G02*
X176600000Y-99225000I-100000J0D01*
G01*
X175175000Y-99225000D01*
G75*
G02*
X175075000Y-99125000I0J100000D01*
G01*
G37*
G36*
G01*
X175075000Y-99775000D02*
X175075000Y-99575000D01*
G75*
G02*
X175175000Y-99475000I100000J0D01*
G01*
X176600000Y-99475000D01*
G75*
G02*
X176700000Y-99575000I0J-100000D01*
G01*
X176700000Y-99775000D01*
G75*
G02*
X176600000Y-99875000I-100000J0D01*
G01*
X175175000Y-99875000D01*
G75*
G02*
X175075000Y-99775000I0J100000D01*
G01*
G37*
G36*
G01*
X175075000Y-100425000D02*
X175075000Y-100225000D01*
G75*
G02*
X175175000Y-100125000I100000J0D01*
G01*
X176600000Y-100125000D01*
G75*
G02*
X176700000Y-100225000I0J-100000D01*
G01*
X176700000Y-100425000D01*
G75*
G02*
X176600000Y-100525000I-100000J0D01*
G01*
X175175000Y-100525000D01*
G75*
G02*
X175075000Y-100425000I0J100000D01*
G01*
G37*
G36*
G01*
X175075000Y-101075000D02*
X175075000Y-100875000D01*
G75*
G02*
X175175000Y-100775000I100000J0D01*
G01*
X176600000Y-100775000D01*
G75*
G02*
X176700000Y-100875000I0J-100000D01*
G01*
X176700000Y-101075000D01*
G75*
G02*
X176600000Y-101175000I-100000J0D01*
G01*
X175175000Y-101175000D01*
G75*
G02*
X175075000Y-101075000I0J100000D01*
G01*
G37*
G36*
G01*
X179300000Y-101075000D02*
X179300000Y-100875000D01*
G75*
G02*
X179400000Y-100775000I100000J0D01*
G01*
X180825000Y-100775000D01*
G75*
G02*
X180925000Y-100875000I0J-100000D01*
G01*
X180925000Y-101075000D01*
G75*
G02*
X180825000Y-101175000I-100000J0D01*
G01*
X179400000Y-101175000D01*
G75*
G02*
X179300000Y-101075000I0J100000D01*
G01*
G37*
G36*
G01*
X179300000Y-100425000D02*
X179300000Y-100225000D01*
G75*
G02*
X179400000Y-100125000I100000J0D01*
G01*
X180825000Y-100125000D01*
G75*
G02*
X180925000Y-100225000I0J-100000D01*
G01*
X180925000Y-100425000D01*
G75*
G02*
X180825000Y-100525000I-100000J0D01*
G01*
X179400000Y-100525000D01*
G75*
G02*
X179300000Y-100425000I0J100000D01*
G01*
G37*
G36*
G01*
X179300000Y-99775000D02*
X179300000Y-99575000D01*
G75*
G02*
X179400000Y-99475000I100000J0D01*
G01*
X180825000Y-99475000D01*
G75*
G02*
X180925000Y-99575000I0J-100000D01*
G01*
X180925000Y-99775000D01*
G75*
G02*
X180825000Y-99875000I-100000J0D01*
G01*
X179400000Y-99875000D01*
G75*
G02*
X179300000Y-99775000I0J100000D01*
G01*
G37*
G36*
G01*
X179300000Y-99125000D02*
X179300000Y-98925000D01*
G75*
G02*
X179400000Y-98825000I100000J0D01*
G01*
X180825000Y-98825000D01*
G75*
G02*
X180925000Y-98925000I0J-100000D01*
G01*
X180925000Y-99125000D01*
G75*
G02*
X180825000Y-99225000I-100000J0D01*
G01*
X179400000Y-99225000D01*
G75*
G02*
X179300000Y-99125000I0J100000D01*
G01*
G37*
%TD*%
%TO.C,IC1*%
G36*
G01*
X174975000Y-92125000D02*
X174975000Y-91925000D01*
G75*
G02*
X175075000Y-91825000I100000J0D01*
G01*
X176500000Y-91825000D01*
G75*
G02*
X176600000Y-91925000I0J-100000D01*
G01*
X176600000Y-92125000D01*
G75*
G02*
X176500000Y-92225000I-100000J0D01*
G01*
X175075000Y-92225000D01*
G75*
G02*
X174975000Y-92125000I0J100000D01*
G01*
G37*
G36*
G01*
X174975000Y-92775000D02*
X174975000Y-92575000D01*
G75*
G02*
X175075000Y-92475000I100000J0D01*
G01*
X176500000Y-92475000D01*
G75*
G02*
X176600000Y-92575000I0J-100000D01*
G01*
X176600000Y-92775000D01*
G75*
G02*
X176500000Y-92875000I-100000J0D01*
G01*
X175075000Y-92875000D01*
G75*
G02*
X174975000Y-92775000I0J100000D01*
G01*
G37*
G36*
G01*
X174975000Y-93425000D02*
X174975000Y-93225000D01*
G75*
G02*
X175075000Y-93125000I100000J0D01*
G01*
X176500000Y-93125000D01*
G75*
G02*
X176600000Y-93225000I0J-100000D01*
G01*
X176600000Y-93425000D01*
G75*
G02*
X176500000Y-93525000I-100000J0D01*
G01*
X175075000Y-93525000D01*
G75*
G02*
X174975000Y-93425000I0J100000D01*
G01*
G37*
G36*
G01*
X174975000Y-94075000D02*
X174975000Y-93875000D01*
G75*
G02*
X175075000Y-93775000I100000J0D01*
G01*
X176500000Y-93775000D01*
G75*
G02*
X176600000Y-93875000I0J-100000D01*
G01*
X176600000Y-94075000D01*
G75*
G02*
X176500000Y-94175000I-100000J0D01*
G01*
X175075000Y-94175000D01*
G75*
G02*
X174975000Y-94075000I0J100000D01*
G01*
G37*
G36*
G01*
X179200000Y-94075000D02*
X179200000Y-93875000D01*
G75*
G02*
X179300000Y-93775000I100000J0D01*
G01*
X180725000Y-93775000D01*
G75*
G02*
X180825000Y-93875000I0J-100000D01*
G01*
X180825000Y-94075000D01*
G75*
G02*
X180725000Y-94175000I-100000J0D01*
G01*
X179300000Y-94175000D01*
G75*
G02*
X179200000Y-94075000I0J100000D01*
G01*
G37*
G36*
G01*
X179200000Y-93425000D02*
X179200000Y-93225000D01*
G75*
G02*
X179300000Y-93125000I100000J0D01*
G01*
X180725000Y-93125000D01*
G75*
G02*
X180825000Y-93225000I0J-100000D01*
G01*
X180825000Y-93425000D01*
G75*
G02*
X180725000Y-93525000I-100000J0D01*
G01*
X179300000Y-93525000D01*
G75*
G02*
X179200000Y-93425000I0J100000D01*
G01*
G37*
G36*
G01*
X179200000Y-92775000D02*
X179200000Y-92575000D01*
G75*
G02*
X179300000Y-92475000I100000J0D01*
G01*
X180725000Y-92475000D01*
G75*
G02*
X180825000Y-92575000I0J-100000D01*
G01*
X180825000Y-92775000D01*
G75*
G02*
X180725000Y-92875000I-100000J0D01*
G01*
X179300000Y-92875000D01*
G75*
G02*
X179200000Y-92775000I0J100000D01*
G01*
G37*
G36*
G01*
X179200000Y-92125000D02*
X179200000Y-91925000D01*
G75*
G02*
X179300000Y-91825000I100000J0D01*
G01*
X180725000Y-91825000D01*
G75*
G02*
X180825000Y-91925000I0J-100000D01*
G01*
X180825000Y-92125000D01*
G75*
G02*
X180725000Y-92225000I-100000J0D01*
G01*
X179300000Y-92225000D01*
G75*
G02*
X179200000Y-92125000I0J100000D01*
G01*
G37*
%TD*%
%TO.C,C10*%
G36*
G01*
X179225000Y-90250000D02*
X179225000Y-90750000D01*
G75*
G02*
X179000000Y-90975000I-225000J0D01*
G01*
X178550000Y-90975000D01*
G75*
G02*
X178325000Y-90750000I0J225000D01*
G01*
X178325000Y-90250000D01*
G75*
G02*
X178550000Y-90025000I225000J0D01*
G01*
X179000000Y-90025000D01*
G75*
G02*
X179225000Y-90250000I0J-225000D01*
G01*
G37*
G36*
G01*
X177675000Y-90250000D02*
X177675000Y-90750000D01*
G75*
G02*
X177450000Y-90975000I-225000J0D01*
G01*
X177000000Y-90975000D01*
G75*
G02*
X176775000Y-90750000I0J225000D01*
G01*
X176775000Y-90250000D01*
G75*
G02*
X177000000Y-90025000I225000J0D01*
G01*
X177450000Y-90025000D01*
G75*
G02*
X177675000Y-90250000I0J-225000D01*
G01*
G37*
%TD*%
%TO.C,C11*%
G36*
G01*
X157525000Y-107620000D02*
X157525000Y-108120000D01*
G75*
G02*
X157300000Y-108345000I-225000J0D01*
G01*
X156850000Y-108345000D01*
G75*
G02*
X156625000Y-108120000I0J225000D01*
G01*
X156625000Y-107620000D01*
G75*
G02*
X156850000Y-107395000I225000J0D01*
G01*
X157300000Y-107395000D01*
G75*
G02*
X157525000Y-107620000I0J-225000D01*
G01*
G37*
G36*
G01*
X155975000Y-107620000D02*
X155975000Y-108120000D01*
G75*
G02*
X155750000Y-108345000I-225000J0D01*
G01*
X155300000Y-108345000D01*
G75*
G02*
X155075000Y-108120000I0J225000D01*
G01*
X155075000Y-107620000D01*
G75*
G02*
X155300000Y-107395000I225000J0D01*
G01*
X155750000Y-107395000D01*
G75*
G02*
X155975000Y-107620000I0J-225000D01*
G01*
G37*
%TD*%
D14*
%TO.C,U8*%
X155015001Y-112270000D03*
X156285001Y-112270000D03*
X157585001Y-112240000D03*
X157555001Y-109670000D03*
X156285001Y-109670000D03*
X155015001Y-109670000D03*
%TD*%
%TO.C,R17*%
G36*
G01*
X149725000Y-111035000D02*
X150275000Y-111035000D01*
G75*
G02*
X150475000Y-111235000I0J-200000D01*
G01*
X150475000Y-111635000D01*
G75*
G02*
X150275000Y-111835000I-200000J0D01*
G01*
X149725000Y-111835000D01*
G75*
G02*
X149525000Y-111635000I0J200000D01*
G01*
X149525000Y-111235000D01*
G75*
G02*
X149725000Y-111035000I200000J0D01*
G01*
G37*
G36*
G01*
X149725000Y-112685000D02*
X150275000Y-112685000D01*
G75*
G02*
X150475000Y-112885000I0J-200000D01*
G01*
X150475000Y-113285000D01*
G75*
G02*
X150275000Y-113485000I-200000J0D01*
G01*
X149725000Y-113485000D01*
G75*
G02*
X149525000Y-113285000I0J200000D01*
G01*
X149525000Y-112885000D01*
G75*
G02*
X149725000Y-112685000I200000J0D01*
G01*
G37*
%TD*%
M02*
