M48
; DRILL file {KiCad 5.1.9-73d0e3b20d~88~ubuntu20.04.1} date Sat Jun  5 19:42:02 2021
; FORMAT={-:-/ absolute / inch / decimal}
; #@! TF.CreationDate,2021-06-05T19:42:02+02:00
; #@! TF.GenerationSoftware,Kicad,Pcbnew,5.1.9-73d0e3b20d~88~ubuntu20.04.1
; #@! TF.FileFunction,Plated,1,4,PTH
FMAT,2
INCH
T1C0.0157
T2C0.0335
T3C0.0354
T4C0.0394
T5C0.0453
T6C0.0591
%
G90
G05
T1
X5.8724Y-4.2209
X5.9055Y-4.353
X6.0898Y-4.2469
X6.2043Y-4.4685
X6.2173Y-4.2469
X6.387Y-4.5872
X6.3898Y-3.2657
X6.4362Y-3.3854
X6.4374Y-3.324
X6.4437Y-4.7563
X6.4697Y-3.1386
X6.4776Y-4.572
X6.4783Y-4.3654
X6.5197Y-4.3319
X6.5346Y-3.1067
X6.5665Y-3.324
X6.572Y-4.7567
X6.6587Y-4.3921
X6.6976Y-4.5874
X6.7343Y-3.0886
X6.7972Y-4.0374
X6.8528Y-3.8476
X6.8528Y-4.122
X6.885Y-4.3118
X6.8854Y-4.1134
X6.9043Y-3.2728
X6.9689Y-3.6988
X6.9776Y-3.5972
X7.0717Y-3.563
X7.0866Y-3.7232
X7.248Y-3.8504
X7.248Y-4.0236
X7.248Y-4.1264
X7.248Y-4.3
X7.2563Y-4.1835
X7.3307Y-4.5551
X7.3929Y-3.2896
X7.3933Y-3.4177
X7.3945Y-4.5661
X7.6803Y-3.7795
X7.6839Y-3.8976
X7.6843Y-3.8386
X7.6843Y-3.9567
X7.6843Y-4.0744
T2
X7.5764Y-3.2055
X7.5764Y-3.3055
X7.5764Y-3.4055
X7.5783Y-4.4669
X7.5783Y-4.5669
X7.5783Y-4.6669
T4
X5.5055Y-3.137
X5.5055Y-3.237
X5.5055Y-3.337
X5.5055Y-3.7402
X5.5055Y-4.1339
X5.5055Y-4.3067
X5.5055Y-4.4067
X5.5055Y-4.537
X5.5055Y-4.637
X5.5055Y-4.737
X5.6055Y-3.137
X5.6055Y-3.237
X5.6055Y-3.337
X5.6055Y-3.7402
X5.6055Y-4.1339
X5.6055Y-4.3067
X5.6055Y-4.4067
X5.6055Y-4.537
X5.6055Y-4.637
X5.6055Y-4.737
X5.7055Y-3.137
X5.7055Y-3.237
X5.7055Y-3.337
X5.7055Y-3.7402
X5.7055Y-4.1339
X5.7055Y-4.3067
X5.7055Y-4.4067
X5.7055Y-4.537
X5.7055Y-4.637
X5.7055Y-4.737
X5.8055Y-3.137
X5.8055Y-3.237
X5.8055Y-3.337
X5.8055Y-3.7402
X5.8055Y-4.1339
X5.8055Y-4.537
X5.8055Y-4.637
X5.8055Y-4.737
X5.9055Y-3.137
X5.9055Y-3.237
X5.9055Y-3.337
X5.9055Y-3.7402
X5.9055Y-4.1339
X5.9055Y-4.537
X5.9055Y-4.637
X5.9055Y-4.737
X6.0055Y-3.137
X6.0055Y-3.237
X6.0055Y-3.337
X6.0055Y-3.7402
X6.0055Y-4.1339
X6.0055Y-4.537
X6.0055Y-4.637
X6.0055Y-4.737
X6.1055Y-3.137
X6.1055Y-3.237
X6.1055Y-3.337
X6.1055Y-3.7402
X6.1055Y-4.1339
X6.1055Y-4.537
X6.1055Y-4.637
X6.1055Y-4.737
X6.2055Y-3.137
X6.2055Y-3.237
X6.2055Y-3.337
X6.2055Y-3.7402
X6.2055Y-4.1339
X6.2055Y-4.537
X6.2055Y-4.637
X6.2055Y-4.737
X6.3055Y-3.137
X6.3055Y-3.237
X6.3055Y-3.337
X6.3055Y-3.7402
X6.3055Y-4.1339
X6.3055Y-4.537
X6.3055Y-4.637
X6.3055Y-4.737
X6.4055Y-3.7402
X6.4055Y-4.1339
T5
X7.6799Y-3.2055
X7.6799Y-3.4055
X7.6815Y-4.4669
X7.6815Y-4.6669
T6
X7.0079Y-3.3071
X7.0079Y-4.5669
T3
G00X7.6079Y-3.6516
M15
G01X7.6709Y-3.6516
M16
G05
G00X7.6079Y-4.2224
M15
G01X7.6709Y-4.2224
M16
G05
G00X7.8583Y-3.6516
M15
G01X7.8898Y-3.6516
M16
G05
G00X7.8583Y-4.2224
M15
G01X7.8898Y-4.2224
M16
G05
T6
G00X6.7913Y-3.2815
M15
G01X6.7913Y-3.3327
M16
G05
G00X6.7913Y-4.5925
M15
G01X6.7913Y-4.5413
M16
G05
G00X6.9823Y-3.0906
M15
G01X7.0335Y-3.0906
M16
G05
G00X7.0335Y-4.7835
M15
G01X6.9823Y-4.7835
M16
G05
G00X7.2244Y-3.2815
M15
G01X7.2244Y-3.3327
M16
G05
G00X7.2244Y-4.5925
M15
G01X7.2244Y-4.5413
M16
G05
T0
M30
